<mxfile host="drawio-plugin" modified="2024-01-27T09:50:02.344Z" agent="5.0 (Windows NT 6.2; Win64; x64) AppleWebKit/537.36 (KHTML, like Gecko) Chrome/104.0.5112.102 Safari/537.36" version="20.5.3" etag="MXPe3jh3RE9uLbR-zHli" type="embed"><diagram id="J0twL7Ue14MyS0riKVT7" name="Page-1"><mxGraphModel dx="640" dy="563" grid="0" gridSize="10" guides="1" tooltips="1" connect="1" arrows="1" fold="1" page="0" pageScale="1" pageWidth="850" pageHeight="1100" math="0" shadow="0"><root><mxCell id="0"/><mxCell id="1" parent="0"/><mxCell id="2" value="" style="shape=image;verticalLabelPosition=bottom;labelBackgroundColor=default;verticalAlign=top;aspect=fixed;imageAspect=0;image=data:image/png,iVBORw0KGgoAAAANSUhEUgAAAggAAAGOCAYAAADy/fs7AAAAAXNSR0IArs4c6QAAIABJREFUeF7snQe4FdXV/n97Tznn3AYXRIqABbEX7D1GjbF8Niyxa4qaZjQmpnwmxvilGVOM6cX0RKPYRaOxG3vB2EAEQSnSy63nnJnZe/+fteeCXCSS/LkoCTM+PMK958zseffMXu9e5V3KOecojgKBAoECgQKBAoECgQKBFRBQBUEonocCgQKBAoECgQKBAoGVESgIQvFMFAgUCBQIFAgUCBQIvAWBgiAUD0WBQIFAgUCBQIFAgUBBEIpnoECgQKBAoECgQKBAYPUIFB6E1WNUfKJAoECgQKBAoEBgvUOgIAjr3ZQXN1wgUCBQIFAgUCCwegQKgrB6jIpPFAgUCBQIFAgUCKx3CBQEYb2b8uKGCwQKBAoECgQKBFaPQEEQVo9R8YkCgQKBAoECgQKB9Q6BgiCsd1Ne3HCBQIFAgUCBQIHA6hEoCMLqMSo+USBQIFAgUCBQILDeIVAQhPVuyosbLhAoECgQKBAoEFg9AgVBWD1GxScKBAoECgQKBAoE1jsECoKw3k15ccMFAgUCBQIFAgUCq0egIAirx6j4RIFAgUCBQIFAgcB6h0BBENa7KS9uuECgQKBAoECgQGD1CBQEYfUYFZ8oECgQKBAoECgQWO8QKAjCejflxQ0XCBQIFAgUCBQIrB6BgiCsHqPiEwUCBQIFAgUCBQLrHQIFQVjvpry44QKBAoECgQKBAoHVI1AQhNVjVHyiQKBAoECgQKBAYL1DoCAI692UFzdcIFAgUCBQIFAgsHoECoKweoyKTxQIFAj81yLgAOXvTv4mR/6vFY6eXzjlen73lk/8V6GzDIdlN/Xm3bocJLW27v/NuVg2H2vrSm+dYJXPv5Pb6/1MvDNjWDcfoYIgrJvzUoyqQKBAoI8QkOW+t+lZdmILToy+9r/PFOgegiA2wn9P/mId2mkybdHKERD20cjWzdMsw0tGZ3EIQqHL8n+pAIX86dtDruIwyAzIfCjnyLBo/5/CKYPyV5UZ6uPDpVgV5VeXuVYpqBDXMw48MVwL1+3j21gbpysIwtpAtThngUCBwLuOgJgcvyPMt4Vvugh6Rma8lXtz6XdYlOsxfSo3jsoobJDinEK50FMJrf+LjYWzngjkXoJ8V62Mwym58xxDpR2qr70IPYQsv4RFYVBisZXDaRlH5OlBXxMTeQI8MXBCQHIaKVfPryR/cuoSqP/iOX+bN7UgCO/6MlYMoECgQKCvEfAegZ79piztzuUkYUX3+TKD4JyYBIXuIRHWuw8MusdYYTW4UCylWBLZT/f1cNeZ8/XyHticCFiVeXKgbYYmQ+syEPTpmOW6ZsUgj/AUwV8IAobIiddCrR2G4J8Nh7GKTCu0qRM48RbJPQb5NXXf3m+fgrcWT1YQhLUIbnHqAoECgXcLAYczKZg03xk6I1vf3ntQayEIcVGcG4Ie74HxYQQDtRosmY6tzyOo9CfbYBtsUCb+L3Y3i9dEds3aZJDWvDfBJgkqq0O5H2lDi6cGfW8uHc5mkNVQNsmvbaq4uD+UB4hPg0AY29rwIViD1QHKJKjqfKxc22kIGnANAzBRjDwh6+NREIT1cdaLey4Q+K9HwOFmP0f92avAtYOVnbDDqjKhrWFURECK1i3QbwQM24Fww72goR9OGx/9DqbcS3b/J6mnVeLKUPSeXyLc9ggfg3+7w2YZLtAoq1AqxakQaxVhkIGNyHQ3IQ3r5Az4jAPnMHOeInvmF2AyVLKYLDWEYz5CvO0x4nDvyQfow1twDrtgMtnTP8Akbbi0jsnqlLf/BOG2h3nvT56DsKaHwRCgrcn5oNMYWyd84wWSaeNw86cRdiwgCR1RNBDXuhHh5keQjtybsFRCuZL3okiOwlo/hNeqDGsCAp1hxIHV/gpZ67aEkpPhAv/7tenRKgjCWp/l4gIFAgUC7zQCPpQw9QGSe87D2YU4G1HSDmNqdJXLBCZAqZCAdrQx1KOIpqZ9ce+/HAYM9XFnfd93Uc9dhQrFmFiqO3yahv0vAKK3vZ1OUhrTBaSvPoZdtJBo461Rg/clCyEmAUprsRJgzZD2BEFc7dPGk911LhJ+QUtuRkSw79cIdzzNX6AvTHWvkUpS4qzHcX/9EFnS6UMbEtYo7/Nd3JgPoGUcfZEH4CxGaXRWJdOlPPny2WtRT3yLalQnGrE/dtB+xCiS+Y/T/erD9NMJ2a6fItrpkyQRBGptpGm+dd7kGU7pQruYoFrDPflDOue9RPNRP8aWGz1ZUTI3a9GjVRCENXufim8XCBQIrIMIrIogZDohYDDlk29C1S31V24km/QjGrqbqEbd6CDDjjyM0sFXEuoK9Zf/QvroJags8WkIwV6XUNnhdE8s3u5w7e1U7zodu+BZytbQ3dBM436/wm6+O6GLxGlPoN+BHej/x7z89xMEcSaJlyQhE6L32kPUH/wMqmMupX2+h9vueNIYSpkkK6Yw6wk6//YRGoKBRP/zW+pDRhHbMsE7kbNoIZnxOOEr42mfO56gq5Nyy0iC424kK7UQ+Yey8CD8fzzmxVcKBAoE1mcEVkUQlCtTTjtJPzMVZytE1tH2wCdonHoz1pVwyRJ0NAR32HeINjmIrO6IJv2Vru4JVJrfj95sP2oNdSq68W2hTV5/EH3nCaSuiayuqAQZ1Z3PoXGvz/uqiCTUiKN6XTzWB4IgOSZKPBLVTqp3X0D0+kNEDSHmmHEEzZtCqQSZoUaJSCXYCTeRPfU5gl0uRO/2cSKJTQRv70Xqk7ntWkD7+NNpWPAi1oYoZcgGbEVwwi2ouEKUKVwo1Rd9nxGybPyFB6FPZrI4SYFAgcC6hMCqCIIJoDHpJvvUfELJzncZbtrf4K+fIAkMYVrBhBnRmI/gdv8cQRD6rPYwl0tAmfnU48GUM3CBuHYtNRUiFfRB6nBpG1o3UJ9xB/Fdn6O+5XFE9flUuw3l/T8PQ7ZGmxCCmmQ44KykvqWopBtjugnK/UiCBiJrvcdCcgEk3u9L8JT1+QsukBAA2LqETUoEOoZYRiLu5p74upK9ryb2dRwWqUGIXOT1HJyuoUyZehgQSUFh92LCMCKLmsmUouTq3nXdK8QglQROE77na+gdjsfTGwmIVztxQQUVl0k0xKInoCX3IgQnyaERTku8HpKkmzipoqKYLO6PlJhqJ/oKFqMdgVWY2U/0DjEoRXnvN0MMRqpNVIA2NWwoY7Bk1cWEcRmEjIWQBYqyMbggzPHzuQsrHE70Lupocc8vfJXqbSdAOoty0kp69NWo4Tv5Cs/AWpQkRaoadvaruJuOJBl2INFRvyQIUrSKfWVL6rUznM9poNqODUDrGBc1YJVGZRmEMhaZCwlrgcosJgz895Qkz9YNtVj558pkHeg4IgsaCaptdN7+McoLHyCxZU9MVL+NUSf+jTCIULpKpprWak1NQRDWpVWtGEuBQIFAnyCwSg+CWIrAUvroTF/WJrvIZM5z2FtOIqNKKRX3syHb4jTKB1xKNukGgqWzUPVFdNQWEKUp5WN+5Y2L6AIkDkoLJuD+cQe1RX9DJQtRuoEw7STQjSTv/TZu4z0o1dsgHppXTCDhCo2q1TGLniF8/HI62xZDqAmCVsLtxhKNOoy0YUMCZwikvM5KcqUiqy9BzbgbN+kukraJVFQXVVqI+29DMPoEghF7kjT2J84caZgSSSHA87eStk8kqM7EJjMJ++0P7z0fPecl7MQ/oeY8RqpS9JBDCff4JFnLRsRyreU5CEIqoOQg3evrxDseDy/fTcfka6l0PkNiB1Ea+R7cbucSVzbEBHk5ZCL5AvWlBK8+TPry9QSdL2DTVlSpi7hxG+zWx6A2PQAXN3qXv9AVO3ulHASlKe11Oex0Yp6DkDnaQkNDx1Lcy9diX7gBFyQo1YUbciBsdQzhRu9B6wSlIzAOFfgC1jefKU8QEqwNCOb8g9r4U7FZnZKr4jYfS7zn58iaNpGSCZyxhArS+c/C7R/BbbIHwf7fRQfNvuJCQlK6u51s2p3UX7mVcPEbGJ1QDhT1gbsQb/M+GHqwJ0VJWKEkhKV7AdmkG+m2jpYF0+jqfpaGrT9DOmRjSg/+L/WO+bjBuxJtfSrZrAdg8p/Q9S6sJ3eOMN6AYJvjcaXBsMNJ6KARX425lo6CIKwlYIvTFggUCLx7CPwrBMHKjuyNJ6je+iEC14WWXaPKyEafRnjA/6FvPJXqoqeIkpCgqYukPJqGDzxCd9hFgy2TTR1P1yPfppTMoeYCysN2oho2ks2ZQL/qXMKGIbgdPk+y01GUg2aMkhr7lCQMCR+/jO6nfkYQNaCaNqRh2IF0T72ZRM2lcdjBuAO+j6psQOSqpFQIFk2nft8nCN+YQlBS1Fs2w+1wPuE/vkq2dBFZ7CgNP5R436+jmpvAxBg3i/bxp1Ka9wah60CpMow6jdqWRxLf9RmMfY26jMU2Uk7r6C2OwR70PaIVCAKya3fWk4R492/h1FI6J1xJJU1RaSPoOpaFZLteTHn3CwkUmCDDLHgN+9AlxHNuox5sQKw3INn5LMIXf0+99hrGaUpDD4ODv0y5cbh49GHOSh4EFKW9v7OcIBjRYJgzjeSBM3ALFuFaDG7YiSgxqrMfpFxugD2+SbL9wZ7kCIkLpECxlwvBYpwkQHah575KevuJkHZTdyHlrEZtw90p734W4dC9SMoDKbkEV01xWQ1XKRGEMVaHZFYRLJxE/f7/hbnPUIpiTMtoou2OI336N7jaHCIbUtvmeBr2+yIu6IcOLMyZSu3OE7D1xegsJiuHhLucj57yNzoWTKRR8HSWaPB7sW3TCLqnkrkNcHEb1miIQoJ4EDRugjnmpzQGA9aqRkNBEN69Nay4coFAgcBaQuBfIQhS5+ZevYHavV/yu/5EhT5sEG//UYK9LqR+24fRc+5Gp63ouEa1aTANpz3qlfeY/zzuVtl9LiQiploZRtP//AnTMAh3/UEknW04bQlNSHjIlTD6MK8QiGgvvHAj9slLCZMqiQ2xh1xKsOlYgrs/TjL1LoK4P8EO52D2/ASxhBCyTur3X4qZ/Auy0jDKSSfhgT9BjT6M2oSfo5/+DjZuJkq7YKvTMPt+Ga0rxMkS6reeTLRwGlXd5V3i0YDdQHURl7agu+0Roo7ZOEnIFBd4qT9Np9+Diocs9yCIC1zsWlfJ0TDo/XQtfoSmgbv7DP8g66JORKP4RTbYjvi421FBArWE9KFLsK9cRz2MKbsavPcqwi0Pwjz+A/RzP8CZBsKwg9r2F1La99MELiSb1ZsgSBCnvIwgSFli90KSO7+AnnuPl0ZWlUFEJ47HzX+V+n2nYeoK09RI08HXoAZv7eWZ5bwrp3sYI0miGXbJXOq3nkLUMYM0sD7kFMrnXZlg8A4w+n2w6fuhZXO88LNylJwilSqGpJvuO8+n8fVb6I76EUsI6vCrscO3wzz8PaIXfkU1jIkE8zEfht0u8JWRbv50zO2nkaRdxFkbzpSJWvqRbHgQYfUV7OwXcVE7auQpMOYczIOfJ1n8DxqjiExkPVqGow75DQ1RC7XWJmIa0X1R3fFP3sOCIKylBao4bYFAgcC7h8C/QhBkZ7z0wa8QvPQHKsbSFZYp6YDw4CvRmxyMue4E7MJnMGHqd/5R8zaoM+4CU8E+8DmyF66FOCQJIGoZSnzSw173oHbrxym/djP1qBmt6tSad6Dl5HGQNVOtzqV8zZ50EWLDTrRtpXns37CDRlJ/8gpKj/+BerwIVx5J+fhrMOEw3LyHSO76FE2ppmbnEjQNQx1+HQwaBbMeR9/xUTpSS6jrxKUWgiN/hx20HWGtSvetx6EXvYRRAZUsIw0t2bafoHH/z5I++B1qk39NQ3dC1hDijCM8/mHCDTbtHWJQEGuJMaS47c9F7fNpuu74ME2z/k4qJZFxmVJpBNGZ95KogGj23+m846M0JAtJXcXv5CtnTyeLLOr1+0juORtnQlzWTVDagPLJ4zFNQ3Ezn1plDoLd8QMom1J/4GuUJv2MzqgRbRUNww+Dw39E2j0XfcPpmLZXCKMAdjgfJ6RDdCi0JPG9WTGSN2QSPQqHSuu4uz9F9fV70U5i/HXqkfUEsGQkQ8CRtWxNw/Yfwow51lefSP4GgcG8fBvRA1+i3bbTZA1p0+Zw3HU0xBtQe+1e9AOfxSUdvsrANYwmOu4aVNMQzJJncTeeTdUspmzEM2MwrpvGM2ZSm/Rz4sd/SkfYRbj1hTTuegr1O85Bz33J50TUY4iaRpOcfCuVsMGTWWd1EWJ495aZ4soFAgUC/4kIrIogiKs5dgZ39stol5C8cge1R75BOVlKVmokrCUw+v2UD7gcE7fibj0Z88YTuRiNilHNQ1Cn/933I7C/O5CsezJKlYhMHTXsIDjmj74uPbv/YuIXrqcad5JJtUQcUTryVvSGo6k+/2tKD11GJsI3gSXIunHnziQyKfVJt1N68DyqQUhIP/QRv4Che6Ef/hbJxN8QpDE26EY1DiU67jY/HrtgBtkdJ5J1LiXUVR931wd+H7Y5FlvtRN1yItmSF32euzaaVJIqz3iYsLk/2WM/pf7cFcRWe6MoCtPhyfcRtm6+AkHImyS5IEBVBhCe8AhBY0w67njs/GfznTUhcdPGhKff45MP3QOXYif+mcwpgihFlUYRnHkvoVNk7VPguiNJ0yqO0OdZxHt/lmyn81CzHltJByGgvO83yXY8Ad22GH3ryXR1TgLbQECNcPfLCXY6EVVbStftZxAtnoS1hnDkgYSH/gqlNVnQu7WWfy5MitMhxqbwxkuesJjuJZRUDa0iSXXwypt+Y24DdNQPt/05qF3PIFAhOqtTf+Sb6Em30BUuoTktkw0cRXj0dQQNA7HzXsbdfgZpbRaosq8yiA/5FWqzA3ALJ5Hdeia1bAGlVOScLdVNTqTpoK9gbzkHs/BFwmwp5pAfokfsj7vtdMyiib4PiFV1gpYt0SfeQhg1+pBV0CMhvrbe0cKDsLaQLc5bIFAg8K4hsCqCYCOF6i4RbbQlWX0euvMNbyQimjFhQtT6XszBF2NaN6fkUtJrT0YtnIBVqScCqnlDwtP+7uPn+qptSexCVFrxVQxuxPtIjvwdJYm/338JatLvyGyIFgKhOsmOvZ9oyGhqt3+U6NU7sZHEtcX9PZD448+SaoWdeAPBvR9FuYFYOtHv/TbBVsdg/no+ZubfULaMC+rQtBHx8bdCwyBU23yS8SeQLp1PRIfvPmG3+wTh/p9DVTsxt5zcQxCk+iHCDdiW6KQbkW2neeyH1J/73goEQRGeci9h/zcJguQgSD/FlBrxJmNJj/gxFRE1uv4EzPzncKS+qVXcvDnhyfejXAddt55Fae5jXmdA8hHC/juhT77JGzPXMQc1bizdtYVEYoAzgxm6E5Vjb8DM7u1BkCqAyt4/wO5wFMx+huSuczD1uUQydhcR7fMt3JiTCGpLqd9+DqWZj5BGCteyNaXjrkeXmjBB0Kv3pEg2O2sJlPHqllI6WH3pBoKHL/YVJXUjYlZSgSH9N0QVSXIjDSUXo997OWrLI8jqnaR/PZto/jNUVZWKrWAGbUk89nqceI2WvkZy8ynYrlfRniBY9M4XEez58R6C8EFq2Xyi1GJiQ7TnZcSbH071oS+SkRLpmHC381GlobhbTsEsnvQ2BKGPBKSKEMO7tlYVFy4QKBB4hxFYdZljQlhvRrduLB5moqyOHTyKrGkg5SEHkG68G0FpoO8eKCYxvfEsmPMIrhdBeAQjzYtu+xR2xt0oW/e6gqZ1O0qn3uoT+uxdF5NN+0veAVI6QZZHUD7lLqyOya45FN31GsZon5kvngu156eIM42b9zx25nVk9YEEYTvhNp9F7XY66Q0nodqnosQQBTVc03DKHxjvcwZUdxvJLceTLplN5NowKiYc/F70cb9G1zpIbz6lN0HY5AiCw3+A0gH20StInvsukfWdJ3wny1URBN+wiTrhjhdS3/c8GiVf4PrjlhMEsaWqshnlMx7EdM3B3X4mLHzRjyVVhnjDfdHHX+Mlil3nYvS4Y+mozSKWXhk6wgaNNHzoKbJ5z70lxBDv8VPUTofBxBuoPXoRKqmjgwRnKrD18cT9RmGEvkwaR7x4FoQJRrcQn3YfYeMgnFSMrJCEIBtuaQAlQklIOaeGMO0infEQ2ZM/IV44wVdgBFJO6aSnpPRpsIQ2pt46mqajriaznaTjjiVM5pNZ6fQYYQdtQ+nYcTgpT+x6g9oNJ6G7Xsa5Bl/y6TY5ntL//KA3QRBvT2YpHfh/mK1Pw0ovCjQRCZluJOheTDb+tIIgvMNrR3G5AoECgf9yBFbpQQg05SxDffCZfKctmexRf0xcyuvitenpdCz17Q5uPAPmPOy7GS7zIOjTH/ULfjr9UUp/+yR1u8RnxZfDVtTxN6Gbh1G//ljCpa+Quoy60jTscRFql7MJuhaSjfsfsuob/joilmSz1OsIkChPPGzFoGoWFyjiTT+K2/9szLWH46qLiEwDaVDDNA6jfOJfUaUWVK2L2k1jMYtneg9CXZdoat4Ke9rtBPU20ptWIAgiBLHVGXDglwiCEubR75M+/30i888Jgo/IO9lxa/Te30b7ksOA7PqxywmCLyRs3Izgg/dh22fhbv0wdunLQIjRhnjwfgRjr0bpBNO+FDXuKLrT2ZSMIdEhTaoV+6G/Y+e/1IsgKDHke/8SveNBqKf+RPr0pSgTk0YdxKmmQzfRKGELnRCHXWRJ2VcsBFLe+KHHfK6GJPD1UkKwYKSUVUmeQYAV9cxUemPE2M4FZFPGk029EbP0NcqqihEjHpQxzqHCjPCQ6zAtg+DaQ8moEUguhYQjBm1PNPYaVNSE7pxD940nUa5Opp5JGadBDTmAyrG/600QssR3EDX7/5DKlkfRHYRUpGrESm5CCNUlmFsLD8J/+VJV3F6BQIHAO43AKpMUxVQECfHHZveUvslO0isS9XQXEGe5iAIFvqehueFUmPtoL4IQnfQAVWICtYTg2evh+Z+SVucR24DujfYgrmyMfX085ayDetCf+vZn0G/3s6nFAwmri0ivOZhSuoAkVWSBo8HFJGfcT2Sl9C4h1WXKRnQExMNRxpQ16s8H0c1iwu4GiLspNQ6HE8dD3IruSqiPP5ywfRouyUWRwg13JztxHOXaEtKbTl/uQUBCHlseR3jQd0TNh+yx75H84wov2fvPPAi9ezF8nXDHU3Nsxr1JELIwoyHYheyscYRtC6iP/zDZkulESnbelmzoHkTHX0doDUn3Ysx1RxJU3yCT3hiENIcV7OmPYRdM7EUQrFSV7PMtwu3Hop8ah3n2S6SSlGekH0IVtds3iLY+FOWbJ2mstIQWvQARdmocTBJIemJI1KvMMRVfCLHoKsx/FTXhxySdi4iP+wXWlX3vCZ12YV66iY7nLqNcT4mt7Ohj6q6NhjGXYLY/CnXNUVjmkaUxgS0Tbrgx+rjxqFDjuquYcYdQq7YR2apADUP3Jj766l4EQfQqJBXS7v9dStuOzXt8+Gex5+heSuZDDG+Xg1CEGN7ptaW4XoFAgcB/OAL/UhXDKloOickS2R6xH+bGtxIEdfqjufqdfGrxbJJHLqU+/0migbsQpotBkg6DEumArSlvsj965AG4Utm7q23WSXL1IVQ75yI56CL5K65r/cnJ/veIB0G6TNY6cJ3zoGE4qVqKvf0C9NzHUBIKkFyJhhFoKe8rD0B3tpHcdixZ+8u+7t7YjGD08QQHf9d3RLQ3ntCbIGwxluh93wetSIUgPHsFkXQ0/CchhlU1a1qZIIhioW7ZmvD026Hejb31FGrzXyQUN71VMHRX3PHXEjtH0rUAd/1RuO45OYZCIPptScMpfyV7Y0LvEINV6Pdcid7xaPSz1+Ge+DJVkxAoKYBUxHt/HzXmBB/j94eEdDrnk7k6pjKCWIlgUuzvdfkhXSM9DVTYF6+h69FLqAzYleiEP/nOjmKfnapiU0X42sN0P/Z5VGebJEsQqgS93UW4XT6AHXcGtnMKmesiDBrQraPQx45Hl0LoaiMZdwS2U/JCxFthKW11BurAr69EECyBlNru/x2i7Y7Nqy1WHGp1CdnNBUH4D1+KiuEXCBQIrGsIrDWCcNrfieoJSXUe0fjzsIueINjzfNxuF2LTjHpQo5JWoFTBmio6KtMNVCSoIaVq140lW/p8LsokbZWp0PjRJyHoTyppfQpqC1+net+XaRh1OMEOx1O/73+Jp17vXf1GhbjG4cQn3ARNg31CXHbLB2nvnkSDKyHiT3rPL1PZ8VRqGeibjlvrBCE2IdWBG9F08kO+FNDc8QnSGbcSipiUBBpat0KdeofPuXDts0ivOxqTLfbehZKFtjGfoP8+XySb/WQvgiAEIt7rZ6Q7H0E07V6yuy8gTZdCLCJNFeIxn0Lv8xnJEuip0shIJtyMm/IHwiOuobulLCoBXtb6TYIgf6uRUCZ+4U/UHr4UhuyLPvY3fnyh5CtYS6oCAmswj34XN/G7GFshzAzqPT8k3Ppgqn87F/XaQwRhlcTERK1bEIy9CdXQiPYSzqdC+xziSHsRrcp+P0Btf1RBENa1haIYT4FAgcD6h8DaIwiPEkqZ251nYWaKYA+UR34Avd1RuC6H7ppDrfYKth4QxYpo0K7oodtg+o1AZ4rsiSsxz34HG0TExmDCRtThvyUavjeZ6CmYLszi1+CWk1FbfQi79/nYiddiHv4qyi5GS8+BhkFUjvkzrv9o7LwncbedT2cwnUp3jAub4fCrKI3YA1Nbirv5tLVOEKTnAs0bUT79777o0U68hfrDnyaqB9goIQwHEH7kKZTSpPMmEtx8CnW3RJIBUHI/p99CY/Pm2Dd6VzFICKJx959idzkCt3A6yfjTCLpn+1yNKIupDdmZ5mP+jI1K0g2BQFQqn/kR5qWrKB//d1xDq/c0iNzyssMnKdIFNsbNfpbsr2dhy4MonXo9BC15jwzquCxCtKrdU7+k/uSVOOs82YvG3oIetAnaQv/hAAAgAElEQVTpP/5I9sQ3fahCqhyi5k0Ixt4ITQNw0x8hu/dsuusZZepYUWQ8+nr0BpsXBGH9W4qKOy4QKBBYFxFwU+8nufdTZFmHNxQS742k1v1jc7yxWkWEASeKfRI0toraTWcQznmQTGkv9hM1bYg7/UHi+S/TfsuZ6GQ+TSaiKjUP5W4iyv57JWeoujqB/Nsl1PrvSNMenyHYbD+yOZOxd52AqdWIpOA+yqju9BX67X4WiQ6IXEb26v2kd36eYOyvCYfviOlYjL79HJLFosHQgg5jgiN+jR6yN9kr1+Hu+z+SyhJKXRF66M6Eh/3Sk4iw1k5288nU2l7ywj9WyjO3PIbooO95t7vPQXj2xz0hhoRAEuROeYSodVOyV8dj7vq4d977FhYS39/367gxp/nPmevHki14wTchyoKQUmUk0Rn3e4IQdC6i+45TUAunYVWNUCo2TnqQqHUEXZPvoOH+86liiHSAGrwb9eOup8HUcW88g/vrR8iSKk7EiAJH05grsLuOxWUp9u6PY2Y8jHbdaBvRHTXSdPzt6NaRvjlVmHTBbZ+gWimhD/sZJSV6B5VeQopSvSKtrELqpJ1LyW47CbN4Lg1H/hw3dB8Iy17LouocjYkhvf/zJLPGobrLxCN3xh36a1S5mXDBbGp3nolrn4miShANIjj6ehg0EjvhT5jHv0pSaiCQBMghe2GPuIo4akQtmEw2/lTSZLFv8CR/1P4/JNzuaJ/UKc2clh+1Dqq3nkK44B/+/uRXcdNo3AlXE9S7MS0bEUoyY68v9e2bWOgg9C2exdkKBAoE1gEEfJz81XvI7v4YZDVCEmphI2G9RnTeDLQLUaIOuJIOr89Wx6CMpX7LBwnn/I1MN5BIHLk0guBDj8Ci1+DGsb4ePpRySFmkXY1A9P9tRuhb+kUYHfpKBhFaauy3E+lRvyCsDMI9cyXphN+g65a03IFq2JyGPS/GDd0Bt3gu2TOXYIMS6tCfUgpbyHRI8Mqt2AcupZa10SC5Cpseg9r1XLofv5jS649j6cD025Xyfv+L3XgfL+hjpEnUjR+go30i/TJN3dWJtzyT4MBve6ufPX4l6bOXEyHdA6sEmUaf/Biq/0iyaXdg7j7PZ2QIuZKui3q/S0l3+KAnMfUbj4GFT1CWfgKSUdFvI0qn/M3nMvjEu8l/hccuIetegAlj1Cbvp7Lj+VSf/AZ25p2oqIWgaTjh/t+GjXbHyDzMfg575/E+hJMGmkiSEfe5DHY8Dq9TvHgS1Xu/glr0OHUqlEU8SPpK7HAGSTSMaPp1pI/9FH3Q11Cjx8pd+e6PKxpQCer4woxAYaTr45RbScU7o0KCrU7EDD+IcqU/Wfdi7Ot3wuTrKdUW0DFoV1r2/ybpoO1QUYqxAerFGwgf+RZZMpc0bsFufQiNm3+arsfPIZ43zVeVdA3Yg/J+30IP2yyXcJ73Kt1/PQVd7cJIkyzJa9j3R8TbHgZaCMIK4RBraXvs65Qn/B6CNFecCPsTbnwwuqOT6H2XovttmGOzlo6CIKwlYIvTFggUCLx7CPjkutfuI3noMpy00PXGW+ruWymdeQtONaySIEicXzwGut5N9Z5LCRY+6smCdQmqeTSlY39IRj947qd0PvdLyt3tOJUnm4nlcTT6lr++va9v8SvxcYeKWwgP/DV2s91IxX096feEz/+WWnWOJy0qasU2NvgWxumgfWjY8zxMy8a+m6DYzm6rqEy/k2TydT6ZL0rrqKZGTMd8dGUo9cGjaNz2k6jhe2GD3FGuannvgmrbVC/rK0mQwWaHofb7EiYI0U//HPviH7GZKCUKESgRH/EzaN0CZtxL9b5LqajUNw9KgjJ690+jtz2O2NRI7/4M2ewnfGtoyb53/YZROea3pGEZI3ikDjXjaWqTfkk4+2lU0oFqasUlC4j1IOpD9iPY5QwYvDWhrmClzfQbL5E+IAJP7SRhXrJY2uNc9FYf8GJHmbGoJRPJnvyZry5R1TlePMq0buTDPkk0kIZtjqe63elUgtAjr4UErtCrQJQffWhDBdR1RiS4TH2AZMJPUF1TvAS0KCemZgk6XYQrDUUN24PSmI9RH7wlFSnxFPIl+SKZwc5+hvT5X6HnPUmY1Eiahvj+FmnjEOyw3ajs9BHYYEeMtL0mIJw/hdr9XyBoX+SlscWXwd7/S7TlIZ4UrmjqJZnSti/APf01kmlPUUrmUQ8CKi2bwo7nYrc4FK0jtC+TWDtHQRDWDq7FWQsECgTeRQRkOTZZQlzvwMiq6wICl6LqAUn/VmK/Xvc2HjJcZxISJYsuhJ0LsPQswKrLlyCKBLPYnFLS4T0U+rGLcZ2d3jjZhhRnFCVTJetuIwxDVNBAXclSX6G079cJtj6MLCwTih6DaccumAkdU3C1BaTBxsSb7YyKm327YqmFF9EekYcW7QVs5CsobDqXLO0gWhrjGiw0DiEpGxCBIBJUVsl3uSJoVF+ay0uL+1pKOsPI75aFuDgJyJucAGiVYUxG1rABsZgpW0VlS6Qrga/qUK4bwv4QNkiEnrhrMcpJjoFDqxpkFtu4EdomIDF+XcFkJRTt6GoHtHfQRgeNuj9J//64qJWKiEi5ivfuiOdBOiSW6lUpRsAE3QT1DNfYjNH9/W48zcr+/C6IUN2LYMl07NIpqKwJPXwzXPNgsspgn9shvCoN/Z30iiR5z5JQB6+iWAVbolNpGm0XdC6CpS+TtE9HuwbC5i1gg81wlUayoIFIyjTlOQql+kThdA2RyQpFVCF9A7WogzRMKLkm0gGtEA/0mhGhyzA+pCUJkw7qc7GqkUCJ4JOhO26lQTxGUr+5Yt8IEU5KA5SuUcskHFElsilZqT9GB5RU6KWko7X4nhUEYS2CW5y6QKBA4N1BwBeyWXHKhl4tT0rsMslDkFI2atIn0Lcw7lUiL8ZDSvYk8q4c1klOe95rQBZ2I70KnBheQ/2pX1Ka8CM6G/tR2e4M1JB9seVGSqJ2mC3xrXrTF6+FOY+hQ+27K4aHXAWb7IG2oZfU9bv4DEKJt0u2vSQtSkmeaOxL5r1yvmdESsm7+OV3Wox6Phr/eaTuXnILZNRWUguk0kEMTYQiwbnIlxIKSRJik1fZS06FJAjKZ6WaQkIIyucoiPKjSAxLMaDQGv+FfEieYAg2y9QIRS9CkjQFUTHqoXhaAsFN9sryfTHEJVLfMEn4mMGpwOtMKKEZWrwPYvjkXsXjIsJKXgsZJePKQlRYwxrJC5BxSQmiRlmDFY+QzyuRAQgu0vTIeYVI3zRTWSKRlg5k1lfYl0sOgkq8d8GXGEoLbutIdY6qEEmvpSDz4GWmna9oEHVDeR78fVohY3hPghh/+ZScL8dbCIHBCMkUFEWTQVIfl2GvlRdWku/4UFZPd8iS56qS8dG7sZTkaojGRiDX98+keEVCtM1Jh/900c3x3VlkiqsWCBQIFAisiIBks1OfQ+fv30touglGvo/o/T/HReJaz4icby9AEOY6A+bpnxDpjGSDbagc+keylv4EWjQUV6YmBc4FAuseAoUHYd2bk2JEBQIFAusoAl5WN+mmfssZZPPvJ2gYhR59DMHIw8iahhOEAWbxNJJZDxFPuxHbMQNVGgLvv4xwowPQkhxHsJK63zp6s8Ww1nsECoKw3j8CBQAFAgUC/yoCPmFPKaIFz9M94WeUZjyHzpaSxVJGWCWsa4JAmiqFRFGJdPB7CPY8E9NvWyLXBaoRpeqgxL1eHAUC6zYCBUFYt+enGF2BQIHAOoSAT+xz3VhptZQmqOosUknC62gjsJ1YFfs6eVUZAI39cXGLL3cMXYkkkLbBAamqExcEYR2a1WIo/wyBgiAUz0aBQIFAgcC/ioBP2pNkMu2T5qSfgq9c970UfO9Dn5yWtxiWRDf5Zf55I/l0y5L+/tXrFZ8rEHgXESgIwrsIfnHpAoECgQKBAoECgXUVgYIgrKszU4yrQKBAoECgQKBA4F1EoCAI7yL4xaULBAoECgQKBAoE1lUECoLwDs6M1FCLrrmIi1gnOuEiPhLmWiQiIxqtpepoC4mW3uuieqbXUm+PXCAl72svPdC1Fy/x2uIiAuJxfqty3f8P/HnDFekJ7wiclyMh1SIuk4uo5NKjfVtnLnOUSLMfL6SjyESbrk8ESpzvFKe03Ic8H4Kj87Ft6wyxCpE76/PDObpVRoMJqQWWsojeePkW/L1JMyOvUrsWG8H0+T0VJywQKBDoUwQKgtCncP7zk0n28zKCkNoM6UCqRa3LOK/mJcpfXiGrT4zOiuNwZCbNjackVQUGLZnWfW5AxaCliDqoGJVALqYDb+yW3ZPvoNcHh0nqqChXQfPKZR5DyLKMKBRDJ5fu+wYmvrmLdQShNOcRtT2Ra11TIiJZ8T3UwEvi+gcD7bVnHVaL6M6qOw+uGZSODpfQbAISnzyn/POorO1RkXM50eqjOVuzsRbfLhAoEHg3ECgIwjuFupfaFLnWDK0C5ixuZ+L0GTSUNLttvw2BqK/5BbnvByTCoq/MmsuihYvYd8ct0UpkWPv2QrLDtiZjxtw3eGTKDEYNHsSeW23pDans8EX6XlqTrilFEAxTk3mJ2henT+f52bPYZuNN2HHECKJIeb+CEJE1N9wrz0MukTeju8bTL77AYTvvRKkUrzGhEzIjT4Zo7Iv274z5i3lw4itkNmPTDfuz77bb+ra4fTxdnpQIeRNiKiq3T0+bSlatMXzERmw0YAMCm/m2x/KsFkeBQIHA+olAQRDeqXmX3bvojitHexXO+9FPOGDnnXnomQlsufUWfPaQwwjivm/tnSQptzz4CL+55yFaBrVyzQWfzD0Xa7zzXQk46+i08L0//4X9x+zEN64dx1fGHsneu45BGdERFwEZcZev4eH7y1ienz2DF159jUpDhYt/80d+c8Gn2HWrjXE6IBYd+jW+UO9xCjGxxnLh7//Mw889x+2XXsKg/s1rTLSEWEnnQWUzrI65+cHH+PHdD/pn4f07bMMFRx5OFPRuWbuGCOaUpMejJQTlgZcmct3td/PR44/kyRef44wjjqIUSDMaLa2K+uJyxTkKBAoE/gMRKAjCOzRpsiBLi9DQwhOTZ3P8ld/n4S9/kd888Dg/v/d2Jl95BY39Goh6Nfxc88HVrWFGZrj0B78hiiJ+ce7pxJG43/t24Ze7m2UcV/zgd1x2wam874LLOHmP7fnwSWOJbYoKSljvxl6ze5I4eSJtd1JNqDUzFs5nq/O/wrjzzuWoPbfxIRuCqK9vzw/69ekzOe3HV7EoS/n7Vy5i4MDGPsl1cCLeT0oWlLj7iSeJYkfQDvvvvTtpqCmtBceSEJNU2sh0ZZz2iyvZuP9oDt54Q0bvth0jGpul/w2pMkSFB2HNHtji2wUC/8EIFAThHZo8IQiyA1WB5eZHnuazv76O+7/+WX553xP8/r6HmPDtr7DBhgP7Ph1NdtzGcPYPf067sVz32XNzD0KfH5I5aJi7sJ0/P/owE155nR+d80EGNDXitM09CEJK1vjSjsyHLQzTps/hd/c9yAMTJ3P1p89j2LABqEAhGRasoWHzink9O2252qL2Tq6+/V5eXNLOky+/zANf+yIDWvutsQfB93UzCqOtzwP4490PMai1mR/fcR+DW1q48uzTaG5uXHPYVppvuT3xHizpWMLJl/+C4f0a2W7USP721Ctc/YWP0NIiLXZ9i7viKBAoEFhPESgIwjs48Zk1vsXoE6++zimXXcmdF3+Rq+67n1ueepLHL/8q/Vpa+rzLmzdzJuMj3/8FS1XAuE+fhQ6lNekaW+peyImxSazlriee5ve33cfFHzmFoYNbGVRp8HluPY1Z1zy0IS1qyZgyfTatzf1INIz6xBf59YdO4JSD9/etVX11wZq6KgQ26SvvwzGaR56ZwA/uuZsZbVVmz1rELz51JofvtusaEzpJS9SSjBgqpLn8Y69MZe/RQ/ns1Tfz0EsTueOizzF4YGvfP6XWUdOKWmcHZ17xC7badDPeO3pLzv/dr7njovPZcNgwWnS45vPV9yMvzlggUCDwDiFQEIR3CGhJRMukYbtx1JXi/B//il1Hj+TBp57moIMO5cw9dvTNXfrYbvsSyrpNOPd7P6UjMfzxovOJfOlcHx/WML29k/d86iLa6kup9B/IJfvvzkdPPRWc5F5In3XfPH6NDtnZp6njsYmTmTB1Es2VmIv/dAt/+PwnOWiHbX2CooAoZYNrevg4vRQTmIx6LWN2Wwffv/lG/j5xCjd++fNsPWTwGs+XJHCqTNEVZjij+O2Nd7DDJhtzyV/GccSee3Pu0QdSist9P1/OkBjByPCH+x9i4qSp7Lj1aE9Wf3/+J2kKG1GR9L3v+2qQNZ2X4vsFAgUC7wwCBUF4Z3DOs8Z95ZolxrE0c0yaMoUBTc2MGjmCwKY4HfnYb58eVmLJlhenT0MZzY6bb5xrE/T14aCtVue5F18hDkrUu7oYsvFARg0b5lvc+sqCHgn7NbWqErOvCSFZsohFs+YxYtNNGNqviVA0EbTx1SB9oR2wPMzg9SoU1tZ5ffYCFrTV2XaLITRFDazphOUaGI4sMKh6SocLeXHqJPo1tLDFJiPR1hBJyeaaZl329ABYNu0+YVbqGyND3SkeffofzFwwm8P2eh/9+0WEJsLGhnB5TsxKJ+jr56c4X4FAgcA6h0BBENbWlPiadllUQ7+2O/Ee9PRuETGcfCvd4+j3a29eC++3ij3x71xDoDdjWLl8z5fJ+VR4sSHOZ6d73QEfW+iJo/tz5CJNvtjSiRDOsvOKlkD+OX9xGeMqNvrS5javie8xFHIO/2HZZQb5T5edx4sl9agjLT+3nFpG6+WNeq5ne3b8bzMJsosXYSlBzCp/2rzjzZt3lH+7Bz9fMigVg4pcVcD52P7qyh4F6xwm+f6buC0zi/J9+bFHzYkGQ/4b+b/fh4t6k/xEGJ6fCxHDcgQr6Qj4U684Xz2iRP7k8kfnT8ey2el5NHrmSK6Xn9vfo/9Hz3ytjlhmvorS/xFJJq9qtcJE+2fPY9dzbz2/888Ktue5WvPcjrX1uhXnLRAoEOh7BAqC0PeY+jOKQcsV/3LDI/4DifznZlh+ID9fZph7TJwvhcyFhoRP+H3wCgv/Ko1cXj7vvQRyNX8Nb8t1D88QwtD7OsZr/OQueF9ip+W6+fZelAp0poTX9Drkt/6z3ooqjAjqINoNecmc/HRl74dULfRY3eUExBs1b4pMLha1mij+coMqRlhZb5BX5/ROnfUhDSEUy0jP6jwzktkgY3Mqx80bYY/JP58vb2OXkS4/W28SuvwceU+/XocY6gAy0R/wyoU9xGP5fLx1vjyOyxDsITFeXUIpIqdFuBIkh+FtjlQGK8JOy9UaLeFqQPE6CX5eRWQrV/lcU0fGWnrditMWCBQIrAUECoKwFkCVU2Z+J2rwe2ux4JJ+IMl6YjR64uM9m87lI9DCCnwbWdmV57tZ44V/8u/03vn3fE1IiBK1xDphqvxu2ZUDbzzSzBCvItFMjERdVAejMB9fPfNGMQtFJTBCy3hXsjfLKIYYJvGGhDb3HHjd6NyKYleK+y+zP1bIhJco9nfjPRFi9DKliFdjpJKsSiD/KRGJkGuKwM/bUwTBXYnHoycLXxQXV2Gqe818anLioYRoObHiInccedyXEbNVz1e+8849QFJhIbB43cplsPR+wvzG3WLSOoHJ1S1dOfTzJZoVcRi/xdsh1S9GGcKgZ75qwgodWWgJotgb79UnKRjS7hpRWPF5B6LQ6MtB3+YQDD2O8ifs8RKtcVrmWnrhitMWCBQI9DkCBUHoc0h7TmglKdEwv6uLp6bO5KlXprOgbTGZZMb7kMPyBgXLR5A7yUOG9G9lzGYj2H30xowYkGewi5FalQdBiEjQI/s7q72Lp6e8xoQpr/DG4iXeQHp71+OSX3YhKasTA6G0Y8N+LewwajN232IUG/dv9oQhVZpoJde47CZzx4ffNjOnrZ2np77OhKkzmLtkCZlN3jo+6TEQ5DvyIAgY2NzMrqM3Y9dRGzO8tb93da8umdDYhDc6ajz+6kyemzyFhYsXka5mziICNmjtx05bbcbuozZlWHNTrlL5tochSR3zO2pMeP01npg0iQXt3Vhj8vte5XwJLwjYaMAAdtp8BLuN3pSh/VuWz5dgtXKIQXJQQl+mqZnR1uGfiwmvTmV+W1tOJEU2euX5shorvTQCxeD+/RgzajN2G70Zw1saPYYpmmg191et15k8ZwEPT57GyzNnUE3qyyJQ/xSVhlKJLYYPY89ttmSLwQNpKUkB6epwXFsvVHHeAoECgXcagYIg9BHivtGN036npyVuXg+4/9WpfOPqa3hy0jS6RL9fBHF8R6NVu4P9blI2vqFCq4zdNt+Uzx19DEfsugOxbG9lty7swq/Ryse4ZQtqMsv9L03hm9ddz6MvvoxVoVfBE5d57lRO8yTBnlMEhD5EIN+VJDhpFzVm2835/NFHcdSOO6BicXNLnkD+bdnBBloc4hZswD0vvsyl117H01Om5Znwflw5gZCcCSdiRWJUlxktf1NyBESZYdctRvCF04/j8K22JYx74urCWLRAlBISYwNDmjnueWEa3//LtTwy5VWSnvDGshyNfzp1ntxYyhh2HbkJXzjtFA7aaTSRlJmqiDSQa4T5fJHlbn6juOuliXztD9cxYdos6nmywfK8gDydwweAcsMq8RGzLIThCAPL3luN4jNHHMnhO++IDiX3wScleOKUpx14PUay1HL3C6/w7XHX89hLk7Hi5ZE8DhGS8s28luGV3+Hy6g/BUZIWtWav7bbgC8cfw/u23aonCTSfaz/HVkIXmlQbIqOYvbSD795xJ3+++z4WdNZ87oH3e6wuXuC9WJbBDRU+fOABfPLYwxnW3IjxvSKE3OXNt1aX/tBHr1hxmncJgXzjIs9w4gli5p1zmlDefVcHVSILREzdEXqPojzPvQfrA5I9YVP/EZfm55Lz+HCsZCblouxWlQit9dogsgGKXNCTF1QHXcnH4kR5VPtmbT0R255oYu9wqoxihUBhz3to0d6j29N4zWXEJiIL8n/nIdneN/Bm1lPPuvBPifKyJKOetWEFGHy4OX+j85/2JBstW2rWxRepIAh99NL57oJGY4MM2XRe/dATfOXqPzG7rUaQalKTeDftv3NIfLk5dFx89qmcd9BB1LUYvbzr37K3Qtbo3z/6OF/+zdXMW9Ll+xQQ9b6OtnlDqOUGf6UVXWWGMIoY0FTmog8cxScPOShvdtSTxyYfTzFEieP3Tz3JRVf9mQVtNR9H73X4d0Oa/Iixk3BFgPUqgXnymyQ6Sl+BLIIBseGSk0/j7EMOwAs7msAbXWdTjBPjnfHnBx/lot/fwLz2dqw0EvKJgrmZffsjN4A+DdQpBjc38tXTj+ODB+yD1QGBdNIMQrTRmCAlM5pf3fcQl11zLW90Jj4HQxpC5ays55D7Ek4V5fcmmMqSuOJLHTtN/wbN184+k7P23YdqmNHgol5Jh9K182cP/p2v/u4vLO6oey8T0ozp3zgE9jgI2KBfmUvPOJEP770vRMsSSHtOlBnhcrQZxYcvv4I7nptI6lf2f/3Q4umQnIwwJLYJ7xuzHT855yyGtzajA7+U5kmZxfFfi4C8ab7ixYr0tiVNZXnR6PkzqM29k6zjNZrCUTDqAGjd3Bt4E2XElHthIjkwgZJ+qCHMfp5k8p8pDd4BtjyOVFdkywIizaUzrDWkuuQpSWxfJ9EjUNMfwE0eRzjqSPTmh2NVCjb0G5c8RSfPGMpbtS1LWc7XPCfJzctssk96dpA6XG0+2axHcUsnE5U2gTFHk+kKJX+63u9knsScrz95ftJbn/tlJCK/8bd+Ytkmwe+l/KYhXxuXpY/n3/n31oK1/eAVBKGPEDY9bYAl2e2FWfM4+pJvMKOjyxshjMWVNO7fXKB9jLq5QmuQ8KcLPsP+22/hX06X9rQ0VvDstJkcd/l3eX1Bndg56mFdkgF63ZWUNTohKGJknfD03uENibuHmcZEMS3llPFf+RJ7jdrMewOMNagw9Az/pddm8v6Lv8JCUSeqO2ywgqH2jpH8ZXW+zbPsyqUDVU40lA83KKREUQeR3x0Ma2ziD5/9FO/dbhRayRKRhy8Ca3hq2uuc9O0fMrOjSpbU87yNnoZXK+TsrXL23kwClWRPiwpjhjbG3HDpF9h9xDAQD4uSBSu/vyemvs7Rl36ThanxmgRkGUFDRJbIC7zsyCsoPC2QbpUu9AmoeTVDfkjohuYSg0LHuAsvZM9tNiUQsrR8vhRPvDKNEy7/HrMWZ5SUpR4kb5mv1T6S2hGaEKMDhjU67vnm19hi2Ia590E8Q6F4jxKSuua8q37Lrx98zC+SuXvqXz+EioYq8LoTLpLvZ3zioPdxxVknoaKMUDUUSYv/Opz/kZ/0Pi8nyc+Gmgsp2YRswk8wz/ySdMBoygPeg5sznnY7n4Fbfwazyym4oOEtIcrEOUKXUlcB1QcuoP9zt7F4yBg2OPwnZM3DCFzNS6iHSjytwBuPY5fMJthwdxg4HB44HzXldpZsMpbWQ79HqqTnSugTfvPKLCGzQhDe3ETkIdm83XzefVXeC982znty3fwJdI7/CLFdSDZoD5qPu9pnScmZ33r0XEM2aPL+v+UDeUJvHonMCcnKpl5yt4RQL6sa81VnPWTCN1r3Icl1i3AXBKGPXtu8akw6DVo+duUv+dPDT6JM/qCksvXsqRL4ty4nBr2aouOIQ3fbhmvOO49Kg3eOY5z1sfiP/ey3/PHeh9A29LxAXPPLEwc9kRVXuIQRRKxIkYpxXHkQ2hJZeWkgDTIO3nF7brrofMpSCSAJheL6r1s+/NOf8Zf7nyAMSySSMNirhFEMqLjH5RVzBNb6h11K7WUH6jM0ZbcsBRI95YpiT4/ZYwx//MzHKJcinE/mNGRJyod+ehXXPPrMm244H5vvSQhcDfLfOcIAACAASURBVIgrlnPmLnB5qS1H7rwNN3zuAmwky0bgoUmM5czv/JibHvuH91II55GKDoGjZzPy5tWsIxbZaEkQ9AJCeTXKcgohnoBqTqg+sN8u/P5j5xA0BATizrSGqrOcdsUvuPXRJ/18SSjJSCtFue9/59CyYEfyYGGpceS+u/GXz3ycWAILQsy0IkmrPD5lDmO/+k3ae4jOSrxx9VfsKfkUkiA5GNIIa2C/MvdfdilbDWrFBYJicfw3I+D9dVLNYms4SkTT/krHfRdRMiXU4ZdiRx4Gz/2Z4KGvovsFpPv8ktKme4O88yvssvNXP8MojZ75DG7yH1FDd0RveTIJMbFUYumA0FWpdc4mHXc4Yc0QVrYgOPMOzGv3YaZeS7zp/6C3ONJ7NUIT44K8lFneb0moNTZP6F7ubfTvv/xOiEFAJqFTCbG5Oum851E3H4syhmD47qijbvBrmIRPVrTTy8MLTsi87ISit0i5+3Cvr/jpCUv6tXelt8N3bH2z3Cv3bCwj7stKp/7NtWAtP3wFQegjgOUBkWdr8qw3OPrS7zF1yVIvgJNnt8ujKUZddv55WVte7qfYoCnmPdtuS2e9zpNTXmVpd/XNESkxspE3SEP7N3LP177MFkM39C+CsNj5Xe2853PfYtq8+dhAOgIqtAm80ZGXRL7XWi6xx+hR7DRiBPIWvjpvAS/NmMHLM+d4d3so1QteN8Hg5BxOMyBu4pavnsueW26V7/y15rkZszjm/y7n9cVtvlLCCunxhfXL1oE8P6JBW8ZsPJwxm29OS0MTU2a9xsMvT2NRZ92TGv9xlWsN2FAzon9/Hvrmlxk5qD/OSuTcMKu9g/dc+DVmLFnak/eQR0B9mES+24OoELJNW/sxZvNRTJ03nxenz+zZ0eeub59Y6HcOOavfsNTArd/6PLttPBwrWw/teP61mRz79Sv8ffXICuS7C4mzW+tJg/x/00Gt7DVqC0ZuOJDutMrzM2bx9CvTaM98g2nvLpR5EfKUZopNN+zHQ9/+CsP6tUhSAC5QvLZgAft9/jLmti3Jsc5kJyIVDJmv6hDv0O6jN2HD/v19LouvTvBhEsnPsMyYt4gJ018nsIKS7w/uCztamxu55+sXssPITTzBkhCPzNuF11zPFTff4Z8Dn6y6wqrnqVboeP/W29FQKRH4rZjcb0aSGR58/iW6Uqk+8QPIFz+pkNGGC447lu+ecIyveimaOfXRArKOnsYTBJ9zYLC1Lqo3nEW57UFqpWFUjr4FN2Akas7T1O/4ICQZ5dGH4g6+HLVoFqQ1XG02eoPtUW88hiltgBq2F6pjMq7aTVJdQmn43iTlMnGtnXTBs4QdCzBtc1BvPIIeegB6yEZkI9+PXvIatrbE51cFG+1C0DUf0zEHutuwgzYhMo5k/gvosEK40c7Y8oC8kqhtNmbRi9DdhQ0zwsZNUAO2xjRVMLNfRN9+Ckm9RmnkLqijrkOLh9W/81Lpk1fu6CzFzXsG1z6PrNpF3FxBtW4FA7Ykk+qi9gWYroWYdC5Bv+1g0XOouAk9bB9YPA3qi8mSbvQGW/P/2DsPMCuq5O3/TocbZoYh5yQKiIAYUIIJxICYI5jFiKKrq5gDiIoJXRFzAMw5oiICEgQVQTGDKAgoOYeZufd2Ot9TpweZGXd1/cv6uettn10DMx2q+5x6q+qtt6Kln2HXboyq3QYdlqCWfolXtsTY2E4V4tTaBV2zMdH6BdiZTbHAXvUmqMJacft1bgMquxFdo5nZ74XQvLVl8yt+inmAsJUWpiGGWTDms9mccPP9bAxKKxeoTQpeHKpf3lueMqm7y47Yj9tPOp7F69Zx+E138unipVsiUmkzc9LosIykVcj4IQPYc/uWRIKGI1i+YT2t+l9HxstueQqtSZravyadsBl8yvGc2LM7S5avoGXjhiQ8j+VejgvvGsXozz4mqW1ypgywJZ3uWA4P9juV0/fbGymZSNrvtU9mceKtj5BhE1aQILJkToEdO41ywKJCn8uO6sVVx/cm5+WYNesr2u3Qgk/nLePMu+9ntdT1K2bQlCZtp5h660A6tqhLpF3jLBcuW0eHvw8kG5SViypVSOPLcojEHUs0H/LS5RdxWOfdGTZmApc99DRBwkNJZFEh9W8yCHi4VhFPXtyXPl07x0DF0rww/VPOuPNhSkOxYYWbEyAikXc6Rbvi6rxw27UUJ9JsDLK0qF6MCiIeeGcilz/3AlFpSGgHWIGNdGNGYfxcs+4exPYNGxJIzlRrZv+wjM5XDCHrexWyElJ5DU1mp246xehrL6Bzq3ZEbkSUiwmLCUfApcfjE6Zy9sOPoXQiBk7lhygtPndJP47svLsBhzIRVKK+A268g3c/n1NB+KmCHeW9FYR8d/OtNG5emzDUJO2UATorVm2ic79LWRonTbd8j8Y+Ac2bNmfBsOvj2q4IYfwZ2VVbaV3nTxNruYizDdd+S+7FI1DRRly3EbrPGNyiOgQb5hO9dAJBuAK3eifsIx9CT72KYME47NAm12RfNi1/lWqJxhT2GIWecRfZZbOwUx72MW8SVduOcNJA9PwXSbTqQ7BxOd6q90nvejnsdjrWhnWUTL4aZ/l0ktWaYvV+mdwXz+PPup9UZiFOh0vh+9fZULYSxwpIdLoCZ9ezYPnX+NOuw2nZD5VZxPrZd1OoCwhbH46z1yU4y+fhvX4yVrQB3aQTySNeNhlQoUtawoUKRdm2DH/GfYTrlpBsfSBlXz2Ms2wuuaI6pPe7k7BhE6KpT1A06zEytk+iaS+8xS/hFdSg+rFTKJ14CdaqL7D0SqxtTyTz1cNY251I6oB78cdfRVmykJrtOpOb/CRe2XScwo4U9LqV3DdjiD5/EqwEetczSHXsa9ZZbtbTJNNF0O4YbN8jcmWk2n+uLJEHCFtpBxBnLwHayx98zMm3PUhOUv2VvaERBRKHK3BRnGub+jUZffWVbNO4BstXrePwm4fx6Q8VAIJJ74kSYw4rSvHODRfTY8e2hggkTm/RqlW07HeV0UHYfEgW3twLNl2aNeD5Ky/ivPseYPzX37Frk2145drLqFs7yWffrGT/mwazwYurblvUFGN27T9O681FR/YiCqUu6PL0tGmcftcTBE4ZVpA092AQbbk+g600f++5P9efcQJpy+GYG29nzJdzObTrjtx/+snsf/0Q5vxYRmTlKmRIZFCR4v2hg+nUqiEyh1Hs8+3C5bS/+DpD+DRMu4rPpxWt6tXhhH06cWin3dmpRWMc2/1lgGAEkHyUTvHgOb05u9cBcWlAaUZOmMa5wx8zmgKV35e0j9oUuoq3B19DoaU5/JY7zTyG6446jGv7HEVJ6HHCrcN458tvjESVFH9CJc9nYUc2n95zPe2bNDUAQRbxjLnz2fPqW82GW8EIJi0pFIE2tWvzxqDLadmwlml3jJQAHWlHFA5JxLA3JnD508+a7brivUpadOT5p3Hq/t2JoiCWR1aajpdcw6wFS8u5J3EJrOJ1bTdHyYjHyWivPAUrBCyLrxct4/Drb2GNEbeoyDORlGiIY9l4L47YLMu4lVZQ/jR/VgsYfpVUKhfPJHj5WLTjk0w3hRPGYiVrEJStQL90OH7pYpyC7bGOGEkw+UqiZTNw5Nvf/kwiz0L/8Chuj/vZ8PEzFG6aQsZXFJw4DrV8Nerd0wgLauIeNoJg9XdE714pITXOUS9gVWuE//Y5+KveJ1XcAbvPW4SfPYI3cwhQiFOjFUGHc3GmnI8fQXK7XkT7D0fPfBhnw1zCA26AKEn04jHo9Z9AensSxz2H3rAMb9wp2JkydJPdfwIIkhkVrpFs4WF2LeGTe2H1egDdrDvOjx+Re+NkHAmUdr2aTJfzcCbdhDf3WULLo6j50aacqr9/DfvUNwnGDoTVM+Iy5+6XY339lpCsUEc9Tvj2Gdjd7kTVakEwfwxq/NmEdoLs/k9RXJzGG30WTrCCsOG+OEe9hFW6luDNc+GAG1C1WmEpH0un/qP4PA8QttKqFKcs6biXPpjJqUMfwRPnVolNVy7BK2nhKKR60uEf/U7n5K6dUUnN0pXrOKIKQIjz9y5Ywqx3GXvDxezfvq1JN0v09uPaNbQ4+/JKl4krbgHKcenVth0Djj2EC+5/mDnLNuLYOd6/ZSA7tWzM6tVZ47TnLV2HjgJCEwmWHxru7NubCw/vFYs9aYcnpr7H6cOeIHKzKD9hZvhI+6OIAsnfG9Woxvibr2P7etVZUeKx54CrWbkqw85tmjLo2CM484H7WbJOnF6F6FnaLEPFtNtjgGCpBKEO+O6HFbT7+3Vow6eozM6XqP/s7p0YcuLJLF+7lu1bNDdtf7+cQRCAICn7JPefdRxnH7S/KfVEOmTEhKmcf68An5ggWfGQCvu29WswZchAxs36mL73PYVSCTptW4sJQwZR5MCI8TM495FHTfbDlI4sz9Qe7UDx6T2DDUCQ/L4AsBnzFrDHFUOqXEYyIlKD0tQrSHJC9+4kCxJxhwUWOzYs5pi9u7J6fYZjhtzBJ4uXlYPMClGDhhEX9OW0/bob8CkTQ+VRdh1wNZ8vWmEyPHGdpeIDanbbtg6jLhzANaOeQ9nlvTGhYuXGEj6a/x2RkcmsfB3TuykdEq89Eets/OeCl620MvOn+b0WkG83FG7LgklYb5yG74S4ycYxQEjVwC/bgH6xB1bJanRBQ6zDRmHPuoXMd2/hpQsp7PE41mcj0MEGrL3vw5v+d/QPsyDhkj52LGtmDSc97w3sgpo4h71OuG4BatyJhucTtjmLwo4XUDL+TPSqGSSLd8I97nX8zx4imHkTSjs4u5xHuPvlqEe2w/UV2ZY9cA8ehl4whyCzgHSLg7FWzKds0snYuXVETiOSfd4g2LQM/ebx4GegQgbBlGntAFuXUeanKZhxO+F2R2En67H+67tIffG8yTSkdjqPsq4Xk55wLf7cZ0hoF7/HrVjLJhOtXoB1zBOoV/rir/0ybrs+ciylU84hWbcTVteb8Gc/gdvicFRhCm/aUKK5z5FUFtlu15Ns0Zvw7bOwl07EL2qKe/w49LKP4KtnUYcMR9vFZq27hpf1n1uEeYDwe1dP+e9LfV3e1UsffsyJtz5I4EimoPKL21wXd4KAnrvuzPC+J5GumaBhtZr8sHY9Rw/5B58sWlzBUQsjPQVanLLDO0MGcEDbGCCI9v/itWtpcfYVldPppi9YsgIhBXYR1QoTrM1swIssOjasz+uDLqNBzRp8tmAh+199Ext8F21n0Way3xaAMLRvby46ohe2RA+hxVMfTOO0fzyGLgjQZUIXLlcqFLnfELq3bcML155PtUSSL75fwlWPPUnH7dvww6olvPf1ApZu2mSGHVVSQZQ0fqh4XwBC60YGDEmK+7tFkkEYGBMuhVtUOfNPy1q1KayZom1xTR67ZoBZJL8EEGJ6cwBhggf69eGcgw4sb0KOGDXxffrdPZJQOFWV/KcGx6VV7WpMv+E63vz0a/o+MNKAljM67czDl1yM70bc9sAL3DB+bFwrlNq/OFqtfgII7Ro3wRLlRK35aN4C9rxCop6KcbzgB9u8Q20FpptDxnNr5ZBKOozofzqHd+3IHaOe5cbx74ncJZHOVtEwUDx6/mkGIAgPwpbapIKOA67h00XLfsIGFdtDxc9ff8JRdGxan8tHvUj33dqTSlhM+2oeMxcsJopE5jsu5Ww+4lKNlNJs/BcfNS8m3+W4lTaQP+tp5LvWEYF82wvexR57HhmdIZVqiDpxLMqtjldSQvjy3hRkyvCl9n/YU5ROv4qCHz9ChQ7+sa/iFjdFKZ8oUQP71WPJrZ6DH2VJnjAZa844/Fm3oNJ1SRz1DOHa7wkmXIwTelj734tu2gn91jkEaz4lWb096vjXCWY9TDDjFiKSpPa+lrDNifBYW7JRGYVNjkLvf4cp+QbLP8Wf+xiJ9Zvwc6uINn5D2pbsxyt4pUuwXj8NFZSim+z2UwYhiHLYVgpLtgzJnAQlOF8+QfbH93GdGniLxhrtmKhjP1KdzsWfPJzg28cIIk31w0fj1a6Do5NkEmlSLx1HZv0XRtfB7fctudxGUjqFV1hIYt1KmPMMZcumkFI1yaycZnxGYZc7YaeD0DNGUvrFP3C1JtVpKGHJ11C/M7SS/Us4zpaoRsTj7f9DRx4gbCXDxk0umpc+/ISTb3sIT76uKshONlPb0iTC6rx43dlM+fILTuzciZatW7Fx1Qp63XYPny/4oXzQj2zHIpksaSQhy1hMGDyAHu3bmrq01P4XrllLi3Muq+TZJN1sJI0sKTNg2o26tGvLTvVqcPkxR9OgTm0WLFvGKfeO5KN581CRH9e5KkXPiqF9+3DpYQcZByER6bNTP+Sku0eglaTeFKE4QengFPawCrmi5/7cePrx4CRY8cNy1ls+29VuCCnN65Om0v/R51mblRbBCq120moYWbx36yD22L4xkfRBA18t/pGdzx9kULzpY6oySyK2a8ghO7Ri9ODrjOLzL2YQJKIWcSTP4a7+p3JBzx7lMzIiRrw7jf73PG5EhSq9L9MaFVLdTXBOz54Up1xuePlVahekef/e22lRXMyiVevoduWV/LApMCApMEIJch6JvG2+vHsw7Zo0KX9fMH3eQrpecVMVJFLlA5QWxiie2nHiXjtx37lns6YsQ5drBrNiZakBB8qOsxUVYcajF5zOmfvuE28Y5eIxHQZcy5cLfoxLSCaDULFtM2LstdfRtmGh0cAoTBZQlHTYGITc/fJr3PLy2+QcQ6ioBBzjXs80+pX70DLCeyutn/xp/qQWMHO9fANYWTWb3Ms9sbRLmKpLQZ9x6FQxUWY56ukjKUnOp8DthH34SLKT/45aOB1lRThHv4bTcNcYagY5sq+ehr3yA3LKI917CrpGLfyXz4J1n5PsOJigdA7WnNeIWvRE7T8MN7OMaOxFZFfPJFncDuf40QSfPkI44xapxJHc50asdqfhPbwNUahwm/dE97oDNetF9KxbUVIS7f00ufeGkVo6Hq+wIe5xL+NIiWHMaVjepkocBMnASlBkiLwl6wnfPhV/3ZckW/dDte6NP7o7WidRu56H2/li/Ek3EX77JE6kcY4ejW7UFjty0EEp4St9yK350oBtp98CU3LxrQTOhkVk3+qHtfFrwi5DcQtqw4S+Zl+1egzFatMHtXg6ZePPJ5FditdgT9JOXewDbkUV1PrDPpY8QNhKpv53AIKIeqgo4paTDqHHzjtxwA138dZVA+i0XSuWrV/JwUOG8+W8hThOwrTZxWqHosz47wMEw2+QWQAip6yhdjrB4+efwW5tt6dGcdqUE8Z+8hnXPPYSs1euM7Vuy5Eu58o9/78KEIxCYLlGWeRz56knc97h+5Ow4Ztlqznh+iH02b87lx17JJ5WXHLnQzz04fTK035+B0CQDMnBbVoy+oaB/xmAsDklL22IpjNJQJTi0bPO4PSenSgpzXDZyGd58oOPyErVJJTWSAFn8vP/d4BgsFAE9WtXY9z119C+aR3emP4px/7jHgJf9Bs8lCUkxMoAYcQFZ3DGvnv/C4AgkX+cWdqSJfL4Zti92CrgiuefZN3aTdx5Vl92ad6M9X7AUVdcx9QlK03mY8vvlHc0RGn0q3mAsJW2jj/9aYwInOxFXhkrn+xK3UwpQfXqhEe+QKq4FZkVX6FGn0g2zFDUcF/UYffgvd0XtWC6yXa6R72K06hjOUDIkn2tL87K9/Ak/u/9IXY1i+zEEdiRh1NX2P0+VuO2ePV3wraKsLKrybx9Pnr1dFLV2/9TgGC3O43cw9uggwCrxcG4+9xE6Wsnk9wwF7/18aT2vp7c6FOx18wkm6pH8bGvwIZV5Mb0Li8xdP4pg+CLEoIXEiY89MzHyX5yM4WBg3/UCBx3O7zn9zCxRHLXc6HLAMKJg8nNe5ZEoH4GEIJX+uCv+cpkEZP9F5hWbtkjvCn3Ec2+GzvdAH30M7D8cxh3JThlJLoMRe10LF52I/bow/BWLYvFKXc4heQ+A00b5h915AHCVrL0rwIEE3kF7NaoFaMHnsttr77NQ+PfY9It19Cl2Xb8uGEVR996Nx8vWSqUA9N+6IkDtiRb8O8DhM1zHizjRGTAT0TDOnWpmyxk7/Ytufa4IylKu3w4dxF9hw5nUVmZUQWM8w2bj38jg2CU9CIjAmQ7FkOOP44Lj+lJWsHdY97hiqdeo02D2ky/9XoSTpIPPv+afYbcWVkF8U8OEKxQyKQiCGVRgMOZB+zB9Sf2Rtqhr3r2OZ6eNp1ST8iP5S2VjkTUok7xfwcIpivEsThtj86MuvAsk324+JFnuGfcRKP0rF1t2iMrV68UvxkgKOjUuDk5K+D7BcvY5Hj02X03nhjQ35Q5xsyYwZF3PPCTOKz5Mja3POYBwlbaNf47TmPKTJGQbxXBxyOJPr4LJSn4I56Fem1wvnub3NSrSGZ/JNrrDpwdz6Ls7T4mg/CvAIK9Yhqe5ZA++nWys5/B+eYl3NYnUdaoNamSsnhabEENUo33wncLUO+cS3blR78OEEIfmh9Maq9ryb3Shyi7lGSzXoQ9bsF9/hiyZXPQqabYx71JVPo9ydfPwQ+ki2ELSVFEoBO+TyBrbepw9Bd3EaoUTq8HCO1C7NEniKQq3q79sDpfgvvujXjfPYX9TzIIlQDCefPjLKnOEbx9A/6ikaSSTQiPfoFgyQe4k6/Cs0KsfYaTaHsogdK40x4h88VQErIP7f8gTqtD/lCtxTxA2Epr9FcBgiiJKbin32mcvFcXRo2dRCYIOH6/rjQrrse63CZemTyTm956nUVrNkJOdAlEtOM3AoRyJTHXtTiuayc6bd+Kq0e9QC6ncJ0sY66/nO47tiJb6nHavSN56aOPzQcnJKRfBggfcNLdI7eUGGwRG5GauRALPS48oAc3n30ChVaCSx97irvfmEibhg15/84rKXKKmL1sIbtcNMT0DW/BIf/3EsN/PIMgdT8nQVZmDvjr6N1tb0Zd2J+sDuh38wO8+s1cgmyGZCqBF4pGfSKeQWH9PoAgRX1Hh4y+7GIO6tIOL7DZ9W/XMHv5KhyZ2illF98Mvaj0vn4rQKiRSnBB572YsnIxU+d8a7Iwe7Zsy1uDLyDluCxbvorm50pEU5mbYkoMeYCwlXaNP/9pTKUtivBl8qrMTyiLyI07DvfHD9EdLsfq1Af/w3vwvnkNv0EXavS8nTDdCK8SQHgNp9HmEkN5BmHFZMLQJnXUiyx/9TiKEwU4MshOZrGEAZGdxHNCVI09cQ8YTG7ClbDhMxLFbXH6bC4x3GoyXFJi2JxBkHKI07QXzv7DKBl3CcmFr1OaqEfh9ifiLRiNzqwgafu4ew0jKqxJ6bjTSYrCbeMqbY6eiMblYOFUgnEniQwETtPelAnHZ9kktF5KsvlxODuciLfwDfScVwx/t2qJYQtA0CT6fR+LyTkWas5blL3bH207uK3Pwt+wiHDFWxT5BUQ7HkKi/d8IajfBX70O9cp++NXSFB7yIqpG8z+0rJcHCFtpjQoj3oosXpj+ESfe8Uh5P22Fk2tIaBh8Wm+O26OrGRzk2RaNCwtIph3R0uH71SWceuOtzFy2PB6lTEDCt0zLpKNd3h58iWlzlDqzG8HCtetp0e+SKrVz4QRYRshsxLn9aFaniMNuv49NZSEpneONgZez987tyOUynHPPSF786AuswCOokrUyJYZDD8IXYGNZPPPe+/Qd9hihlcWK3FjIp1yySELLLts0ZcyQq0glU9z43Ivc8fIYOjRuwtShg1CuxcTpn3HonfdVSo3LJWVg0pRbrqFz620M+U3sOGfxcna6cCCUCwhVXREmGWMpDm2zHa/ccI0hKd4zZjx/f+hpdEKoA7Gs6k/5EBGQskN0lGT4OX3o33O/mNcQKR6dOJnzHnjKdAZUbmIQcSFlZkfs0bohz1x2KbVqVuPLuXOZNGeuES/SlsP46Z/w7rz5ZtiTES0RbQAD6hLMGi5tjo3NzAp5X4aDcOUNv8w6VoqiwOP7xx+guHqCteuzdLx4IMs2bCpvhxSRqc3zOLZ8XyPOP5Mz9t3LpG1dmfwZWew44Cq+WbCcsLxDoeKnLoOlJlw6gLMeHcFzM74gkfM5sHN7XrriItPhMWbyTI6498HK4koiuIRlyl/B8yPiYVRVVOe20nLKn+ZPZIHNXQxmaqxImW1aTDj7VaIlH6HDUqxkAW6jrtjt+xAka8eE2zmvwPLZaNvC7nAyds1m8XyCIIf31evoNXPISRfDLmejlsxFT78cP7sGyy0iCDVuWIaOpMOqOu4hD6PWLiDY9AO6sCmpXU4iXDyDSNQVlYPTuhdO7e3JfXRfPOytdjuSbQ8kXDGP4NuX0Bs3kmjYFpp2wf/qNVRmOUGDnSmo157SHz/A9cqgTivcdn2MfLltghjJBiq0lyP45lWiH6ZD0iXZcl90SRnZxe+CXYRqvCu2U0y4fJbpcEq0Px5dq6kpJdhBGd7nz6I3LZFVg9N9UDl7SmH7m+Cz58ismoVdUIfENt0I185DLZ1Fplp9nO2OJtF0RyMuZ718NLnau5Hc+wqji/NH8n7yAGGrLURhqdm8NHM6x93xsKnZVU4Dx8Vl2bzlpRsBHB0y4dYb6di6OWtWbaLPkNuZMW8RUaoaOvBMK2Eql6As6eH4LmNuuoT92+8Qp56EpLh63c8BgjgHEdlzFTf3PoYjduvAETcNZbGfpVlxIS9fcyVt6tRj4Zo1HHnDUD5fvtK0MspQni2HZuhpxzPgsINMxC9Ex6fe+5DT7hhJlMhhhQkDgCqS+moXpBh7/VV0bNqEyZ/P5oS7H2D/3bbjifP/Ri4MOOPGu3lu7pxKssLio0Ua+L0hV7P79tsaICJtjnMWr2TnC6+Nh5mIzG8V1y0T3EIr4LDtW/DaDdcaufVhb41nwKgXDUgzg1wqJOJsZROKEJJTxH1nHst5RgdB8vUWoyZN5qz7nzRRUqWVZ9CCDGkDywAAIABJREFUYpta1Zh0x400LUpjW+Ua7T8NfokY/MhT3DhughkcI7oNduAS2R5W6DLjnuvZpakABAxA+HDeQvb4NYAA7N20KZOGDjYTIb9d+CN7DLqdtaVlv/Clah694AzO7L4PORVixtxENh2vuJYv5y6W5o2fDcDccZtGfHjTIG599VXuGTvRKHY+e9FZHLBTe1Zkshx56fV8tGpNpWtK86SlHXQyR+6ZJ+ItNN/GsNV2kP+WE4kUuQxTkz1OtDqkdGoU3a2EEeWylciRK5NKN+I+KmUGIEmCTVClFWWNvkbGTuFKVuLDkXiLXiXVri9RvZ0NkdFaOpXcF4/g5koJjn4S3XBPUnhGSjmyRQpMVF+zZq/z7LThNrnmnkrRKmnuy2RGTduvj28nzVj0wsg3Cqu+7Zrl7ggJV2qGykVbQpKWPWeLzogI4BlYpER7RlOmkiTknDIUzwrxrBSuyMprGUQlmT1ph5I9qHxgXJgzqqwRzs9Gv4t1kmGGwBLpeukGE9vJ/UhLto0XBQROEvfdy7BanYZq0hbliCbvHwcR8gBha61KHRBqm7dmzuToOx8ilEFFVYhk5rVGIjoiG6t8RJoPbh5E520bsHx1KQfffhef/bAUJ5L2Fd9MT7O9BGHSw9UJo4Ow7w5tTAZBmOnL165nu3MvNfMEKh4JXHwvQ9ttG/BA//NI2Jo1y9fSulkzWjSqw+ow4Lr7H+ex96bjm0mK0l2wRTdc7m/4WSdx9kE9zIKR1PYL73/CyXeNJKAMIlHcq9ylIc+2+zZNGXHBWWzXoD5PvDuVnrvsSING9Xl2/EQuHvGMmSwom8mW0B5cx2L6DdfSvlUzEko4viHfLVnBThdfhy/1RKP2Xzm2lzY+mcJ48Pbb8uoNgwzounvsOwwY9QJavLEl2YAti8hMSLN8LKeAR886nlP229e0gcqAlBcmT6XvA4/jm6mTlTM+copOLZox6dprSNSQ0TDxiG0zjEVoBpFm0IOjuHnCu+hI1CUjo6YYOT6uleDju69nx0YNzAAY+a3P5/9gMgjSDvUvDxXxt/26849z+prhVl99v4Du1w9lfWkFCe4qvywzL574+1kct3dXs7mYbU7Z7HXlIGbOXkgog5bMFJktNim0LW477liO3LcrcxYsIFFcSNfm27EyyHD3Cy9z1zuTieRZKpFXBSAoalVzWPH4Q/FXmB/3vLV2kP+a80g5VZytmUwvd20+LSkXyj4i/11WnB/vKdJyu1kaTHhR8mfluhwyD0HW0IbXT6e4ZBHhgSOx67cxWYbSeROxPryaVMMDsLpfQS5VncTmKYri1EWgLR5PVj4V0fRsxeNRTDuuuOm45djSHpFJd7lmTHncfRPvX5EsZBVPgowzmptlzMrnJJRriUo5NR54n8AywYVIteeM9LMZxy7PXT6gyaiQGGVa0XGJrydzTERIvvIWI9nA2Jayz9qBT85Kk7AysHwe/jcvY9fpCPNGEx1+D9pKkviDhUfyAGErLUshBIqa3mffzeegIf9g9aaSn7XNieCQCOKEiOSwLCiHY3fdmfqNqlO2McMbs2azcs0G3IRrUv6xhHESpcuoUVCdSTdeSrtmTU0qXq62YW0JO152HcvXb9zicyUSFi1x7RgnWj/l0GuXDuy87fYGbX+7cglvfzbTTBMUfx0FGZQg7gpOuCCZ4MWL+9Fj951NWUQ+3g/nLuSwW+9j/aZVaNJxBqGSboBMYYKWNdIctVcX2jXbloQP42d/zaszPmSTr0wLUszV2Hxo6lQr4pPB19Fgmzq40t5nRfy4cj0dBwxkddkmEwlXbXN0zLAkRfPCQg7fszOuH/H5kh+Z+M18M/wkvrcKi1FKDEmREk4y5sqL6LZj2/JNSzH9q284fOg9rC2pIo1d/vYaVCviuN12QScT2JHQl2JwJxkHuYcZn3/DzBUrjO6BtEo6UYLQKqN+cR0+vv1qGtapbVQzAx3y/aLldB14M+tK/nU2QDaoPVs0oWObbdGBxbqSjTz/8ZfkqgKYClYsSqcYc/WFdGrXBtcIRMrbtDnzgVE8O+49PLd8v6pEW1C4CcWezRrSY6ddqJl2WLy6hAlffMq3S1ZSIkxpUYSr2GJqslOaY7p14vkLziZynfJE7FZaRPnT/FdYwEx4NdUlcZieAY0C5GOFT5kFEwNiI89l9g/5B+kNiAe6yR+YoW6hS0b0YjasxvnyYey1C8jqMoRgnXYKCJp0Q7c5lCBRYCThRThM1rdos8g1yhuKf3K70nAjwYzsm6ZF0YyZF2mBGMwYPy4/Yxy4JrQsGUpLQfm8Ftk6pbQrAVIlRy5zdiSwMdnMeNuTPUieLCdEcqVIGtBfPjFSJqCKfkS5TohIwxMFuI5b+byhAJfNKrayr4h0fS7ug9q4DG/GXdi5HNHOZ5rsgRslzN7/8zmR/7nPJg8QtpJtJWMg7YWlGZ9DbhzKh99+G0eKccG8fIqXLBQ7HiksmSwnQhR+PeWb3vdAJDgdkdUViWFRXNSQEsGODDs0b8Hk6wdQq7jYLDJJsXuZkJ63DmfaF1+XlzMkRSX7eoSbc8xYZfncCqwEZZJGk1HKoQxxyqGEGRyVxbV3twCCWAFQlkaLBvWZfvt1VC+UFKBl7mdTAPsPvo0vvv+OwBO0vDkVFw9CMsjdl7JIgfnQQyHuGa1Sqc1bJn3mm3lA5TaRrUQpdmu1HeOvGEC6ZhICje0oNpX4HHzzXXzwzRyDvKWF8CdOgRFXksWaMAOwJJMRmVFwkvJLorysIXeazUqcnEQ12sZyI7Zv3JhpNw+mZso1LGnLUWwsCzhw8M3M+m6hSUfGYKRc9VImz5lMj4cKEmbTM5LU5ZGMqDPaYbzRmE1LdOBJEVo5urTegfFXX0gynSoHdAGbSj26XT+UL+cvjLGV2T3FEcdIywQz0sUg/+6IWmb8hKbNzIyqLf9YZcc1JREZyhTRunlTpt92LYUp13S/yPuSmOSpj2dz7m3DKN2szVDhW5fYS/s5SKYxKlGi2yE8DRNYldstvqtY8Mvs8poCy+HF227g4G3qG/XNvBLCVtpA/otOYyr0RjZUAphypylTa7XorsifxZFzTFKRCNoyiofm3+Ktz6wjmRuSElEwkfq2qxGatRpn9iRVL1wYO5Tgp0jia2zbN8JqJjNh1mk8oVEctIyWF78eyL4QL98YoJQ7dJEokTKBTJOM17FkOUJTDvHL9Ves8meS/atypC/PFstNC4FYwLds4ZLJlGeUbIQ2Im/lS7q8Y80AlIqy6FWmO3rxVoJrJroK99jM6TX35pAjq11U4Bk+mQ5TZm+Uh/zjCgzyPJVE+P+LvtI/2a2G0hInzP4w5KVPZnP2sPvYkMmZ/V8+XpEkLvcDFT7byg9holPzWW8myVhGW78wleTGU3tz7gF7k3LTW+JvrXnx/U/p98B9rM9EJCOFJ/OK5cOVnID5kjYvkYrXKv/IylGwyWaI9r9jkXQj7jmzH2ce0LXSzQWRz/MffUr/YQ+ySSYYmpNvuVcBQRVnQsS//FOx/qd/FTERAQyh0lRzk9x8+vGc22MPLGHLG1EkEFj/+MczufjBUWw0tfc4QjF+S8oOps73C4eZ+CibUlzSkAVXmE4y/ILTOb1zFzN+20y+lJEFYcjIaTO48L6RlMkkRJleKcOgRAWqPNnx0/joKitT9gGTTjRSyuJy4wxJUTLBneecyundO+NYUn2NDylPPDnpI/726ENsKovMOO2sEb3aTDqMywBVOReye5hvw/yc3ISQVoVlDcUJzciLLuWYLjtWNkjosWSTzwlDbuf9+QvNBmQSmWZ+hkCOOAL6pcPcldhDNmGZkqtDDujQgWevuIgaSTGPbXgj+SNvgbwF/jctkAcIW+u9yrhRo4LnkdUJLhj5JE+PmYSnXaxERBSUoKwC4+y0GY5eecaA3IZtx/MBDPI0SNnFSrqctGtb7ruwPwlXJhhWTlP5Xo5Ln3+BR8e8T67UN1GsQdiCbA1TP57FVsV7mCjf4ANzHZMBJFmYoOfurXnmgvMpSKUq/YofBWb+w/nD7ufxGZ/hh+KwRGFNoluZwW4TBlVq6wLpTSQRQx8zAEXUIcMEdpjlhJ7duOfsUyhOREYKOik1CsmO2FkyocVlo57lsXem4kkbki2RSi7OrmwmC/7LdxfXF0XCWHr6beVx4j5duff8fiQla2MiGNsABZFzLYsc+t77AKOnfYIfpHATGj8oxbaSJtIRopKJ4KsoOlryvkSJsjw0UlaSZDpB304duPPcs1GWT1qksisc0j3S/4kneGr8DCIvIhAil3lfjkltyvWqAgQDRGzJIERxhwY6HsiUVJx6QBceOOVUEsnK1zHnCCO+Xr2eI6+5gfkr1uG4SfMMYZSNORRS8vqlo1x0y40stK1pUL2Axwb8nX1bb2dEl2RMuMi8/pERzdZarvnz5C2Qt8CvWyAPEH7dRv/WT8SJGHGCIo0MJX7EP14bzd1vjWd9aWBY7DlTV4jTRHGqvfKphZ1vyC6mwzFHtZTLKd26cU2fo6lbsxDLi7ASlTd1T/uUlQTc9eqb3PXOW5RkxYmA5Tom2o718ytfyJQhpI7oiBxoaCSTUynF2fv0YOAJfSisZpNQVeplQURgazLZkDtffpN73xnL+pIMkZM0YxmkNh0YueIKhwmI48FBAlTEycpDVytwOGXfLgw87ljqFaUNuQ8S5mcDLRb0SPmwJhcx6JU3eeGd8WwUZTOxcShz2n/ZJZk0vaVMurPIsTj50AO59tgjqGc7ZK2QlMjGGgcptskZIaqSnOKml1/h/rfHksn65n4DbZt7MryG8tJCxccTmWgBP/I3HeaoVZCmb/fuXHX80RQXuSRCW4qilUziEbBxfY5bnn+Nh6dMJOPFrGqZ+xCZyZrSPlmFlCmPLe1OrmXel5Q9iguS9N+/J5cedRgF1SxD8Kx4RKYmGhj+6eT5i7j0oZHMXbIcX55ZiJaGgf4LZElJfYZKGnPQTsSu9eox9Nyz2KtNSxLCqZD0rOjz/1urI/9DeQvkLfDfaIE8QNhKb81QFEPpPpAIV+pwMVHlw2++45mJU/h80RKWi0KYSIEKz0BS7ZX1cuNIPoqoU1TIri2acdRenenWoT0pEc8RUo7Uuqvcr9niwxCfiA+/W8iTb0/ii2VLWbFhg6nlGYZtlQHDktIWVq+MGZZrdWjSlOO6dWGfdq0pchOGDFRxuKPx75KQFqdJZMSD3v96Dq9/MJMZ333P6tKymOtedTiVXFoi71DUFh1qFRawc8MGHL/fPnTfuZ3hJYjwjzh0RzuGgyHkn0juT/gSKiRSNlO/msPj4yfy5dIVrC3N4EtG4RcO6YyoXpBk12ZNOX7vPdh7x7akHAtf2oeEV2DKIUIodPBl8qWtcALIKpj29VxemvwBn/y4hNUbSwilni8TKw1RqapDjcsR9YqL2G3b5hyzT1f22rEdrpYshTIkRnlvFQ9J8ds6IBsFTJvzPc+Mn8oXixezsjQmZMYUiMo5BMMXEJhnQf1qxezcpAnHdu/Mnu1aUmCLBLQdy2ZUxGZhRE4yWn6II8JHZVmefWcC734xm+9XryMThAYk/tJRkHRoUbcW+7drx4kHdqN+YTr+EGzXfD8yRKai3sRWWkr50+QtkLfAn8QCeYCwlV/EZhdS0S1kg4CSsgx+GI/9/ae0AHMfcQ06YdsmxZ9OCP08/m+bmQT/OmKLKTE5P6QkK05Uau+//HDiu1zHoSAp1xKXtoWg969Cw/gq8U9mfZ/SbK78WuW/W/WS5TcuUbhjWwjjXpT6jN80DON4zLL8+U/HT6eK/0wrRU5smMni+dL6+CsZBCET2TbVCtKkDMNnc21/y29WfA65rvRvb24DzPohmzIZglAIQ7/0vuJbSdiO4Ymk/u33Fb8YsWTWDyjNZvGCmKj0S8fm91WYSpFy4/cVm+qf22OLGeNnkwxMaSZLxpN+8l+5mGGpK9LJJEXJJDJHJGaFlxNSf/UtbOWFlT9d3gJ5C/zhFsgDhD/c5PkL5i2Qt0DeAnkL5C3w57dAHiD8+d9R/g7zFshbIG+BvAXyFvjDLZAHCH+4yfMXzFsgb4G8BfIWyFvgz2+BPED487+j/B3mLZC3QN4CeQvkLfCHWyAPEP5wk+cvmLdA3gJ5C+QtkLfAn98CeYDw539H+TvMWyBvgbwF8hbIW+APt0AeIPzhJs9fMG+BvAXyFshbIG+BP78F8gDhz/+O8neYt0DeAnkL5C2Qt8AfboE8QPjDTZ6/YN4CeQvkLZC3QN4Cf34L5AHCn/8d5e8wb4G8BfIWyFsgb4E/3AJ5gPCHmzx/wbwF8hbIWyBvgbwF/vwWyAOEP/87yt/hzyzwL+Y+5C2Vt0DeAnkL5C2w1SzwPw8QzJheM9YmNNMLQ62wlMLSEVpGK8vkwq1mzvyJ/tMWkOFJUSQTMx3CSGHrHLaT/E9f9p+eX5tvSMlkaPOFyXCjfzU46d+/QY02o5iteNS0DlBVvtDIXDcemhUPuZJ5j7/xkHWhIVBmYrWZIipHWD6O3P5pMNNvPvOv3ojWIaGyseQ9mnHacv+/7zoRUTwJU6ZoItM0ZRR15YFU4ebhVpHsBTJW25bBq/kjb4G8Bf6FBf7nAUKoo3gT1cpM5hNIYCbbyaaqyIOD/7alIX4t8FEqRFsWGRwKrP8/27y4VCUTk80MZ4W2zaTv33WIS4vQ2MZhC1Bw4omXFQ4zUdHM35ZPOQTzjSd+03XlGmaepPZA2YTiUkNx074ZNx1YrnmW/wP0+OX7kMuGkUElBqMIODHA6vcdMd6Rkdy+CQTkhJoqNok0WUuR0Ao7jOJJ1f+fvp3f97T5385b4I+xwP88QDAbaSTOJCQgRKmkmWFvyeYo/z30sdz0H2Pt/FV+twXECfhRhB3ZRAQG/Mlo5/8fh2SnAp1DK4lYEybSl+zU7znk+UIdYGOb7ESgFU48YfmnI4pyaHFu2pUrorQ43N8GTYyfFlxjIm95Dske2NhKG9AcKoHQ8V9b85DrZvBJRz6hShkI4pSPOf9d19Hg6azJDNi5BDrpo7RT6ZRiV7GjrSxCJZa2cAxKyB95C+Qt8M8s8D8PEHI6IEmOcONGbDtFaEmJQTaPgJxbA99NU5T/Nv57LCBpcS/CX/4dyaXzCdrsRqJmvf8v9x+GPmzKYFsOJB0i18ayfi9YicAXAOCiwgxkV4FTZEDtT4d49lBBUTW0JS5XMirVfpsNBFQoC19rXMkalK0CVQaJ+kR2NSy5tuMC8r+teMjtZjPgrcdP1yVwHFKSCfm9lxCzKY8oq0hucskmQhJhlXeRAdUQspSR1gXxRX/v6/q9953//bwF/sQW+J8HCCY5m1lFdnR/rNIFqMhCNeiAzqwlym4iWdwAf9cLcJvuhgotIlsyCxGhcnDwMHljE81JhBKRlNyDFUlWl0iFOBLKqQitpWwR8xukOiwpTzuSHSlNkF2Gs/hzoqK6WPV3wbc9EmEarAhfSRQjaWL5LcdsWnH6Vw45Vw4rcuP0qWQ+quykkVyznGeByqKiFIGS2q6FE1qEtuRePZROElplWJs3RsmeCAMjknu2yVmRiaasUK4jqWuFCjW+TfkzSiYmIjIOyTLp6NAJsLwQHMfYwv6NaW55QikBSbU41BpbykBKm2vE92HhW5qkJ88Rp4RNMnr9BvzTTsB6+12CqwfiDrza2F1sIeeSurqtQ/MOfNsiEalK/vWfrUctTja08WxIRBaeJQnqLcY2CXl5R8KBkPdihajV3xFNGkSQXYy75404Lfb7maeLf0eeS35Lzhc/4+bDlAsIpZhgIl7DLFASY6dwv3uH0g+HoqJS823YUYCOtFQECFJFpLvdgW7UhlClqybTf3XLke8p0j6RfKcb11Iy7Trstd+R7HwFVuuD4vepHVOG23yEhCZzE1hiX/mm5LuU/2pyJ7F9bHnCLWAmLiNERDpAKxd75dcE716C72VIHHg/ToN2sV0qXMiUWYRbohPm/FJmib/7LXYzdpJ3bIqGGewoHa+b18EaIDwO+a4FR5mvHFeyJI4HnyTR1WR9yPfuVrrXXzVa/gfyFviLWeB/HiCYOrG3gdzTh6DKFhCoFHbfz3HX/kj2/f5k13xBQe3dSPZ8Dq9GMYmg3AlYFoGtcHQZ6CRYtiGPCTlOAISUKEIdoixHEt1EOiSpNqFJYfspAyJCO8QOXPwPb8f99G4ytVqS7vUEYe26iJ8NxFFECQLbxdIK2W7jjVD+T8h4UkvNAZKKFQdjXHPlT1R2YJVBB2lwpYxio8IIRwCAgAMigTk42sEiRCsH5YOXkDqsb+rYvuWQCGyULQ7II1ASXWWxpf4tAMmQOn3ZtbEDyCZsUoE2ztSKxInbpOQ2fmM0Jlu3OCk7GxGkElhRiG+5SFnfDiK0Y+OqUiLPwXOSOJZHIgjRQQJuGwzPv4S6+UY4/JD4d7SDL8Q3x8YRzCWOzIuIkq5JPf/SEc17i0gXolp2NeeJLONWKvxKhA4hskLCsvUklnxF2Vf3k/rhY4JUTZz9bkG36vnzgDTSREqKITahikgKSbZivGzAXez7ItsjxMcVgEoC69MnCd6/CeVkCUjgSlreTRIGDrpAkTjkVXSdHXEtecO/jYMgl/XKFsGqJeiPh+EunYmfdHH3vh21w5EolTOgstKtCnwJQ7K2Qyoqw1vwEXa6ANWgs+EtKElKmG9gC6qQ96IkI+Jtwl76CZmZd6HWfSsrBnXUa7iNOqAMyN5i6ph9EQMQ+ScBsapqCUVO7JSigxSRLRd2sD1FdH+EukSgghUTPYkM8IwEpNUKsBc6RGmIBNwaePAbP9q/mIPIP+5f2wJ/OYCgtI3qPwdXpwgnDYK5TxFIzbfHnVg7HErkFWLbWdSGlQSSGShsiu3I5qdNxK/1BjSFhEEBUbIMNxOi/DKUW0SUspCChjh5J9KEuY040SZKpt5KYd0ulGz8gYLd+xMUVTfRYhjmSG4ohYICtJNEu3E8FHPhbeM0tBSHXWWci4mFKvPVhM5mHJAbxaztiCxKp1lvRaQkDg0lsrPIiXNat5qooAArVUgkkdWm9fiuTTJZxMawhOpOdSRWLQxW4i/Lmvp6skkDHCeNHzkmqg/tgEQUEdgQlSUk3MamFDtMolK/jcshTirwQgInJCmuMRSopchGHun1G1B1GuPbLsnSElR2DVFBDVSimDDKGXab8teirFrYbooSN6Ag9FCeT+ikDSDYuOoH0tVr4aSrY/8KN0BPGoivCnG7XWpoK4bfXjGq1SGRAESp/789kGjx2wS6FDdSBMkapLvdQtT64J9leEIBCFaAGzhghSY7ItmmzYf8o6n6a0wtXocS+ZYRqQTRqh9QK74ksrNYgU/OSZNcMZXg69dwWvXE2ncIYaIulgBW+7fV0rUO4KU+6JUzCRyXXBji2olfBAgGxAiAtF2cbBnh9CFQ3AB7pwvNd+GWg8lKW6pE+ZkM3nuXkZw3kZwrAE9yDiHW0aNxGu6IrMlKNYaYP2nAq7G54QtU+fBx8FVAUtazVnhWFjdMEX6WxfrUwnc0vs5iewWkv1eEd0VYJznoR4X4KStFY1tbn2Px13Yn+af/X7PAXw4gBLqQ9PlfmyRoduqN6M9fRqUs3D1uhm0PwP/qIbJrF5FWAerH9yEoxdqhD36nS0lpmw1jT6Vw5QI2ptIU7zkIPf0OWDcHv3FXCg96mCBRDXvZLKJpd+Pn5hJVa42zahbhTmeRancyXkFdXNuHhVPxZ96NozU57eHUbY/d5VLsgjomDBOYIO7S90Oc9V/hZiRKFKdVMeIRr+IT1tsVbAsnUEROiIoc9KypWKedRzhnHvZDN5H9ainOA/ehW7fFGvEY6tWnUHcNxw8hMewf5M7vj7N4MeEDj5BctJAwsxZr8vtkqtUgfclF6L7HE937BOG4NwgdTfKUc8iefCzJJWuxH3+EsvMvoqB2rd9US5Z2vWjZ93DBFaj3ZmDt3B7dqxfh7UNR2Y2oQdejGtQiGngnesFX6N7HYY16EGu1j77kXKKJH6B67EfwzEiSdw9HP/4smeXrKRhyFdEbb6DHvoFduwXq+cdgn31+ce0G4wcS2JpktxvIWB4FJmtU4VcErAnow0N/8QxRjQao+R9gzX6SbEEB6W7DsFseUAlUyG8H+HE75oqvUZKxkbR9hdOaLoJUPaK6TdHKw4lSpm1SwGhgSTeDh6WTcfZq3TxK37mCRHYe9gHPYjdrayJnQ7f7jWQ7KWpkxt+E26I90Y+TUbNfBqfwVwHC5oICQRlqyvXoWs2JdjkvjvQle2UIlRUAkIZsGKK+eZyg9vYkZj5MtHhKTBI+6rVygBCX1jYfvnz9YUC4ciYJ3wVDZtxSeDN2VSXoRl2xLWW+eyl3SSZCSogCwARoa5UlWpUkOtLC+i5Ev+gTdU+jtI9riK2/DVT9r23++efJW+DXLPCXAwgSmdvnLMJaNwdv3IWoDZ9CrY64h4wiU7qWxPhzsI8Zi7JSRJ8MJ/fJUOzC+qiDRuDWa8W6UTtTIPu8m0RvdzhOrpRwwWiT4k0d9hxRcRPCiacRLvsatf1xuDsPIBx9KNlcQGKnk0h0upRo0zJyb/QluW4B0TFPoDetx55wEex2KWHnc0lYgakrmygnt5bMu1ejF0/C1Rk0BRXdC16dnSg46F6swiKCMG3I7KLxwOSJRAf2JNAR7r6Hozu2Jhx6J5Flk9yhLarP0ZSMeprkovk4e3Qneu9N9KOPwLCHsN6fihcpEiedQjBhDG5hI6JJb0HpaqxDj8XftAF72x1QY18huP127AMOJzr6cNyqUXqg8Z0AWwCLYY9XpuOLH9Tfz8PqdgDBsoWENevjnt+P8OabkKxxVLsu9t/64838CPftMUAR1ldTCVPV4aCeWHMWEJxwDO6opwmuuJRg+DBSyRT60COwtmlKcPc9WNJzf8UA3JturRrYmhp2zP5XhO8OMgBvvVgdAAAgAElEQVQh0e06fKUMb0FaFyVNbexpatlxSSUObxXelBtxPn8Qv6AuVo+7cFt2+xnrTTodLG8jpa+ciLNuLsqOHfrmQ9Lj1rbHkeg6GJ0S9QHhOgjXRGrv5cWIMCDQLs60y8nOfgGn5WE4+94d1/u18GY8AwpDC1Nr97BNcSSU8o2SEliE9DtUTuP7WL60Zioy0wbifv40YeKXMwgCjwQk6VBaL3PoSUMI6zbD2ekMUyJT5e2FFTkIYqsg0sKuISsOfMLf0fNfi3UjjhqN3bAtlpQSKnFrQihdybrRZ+BuWkRCbYSowPAzNh+lRW2p1ecFIltAgVCF5D0JIJNXo3A8SXdA9tKQ1IMW+tiAcGSE46ZiWpFwSPLlhV/zD/k//4tb4C8HECS9SKN9sNZ/hy5bg9PgUKK9++PU3g614kf82Y9i7TMQHWbITbkM69sp2AkX66CHcBvtSskjHUiEHqRrYB30GHrNbKJpg4mkPt5tFH7aRo89E0uIZW3PRe11Cfqpnmz0l1O9+o6og0dS9vG9JGePJLB93OPfM2nqkuf2w6neGnXMSySTCVNztkNxECFB2RKsQGJRC1d2w0oQwUYXNcOyJXUaYknKVZj0498j6tkd4+du+wdB971RXXaPW7/23RfrmUfxT+2HO24sUefdsSdOI/vueBKj3yAaPhz94w+4J59K+MlMVMKCCeNQHXZBH9ubcMIEU24Ieh1MsmZD9P23QXF1I3hT8fDCCNsKsEJxV1m0IzyILXV9ExN+/z1qvwMIfliAu8vuBK+9im7VAjsXoVo2xx83AefpZ9CDrsWOLKKPZ6Bq10Ed2JPo27nQ5wSsp57AG3Ap7n3DEb9g3XQLqvfhsFNn7NJNcG5/1AP3Vbq3MNhIbsZjWKs/RwpDwcZF2L5HVHdHrCiDqt4Gq9P5qFR10wooTl1VIVn4k24k/OZhLKuYRI/h6Fb7/SyDIqJOEluzYQFCYqh6DvFWQbIAVVgTO4zbJEUXoOIhJZVo6Xd475yK7W0k0WOYIRIaoS+DWkSsKTDdOVaUNDoD8pqljCD9/r6TMgTUWFRpyxEgGYsE/rRriL58ypS5fomDEPkeuY+Gotf8gLIyWGvnEyaLsAsbmjKBrr8jyc4XVeIgCECIXbFGyi3huL8Rff9WXFI55g2sBm1+DhAksxSEsPEHU1pDiSaDkA62HDoqhZrtjRaGjnxZLTHBV7gw5RoL4awA6ygHtTZAP+pgH5cXPvmL+7v84/9GC/zlAIIvjO/zvsH+6g68afegC5tR0O1Wss26kgwS5JwcyeU/kp12Nc6Kd8hGCQoLmxHuP+wngGDpLLq4MQVHvkuw8E3CqYPwrVKq7TmKXPUC9FsnY0WaRNuz8bpdiTVyH6JgGdTbBefAe8mNPh979WRcVYQ+chLKXk/wyuk4RSk49GV0zWZo24MgYVKlwarZONJ1EZYSudUrvWLfiShosJtJw0rnm22I8vongGB0fF5/HqfedpTtvRtC4OaSSwgGXQO9T8EaO4Zwt04wcyJK2Ft+Fvuj0ZRceRd61qckhMfoOCQnjaO0656kv/6IcLeDicJ1uFECtXYeYVEDHCU19soOSM94mtzHN5EL1lFsuQT7P4bbZr8Ku3wMEPz9eqAWLSZ38EG4zz6F27ABQSZC77gD1uRJ2Pc/RDTwGkNWiz6eiVWnMkDQT49AXXolethwrJp1CJ97gmzbHSjYficsfyOc1R/urwIQsiWEX7yCXbKArJUkXDiVIh0QNeqI5yQIq7ehcMde4FbDEv6HEo5H5ef7dwCCpPJtAZQrP0X7ZYRRqlIk7PgCRmqj63UwrEolHSgm3t5yRFEJ2XE3kfx2FL6VIHXyh1CjUdw1YNRAFeJPRS9Bh1lKx12Cu3A0vrbwazeg9mEvQlH9crLr/x0gkMnCJ0+iyzbg6xISi6eAU4Ooye7S34Bb0Bi6nFi5JfP/AhBMaikkWjkTlduA8hP4opZZwfweAQXNupILNa4BnlJaiMy7kr+CANzzEujHQNf2CKZbJFpULu/8xr0y/+N5C/zlLPCXAwiecql2zjz0pnVk3joRte5raN6NRM/HiNb9QPDJzbg/vkvY4RKUkyaaeRthwiFx4IifAIJDlrCwEcne41Dzx+FPu9J0NBR2f5SoWSeCDwajvn2VsEFn7Hanot+/mjBnQ/fLSTXvgT+6N+GaBajAwmt/KMVRmsBO4SfTpHY5hyhdCwthtLvY0XqCqfcRrPgIFyeOqCocVvVtsLvfgnJcBCwkdCKug5dnEIzYzkvP4jZsRdS9o0krWxdfDlddTnTCSYTvjsXevTNMfp9wxhTUdTegvvgCa8gNqLFT8N9+Ge0W4Ix7E79rd0msY/U9jejpF7GFdHf7PagLzzVaAFXL4PrrV8hO+bt02VNkrSHsNgZ3B0nDbznCBQuw9tmHaOkyVK9DsJ54jLBpA3wvJLlDe8LJ72I98BDRddfEbZAfz0RVAQjqqRHoAZfj33sfbo268NoLWNu0JNy+dUwgPfs81P33V76uaYMMDBnQlbz+xGsotVO43S437ZoOUs6RNru4+0Nkg0Rgp+Lx7wAELdF8lMEb/3fCssU4kRASt5zHkhLHNj1xdjoH4TGaDJGqrD0Qrv0R/6VjsL0fiao1wz5pCpYdk2FjJqvk2H2ylosdeEQvnYW78iPTTruxuIg6R01FF9X+mSrib80gmHIBORwvRc7JmsxZWLwNBR1OQOliAss3QLEykPrtGQSxWeSXkn27H7afIRGFpuOnYonBcYvg8MewLOm0kV5NqRsY+ScssfFc0AdBuESjOiiscQGqTp538JfzcPkH/l0W+N8HCJJy9DfiPd0LXbYQV9l4535Pwl9N8Mrx2Gvm49VsSfqQ58nMvBk1dzRhsjapI0dg/fAJ2Q8H47gJ9EGPkGzUkU1SYoh8VEFzrBNfQs2ZTm76pShyuHu/gGq7C9b3H1L64WBS9XY1EU3GqUdhq06EDfdA5TTRW0eTW/2NIVMVHD8eq3orwqgUe/1SdO0mRCoV99tbkpoNCKVFTNuEwrquwIA3UrnSJ56objINomArGvSmvXH8FHTPfQ3RkVeexmrQCnvv3QlDC+uSi1HXXk1w/PGodyagOnVBT50ERx5JOOEd3HpN0V9+CmdfTO71p0knk+i3x8Kee0DWR519OqWvv0UquwmrSSv0xLewt9nWtIJWPHIbF5GYP0Uq19hWDt20F1atpj/9iGnC/H4Bdre9KFm+lMJeh+E/9TjUr40tdurQHvXuJKwHBSBcGzs4AxBqow6QEsO3cYnhiccJL7uE3IP3kSyojX7zReymzYnatccvLSNxbn+sKhmEuNifIzDaEhpr4jVkKSbV/cpyFWM37qGX9tNyPkBV2eHNAEGZEsM90KrHz0sMBKZVVCLhWJWnMg9D3mckaR83ZTIkwiOQXEUlIDL/HXjrTHIJl8LmvYl63mrS6EL0M+BAUuviFK0Qggjv2wkQLBOeo2n5tLc/ASUiThVq7rHWgBStHP4fe+cBLlVxvvHfzCm7exvVimDHrhFLUCFgA6zYNdZEjYklMbHX2GJMLIlRE0v0b6LGhr137L2iwQ4oKL3esrvnnJn5P9/sInBNQAImF9zhEYF79uyZ90z55ivvmz1XCTHYMEf8g4tRaw9FKSkzFGNzLoeP/4zUj0rOg4Znfo3rtCbpJoeQ81THUZWrYu6nFwNBSlDx+TD28WNxn9zvjQi9x/3oFdZBSzxknjLHzI/lqNzi34UT47PdMqfdLNLcip6zQ4iiJfwkHjSjMuIswt6bovYWuEPcYIu9OyCY1wmxSAtn7cM1BL4LCCz1BoLQrwZpSvqPgSTFKX6DjY/6BMolsnt2x04dharvRrzd1ag3ziX77G2C+mVgj78Tvv8WxTd+Ra6wHMnga4m7rkfyjw2JpcqurhP6gEfh44cpP3eO32/qBl1IKe6Fe+pIVP33yG1xLGTTKbVCoV6RLLMmWb47+sGDCEY9RUuujoY9hxF12YRSMh4ptYsHXEBQ342i1hSqbHcLMxDFvepL64c/id5uiF9cy3f/g9xyq1DquwU6UKTHHU3h5POwh+yNfvA5VN+N0A89TLp1P9w77xH17AkjPiA74ED0U/ejVB3FJx6ksOlGZFfein7vXRg/FvXgQ9jYUfzDJeR+8jPy0byucX/mm03i5DUwKgmBs5v8PBs9hrDfALJJE0l22BFz099oXGkV0tZZuI2/R/DoU5Svu5rCaaeQCF/E8y/B8t2Jth2CGf0J5X32pXDD9bSddCKFy66GpgbsvXeTrroiep1NyLU0Y475GeFll88XxuKTv/dlpvGWJ0NgqhS8889yT58+B969DqMa0IMvIV5TwicLx0fwTd5t8sIl6DcuIhX+gY1PQG3xs2pmf/tPV5InxWio/qlyqv4XBBWe7knGcQTl58/AjhgmFB/E/S6DdbfH6hIBDfNuzNaRSiIkM8jKnTEv/RrXeVXY4GCf6ymkYd4jMq994GmblZVSxIzg4V/RMuoBYsnZGfogwYpro8h/jbBozvN/E4QqOgxWck4DIX+KceekBOdKPo7CDHVwu1gpNdaDb4Zm7aoaAhUElnoDIRUageIsspsH4UoTcSol/NkYTFZC3zkUO2McJp+Hra/DfnIr4Ue3V9yVm56BGf0sasqr/nQf9TsVt+ruZDf3Q2ct6MY10Ps+iP3kMdTzJ5JKAto2N5KfOYbiW6eRc5pZEs5IilV2xnpUt3UJBp6LKSWUnjyGfDoOu+n55NbbCzvhDdo+epD81uegY2EDDKrhgoUrxfJJWs6SPPUw0ZChnqkwvOMm3AprQf/NsEYRSIjhzBNgn33JnhiO3nRj3FPPoPY7CPXk/ZQbG9AXXUT8l2spvvka+TBGXXk15fXWIjr919j/u5Zg9GeoPfYhmz4B3acvwR23Qq9eCzevxEsyehT074edPIlw2x2xt1yPWm5lTNaGXn9D9BNPYa77C5z264qGxisvYbp3Rw8egv30Y4I998PecAP6hF9h/3IVqltnuPMudK8VsOtvimudBT87kqBdiKH9g9opo0C3QJcNK4I//tQ6fwLgZPh5qA/+ig2bUFv/kXD1bRe63PCbANZ2x36oSc8SuBzxFueR9TmARY2me5KqTPvkVvP8Wbi3/4YNI+IBf4B1dyGlTDxPxYzYGhmpColMiUznCKeMJI0bMU0rEvvkWM9eNC9q4lkQxkafJRCQPHokwadPYHSZeLdHccuvg9IVZcpFaxWuBNHpkHKGeF+NuyOl6CIKu2vc7cLEWSnDrLUaAjUEvhkCS72BIJx0qjiT4rPn4domQBCTH3I9KjKYZy+gPGUsBT2dYK3DMSv0wr34R+zkUdB9ZdQ6+6I+eQQz8XVsw/rQZ3/iEVdTNmXCul6EA07DjX8P885VvqQq6nuST8lKn7uIeOo7zNKt5NKMUhSTzyJi10x5/V8RbHkkjBpO+N5tJM0jyK04iHKuC7k1diTrsanPRpeDt1DBLuy66VPcXEby+huEZ/6mUl542q8oLteDwi+PoyxZ30P3JDpgF/S5l5CNeAvVuzf84VJ4/kmCS/9C6bPx5DZeD/beibZrbqf+039i11gDtfoGZEMHovv2q5z4zjyL9M1XUbl64mOOQ23X72s8APMbhrJJmS++hJNORs2YCRv3QZ/yS9jvMExaRq++OlxwPvrh+8iuuxUVKuzlFxHUNaLOPIds/Fj0Vv0xp55AcPW1cM+D6E71uNNPRy/TjfSYY9CtGXrnnVA/l1r9f98yC0ZbclJH7/MAFqxjaN66iWzMfdignsJGR0AvYRRcOIPum0zT8sO/IEmnkE810UaH4VYf8LWKkW9yn/bXCEdn5DKyEcOwnz5EFjUSb3gAYa8tkPyESEJdc33I0x5LRYJUsATCLCmMk1Kw2EZeqI4DCWj9C8MqyyqhE6covXktduxz/jQf9T+doMtqVbnnRWU0lPwIoasW49qROzOAlx2teUf9Fgp3qjzbws+n/wTX2mdqCCwtCCz1BoLUgmupEU+E1bCSlEacwwYhJM1oU6LkqYJzpLk6wvIsXNKKC5pI6+qJy0VsMo1YN2HrI0xZOOrFja8xhUKlXKvUWuHSj+tJZn1B8PSJULcs9NweHWls6zSyd68laB6H3eBg4i2PA5qgNAtTno6lmbhuZWyhoUrdIucpuWP4tcS4BQ28iuxthi5ZTHGGT7IL6gs+5TFsESlfQxDkSJsaCGfNIqVEIKVxnYTdMYGZs3DFVmhsgkIXXMtUaG2D+iafOFlu7E5OpJaVImnLyKczcTaCQoyuWzjZK+khqaOlbTINWYSKQrL6BnTzBJyJ0UGIauhMls3yh3unS+jGZXyRRtY2w/MTSHKmqhe9i4SwNSGNM4K6LgQuIm2eiFYxSp6tUD9/6FJDKdTkrUgda8JvoJBokiLKtPr+27gOHUkGyOI/oppiM6kwYdqEUqETOReh24tyLGhgtP+5k21dnPsGXZQTfmuFnjiuQ+kYpUv+p/PSQkuuQ4akOwSeIVL7kkop3ZTx6is92hEl+XmRVsoLlW7DFiUjJUUnAeWmmDzC9yEcCgvbgXmvF2PTK18K1TYRWbNomAQVum154M4VfZFv4fUs2oPXPl1DoAMjsNQbCP817JNWirEjeu8+zHNnY3e+m7hHL583psplZrxxE+EHlxBtczl69aF+kYz14o9X/9f6W/uiGgI1BGoI1BBYqhGoGQiL6fWWKBInClOaRfb2ZQSt03GFBlzYmbCtBVseg+p9EOEq/TC5mNAKb8Did0cvpu7UblNDoIZADYEaAt9xBGoGwmIaAFaK/XW5kmmfGs94Z7OZFRrYuImgrt5LMYscohNmQZWhfVngIvpWF9Pz125TQ6CGQA2BGgI1BOZGoGYgLKbxUKZVtBOpN8KhX65UnCuRLpY4rlftQYUGmylUmPiacb2w+siL6Vlrt6khUEOghkANgRoCC0KgZiAsCKFv+HOTVcncrCUR4RixD6wka6c+adASV2WcxWNgvMjOt5Hx/g0ft3ZZDYEaAjUEagjUEJgvAjUDoTZAagjUEKghUEOghkANga8hUDMQaoOihkANgRoCNQRqCNQQqBkItTFQQ6CGQA2BGgI1BGoILBiBmgdhwRjVrvgvIiAqAlqUFj35jvBAVmR8RdZYSKCUshg3m1PfYZVn1vWiPV52oJ0Y0rf96ELQUyEKrjytFxaU/yv518rz11oNgRoCNQSWRARqBsKS+NaW4mcWdkJdbiEL6whN0TP7icqgCAHZ8jQoTaFUtzy5XIw2ISZNiGziRYRE1Y+oHsKcZ/7/tptxmU82FQluVZyKSqbj4p64uI4wEDlph9bzSjd/289Uu38NgRoCNQQWFwI1A2FxIVm7z2JAwGFevxLz6WNYm+IiRdTnaNSqQ1CuRPH535N7/06y1Xcl1+9cXK5I20tXY798mgaTULRdCbf4FfEqm4hiwGJ4nvnfQtgwMxsSlafR/PRZ1E94lZmrD6a+/zle48ASESwqJfK33ovaF9QQqCFQQ+BfI1AzEGojowMh4DCPnsisz24k330L8gP/4nUUsnxXAlei5ZkLKHx0N9lqg4i3vZBmHdA4daw/vSdP/xI1/UOCQX8j6D3ov1JCap0YCJqoNI3m4WeTG/cCxXX3oL7/6V7LISMkqhkIHWh81R6lhkANgYVBoGYgLAxatWu/ZQQcyaNn0PzF9TR22pRgz3u9LLfSBSKRhjbNZOU2TKErWltikycLWgmbi6T374+eNoJkxxvJf0uyy+07nzgjPgKRCcKZmehSKzpcDhtEqNBnU3wr8s/f8kuo3b6GQA2BGgIegW/HQHBW9Np8TNinb0mcthojNlZ5CYKK/vvC0QyXgLyxlLQhLwp6gXxLuxivUBvrDOss2oUV2V7l89e8Xnwlney73WxWxn10D+nUUbi0FTtzBIVoA8y620KvrQmzZtzbN1NMv6QQLEfWaVn45G50z8Go1bfGvv13bDadoFtf1MxRZDNHkNvoeNwKPUk/eBKaJ0LrBPTMzzDdViLsvR96uQ2xb15Hi5tIvWnC9T0SpUN0mpK9eyvBKttA116ox0+jbdRNxN37Eux1u5cWthpSW0K/+XeSlnEEKibX9xeoXKNoVELbRJK790PNHE08+Br0GtvPM7ZE8tuPOMlklHwBUfmzFhfKYHEoFaFMhtMBJeeIXv4Dba2TyXdegahbH5IP78Cmrejv/YgceUof3YqeOQa94kDM5oegSyXsG3+GcoYLYsJ+J6I+e5q2Ce+QK80kWnd/zJcv4Mbchem0PsHGR6C79kYHGuWEYrOWp/DdnpG13tcQ6JgIfCsGQmU5lgSuygJsCQhsgpGFWLQKsjKI3PJCUg23YKiXxLCqcVFSIXMr1ss3WUTmNV9BWyde+nW2WfBdNwxmD0E7/j3SJ44hN+hGXGNXyk8fBaMeIK1ficahD9PaCPHNu2Knf0mxcw9svApdZo2g2Hk1or5nwX2HUI4D6utXoaWxjvzYd7Eb7E/UfX2ykQ8QDjkfpzTlW7YgThKyzr3J7XEbPHkh6qP7SaJWwt1exPVcFjd1HMWHDqJ+zwfQhS5kT55O6eObiJfrS7Tn7b5GwFpD5GaR3LoHacv72PqNadjzRlShGwZD0DKT8j17YWd9Rn7QVag1hswz26wFaxyBFmNAe9loYbPE5r1UsVUlEczwlQeBUGb/35aQTcLk1oa4K7lxL5M2RZj86gR1yxPOGoktTiPN5cjt8zi6qJl561bkczOJuvVFD72f8kt/pHnkH2jSXUl6DSQ3fgSlbCJRKcFueiJ1WxxBpnMyM77zBmvHXBprT1VDoIbAt2IgWH8qszijSJUSdXavxZ6okMBkKC268Wqh88ydLZOpmLB6EpRNaJ5cdakxs45MSb1b4KmOtddbloIzuVb8CN5x8p1+8+Vxz8CL1xHu8ReyIEY/dhLuwwexWpHb7w7KDauTDduLYMa7uLplKezyIOahH5PWO/SWvyMathtpVMStvCtu86Nxd+9PvP6P/QZfmjGaaOCpuFTh7jgcpj9LudN6NOxxI+XPnkA9fYrf1O2ah1O/7VmYETcRmpT0ez+BoIx64izKH/3jKwMBZ7AuQEulwm27k816i6BpfXK73Y6t61IRvWqZPl8DQV57aosEgUKZHEngCGQMSZXBXGWSFS+TwVw7AJd8Qda0GnqbP6Oe2AfT3EbOGczQv5HOnEbumV9iiOHgxwhtibZbBhElEWH3DQj2uQn70uWYt24gySU09D6AdNUhZI/8EC3Gylo/It76DAKZB+IB+24Px+/0XKx1voZAR0bgWzEQcBZTmg7v3oZbbzcoLFPNKjfQ/CVB/bKYoECwsAujLZJOG4/+/EH0KvvguiyLlvjB7Oacr0MXl7Sa9gnuo6cIem8PXVfBVA2EWm06uHILZvJobM4RfPoabuQVFJNJ3tfC3s8SNdRhb9sPU/wUs8L2BNv8luiDR9BN3XCNK5LcsS9Z0Ea08Wmw2kCCMS/gVt0O3dgNM2U8URhhPr0L++61YEuoulVg77sJWiZTvntvlGkl7tITt9OdZK9diu5zGHTpiXYR9qlTKX88x0BQGVgZKK6FdNheJFPfIeq8Ebndb8IVuvnYkW6dMn8DQYJLVuEmf4wb8xQqCMhcQLz6lmRd1vAjQzvrx414oLK/b4kpTSRccSBx/4uYeffBFIofYKkn3u8p1IRnSIef7g1Q86MnyJU12e3bSMAO23l9wj3vxL58Kdk/ryQX1OO2+zMuasI+dBAmLRGtvR9mm9+Qx3jRLlVLZOzIa2Tt2WoIfGcRWDwGgplOMehM3mRkylRyDNpSzIe3o9baGnIro7TDffkK9vmL0H1+jVp1I9pCTaPEguVsr9PKic7mML5CLfUhCufKaNWAUiltxMQfPEH23K+wO91AtGIfnDPENqMYhBTEYxFYdNmgPnuJ5uE/Jz/kUnK9foBzIYl2xCmUI0U+yciiEKcs2iSYQBMZcTkUfM7CUtUERxRWVYIzRgyE58/FjHuF/BoDsdNLZOPvQidtuB8+TVhXj73tR7iWkbiVdiS381U4JQJTIdmUN7HD9vSbIZsdTW6TE5BtVYiNXNsoSi9eSt2YNyh/7wAY8zxu8gvQ0Av2vIc4zNE6/ASCT+4nDDsRbXES5S9eJNr2Uq90FagQM/x0ih/f/JUHQfIGrM8bKGFu3Rkz/VNsl7WJ97iJIN8V6/QCDQQJPAmjkhlxK+lLJ5MzimIc0DDgSpLe23gnv/zn8XEK83+bkpZmEPTckmCbP1G8cxBR63icyxEf/BLm88fJnj7d57dEP3zCEyKVb9nGfzbosj7x3neQvfhHyiOvQcediAffhtYppXt3QdmMYM2DCLf5DWIhS8ij1moI1BCoIdAREVgsBoKZ9iWl92+nkOuEax6PW38PVNiIefOvBJschs1mYj96DDN5PGq5Fcm+9yPqWidhP76PIMmRrrMNumll1Mf3E5gmEjuRYI1dMVM+Q098DtW4HtmElwlX2gKnW8ieOIn8lmdTnvYpwfIb4VYbhPn8QaIZZaxrQa+yDaXyaBru/QV2lxtIl1+b6N07IWlGr7YNxaYuuE/fIBdoyGZg19qTYOJHJMutigsCCmF9R3xX//kzVQ0ETzJoDdnw35F9+Fdy9atTHno9auTfMG9e7qsFCns/hq1bhuyO/XAt70PPHcjtfK2PzwtdoZnyNva23bCBQ2/6c+JNT6gYC2mJtvt+QjDpJVTn3qihf8M8dibq80fIuvegfuc7yBqWwYy8DV44C5PF2M6rUlhrN9jkIKDgk1rNk//CQJBkV2swtw8hmzYa16U38R63EuQ7YVHolvl7ELxXyRrsmGfIRt6MM440DmnY4FhYaS20rWzUzvv/NdnfNyRtayXsuRXR1pdSvGt7VOtkAhcRHvIcZvRz2GdOwGlNbr9nMSojuWUAgQtQXcHbTJEAACAASURBVDYg3mcY2QuXUh55NUHUiWjHGz2jor1nR4ywQq71Y3I/OBsbSZVDLeT1nw/s2idrCNQQ+DYRWCwGQnHyO+Ru2xG34QmoSU+TNCyH2vAg1G0Hepe1fu0EtOtMuvKWBK+cR7j/S5Rfu4CSbaS+Lkex+XPyPbaHV84nOuBpkseOIuzcG1NYAfXW79F9T4URf8boRrLvn4Z67AiCjY5BffEuWQD5PkdTfuRHhAPOxU55AyaOI9j4Z5SePIhw8N8IJ7xBceLLhGsfRDLieuKNDyZ6+ULcNpeix71EaZ3tiD96lPJ6e1AX9YIo/DYx/5/cW1j9lGzAxVkUh+1I3azxtHVfg4bdbiV98QaK719BDgj3lUz7XnDLvgtnIMwYx7QH96VxxjjKq+9E/dYXkzz0Y8yEN7BNK9Kw240k9asQt86g+b4diaZMIqyPsDveQbz8yiQ0EElo6slTKH18y7wehEU0ECwgJYmx5CuUNcShz1URg8dK3oPkq7jIe5NqBsL/ZHjWvrSGQA2BDojAYjEQ3JdvMePBH1PofzLuk0cJSiXU94/E3HcA8W4PwRuXk6ZtmOU3IfxwGMGuN5M88Qt0XU/SzutRaHsPR4500muo/Z9DPXg4pnU0utceqI//CjvdQvrUz3GtbeT6HYd+8mzSXa9Fv3cHqjQR13NHeOVUgsFXY6Z/gXvtEnT/MzDPnk28/WW4p47DdutD1mtb4rGPgbDzPXIoprAs2Qpbk+97LDpXhwljf5LUwbfPwvffHQuSflcRK7BJkeSOXXHT3idoXJN4+2sovnEaduxbhK6V3C53UOq+NnrYQnoQWiZSvmdXTPMkdFNvcgN/Q/bwj0nTGQSFHoR7Xo9rXM/rJpSeOJbcR3dheg0i2OFSdNCIUWW0i7HeQGgXYlhUA0E8KFJQU32tErqyUoarpNImRBIhpdSxZiD8d0dl7dtqCNQQ6NgILBYDwXz+T9QDu8OWvyX77GFUMpVw81/Sdv/B5Pe+hWxmM+q9mwiaNsD03gLXdW30fQcTLr8JbPwrbGk0jLyT8mcvYn78CPUPHAkzRuNW3pP04xuId70T+9B+pLSS//5vyIafgdnjasLXh5GmE8j12orWV35H3aDrsFNGwls3oL5/POnr5xD3u5SpL/+c7stsj9r6XNJJo4g79SCb8gnFN39D3eRRmCEXYFffz1dECGNfEBQ69ltb6KezWKdw1coR+89HsC+fhC21kHZdnlxhIMHEW0hsnrRpTXJbnwjDL8K2fIzquR25wX/ESsa9nLinvE1298E+LyDo81PiPsd4oSSJMrQ+fRn1H15CmXqyxp7kV9qB8qfXUGiNmbFyI522ugXXfVnc27ehXjgR0/+PBBv8EKUMWWYIwxj3+GkUJUlx+c0J9hjmv1MqCyRPJLtnH8zU0SAhhl2vReU7+xBD4EMMe2NmfU5u0JXoNQa3KwxIJNNR3i5ON6Oy2P+Z0GEzKb0Vvo5AzCcwlvSWgZi2WQQrbUHU/7e0Pbg3etYEz78Q7f8w2ecvYZ87w+OZ2+shjLaUh+1CJPWUXTcg3u160levJh15nQ8xhIOvqoQYHtwXYwyq94HktjoFE1eqcGrMHAs9oGsfqCFQQ+C/gMDiMRDGvUnpvr2I1tidZNK7FFbaHFYfTHbPAaihN+FeuAhlE0p1OQo6xm5wDIx+kNKXH9M46ALs5A+xuRzq+UswO/+J4Onf4noPJCsb9Ht/h92uwjxyPLpcRG15Gjx9Cunut5F/6zqy1snktjiFtgcOJtfnGOy0kSQmR36t/pQePZb8dtdQmvwYwScvk9vud/DhfSQ9tkWXxhNEDZReOJHcD36LndWM7v0DovplfaLi0twkHu+mfYprm4Rq6oGuX5ZsxjhPWUyhK67zygQzx+OyIuSbyJqW9RUngWxnaQkzfQLONBM0LAONK1U1C1NsZsmmj8KWvyDfuJYPLTDlQyhNhaaVcPXLE+qQdPL7lB4+msKuNxB2W20uqB3J4ydiP72ZcNnNULveI8EBHwoItCWdPoEwK2KjAqrz8hWCIaPRxckkD+yJnjYWBl1BsOYQlFq4MJET7QdJtDQJdsZYQttKFi+Dq+9O2vY5+bYUVEy5ey8KaTNuxmRc6HCdVxGSBez0UcQqwMSNBE0rkrZMJyxPxqocqmkF30c7czzatkC+G7ppBYzNKmRJNaKkpXm61fpWQ2CJRWCxGAjpF//E3rsv4foHYOubsL13IyQkGPMQyWo7Yp//PXraGMp13chPfI625QbRqf+JFMc8ThRpgu5b+lLEbPyrZNkEcuL27bkDdsb72Ckj0KsNwY19miDV2B7rYb54m3jlbXFT30QZcD23JpvxT4KJn5IpTbjylui0hP3yGXSv7TFxN4IP7wCbYXr2wzUsQ/jZcGxrgqkrolfeGSa8g+reF9VQmLd0col9tf/+wYU0SNztvuSzksGHCrQPy/sTrXMYyegXz4Cc0a1QX4kLXpP5E2+FW0JuItdqJRyVGcpKnkMOF6Reh8BTUAQS3hBSIoub8QVWN8D4Jwn++SjZ0CuIo4Z5DYQnT8Z88lfoth3xkGtwhQIuyJFKfgSOUO6jpO6lYgC4pBXbOon0kUNwU8eQ2+F6WGO7hZZq8t4D58jkhB8GGAeR0ygjpF5SBVLASc2l+AJMESPli94vIBgkPtkwqdIeSaWCcH2kvj5HfBOVz1kVkTlNKIRMAr3/RY2OeSmcY7Uu1RBYGhBYLAaC+3wEzY/uRdDvEupXHYxVAUkuICcn1XKZ7OlTfUmX67QijHmdqN9JmB4bYdOQnNSdB4ZM1RHJBmWs33uKYUDeZ9/L4ipUtAZtA8qUiFWOsi2RUyGlIPKljtpqYp+lb0llZyImsIYgsFgTk2rJcmjzm1zqKhnzzhiyCLRThE5KNKMqqVOViXFpeMP/og/OlD3NscThhfFSTsCy/Up9qjcarNAOC+FUXrZNtHMEYomJm1wqGWxFWjkQVkshodIxmfcwWF8RIPdz8g6Ee0CHKKl7NWXKI/6PcMxwSuSp63cadF0HPU+6h8M8fgbqwxswwhuw7NroPscS9tgMxPMksQwxULTxm23IdNpeuRo99lVyk1+nbPPEA3+PWns31EKSbPje+URORyLjUAiUrCULgsr4MAYbZKQqJnPWJ1SGYlAEkfdweBIuSXL0f6pwe2tvSImqY87f17nEEyOJcaCc8RUzctXSVlW7lE6bWrdqCHznEFgsBkI5TYhaJ2MLXTA5Q5w1UA5LRJkm0xFhmpEmU8mlmqTQBZcz5JwQxKSUXUxOYtta4sDOn2JlQ9FeLlfjnKai7BAjnPqhC7xBYEJHKPFjMR1UClZOrhV3dKJD6lzmXcYJQtMbokhIlWyKhrjVkRU0kXIYn6Am8WdPl4MRLv6lLklx3nFtqqZBhTdQIcyXwiyolRD3hN4AmL1Bys88GVUlWI71mPkIfrVV4uiCY8XlIIl/YrRplK6YIN5R4ZMUWrBjHibr2of8sj28ARKK8TBXK7dOIWxuxuY0obznuhXQOckZkPtUr/WGiaFMTL55EsYVUVaJ+DJR/TKYXFN7hY4FT+y5uCKs3N8alI4qY895KxJnhdGxDFq8F9JXGbEp2lT0HIS/Q0YSRvQVFEbJuKsYvZ7DMxDjQYwI777xhpjHx9+v1moI1BCoIdCxEFgsBkLH6lLtaWoI1BCoIVBDoIZADYFFRaBmICwqgrXP1xCoIVBDoIZADYGlEIGagbAUvtRal2oI1BCoIVBDoIbAoiJQMxAWFcHa52sI1BCoIVBDoIbAUohAzUBYCl9qrUs1BGoI1BCoIVBDYFERqBkIi4pg7fM1BGoI1BCoIVBDYClEoGYgLIUvtdalGgI1BGoI1BCoIbCoCNQMhEVFsPb5GgI1BGoI1BCoIbAUIrB4DARPMuMp7iqscCKd5+l3lWfyFSqdCqnsXE05L/DjGXiqYoNClOev80Q9nud3iW0eAumP76eQ40h/PN/eXE3+fU4TWuMKdWFYIYzyUBq0pxsU+mOh2FlyQfEjwgmjoJADVVkRBRAZJL4JwZAQKs8Dyld/F1qiypjxfI/+z0ZEo9TSpr7ZbtiL+uRXr115AatsNl2z/N/qCpHVv22VOSU8U87TbOsK1bOfb0KOJcRkFWrtpbmJhqcHwoaeFMwTsQmleFXr1M+3dsuU4K6rc9mThFZorvx1SqUVNdClCDgh8lJVQjLpr6IsVHNVGjmvB1sdInMGi4zHyiLuqmPKeVZSwVb2AJmnopK7xDa/2Fis1X7ZsirBCpW8nzdVTDwcc2My++9CDe95VCvXVvdF2RMWVi/mf4HfYjEQZMi4zKCF3lY50tQxrbnI1NZZntteuP9VdUOY3UnZ7KJA06m+nu6dmsjpCk2yp+WVCSlb4ZK87ltHWTliC1lm+bRlGq7NkKZJ1ZiqGkNzvXUThCzT2MjydY2EgYFQWA5lAVMeXxNCbgkW9jEYTGYJAmG0tBXKYaDsFF9On8H01la013OYy2iShaZqIhTCHE0N9XRvyKPikCRJKQTxQtMq/y8m2qJ8p7MOo4XtUhZZ6+eUMDamWpNrDjBTDbolxHlZa2F1nP1tFYCFDjsrWIKuIWlXQ5iJVoRQRFdoq42K0UJXPi/v9aI8cof8rIiU6UQEtaynvdYtkyBrE0EPrxXiLah265SsRy7XHZdvIvA7XewtBmsiXFBCu7zHd2lpcjDBlf3BrWwtkQoJyi240hQQATMrjKuyNc7ps/FLtiMKG9D57mSqHhWlImHimXSFxVaUUJfYJgcRr6zivL6MKNuGpTaciNu5ZlKhnveH4zmYWC2mlCMIGgkK3UlVPS40FT5gWcNVQuCNy45tOC0WA6FkRdhGJp3h3YlTufjmO3jxo1FMbplF2RqMdV8TzwmMIgwUyzTVs+Waq/Kr/fZmw14rEprUCwcJTW3YwcGb/4BPKWWKDyfO4KKbb+X5ke8zpa2NcpIQRBHWiw7NawE1ENOlUwOb9F6Jk/fenY179vALVlYV//GU0QupMdCRJqVQOJdN6pUZ5YSROsULH43i9zfeygdTZjB9RiuJ13yY6xhXTlFh6FUP4yBgmc5N7LLJBpw4dCgrdOvkdT/Cjj3HFvkVZCJ9JdahP/xWvExJG0T3JwR/APN5ADMiT5ldOa1Vz3NVN4uc3lyDIerhyA6aRfqTzuQaFSoUSukAmyhcLl2yF/FvgLJ4T2ZpQ/2EVzBvXYma9gm2bQZZVvIbnmx87R2dsdOYpuVIV92eYOMjyOpWIKdKKBt6aS6jxVhbeqiyZRtUaVZh/y4XsSOuJfn4bmzbRALRaLF1KKE2rwqXCeyhEVr7Ajrfhbaua9Cw4VDcSrtho5BADFAXEy7BRpRs9CaTzT5BlSz245tJR96CaR2PytpwpoAmmQcTwUq5GFXoTFunVanbcCdY5Ye4KOfF26zNoQPvX/kGI/d/d8liMRBIi7RklvveeI+zbxjGqKkz8PK50i/jCPRsPbu5OiqmWCATUhNaxSqdGjjloL344Q+2IK8cVovq3ZLrQhDK/ltffYWT/vZ3xs9s82515+MtsnrLacX7quZ580pUA73rSdGrqROnHfhDDtnq++QCRymwxC6qeGmW1Ob1m+SUm9KaKi578FEuu+shpiYlv7lVcAnmWaSDIMCKsJEXdBDvgyzKAZutvAJ/OOQgvr/eqkRLsFflm7xK61LvWSn7+aLQXxjUxQHh1QGZSdCpnNIq42aOaVVdesRi8GGdABMkhETYIRmc70g3CEUtmzojrva04lVYmlsyA/fuvZTevoKw+AVGic6LhFYEO42zXxfOSsOAXFoGUyJbdnMKfY/B9NqOLMiRFyVZ2TRYgk/H7d+3rcjjuclvwovnYb54CwLjPSVODAHdCoiY3RyjKNMxxpQokGJEhyVXT7zO/thNjiLKNVYUS0XUbEltXvA2xc4YQ/byqTDmVawSjZZ8xdsdtOJkDIhmS7UZHZHYMgXxTrkQE8Xk1twTs+XJhHEnH26Qk43IvHXktlgMBJda7n37n/zs8iuZ1NziN0HZEOdsZd450w4HSyAxQK8MZHFhTLco5Lpf/JSdN/+ej1WrJVg0adjbIznmokuZVBK1RPH0VoSSZRGvZmxUo5lzYAmcwVqJEYcSLKZrQ8QVxxzFXhtvJC4aL1TVPlTTkQfX157NOhItE0tx1X1PcfLtt9FWNqhMzmIV48G2O2nItT52LIaRCCj5uKgs5jlW797ILScdw6ZrrrJEwbCwD5t6D1xKqhW56RHJL9oIby+gk4pAVSiKmV6Rc3aTwLkYE2IYVAwHMcQTbYisV5TC/KBMcGNE0sOSk1OyQCwGyFLcyu/+HfvkGQSRpagLFGzZG+3Kx4UDrBjs7dRFlSrjTL33YFlbwjStQt3Wf8KttBGBDSo5DEuwzd7+dSeyKs34kOyJM9Djn6cc5gllTRI5d/llI6xPyphjioqomlj1qeQqSPjBphibEW10OHarM72QWbQEH2ykd3bGaILhZ1D+8hmvhOvDeYKJvH+b86E/L0hXbVrmnWRVuYhAKy8bL/tZIEZC/7OwcRO5JSDP7hsZCJVJVD0ByzbXbka0JSnb/fp8Xv5oLKHILVfE7r9KPpzvmuMxld8kFSZixU71PHThr1m3+zJfiwd2lLVrdtdmL74+R8BCSTsKxjBlVomB5/2OkaPHzclbaZf89C89S7OvqS44yihWWr6e4b/5Nat060KmNLklyKviPSbV9pVhZDNe/ngsO51xHjN83HcBq2s1gfWrG8lYlL3PBkTOsMMWfbjrxGO8jLe49ZIg8BteB/fczX9KfC1TztEWlMibHPouBz8KUG2VW1QQloQw8QCI4Lb8taJ46iKFNhmiThm5ukpi3exvDiD5jSE8Ue6tqBc7NhT1SUlSk4s8yP7v1oaVxU9lBF/zMsyeDZUbS/Q6ZzNsRdrSx/d1UJhvfzNRE7UK41JJuxGTB0lVlSiu1QpjAuJv4MWv9L26VvkkVnHhlpCzrZ7+ITx0KGaGzEnvN8CKtyooeyVTZQsYXfSGQmwMbWJABK0YI09SyQMSnH1C42rbwqCrfI5UaOMlzmifez1vv5bbLCN7/XTMG7ejbFZVGhVNUxEtT3EuJlUBsXiAichsC6h8JSnxqzQ9h7E5ooY6wu0ux/X4gd8kO2qbe52SZ2yPiazzyRt/wr5+EdqK7HzRJ7hGLo+R8a2CigqwCkmDzO+BmSTCfmVvf7VjYMKY/DZ/QK+6G4RLSYhBAJSYubh3/1V74v3R7HjSGWRRAW1SjASF2y9yCxgd2khSXg5rE/585CEcte227az5jjO85HXb6snMGwfVxShRisg6HnjtPfa58BLK7Y2Che2CxNdJuOqnP+bQ7bepZFB33Hn2b3v31YJULXA59q9/48pHnvb9WZB90P6mlSoZ5fM3wlBRrwzPX3wO66y0ElryXYJQ5t0SayC0N6p8dyX2qyx6WgCDU8ybQSXBaY755b0sWomHRtyhmrhXEbV8DjUmgImzL5x7QErSa5ng0xz0DDEqQxtJDK4s9JXsc/F7ZYRKwoUhJRdR97XxJ2GxajKkbJ9pRhLGxBgSf8KSoMYCQoVZQhaIvHueNhyNLqNVxxQkY05iuaE4tOfvxm9/HpH1ygcQtCMxkLz2F/Qbl6FJv0JNi9i5y1MyGUGQ4tIQ1XVl4rpu2NbPyFonopDwzVyGrtO0qJhue/0Ns8z3fWLnkjQlBRd/6q0e+L6WYDlrDJNu2Ysu6WRvJCY682NBPABlk6NgSj5Zs0WVKDT2Ich3Ip36Ds4W55mqKmrElaai1/0R0YBfo6K6hV39/mvXz72/zV6r5vny8ixm3ftDChPeR0UJaRb66hUbzUTpAi7LkdOOlmQquWW2JBc1kU17HpO1GxniGS7PQq11APGgi6ohvY49ehboQZi9YM3Pg3DQn67jlmdewijJ8kyxYkgsrIFQ3Skk+/PQbftz3U8P7bC74Zwzk7hwKycWOa1YiWlax0//fD1/f/q5Slx9UZpSvsTqkK234rqfH1bNOu/YA2ru7ra3zP3PnKL/2efz0j8/85nkC4uQ9F4TYny+giXOhZy331BO2G2niqHmM6x9reiiIP8//+zshVweJJNSTqux7yUEW+dQ06pls3MZCCbKCNKQVLUSbZHHXawp920jPqmAu3i2rT1v0M+GGntXmWhIDhsatLjZvTfCFwDixBNTnu5LI4NCN//vqp0HSzwVczflDGXjiGaNwzX2rIQtZGGcT8skYVc2c6nAaGvGTp+C7r4cQdTJ50jYwBAtwHM2t9EuczDwm6DFSh/SVuyjP8F89rwPCXzVghSbSF6PJtOOsLAyesDZqJW3Rj93Fsm7N/p7zJ0UI6HSQHJCNj+KcNPTfeHDkjMjKz2fPS+/WrvmwsSMeQz74M98iFOmWBoa7yXRrowNQjLbRhgsQ7DqdgT9TqKZAnUPHEY29c15DNbUKuqCFNXQC7vHXYQNK/zP59S/e4C58dBStVJd078yq2d8SnbnUFzbTB+6kwJZCZtktkydjcm0JQsj8qvugtnqNExDHv6xG8z4eJ6vlLET6wQKPUgPfom8jOkOHp9aoIEgPfTWuNYUi0WiKCIM553wfU44i7c//hwVyunD4Hyyxrw1/gscHVr5CgbjFDtstjEPnPbLDls76y1OHOVy4vHQ2kfF/cuWSdX/zPN46f0xX+d+WCAI7S8w5Kij/wZr8ujZx1e2vA4+oObuQWtrK/l83nuefNWGlOplAesefzIfjJqMykk278Jt5N5AEJewL62qnO0O2V4MygN9kCr0iaDykyU3wdUYKYdNiePYzztjHIkqk3spIttGE0uguN3SIyEGdAzXWJJBinBZQxZq4p9buEo2X5mzc7AWezxVhuBqBYdnkMWIXS+HHrlKp0VMyyT065eSRfUEPzjL136Hc/ym1c1G8kIqdd7WWILyTLL3huE+fRx2/hNBQ49KdcB8mq8qN4rslccJL/g/9JqrkIybhPrzWajuK/k32d4w+ToC4tWTOVkmJ7iJsS4HFqtwyTTKd++Gmjpm3t1ca2xWwsYrUtjoYNxa2xB0Wk9mNvaFs7Bv316Jt89lAmQYCjZPaa3B1G1/hcd0CZqSX63lMr5kTuZyEj+f09L3byN88jRaVZnY84xUfKSWiJwpMbXLWiyz5amYHpsSRHUUS63E9x5CNv3dr24ic9RIPpWKqVMJyQEvkO/UcfOEZhsIc2Myt2fFTn4Xc/tulHWRWDx31Qo0SWrN6YS25QdSv/Fh2B4bkETdyUkp8s3bYmaOmgfbQManjshTYtaRY+gqXrEObl0u2ECQqiqbctUzz/Pl++NI8pYT99qD7o15UjnL6YDeR53IqImT59oQZUFYuLOhX9CdEOU4Bm28IQ+fcXzHrS+2hiuefoHWsdNoLk/i+P0PoUtdhNFltCvQ97RzefXDeQfHQtsGFVPfY/CD9ddl+Lknelffwm2n/9G3/scfkn0rtnLycPzfc6/y+ciRmM6dOHrn7VmhoROumpuy1tGn8ukXU30G+NeTV7/B18+dE6M0+w/Yipt+cWglQlwtFFlSVm1fvOG3mUod/rS2No699m+s17k7DQ11HDF0CFEoJ/sMXggIBlSM0LnXFTnZS4H2rDpD0wsa92WE6we6zsKvwF5WIUaa+1OVKIzF/EXhfiYJw5X8Ba0SnJwYJ7zC5BevoPvkl7E9doOdL8ZJGMJ7xSIfGgqUlL1V67rlflM+pm34edA6Ak2B3B53EhZ6QGQQV4Bstk6MaUl684mB0pEY8TpIAiq77UkyaQrB788i2P8n6P2Gkl78JyKTQTTvRtZ+lCRZxpWPP8v0L0fzSZvm8h/tR+eGgk8OtqVmktt3gJbx865LVoIfLbR02pguA05l4qzJLLvmYFyuEfP8ydi378TJiW+uVgknatSaOxINvhwlicMdfJGf/fj+1TnLhGltXHDj/5HP1bPRZhtxQJ8+ZL6CSqPfv43sqVMqxlXV2yBn5tQ1od0MyqsPovN6R2JUHarnathiRvbAYTDl9XlwEq9XKFVXLiE48AWCzh3XQEizMtNaA/50922ELW1sPqAfO6+1FiaukLoFk0ZQvmOoH7MekyrflsqVcWmKXu9E4tUHkNb3wnVekSgoU7x5G/T0L762mEmOixYP1FFjfM7Ckm8g4Bjx6RiGnn0B155wHNc98hi7bbEZe/XdBBVVForeR53MpxMmfYOV/d9f4ieaOG+UZXCfDXnk9BM6LHjvjvqcAy+8mD8fdxw3PPAg2278PfYZsAVGlwhdHd9fbAaCrNiWgeutz1Md3UBwlQQ1MRCmt5UYcMKZ3HXuqZx+9Y0M7LMWPxuyA074D7RmrSNP5dPx03CyGS2G1fXAAf248ReHfRXV8rdcDPddpAG9EB/2G6VnqAm45dln+f3t93L7iccz4IILeOTEX/K9NVbzd8tetIT9xQX69alhZYEXEpu8IttMEdxn0U3AcQ5z6WwGzrlDDBUDwV2psD+tcJ168iqg5BP1ZqLGf0hp+G8Iuvck3PESn63tqyaDlMxKoEdyF+TJDFpOVTYlmDWB5PWLUJ+/QLTPMLJOvX02QmgjsrHPE3z5tnfLB8ZiGnoQrbUrWRQTFltI1l6faMPecMVV2K0HQpBHvfs2ppBfYIjh47FfsvcFl/DXXxzJgN/8jr8efCAHbDcQJIbe1kL59sHQOmEeAyHVETmpR0aRqjrqTRv28PfQEld//mTc28OwWqqP5rYQJP8FgjV2Jhx8OXpJijE4R2ITbnzoBe5+8xUO3W47jrvmL7x68aV07VaHk3yKkbeQDT91rg77yURqLfUqpVXVkcUhDesdRbjZUdjyTNKHD4FJczwI8uHUk8TJdmqIDnge3aXjGgjWGC677zHGTBjPzltuyfF/vZJnzruAhsZYSnsIJr9NedjQOR4Sn7ArBHgN1LkSrbmAoo7pbGEErAAAIABJREFUvNXpBGvv7Ss9yrcNhhkftDMulfd+ipc9PnI02uf0dWzrcoEeBOnM7c+/xuGXXsdLvz+eS+59hhWWW4bzf7g7Ls2wccDaR53CpxO/OwbCLc+9xglX/ZWnLz6dS+54hmU6xZy1/54Qpt9dA8E7ZiGy8Or7H7H7hZfz+bUX8qsrh1EOSlxxxGHoyDupawbCPMuGbMvGh0QkC+DCm4bx6oej+fMJB7POkRdwy7EHsMPmm/mTy3wNBMlX8VSubbBtAXeHGAhqoQyETKVEElOljJNwxawvSO47gnznVcl2vJxY4rMSbjRFyuNeh9JUcj37ktav4Ok9JJNbkhObHz+W/JiXCPe+Dzr1rJT42hDbPA7bOpNQFb09VM4VyHVf0+fuhK0lysv1IBi4McFlN+C26YfJEvTI9wkKXcRpMd/2zHsjOenqf3D7SUez/unncMy2W3PBQfvN10AwKiVHvSfvskJ5Wq6j/ievLtUGQpmEE664hY9apvPbnQez/aV/4rHjT6bPWr3IJJ/ig2GYp06esxl6unxLFluCJEck4RdTINz4eGz/Q9FtraT3HYab9sY872fJMhAcu55zHt9fY112/cHmDDjnHJ457Rw2Wr2H508Mpr5DcvscA0F8foHLyEIIxCi2ncmcIR54AdkG+xCRUL5pW9zMsUu/gSCR3gdffZuDLr6Sp393Cn+870nW7tWTE4Zu7/USZHKvJR6E75CB8NCrIzjqyqt58vzTuPjux1mlW2dO3HsXbFD+DhsIIMU/Qh7z4djxDDzrt3x+zSUcc83NNOUV5x90EHG+chqpeRDmrBsS/5Szu8ylzCkuG3Yvj38whr8ffSC9f34Wd/7qcLbZ9HuVmur5eBBSOSlrqW4w6L4R7gGH7uQWykDwGhk+QVEy/QPcrEmYuw4nXGYNSjtfSmBn4VQjcVYkGX4JavoIwv6nka3Yx3+vhHiCBNLhx+LGvQz73u6T0xKliWxI9vlzBF++6ePakbHYhh6Ea++OiSOCUivltTcgt8GauCuuwmw9sFIe+e5bZIUcsbhj59Neef9DTrjmZv7vpKPY9PgzOXHXwZyxz57zNRB8Oad4XXzRleAXER36zlJrIMhYK7uUc64bxrtTJ3H60B3Z6w+X88hJJ7LO6stXaKQ/kBDDSfMEVSQBW6i+JacgdDmMnkJh47PINjvce37M/T/FTJ03xLAkGQgmMxz6pz+z2vI92K3f5gw++zc8deZZrL3qsr7slUnvkN6x6zxeFe0kr8r55FYplRX+loYBV5GutRM5ZUj/MQQz85PvgIHg4POp0xl6xjmctt9+3PHii/x0550ZuMHqngxDOLZ7H1MNMVQUTKpuk4XLQfCSTn6RgUF9NuCRMzpuiGHclBkceNElnLLXXtz65BP8ZJc92GrdVTCU0eTZ8tRzePmjMQudh/H19a+C4cD1JcRwQqWKoYO6zuVJyzjymfXaCjuceT5n7rErf7j3Xn6y6xB22mwzrx8gXse1jzyNT8ZPBmUWuszxX+0Rs0MMMmHlKOv58Dq25+6rbkg803O2+2x5zWNvv8uPLvkLNx3/c46/7nqGnX0qq3Xv4pPt7EsW/QM5xX+9e5JcKN2Xojy2TjD3QNig4TiN+dO/qmKQsWSwfwF+KpuvRWcaE0mSceCJk3TbeJK7DiDsvhrZkGupt2ACSbRS1EllvE9GFroYS2xLpEG9pwOLHv8ZavRw3H5PEtSvhBI3fabFieAXUhkHFSE3ef+hn/c+B2HPfSh/MZ7wgl8THHwk+uA9SX57MbHU44fzz0GYMGU6u5x7PqfvtRdHXP93/n7UEeywycY+NyMrNWNvHYTxZYtzrUuSSxAJFbyt1LdHKfmD/ukNhOT50zBv3/Q1qnwvEKYhWm0n1JC/VEtql5DB5h3+8PCLb3Hlg/cx6Pvf56ZHHuHpP1xELu+LGeGft1F6+tSKwVcl/pFDYF7ItFQzLimgdEy80VnQ/wBMcQal+w4naOdBkI0zMjITLeEBz3XoEENmDfe8OoKHn32W7bboyz8ee5x7zz7dr+eBzqEnvkfpzp2rORkVMjeh2C4Yh9Z1yOclRyg34HLc+jv5cuOWG4cQzvpXBkKFgyM8ctTSEWKQgKcMqg/GfsHnEydTly+w2ZqrUJcXus1KW/2Ykxjz5SS/Jsu1Pk65sHPGM1JJSU3Itputx0OnHO/rnztik2zpDz4fy9gZs6gT2t/VVyPMRwhNvtGKbU47l2c/Gr3oj+4naMDW6/fm0bNP8u57T0/dAZs8qVjioXZkKuD9seMZO2EinQt51ltjVRqiwFNuJ9qx4dFn8uG4sRXa5MXQlwMHbsWNRx9eYaj0tLAihrIYbvw/uEUxTXll5AeUU8fyXTux7so9EA0lqf4wrziCAdqLn7UfBVJiLDX/Wnavfobsfk3QlMFxMekVzsf8hbl0dvPmiDAqXm5QR0guQUrUjgTJtkyh/PKFBPXLE/b9JQi9LPPfqCU8oV+5ntL01wn7X0BU34jy1Lz/vgkJj9CtJ68NJ7p6GKrXiqQTp6HPPQ66rehfpYyd+TVjrJ+Tn0+f6bUB+n9vA3JBhcOglEwnumUQ5eLkapLlv7mTkG0d+iYqlCTFX6PeuwHrF6G5eRDwruVCj8Gku1xDLKWZ7So7/gfD5ht+pfPlwS3llLfe/5g2A+us0I0eyy9bKQuVX+/fQvMzZ5EzRUygUfbrTJGiYhn2ORM2+wm6OIvkgcNwc5U5yvuy8tksJRI9goOeQnde9Rs+43//MjnotqaGER+OYkYp4Xur9GDF7l3nGPGT3yW9c9cKPbI1pJKX0K6EXcpho4GXkawzlLwQtt22HXb6Z/N0xte6uTbvZdZHfYgOhNujYy9U3yAHwWFM6jcmT0CTOVy1zHH2aXbjX57FO+O+8LEqoZis6O/9Bx1XjjBVDO67IfeedlyHLVQTCeZK/XclC1VOYl6ypSrDO+TM83ly5KeLPtK9paXZfsPePHzWSX4CL6hkbNG/9D+8g8+QFldklVJaTrxGXOfak0pJQo6MCclk3+jnZ/LxF194NrI5tNP/4fdKld52/bnqyEN9Hb2cGJdkA8H7E2zmww3C0KayBBVKpr8mecUQ9avQmM9rIIhnRgxs5UtJ6Z+g7qoqNx5r0ZdHPkO9/YxsVYrClQ5zREJoIlR71StJJMxmVUoMw3o/1hc0/iSjwiYltChG5uu8sRgtwOuVGaGpNSipdEhboGUGQVM3AtWAEDK6wC5QuE30OjwVt5yCxRvjRb9ibyCkpamY2/aAVjHa57MuKU18yDvYukbahp9B/NE/vJbM3M27nFWZYJV9CXe8sEqk9B+O3f/yx2RVlox9qTzzo8Ep0urclEeRf8v+eRvZc8fhRK0y1ESp8V6/eTBwEbmNT0H1PRjKMyk+cARatBvmbKne+lQmwahG6vZ/ELqs8V/u7Tf/ukzYEGVGWZFkljkk+i+VhGppbvJ7pHftiE2DyhzJkgqV+VzNEFLY5hKytXcichHFW7ZFz5jXg+BLs9PQ0+YXDn8XooZv/pD/oysXaCD4BOvMoUJRBheqVclerkoQV62oAy+6mltefklUK/ymntmEhT3++8TQUBEUDftv34/rjj3Ml151xCYeBHFny1pcThOCXOwnV+irMDSH/PFKbn7htUpi+qI0WZAzx/4DN+fGY4/AaFGQ+w8Mr0V5hm/62Wq9nt+gpIwtSyGquMOFKEeWbnnHItvV/5Tf8cr7H3gBk4Ul1Gr/OGGgOWevnTlxn90qpXyiMiflVR2Y2nVBkNpM3JhVkTPPQSJc7pb0A7BbtVFobmhXRSwbbIW8pVm10TAgj7lToRsVnGgpXWrJO9Gvn3dAziSh/l4NuwrVseh8tJ9v3h/gqYjFO+YjiMKFPJ8mSYzC2i8u5oIcJoIFlwHaLPVMiiIC1OwcTSqlhZgGT8WdeQXTcAFywaIYK67eWAe+lNJ4dkThzDeocgvlR46FcU/Mn1tFacyhb1DIdSZ79je4Dy7FZfXz8EdImq2zrQSbn0O8+Y9RKtdRZ+TX35JMzdSiQ00iBlUgdMEV4iQ/dYQXYvRwkkcO8AyTTsq208hXUs3dQteC2+Q80r4/I1ecjnngUOzkt+cyD8SMqoSt0obVKez+D3RTxyVKEky8hHoupJSl5MPQyzfPJiuz00ZRund34tYW0ihFp6ZKQT0HFfHQqe3+THmdXalzqlLm2C4HQTQ/IEdWvxx1+zyBK4gKZMduCzYQqrWws8kkxLJq7+574J2P2ff88yilXnLHc8BXfMfzy0eYvdBUFi1Px6EhX7ZcfNShHD14q6+9hI4EpcQtJUbnT/XCIy/nY5MQhDH/eO1dfnLxZRSFPnph29xruJbhFHLJzw7m6G36em31jiqb6r1Gwk8ghzdZaLxo5ez+V6hdPUcBhp9ffydX3XuPp+b2A0VevG//zqKSsVIlDPhqf5L7Obo0NPDEuaey0SorVFyAYiBIbf3C4t6BrpcTtXDXi0fOsxejyEkS3bSYdPcy0fMV2uE5UPgshiqbp4Hummyo5DU49CtSuibzUQynigEg70bWqnLXZuLXm1ArO8rKkG8X0zNW6iqECCjzBotkOHzdDzEvcHKIyBlNEiTEJufr68WsnV/LnKelJxMtBvEyKS/jVhHE8ZUT2pM4zd8ycZ4oyfMrWOc9DtJPH0qRefjWZZRfu8KHMX0uZlVbQf5U4YSo/B6suZcX5ZNyzOK0DyqeC8/iKGaPDDk5WTvyu96OW3GTyslzCRpt8k792Knmis1mrBHsJPwQNo+l+c6h5IvTUUGJxDR5vgs/Q6uh40wrCp02gW69SGWIfjkcW5pWgaHKt6FFyEp8OL13xA68iDA3fz2O/+X0896n6jv8ijq/+kAep9I0mh/4MXVfvo3JlTGZhK7kqObdpv53UR923fsSd1kG5Rown92HLTdXPMz+smpelM4IVt6ZYNurICehwo5tInwjA2FBL685Sdn69LN44+PxlblECa1i79asqPgKy1u7hIKqSzoKRLJWXPYZKlfP8nHI4xeewXrLLbtAitYFPdd/8+fegMoyXBTx5awWhpx8HiMnTvLDyEoSi2fVFBGdSvDlX22FvhZddMfD2DORifDC8oHm+T9dwGrdOyHTVPBaUlvmMsI04IXRYxh46mlkquBzBkiFEEpOZmKZt9/aZUsSj0RVzri6Uon7XVzPQzfqw91n/GJJheQbPbeMBSXzw8Zwp0UdGHgVVGHJF7+AN9qrm7C4+Gcv/j7kV12ApJRSXMXKWZ8nE0uuwtkOe6b2REVS4uaJW5aS5pcXGTMBtDmom/o2rQ//FNc6ldilKCVSveWq5LOv2aiI7LQLh/w/e+cBZlVxvvHfnHbv3QWWLmBHxYpd7BW7UeyxGxNL1MRojDX2mGaJ+o9Rk2hsMfbYW1QUsXdRwUa30dvuvfeUmfk/35wL7IKCCJpdsvM8Pgredr4zZ+ad73u/9815VcIvEjOsFMEa/iq7EOx0Jcqvd94frTar9y3upazV8ZAL8N+7iSSQMoGANSFxCrAyjmgqQFN8OmYPKX/JHBR9DEFknnBZRO006kA08Gr0ilsQ+AvmrnyLn/r9vUXMml6+kuD1y4nDAKsVzsFShP0kW+a4BJJRnruqO30MAaziMWKNs6RP5YAkYHjHqzBrDMo7jlq5Vf0SAQhZlvDEmyM44i/XMmNG6lKisjjlZjySlxQAMA9ScqhUXieTTfzoLV2igL+f+nP23Ggtl6VY2Gnl+5shC/8mQd9CXJHtX+p6D735IT+/8mq+qMh1apSpYLxiDhBqm+D8IMFR2glUgGymPeojrjnlFwxafy0C4TmooNVmEBYeoTxFLc6C0lt87SODOe+WO6nI8VEJkBRDoto8aSbN606SsztjpMbueu2F6wDdOiseO/c8Nly59RKgvklcFvYaEXIRgCnchLBqSY4JCP4d4MWGTE4kwh9w63XNcbVZci4HC3I6lERN6k7DgfWobmsJ79Sk3RMiW+/iLyn5pWU40qxkJJzhVICvM7Lhd5A9czpB4DnXPSXumE5ZX17t4StRk2yZTpeadFVVEYFcTAHbpQfRttfg91knPzv6uTfI0jLcNc36lOoTP8dOfAfPNS9Li2MRvwaUHBhoDqRq3ny+Ea6L0A8ku9eIXecovC3PJVMRxTY8t9w6PXM81adPw37xmmsDltKVZLrE+0VcZHMDuWagqZbJUjbECJhySucGr9+ehJtf5A5HYaHY6vXclgxAsImzZL1n6Gv88tabmTqt4lzgEGSlRXJTFrKWAMGhbi9E2Mfyv7rVFbjwRwfx460HEAm73fPb1GYohjOBACMhZzmvKsuNQ1/i7BvvYvKsGMIQlcTuhCxpPgc25zkte1phC+L4VaFnfT1nHXwAx+2+A0VZ4KWc4YyI2nLyHMq6SkHmgy1y+u13c+NTQ2maPhMrXTGSBq+VKmYvuHKyk3KO696wijAIndrmah07c8sZp7L+qj0cOl+ahyFGp5IjEJOqJlRaR3bYVIL/dBOjeqp0oi7O26fyck2ztHlN0jgWLYJwFj4NxP1nUvhXiaaVYzpIw6KYG0UCZNvwKW+eCZCr4UpWIHGks0RObtkMKm/dQfj2nyAu4aky1hPHyVxS15UPmrk9ykfK6TmgA9Y2MbNzVxo2OxWv78HOQ6QcWDpIS8PSgw/cASWhEaZ8gv3PCfhTP3OZEjmwaFMm9ATeh45gPHsIWBfeUcltkpbUD0lWG0T9thfg+yFWFDjbcOZTrjOzMZSnoh/+EeHE4ZigmMdEOjUkFp6UxuYe+SRbJyTtohViNq57K1xuEP5uv3fZlCoBBck9tfLlfIkABBJDLGyXNOONjz/l+meH8PqIjxgzZSqN1cRtaVIPnHcUgwIrdu3MlmusxGE77cjm/VZ0U08HBUJJqc7nPd96twE5rWit8syHbOba0mgNb44cxb+eeo6n3/uAL6c1UU6qro/2q/b5+iCgT5cGtlpndY4cuA0DVlnZka6cg5hMsFp9v/VGYcG/LM8q5d0NQi6cGVd5ZtgI/vnUM7wx9jO+mDaDJMu1MOYABOm/lrxMYOkURqzcsyc7rrcmh2y/Jev17o0No1btNb8k7lXmuB2iMhE4ompBAOZ0hb0b1O2gPzH4kxRCbnQU4tnpXyUtytoBVtUAql+A2cOgD7cEy0rWTrn0Z2DFbjlaaKfAkriW7+8zhJOQuzk6lwmlSKx1LZBaRJw+vh0zaRimaSoqbXSktEx7eC0IeQoT1WE6Lk/Ye3PCtQ4i67YmkYqdeZEzsRO+RBsmxM57P1xTu/XIMo1fHk/28b2Y0YOxM8bgpY1kNnQlqdwxNR8y38TEyxQ7k/TciOJqA/FW2A0TdspLEmlGKITkNjtyS/M0ywgqU9AfP0g25mns9A/x08loiYmjC81duZxvjpCLi11Iu61Loe+20HdP/LAbOrCYOCEqFFu9JPySAQguLpIKzidL1Vg+nzKNzydPppII4vyKiruCKAhYpksXVlqmByWXYchTVy64c0SX2sascv6OUndz/cRzOXUSl9gYxkycxMRps4gTWehnP1ktry2MAvp07spK3bsTyYPlcETO48hpaHk6vq0Plz0RECWZAeXRZCyjv5jApGnTSEWhp/nIJ5X7p75YolfXrqzYrQuBJ4u/0+5rteJRS+o+OaKd1MfFktg6uSl36pU54U0PMJ9YvBk1paR5BEgckVYAaT3YfkA3gQw5d8GdmoXI6FqTg1Z/mlm0eOYkxzydNxuPS50ldYqAArjUtJHOSwDhF+RduvMNzy9Cx97QsY8D9o52XUsn53ovOVF5qRlzrsk5hDjiqypPQs+agJfMyP1y5iVmylwUAaxiF1SnFTBhg3M0kmyn8F1kfkn2s+2OWuO+cC3ccqRRlSmYWV+iYolJfvBpuWzl+kFhsbOLiQ07O6dUJy1WKwdKbFv7Q7dkAELbvfPtv7w9Au0RaI9AewTaI9Aega+IQDtAaJ8W7RFoj0B7BNoj0B6B9gjMF4F2gNA+Kdoj0B6B9gi0R6A9Au0R+I4Agsn7qMXhynEHvLmtQ64vVuqd85bpRPnNNSvnNUKndJm7EblioLQXtXINiQVPJ1F+ddJ+0uIorY1SO25Zh5uvcil9tVI39WqtMcLGcB4VOR9BWLJtu4tBeBp5DVfus1YGXyi+bs5IzVNqwVKlmxsZealU+OS6HQnI8RaCfMoIL1bppap//6smldPYEK0juXZhXTilQI0v7WSi4CaaEDU69LxmXrMFzmaLukjccw6I5z7DE8382TX61k6pXswFPBfyyuW+57bWSk97LuqTm2bNU0t2/J8UPxP1JGmvTfCl28NJO/sYX7o/lp42Bqc8KbwNA6knXZxlNNLiKGZ68tdOE7XFMzqbFCttyrJGOfE4J1rlLMDwauvfYt6+/9rb3ePinj3x2pGVSHh1YjKWzxVZg0Sdxmkf1Ebe0CAcH4lJ3mEkgnqiNCt/crwMJwv+X7usb/TFSySDUBUyRiIiNyKWoYgbE6Y3pUyulF17nnQO+UFLVcFUPOB9n7pigW6d6ih5lqLod0s7m2t58No0H0/mR2YyAmNpSjTjZs1EVVLSNHMa325BcrNo7gwpRz496urpXShRivLe2STV+IH0F4uIi6XOa7tsYFEsi50crjDtxdTJirUH5SRj8rSyI3A6V7/mbGARaqmFKFI+DR1LNNT5RHUlymlMJ6+0dLWZfcVjKxu5W26EyCuLrs4IlAiMwdS4yoRyE5RjtFMlm59p5zTlCyHd6uvpWaxDrFTEv14IsCKdLqBBtBbEPGtpHolNIavimXrSeBrB1HqCWT5UFU6q8atEEUXCuZeh2tWnXhRiBbQL2yyqkKVFgiBvP15ahjQa+7pC5oeQ5pL5YZO4OE520suJKjjZ7eay3SIvL9tnGEQQdUMLI7YoHSOQuTkl87Xtgih3zDMVfFugqquEfoCKy1CZjGfLWBtgRROh2bolMcmMdd0bXqErqI7EERSNgEyZa+IZI6T21j13lghAkECIiIvooQ9+7yOue+xJho0cx4TG6cSubW1+7UDfiDRAQLeOdWy00vIctfNO7LRRfwcUZBhPRIFad/AWuCiYjEZtGTxsBLc8+hQvjxnF5MYKaZK6U5u0SOUCLXMBQkevQKf6Iv1XW55jd9yOXddfj2IYOE0J0bQPZLOUU2MbHSKBG9vEqfkFNmRGonnklVf5+6NP8OHkaUxvrJCI6EizIdPBZQs8RTEM6dqpA9ut3Y9f7LIL662yEgRem9LL+Da3TjZ+d8p32ZM8+/L5rEZuGfwc9wx5gfGTpzElrrpN/quGzLd6P2D5rl3YeYP+HLfX7qwqFtLOH0OyN8LOltNzG37evkFgU1HhFkGoOyzJDSGF9yx2lsWmNeFlOf3O2wVSNHg9fOwmmuwUi7+pceqJgbZUgoyi+H4sRXGT1Vp6+yPJ8M0Yi333JpJPn8aWJ+NnMUrLZtgSxMtG5/4pNlBtWI3S6tvCqgej6zq7FlOxBZesV1sdTihKizdKFTtrInbY7dixj5CVJ2GzCtqKu6NkBJopKUqmTw66xY5UOvSlbrUtYI0j0fU98eXEbAsOkLb2J26JAASyMo2p4obBL3Dp3Q/x+YxZTpbTtekJ2nQdWPP4z4nrn0vnBe41feoK/Gzf3fnZoN2ok0klplC5bnObHEkK1z35JBfcdS/TylXnCqcEacrVuParWumgeQuonzthSjqvS7HAL364LyfvujP1nsjjGnwdoNwppm0OAQgiTyrZkCkJXHzbPdw8eCgz4tjNFWd2ZWoxql2iTJG89JSXF4JAXuWxSs8u/OmIQ9h1wDpLvVCS6CB4rpSQJzdHTprGBTffxv1vv0UivfuxPGQiduAahJ20twzPlbXmZhWkJ136/DdfaQUuPupINu+3EqGcYpw9b64uvzSPeGqG91sPdb3FmynxlGkX1PrOanWWFgkYWfIzpLqg0gCvb4Z3OiRHiOS554x7BFS1VlO5b3UvtbTnKbLPB+MNvQA9dXTNY6HoVFBV2JRLftd8PeQ7Mi/AmMyt25IR1GEdUd/dYLPTCeqWyX0s2rTUsoi1ZehJ7+MN/RV64nAn0e0ZUde0eH4TVsqeLWLiO0G8kqxpVqGDEtHyW8HWF+HV93aHJCVS1q0cIiwRgGCrmhtfeZVfXnsjM8tlVCFwaTi33blqgQgHtVS7s4FwEBSe6CSIxG6hSEfgyiMP4ohdt8eTDXQhHvDf6gH4nt70t+de4Iy/XE85K2B1TCq+eOKQVjOmknSxyDM3HyIS5bQEc2EuSl7GZccezdHbbYMOMkKBDm34tCKnE6sTd1/Pvvl2rnxiMKkxqETqeblTYObsdeduVHmZPcttVqVf32qXWUqTiOW7deDGk49m4Pprf0939b/zNZJBkPgIs6fJZhz2u8t47M2PnBabOKfaIHNqda7GrsRcaW78crAgfJ4EX4szY+DEa9ZfZRkeuPAMepQ6ItYz8qp56+//nav97r5VXxjjXdSIoSu+swbP5XFFTyNX8MwcH2HuEJ19Jdng/JkUF9ceivhuQ7B1gtUeIYX5bGa+uyv47j+5YqEw9U2yx8/FmzaMpiC3sTeUXZ3dN3W1CmCz07ISNUqRmA/w5LRnU2xaxV/zIOzAy0EVidpw5lPWZDN1BP5Tp2EmDiPxRcgvIbMVx2VR1Od6Ec3WcxH49jwpoYauVG5N1UlVqxW2wwy8AlPq5lQWWzk+kOv6KnmQRZuIM6sp25x1HsPGTCQUYwsh532F6MiCPjUw4hgX0rW+wFN/PJf1evf5CuOeRftd3+erxWSpKbDUGc3EaVW2Ou8iRn0xabF+gjiide7kMfT3F7FG716kCgptmEgmgFHc9Aa/N5IfnH8xVal/z8deXVjIZhNZPUKj2W6DtXn47FNRgSYwAYkvzodLh6DU7EgISQ4jBjia6595kZ/99SbSb+NkuqA7AAAgAElEQVQU2mLrs5w8aBcuPfRA58EgDhnB0iRZLe6ExpJaS8HT2LcU7O3jfdoMPMnCH5i8Vu6IZiGUJHup8Bs9Mj/B07ItKhKqFFTJHXrUDhr+bcjqIwIvc+Y9IucsnjOSVs6TpSKnLtkZOSMKz+Prk8mS5dEmzYWFlIDlGllyIc+6ZJYE6Ij0lQgSBUZUHWuy0QZ0oIkWkUBp0oT0pV9h3r0/L2n5opyYYN3cECCai8GJsmvgBWhdj2KGI3/KKdqnSizl4SyCDhHRdpejVti1bZdGtSZ79Y9U376Kgnhy6BjP90l0AH4FX9eRKXHanQVed1JbIUozsoIlSEUmX7K/RbSfuNJ5cbvf4612oONO/U9kEB54cwQHXPh7sqCAlyVod9pbNITg0Lkfuvf/6ceH8PO9dm3t4KrFTibZACGm+Npy50tvc+SVVzkr1MUaYqzjGa448iBO3GMXRwRqw0DchUKmxXHX/p0bnnrRcVNyvbZFHK7TIxD6AfW+4cmLz2fDVVbAF2Met1DmdfWlZcjlSjlz+qwyu51zIa99NnGRn6/5Y6FosBlvXnclK/bo4pQZRTZ4aRmSrRLN0rrMoI2HOs+iLhFXzGaZTOlKQNz2QlQfS/WwMqW1xcAJZr3qUbg3pfB5kXIQU6dlphbxVJMj0ur/dMDfXtYsSTVLrUKo2gIuArzUw3qBY6xL9kG6HxbKuJYN3YvxM9loJYMvWpcLnsNaZ66eLaDYTyOXyZAMW+wZStWQrCBl2kW8o9M/ZtLt+9NFT3ddV6mXEOgSrqqQxuggxu+yA3bVbSiFXciE9DluKGbckzT6PoVAEcQxKuhGar/EX/VQCttdDIUOi/hDWtHLq9NovP9goknv4wc+VZHrDmWtz6jTPk2eIewzAG/ZfVB1HQgaJ1P5YghmzBOEfieUH9PkSe+Lj5c2ofruR7j7n1BesdVbhS+RDMIBl17Lv1983T0QmCxH04sIEByWcgxtzVHbb83ffnG084ZvK0MseZ0FcWY55Kq/cteLr+ZSr4szHHEs5KAtNubmk4/NSzJtGCFIskpOIFucfxGvDf8Ua+OWrnDfMFZ5m1/emBaGPucesCe/3m9vd3LLz2z5v5eWYVKLCTTvjfyc7S/+HdNnxl9jGL4oVyzlhpR7Tj+FPTfrL0fpvG1yKRnupJ9BxatSnFWEPRXq+Vw6uPmwoaW6nKX4tww1tUD6lMHfUWN2z/DeCrGHG7xx4jgLqaTbdUKqQsJTFE2XZa4BUGrzshFLGVWkl60Spoik2oW8kJtgLZCj57TUM3cKFcdN+S6Xjl7I7TCOEZ/iZSGxtCQqTZQGpIHFk7+30YK/9yvutR71KPaxn7lyiyQQskBAiFxNiGcC4uW2pmHAKZTHDSVqmgDrHILutBzeW9fCsGvQmXQ+lLBZgh8pvLplUPs+iN+xT5udWWbaJ5h798RUmhyQ1tKxoMVrIXHXpNc+gsIah2NGPUZFTaGw1vEQ1OMP+zvld651yfRSEpMGAaEA8WIP4qNep+QyS637mVskgCCOhbLxS3ti87HBr87jnU/GowLj2PlYyZ0sWgZBPi9UmjSz7L7xBjxw7i8IFjE99n3PwObxEDSvfKlnKrY752JeHDH6qz0oFulHapfS2qr/ajx54amuEDpvn/sifdz3/GKpnVshFtbmi/RQe5nPWqeezgejJqMKsggt+knfLaCy4kp7lTEcttMW3Hjc0TkTv1bXa+sAQUoIwgmQFkWdGGwU89qIL9jyvIvyXv5FBuAtb758tkmr3HDSCRw5cBNsFuGHi34vvucptdCvyxyZU6aGcmA0VgmlqRFmU4M/Ut7ebEGug7iaUjjIQ/8W1IY+uimFTXzU3Za4q6JwgcX/o0dCQmCd/x5VVabwwyLpvzxCx/vQJNIZn/nY8kgY+y6kFVTPlTG9N4KgsMCVzFV5dYx9/9+Yul7QdxtHMBUeVj5a8nJmByETHQvPkGY+hcmj4OHHsfsdBPXdsYUET479X3NLXRt2pp1pWvM1JR1xO8FTZ9PoJxSMTya6GV5GmJXQoaY06E7MjIk0Pn40UZjgb3wmeqNTCOIJlG/YmUJYxhqNn6ZUonqKNGEPfZlCw0oLvXf/7RfIbZDnTgioLXg8k4aR3rk3mVdF7mQmPhNKSJsxStXj734jaWUa/jMnolKfeOAfiNbZh2DWNOIHD6Qw/SOXzQqspqo6UKLCjBPG0i2vMbTqsXCAIKl/o5k+s8p1zzxH9yDkJ3sMxBe9gtpY5fjTGD0hr7fnxkzy/xYNIAiH2jHclWWXDdblsXNObbWboVzj1BlNXPfU83T2LMfvuaOrSWUqJyJufvZFvPrh6CVw4/MYbrvO2jxz0a9cyq+1LuH5fa8J0aCY0tTEv199DdNY5eg9BzpypRKA41lWP+EsRn42BevLsvotrsgtyiL4k6duD9l2C/550tG1DpHZ1YVW/uR9zeyQDNrkz6dw7qNP87PtNmT1VVdxTtdycnlhxCh2+vWlxMjJ5VvErcV3WiIbcuVxh/DTXbbOe2faMAFW5sK0abO44j9D2Gq5Zdhxy03y9UNEeqYZ2Eihxs4jgiSbZF2F8Lw69M4ZbAOUPeinyAZnBN0s3BDinWBdJ4Of5adyOfyYAyzeHUJFU/hxig4VXrmJ6tBzKKyxL7FJ8IZeTGH3y9A9NnOlwtwcS1oCRTzHzw24xORo4tskwx/AfHgHft+DCXY6C6+WfYhVQCGrYLwSZavooASqCLMgJhOnyqSCuvdBzG8uJ9AzMY89hFp1jdw8yeGKltfs2PhG8eFnn3LDo0M4/7B96NJR6OH50CPuIHv6jJoom5wHPVc2CU3iTsB1Px5OedhtFF8615Vckg2OprTZya6c2vjXLajzJyHGvrFjVEh/R4p/6Av4nVsxQLCaVMPLo8Zww8PPcPmPD6Bb54Y5MbGThhHftafrzJOrcpkVKaeIz3WhI+He/6Ly8eOU3r6WRsnkbH4ypXWOJTON6LsPwJ/yISb0sFryWiGeTfFOGE0oNaFWPhYKEOSkkqH5190PcPXzr7DzJhtz0SH7tcgirHrC6Yz8cuJiXaqygs1z1aldNlyXx3/9q1aLrqS+effDj/L7R59hx43X4+IjDqDoh2gVE9g6NnUAYdRixWPOwcEzbLf2Ogy+6LTc5XLxP/U7+YTZAEHo8JL9f+H11zn31n+xw4DNOeeI/Uh1SskvuYds9ePPYuQXU7FKyE+Lv5Eftu1W3HrST+ZUtdxHLoHP/U4CtZAPnTxjGs+98jpH3Xovj//qp2y6Tn9nSCjj+Q8+YeczL6PqxzmtfnGGshSyiCtOOJif7iI7oyx9i/mZi/N7FvO9cZoy5KWX+dkt93LmPrtz6O47UlAerrV2ukFtqGAegOAU7ZSh+sMY/5gC4R5CFgTv1IzkfEMwq4Q+LsW/XzbbgNTLHKFRWiPtgRp1Z96Cq6qWpFjBzqzgDT4Tf+cr0eVJZA8cSHHry2DVLZ3aopFyhJOxkIyB/MlSlXT1hGGYca8QDLsab7m9YNcLnFKfnDgzyUR89jLWpFR0QAdPo3v2R3VYxs13ncb49z9KcOftMOwtzBOP4a3Szyn+5fqQLZ+viomZOb2JG+67l/vfHskjvzmTHp07NwMId5IOPm3On4UlFJCSWR/jdSTa4W+YGS9gXvsrfl0DZrvrYcWNCT5/kcZHTiAwU/BNkcSLiVx2UBMe+jxel9YLEER7ZdqsRi79153c9epwXrnsPHp36zYXIEwcRnz3D+bGxIoGoiaVuJQ6UdjyUsyM0ZTfuZpioQfBXnejGpZDTXqXyiPH4pc/dSUfbYtOL0KYL9Hxo92hstVucrWrXShAcD7YJqVcNhz6p6vov9KK/ObQ/QlFjq02/tcAgmyGs6oxu5//RzZfY1UuPnx/Cn5Ipqr/swDBnT5EhEb5SG001imH/+4y1lq+L+f8aD/XfucbUcq07QBhAZuhkF2T2NLn6BN59PTjc4BQEw9rBwhfHzg5yJQTzXZnXcRPt9mMHw/azaXoFwwQYkyhQKIzSr0D0okJas0U+0w9YdGgn/PwB0EWp4Q2IgmkjCDdBtEcgKDlFC8qp46DlKGmfYrp3Iv0iQsJZ32I/sG/COtEOr3kgLMUK6RbS07Zym+kTEBR+8RfvA2PH0tpub3IdrnQAedQwE1aQY97jhQhR3YgkNNnjw2dBfXUMKPBAYkY9bNz4In7MI8/8rUAQdZy2daEb/LahyM48+93cM/5py4QIOQbWInMTwn1LKqqC4W6noSNn5JscAreZsfgZVXsYyeTfTqYUBq1bR1VP2kzAEFKn0Z7/HPIc5x/6328dOm59On+9QDBsZ/CIlYEpXQGQREd9CLMPkJvcBZm/RMJzUR45GTMl69gfY/MM3jCW1jqAIIxrqYkKch9Lr6MtfvmAKE5D+F/DiBoTZIadr/4Mjbquzy/O/wAAmkV8/6HMwhzeslNLgls4cCL/8A6K6zK2Yfv40pPIVITbc8gLOiw7IicKSxz1Ak8fPYJbLTGWk4FuD2DsOAUgwABWbg3P+0CTth+Kw7fbaBTLF0QQBBxiYqtUPDkZGeo9oTiLT56qwz1gMIca/FniXJgTWJ5zqnKmwsQJPPipIczMi2Swwb7zi2EH95Jtu2FmN6bEUl5QWizI59Fv3kzYckn2+VPBH6Dcx9RnsFMHIP3yEHQZ0fsLhcQGhEz1mTVCvq92/F0E0mhC4XqZNSqO0GPtVAmdDkfEZUzR5+KGXof4aNfn0GQuZVZ0cMIeHfsGH5xzU3cde4v6dmly9dmEFxUlXRoQcEGBOkskqAjlZV3odO2vxVuJeaVK9Ej70CnTRSUHJRyH4e2kkGQrhRjFHe9+DJn3nQXLwpAWEAGQfJGvnWqLmSmM34wA6siWH57goFXEKRVqs//CW/kLWSelFlCYoUDhUsdQJAanqT9babY/9JLWXOFlbnw4P0dkaN5BmH0FxMxrv2sZr60yCRFkX0V8ofHwA3W4olfn7b4ZdbFTFsu4LxCUzVj399cyoarrcyFR+zn1PyMTRx5ZcuzLuSlj8YsMg9jvu/LXXXYft21efLC01xfstPVb8VD+M6yKMvvPPD3l7PWsn046/ADiZzbkIcJLGuecDafSKue9KcvgVLAYdttxa0//4nLXAht2xlaLX7l4r8UZUsFxYqHHcsDZ5/EZmtIPVk65Xye+/BDBp59GUZl36Y5tMX1CJvft0WuOv4ATth5e/d5bbvN0ZBYxbZnns8x227Nj3YRsTWPTDxfpmbYjXzU2HlT7jGJF+UeJz2ARwzltRMK/yhhz83wpkpvX27GlKpMCguuHu9LGe1Ai3+niCUVXBtb2RSIRDjnw0fRQy+BLU/E1C9PqdsamPruTk/AzhiP/vI91wIZrLQDnpAEHJYOYOK76IcOJlvuEIKdf+28DvKiawW/PBORvRAZNU8VMMUOhGFIjCHSvtuMwxN+Bv95lOSJhwhX6Z/zHNyz0HK9SHQiDhy8NW4Mp13zD+4653R6Nsytt5vht9P07LkUbCxKDo5HEJrInYClRVT7U/H67Ird6WoHWswLvycYeae7BmH3e9ojlQAp5coxAry8w59v1RwE6TYTrsVdr7zEeTfdzjO/u4Blu3Wd87yIOFJ891740qEiLY7SwkoR65fxkygXsVtua9j5L6imGegXziIY/zSoeqqkiACedRys3GDOiSodP9odKlv7WHiJoUY7VAk8PnwYy5QaWH+1FZ02/uyx2glnMOqLCa7sK5PKNfIu6gLtQLohshEDN16LR8785Zzaa6sLojXo1PL4O+/To1MnNl51WYyIhGQa7fvseM5FDHEchEUNwrxXKrEM2L7/ajx+4Rl5WrINaZo//vpwetQHbLDGKm7z9kRYRVn6n3g2H332mduQnJnXYo5Dt9+cW088NqdJetrVixc79Iv5m771240mVj53D3mZgev2pVdDV7TIUJuAIZ98wPa/vgSlpd/+W3+De6MTvFMB1woHYeBAjMrbdNvqcCd3rXj01TdZs1cvVl5RNO9lPfJRkw1qgACEllcnIknO+qOHwV4VEO6rSL4oE9xdwptu0UmM93yEfkUcH5U7KDlfPploAhBu105yNzNlQjqhpo4iefLHZI1jCERdD4i2PQ/T74cLbzf88n0aHzsOVtiZ+m1Oc2nrhXUsmUw2K3EJNDSdfCrBY89SevA29Orr4PuS6g/mWy8yI/cZJs+YyWvDR7HDxutSiuZqQ9jht9E45DwiHTsegyeZDC9DeSIXH0LPrSlsfR62Sz/48kXSz17N9WvSGN69zs1N0WLQofydOF9G+Ic/jdd5lVY7taQ8JAJXH02cxDufjOQHG21EXV1hzu+1AhDu2St35ZWsjnN0FMEo0YbI8FfclXCL8zFdloXPn8WOfwUTFLGpxn50F1Sngq06sGVtIkUlvOM/wvNbv/HeQgGCPD9KbOMCHyuGFTVJ3OZ3e+NTLuDN8eNc378gX4fI3OO5iMO3hKnHrpuuy4NnnbKIb/4eX16TtxftA6ck7fmuvhiIO6GCXc+9iKeHj/oWKoHzXINo6xuPnddbg0fOF+KQalNyuNKe54mxi4dbSEViWZbYDU46l48//5xMBIAWsdtl3rssD+mxO23F1T/9cW6L7QBC67dR/brZKmlLpfP20ERVCVV93ktvQ4Z+PJztz78c2RiEEb/Yww+4/rhDOWqH7dxWKgCuTY9UuqDkCjznKis2sjYJ8ZoUDDCokS27q1LJjEYpwTlgTtdkoUeUFZGl3IYpgZSXLzHYc0IC66F9UcSzpCKSs5/Bu9UnC3J/EVG5dIJJE4fhZVKTFhGcCqrLiphSpwVqujhgqxvxJozC1HUh67xczfR8wfdYWny1k3APsJO+wJsyDduvH56KSHztSnrNzxPyPdJ6LHRJUUx0Qj1+vtHNHmbE3aTPnoTWBWe3EIo3g4g2pQHV+q407PVXqj36I5ftOjCs8DMsaWUGyU0rYVQ3Aq+Q2z1nVYzfibqDH4IurRcgOC2rRMCWl6+vblGfGxQ76X2Se3fDpF4u+Z4Jj8QSGUVT/crU7/Ynsj4bufsv3SOy5vk6JRbQdM92BI0T8XQHUip5p57XQN3Rb0Akc2Qxkf53/MAuHCBIKlJbqoHUlKTeJROspa3LMX++kRueeUZYN27ipFJEXUR7T0FkcvALK5of77YD1xx/eOs90UgbjzJEWS7LKtct2W1JJckacew113Pj4Bfd3y3WkNOBhqN23JLrj/+RswltS4Y6qZObdc7ptQO9wMeEHc65nJeHj3CSrM64ajFG6Ptccug+/Gzv3XL3NPH1EIe91v3cfe0VO+0IDIHRJG6RkgqmnFsD3hs7hu0uuIwpM2e4v1+8kbcjP3LWL9hl4/Wc617rTdl9gys1kIqIjWjkA/UU3FzQWokaLulBKcGjopI496G0qoItFkluVgR7KAIVo7MAJVaz0kkqzoV/0KjLPTwrqoLabYaSYuaCMv4ZJYw49zpDsQR0bvlrfMmMCZiQE7icHBauX+L820TSWKSbKdZaghd83U5q2XVEiHiPZBKkBCLZfXdMIxDnpHCeeSK/35WClSNWRkqcOOYOPXYo1UcPchoKRkjXTkJR40ce1bq+dNj7XkxY5zZBV4IQ8TaRXq58TvnugfhJbjYnZRknAt3Qj8KgW/E6imlT6xxOU0QbMlG7yjKCQLgdzQDCjLE03TeIwqyZpFGGF0ubdUdCbyJN9ZtQv/s/SDt3IJK2R1mDAtknNZSnUX34cLzpo5w+i4AHyQCbjn0p7vcotiTzcQkA/e8wrAsFCDLRah3ueOJI6DbElr/oqQ/Gsff551EWhCXpz6KghPw1brJ+lajLbEn9WiuOIDdBcqUU/u/kYzh6+wGLDDK+wzi1/Gh5yJxTZR4LtyhIfUmMcTyPf7/zAUf+/nKasjzD4JYkl4/6BojBmcrlcqvy5qIX8OcTf8LRW2+MaSGe8r1d7bf/IukZE0GeWmuXcxY2ml/980Guvu/fxH4xP33JheZBml9ga04vd2557Ax2HKjIpZC6dezEkN+dw+p9urlFXE7Cojnbuh+7BYc0zVKUWAob0bwXGptMopBZlQp7//HPPP/+e2ROEKrW51/TumvxqfOW22dnHFyaxamO0LVUx1tXX0KvLvUufdra+S0LjppATwHtPlU5Peeymo4P44vZ1+URRuSWM5lv+aYpsZUUuNlA43f1yQqxkywW0p+zGTcp6mMfPVbaG4WrkOUZqiCCIcDG4kKap/ETYwjloOC8RgOUqCma0D3yIi+x0HKBKBfKAUs8DRxYy9fOBQ3pqxeQJ5kNVwJxz1BNh0ayj0qAZUuAIJ/tXMMdXSe3Dm/xsMwcx4x7B1FomgJeE9o0yDe4ElTB64rquTZaMIMRYmeC9iTlXiJIytgJr+EbMaaT6xCpaYjWGITZ+ncEUenbryPf8Ttz71PJ2uH4JYTzyKzF02l89GiKUjqIErT4KghpM7MkUT2F7v0dEEspoZSUVUQYoIiXpmRT38BPyk6JUrwsBIT7q+yCv8M1qLA1K9vU9u8lYdZUTjN2u+C3PDd8NIHnk9kygR+hVEgqD6SOYV67z5r7lZBtEvFGFvJMqTPLFQMGX/kbVunaeeH65d/xxFm0jxf2eYoNQiZXqux+1u94a/ynLguidEbqxCVlc8sXC+kMqaGL2tfICUaArNiHhug0wYsCenjw2nVXsFxHmZSBUz5rq0O0EEITMGzCJDY96WRieYg8i4kr+FGJTOaBtM82293dIimdNFqjRMpapErl5CIqikXFIRsO4NbTjm/TgGBh91OkfGXzkAzJQ+9/wA/Pu5iqmPoEeduU8GEkLo5w3nzBd6Ww3MZYNjEvzVAFaUSzqErC5b84jpN22MopgIq0rsh6Ly1DQKSYmzlvgyDFHx6hBmn4JEUEkp27pRgPebVylMgWy4l8npkkdNDAgfscfDpS7eGg/qyodrIUXMzb7jM57/02okT5+sXo16+nWoCgkmcCBCzJ7mkildvONyPBCLiU3VVZkYu2eIUiSlQeo+4Eu/2NrNeGhH7bnVsyl7I3r8V//hLiUoEsnkWBAsbEGC+rxaTg1vfZQ8qEMitSlTjV02JQcJkteV4lJqy0s2MsCmG0NY+FZhC+yY+3WcxTH47mJ1dcw5fTqnipJpFUrzxMEgTf+Zu0GIKwfandC6iScoTn0asUcvOZJ7PtGn1RwvRdAgz3b/L7l8RrhPwz+/dK6u/p90fxsyuvYeT0RnxxWNdxrrUuwMirJTpri3cNqzkCjKgNukXfZizbtQM3nHYKA1df1aX0hFQ2V351Sfzq7/8z5Lrk3HPr4Bf51fX/ZEY5IQh8Up24dj5Rh2uOEOZYqPq+W5QkZOIYKi9esXeRB84+kzX7LPf9X8j3+I0CJjOnvJeReB6n/uMObnr0GeJUpJhTtBgFKUlLi3Dg3E4XIYbmh0TJSFWdlr6yUlvW7LHphtz4i+NokGdTshVuXrbuxWrRQu78sV2ZxqqmXJnwFktwbIhsgi7zL7ocswGBJGNEKU/SXc2G8UUkt4g0MCZ+StDPx/yzAusWUZmfA/alBx/kbZpN0zFPnkD26RsYbxqeElkgcZ2QDg5RPxVAOjdIYgbtMIJwD4zwEgzKz7AbHIPa5DTX+RG1YX6LA9mNE0iGnksyZjCBJ0JlklWJ3AYv5PR5Y1J7GJ3ypnQwiFtoKEBynR/ibXom2g+JglKrP9gsEYAg9YQkhqdGfMIvrr+e0V9Ocidhx0PQxlWjhPnZfAhXQSaOEG18z7Jity785qhDOGjT9fKTti+VrLaTKM5Z1HICqfWyWMt9b7/LGX+/jVFfTseEISqJUb6HlhzfHKg59z9ESMOG0g6T0LdzFy780eHsvel61AU5218qewtLVS7aIvo9v9pA1UsIU9nUSlz6+JNcdd8jTJk6y21SyCllnuHmTg0QSEknEHDlWTZbYWX+9vMTWW3Fzo7jsDQPp43gtjIR9oVZieW8G2/m5udfZ0ZZsm/Siiwkwxx4ugWtlk1wh9989XatdsXAsvsGa/GnY45ihc51jszngKeUehaRN9SaY+76DYzIAoVEQqiTJVwrwn9AJqTEpiaCWFLCKi8VuhZGOx9AkLp0IBlQVcCua+FiYFf5LOsIa3K6bvPkzmY3Us5xLns5azTq2fPJJrzsygVaOAdGvAdk7ZJsQHOEIFk+7dZxV9kK6sn6H0mwyS8JpfNDOEFB280gyEVp8cpIpmMGn4oa+6IrI0mJKtMSEwHh0t7fMiYC7MV6XpItSeTj9/sRbHUGkasMRvgCmlr5FrdEAIJNDGL/LQSPjz+dyt2vv8Ezbw3jndFjmF6J8zr8PIGQ8mldVGSt5Xqz20brsOemA+i/XA98Zcj8OgpCYmhDKU8RpJZmD5kosmxIDbNirWvne+TVt7nvtTf4+NPJNFbKeSvoVwCE+mLI2sv2YfcN12PvzTZk9eV7E6lcqEUAgiirqXmMslrzIj3vb3P1TwGGjiNlqeqUtz4Zy79ffoun3hvOR5+NJ0nyRWb2EFqmlsXes3Srr6f/SisxaOP+/GDAuqzcrSvWkwdt6QYIstl5mZcv0mRERMxKE555dwT3vfQ6zw//gLFTZ5AmSS7f6gBFXmPWWhMEAT07d2Kbfquw56YbscMG69CrrgOZJ+x7IRZLHVtKDG28i6H5yV/+W7IiLmKidiiLsnCCAsyrmuAeH/MfA2NANeZ6AbLZzys3bRs0ZkMf+wOFNygj7ZsSJRFZKJV2yQiqFr40bel5/Krf6qzFEXqxh6p+iRr1HHbM4+hJ7+FXJ6JdmdSxpOa83XUBeD5RfR+yFbZD9R0IPQfgBXVoKYPp1JWc2+4QpUxJGhi8ZDqMFSvn/5BNfAuv/BnWRC6DIJmU5gu74yt2XBbbewuivjtS7b0phaCBTHCBi4k4drbutWuJAIS5kt+5BoKEqZIkVO53dd8AACAASURBVJM4zyR8zZAFrBCG1BULtfa9/LX5aWl+HfHWPsG+7hdLbbNcjYkzcS/8eta+1IlLYURdFDVj4c99FFs52PzGt2fOXa4FTFpEmyQ+abJAHqcAgWKUx0f07PO3Ly1R+frwNZ9Xs3MJ+XMCSaapxLFzoftKMrD7WOVS4fXFAlEwl8D5vxHB2Vc5DyKXXa3RdULKjvj1Q5BFSYl6cG2m5Xcjvw95bJe2MTdiNWKwnJ6z2HEMau4T812yA6ReBGEJK7wOB85qZOvair40xMndfWfPnbg2Tsl6ziGiz3OBLibCvfDrcqEs9965nOy2MHOWDEBYGu58+zW0R6A9Au0RaI9AewTaIzAnAu0AoX0ytEegPQLtEWiPQHsE2iMwXwTaAUL7pGiPQHsE2iPQHoH2CLRH4DsCCNLy4YiIOUFPWtOcf5nI6zpdllzZq/lwLUVCdhF2tVPQyYmMjoUtXWxS2Wnd/I0FTidnrGIDJxIk1y5iLY5YYHOXdpFkno/XK2pwwvI3ojAocrGpE8hRItCixS2yiUCkd9vsEJKidGJolJHODLnnQiGrCYbU1KGazxSnPpbLweQxkTnjCTtdyHUiRS0MqbZQzfv2N036qJ2oYi0w7hlRQr7znUKbL7Y9aq52/Fd9k5j3WCvGPnm8hZmel8/z2DmBnzbsxfBNouvIrk4QR+F7QvgMcpJh8+nTXMxMhPWEv+EMdqTrKqcryBPsmrRc62ipTa9T88ZNev5lTZY5JsKAnq1gVcm1ecoEdITP2bX02ptn9/9bL60xM3zXFSPkavdkOxW5NtxC6547Z15CJnoiNnOt+a4FW8mTk6tnNLeVyf9bITHJpckC55kh7HUxJHCiekLCb+VL1xLJIAh1hVR0AOQhMkxtTPj4s8mMmzSRxkSEIoRR3ZIJJAt/MSqwXLcurLFCb7oWIxGwyoGCazvy8dvywp9CNaxQjEPimSl8FBKN97CNAoxqvdPzTA5bULCyJlvTw+8kKnqKUPbFQHzbCvg2AbEVbauj5pVgU2ljraK9IkEqutWTMdNHkTVNIJBWx2YIQR4qeaSkj1gVGwg69CLttDaBKOnakMSXyCx4c2yr4Zr7u23uVCmASASiRAM/EYe4MiaejJowBpV+6ZC1k41tNnK1PJlvHch6rk7QYXmUiUgLKlftc1ocNQDSyhnVi3sfnQCnGOgEGaZSxpv6Dqo6BSttjE5eUDa0Zs+XsvihSOOuCZ174IVFrJgwyUaYlTBB4pQKW7vYzaLEzU0zcaOwitRawsyiZo7HTB+Pl0xDmcQpukpv/+xh/MyB1bC4HH5DX3SxC7YQuK4raWUXJqhoKbTV4aCR6D+IUqbYEoms9qwv0NPH4lenuJjI/2seE9EaEbVTv9iHoGEVdLErWSmi6OT5RWVSPGMEObRu4LRkAIK0D2WasoHbh7zIv55+no+/nMjUpkbiVGRjcwnSFguX9CQXQjoWQ9bs3YuDt96Sg3falk6u08rm7WttSChpPiSeWLJUE96qyG718T7Q0ChSr5JVEWQgC/w8CEEOdR08zOoGe7jFO8xQ7aQoaB/tWwJROWsDFqFftxCIiI9YVovzpTwgXtNn2OH3kX30GEFlNLHJ8MTBqdkmV1MGdpkYE5agUE/QdRW8tX6E7buTE7vx2jKQ/CarpsvQefl8ESM0+dessWTDbsIb/Ri2OgMvjt1mX3MIz5nVNTlzJ5QUBNhiHXbZbQjW/Qn07O+Ek3A2vvKP36acQr9J2OY/HWdUZY69fyP++3diypMxIhGsk5qYlN/iFOjOgCIiFTWQdF0Ju+4xFFfaNZe/rrWHGk/sk9swaJ8nSALHdZYQiLjPhDexb9+AnfQKOm5EmdT5OPjNBabyIDnlxDCqI+6wAtGKA/DWOYa0oTehzF1bcCJobXXIPi7dZ56KMZNGoN++Bb4YgokbnUqwxMST56dZOsC1y2pLEBVI6pYjWn49vPWOJ+2yisv4KVOsSXC37qgsEYBgkkamGo8r73+cqx98khmxOJ2IjoEYefjYJMtbYJoNlz6XzUIkmFNDl9DjqF2345zDDqAhdNYxBG1YfUucvMz5HsH/BQTl2Bm9RKY+Ly/USiqin958GJWSRZqwGmEbLN5RYC7yoWhygaQg13lvq0OS4nLiEh2IsGky5ecvRo95KBeYcs6V0oc+r5Kda2DHd9LcorulibwQVehJtvXJRKsegApar877ErlXYi/uTmzGLS5M/oTK4AuIJrxO1etIqCajbU33X0oyNeDp1N1qaoou3Wk6UPCmU+3Ql7ptfo9acROMJ++rnYHbMCD/JnHW5UmoIeeRjXzSyd4KSJXynTsLK0VWUwFs+UyKxLVY9Cp0oTvBBkfCuj8ljXyKYkrwFd403+S3tNrXaEMqSq7j7scbfDa20ogVzxSjHZAStVjjSyv73EyVU/lUlpJniKUa6kf4fTYn2OY3+B1XQsmGKJ/RVoeT4U7JPn8Tf/Bx6JlfYlWHvOaXpYSB6NQ4Ie45V6hl38NQ8iyZtmR+Eb/H2vg7XIHfaWWUjWviUa0bOS0RgGATy1+eHMKZN95KOa466dy80lmzzXQnlJYbm6jhCeYyWepOMVb6/zWct/8enHLA3kTy4LUhAZw5qsnSny+L8iUe1YunEZU7OwOPxIaEcp1uOfKwIpQhHnqOi+FWKHe9kukU34Yos2jJnF/kYX5ZdTr5DqUKPaE2DXN7K1f9mufRW1hhy0mb5CdOkYZZ2Mtr5W/X1+u+ae6DsChaBK5kpzJsWmXaSxfT8d3bsFYktfPUuGyCNicVuIdLNjpD1dnXKqtJRSo4MPiZpMxzZUB/x78RrrLdHNWM2VyXpUkfwQp/wFV+M7zG8cx49nzC8UNRpoLnW7Sux5dapyMniLSU6Abmd0kyL7nJse9eozMP44eY7itTv8OfUN3WwzhHPjlFLz0n4bkPRP7MSQ9/9aVLMK9dhw2raErU24TUBvgSX/GQcU9SbvIkst5Sd1dUSHVHvMjD2DI6aqBu60uh3x6Ou5DzQ77BA9RGNsfYWqLJz5M9dj5m5oekfkhIgnaOa7KG5+uNJ0ZRnnDIZAWRNTxEqoWBZBMkTmlGsNqesNMV4DcQtuEsn1PhnPAWDD4FJo8hCwUuVsiMh/bk4BLgm4CA2Bl0IaJjLi4eGcIhMxjdhO8VUL03xe58FdT3FjPu/w0OwpRylW3OPJcRn052dafE7XiL+NCIWQwhnQsBD//+bDZbYaU2RT7LtEEW8kDsPMdr1DYB3ri5dbpcqzvf/GZvgZLaFZ6BI07ZnNgjZJbZwzq5yQReUOj+8oAm+LaYp5tlYbLiXCh1ZEkPCzE0zzAsTKJajI+0SFlrTcX3qauRbha4hkl60aW4c3vX2eaUc8ioQh5cyC13G532yD5/lPLDp1Jnym4Daz4yz1A0AZlwEYKQwFRJTAkVVlFpEd9PyGQjE2nXLCVeYQc6/OAf6FAAlFAZtVu4l6a6sJYSnvbJ/AT/zWuIX70Gz1TnzhNZioT86YmpTj2+ne6stANbQEdTCKoN+TxTc8t8YvxVWGUX9M5XETnnPdnoWvdpZlH2WAeOXOq3Skwd/oTXsY8f68oKs4dSMakVAp4s6FJbFkfEkMyrEOp6jNeEmad2Lkub6b0B/p63QFR0dsjO4XYpGTaJSYaehP3g8VwQyBdglJM7RQo+J5MbZzYXO01P+XNMQAdSOwPP64j4GhpdwtRBYZs/olYehBe0Xca5FbO9F/9A+t7/4QtYFA6Cnx9YBFYKEJB54weT0UkvCBrzA7GoTkqsJG9qAmcBLetdcevf4K15mKCp+ZQ7W9s0WiIZhJuHvMaxV15NKggzi7HiQT6vtvJCrtyT06ykO0n53WEHcNZeP1h8y/vvMdqJFf/1MtYr4f8N7EnCy2iWNXFuzwodWLI1q4THRPgr+ySNGv2GR/R3g5opIGHu6dx1QvgB5rcGdVr+90KE8Vz5RhjFguCFhe18wkAXc1y2sGdRl51ZiK9lwyhifVkAFmItK/VsA4kv/5ZUd96d4gllwJPTv/1mngg6oTr012Rv3UMYSj29JanOSZoWe1Pc8AhU5zXx9RTiccOpjriFztZKshLjC2nRULSNJEEDxR/cjtdnYzLtucSCAzDf473/rr/K1T8lqVudxqz7DqQwfXRuCVwbsgC5jFw8i2zF/SitsStpfQeCWbOY/tGtFD8fRqikFtw8Kopq5tFw1H9QHVbKJ01bZpp/xU2QtUQ6XxKdol66FP3ODTUvgfzFsW2kIz0oM5VC5wFU1jmYDg3L41WnMHPMs9jx/6GYVlp0YAn3oGwNXfa+Fttnd8dKb9P+KPPGbdoIptx+AJ1NoyPDZsKxyCJM6KOymVQpUui7L2HfnbGliGDKWKqjnsJ+OZi6pBuV0hSMrSekhLGT8Fbeh2jgpVDo9F0/Jt/d55cn0/jvA4imjskdLQnIkLKToaCLVPwAb9VdCVbZCx34FKaMovLRkyTT7yMyXTGqnpLJqIr9tanA8rvj73UNynUeLWyx/u4u65t88hIBCHv85goef+vd2glWFn1pH2q58C/0x7hOhxz1H7LNFtx20nFtKoPgygpZRhx6ePt6hA+0yMS7jVvYvunyGf7DIeqRAP1FDCdawl5F9EMZwXE+zJwbKet2Xx+zn6F6t6UoaU8x/3Dbn/i6W3ztowqpc/vLnSBjPG/B9b6KrRLpIiao4Jnc2zxayPFf5KIlY2HEdlmIgaGgZkmvec7kRpCCuL0taDgPIZWh79oXJr7u3NCab3TyXr/Ditjdr8Yb/Qq2cSz0/zmmoZ7g0yFUh/yaoCx68PJCcdOzFL2IdOPjCQf83OVP5KeIW+bSBBCk9cyZCU0ajnr4hyTlmfNZoQdiSSuL8UZH0vT+/dQ19CRb+3AKqkj86pWYt69xts5zQIU1FKKAbPv/I+y7W040a0MlvW+ynginR54f4kbMI0dgv3yrRZ1YSguxbSDovgyFzf7IjM/vomi6otY+kKDj8vDJE6RDTs3t6mvDGEUoZbL1jyTa4ncY1wGy9My2bORDeE+cTCZt2VJiFwdLae+zYmwFfr/D8fvtAB8/hu2xKmrNQ/EqjTS9+mvCj+53LX8+ESZL8KMAr9CA2v8x/E7LLvSWtdYX6KkfYu8ZhImbHFlRRQqTBChfo4IU0/9MCr0GoD56ALPsepj+++DNmER1yPkE459zB7mQ6Rg5PEomJmog/skw6lyJoXXPnW8EEFy6ThuSLCPwfccxaH5Z65x8NsPHfgGeq9bAnB7rRbjlvqRhMnRi2X3ABjx07smtOk0sJjh5PAJCZ1csa5F1vflsCd5L7ojdLADStmjwj1BwOlQ3KlOo1GP/kGJPs6gpGWrPAuqV5ohSyC8ZbG+xT0otS6JryLSiUP6M5MPnCZMJpIWQwmr7ojv0Br9mIlNTjG+uIO9+kWw2U8dhxjyBWn1/TId6lLOzXfBIpOQ4+Qv8Z18kmzkZvfJyFDfdkrS+oyMWuutudgLNtCaV+AQBYTMKc1Xq47duhzdzMobyfBu5v/oBJBueQXj/rmTxNIobnUk64BCipET50R/ij3/NxUHS5anYrVpDsd/+sMNlZL7oTcje2fpTd18XbXnWUnG7lFpwILwB37noWbFpnvAS3r0/IvbFvnjuHZMskrQu2j2uRU14F/3W/5GqELXPbXTovjFMeYvqvXu1yBJJOSqiDrPNeXhrHeqyUGoeIvEiPL2t4qWz51wYCq/FJ1XGbW6mMo34vkF408a1aFYXPFQxlmCNAwhX2Rf1wEEkfky06bnYjX5GGE8kuX03bGXKnOvLxPhYF4nX2Im6na7OU8kLe3haRXTyH+GObRYS8T0BCqH4msz9gdmI2/GfPptGL6VopfiSO09I9jD1fToccD+NIx6l9PYlVEvLUtznbqrd1yR8/2Hs4GPQfsGVGLzUUo7qqLNlzKEvUWiQLFXrHRKLJE3dwVb8gZpnhfSkd8nu2tPpQgTyLDoFmxBFFUN3gj2vpfzxnXR4707KXZelfp+HaerQi7pxr5A+uL/0qUMY42WWiteROirMPH4MXeVA1brxgZSZFnLUtzjnuPueeIru3XrxwaejOXSXHVmmY0cnHCIZ4tVOOINREyY1S8XltKhFGcJux5mBWHbecF0eP+fUVouumrKMJ54ZQl1DZ0aMG8sRO+1Ml071rqoiwjVsAbw87/UrtGzemynM9h7qtznZx/w2QZ8Z4U+xePsY1PMteQuuRW1bC4PzmSREoNA0krx9G2aZ9Sl6EA+5CH/1QfjrH+tO0EKciT2oy8QZU1jYhtTzCKox6cd3YD68j3DGBNSgf+B3X8VpLMg0cADElRmF42CcsEcm6TO5K3GMOfdMvC22xVaaiE/7JaU/XweD9gYlhiWRO51JhkPOW8+/9poDeMM+/4wDt9mOPl06ugdMUr76tq0xM8bV+vrnmSXLDMBbdjP8d65Hi0HMJmfAgB8Txpby4wcTjXufzK/krbA1IkTUb3+8HS939T4hlznyVGt/8mafSF1919WfXH1y7KRJjPhgLLPSKo3l6Ryy066UCvJseJgJr2Hv3deV8po7x7nKge9j++4PU8dQmPISsVcg2vMm/N5bYSa+THLPobngVm1IWUI0J9QOl+CvdZjLSLV2Z7kFrSdNlYTBb7xCZgPeHDmCk/c9gK4dOoCnodxIfPdu0Pj5fOuSqBikPQZA55XwRt6IsvXoTU4l2vA4iGeg79gZW56ar0XC4XBpsADVb3fCnf/siMNtZKq5axdTr3ETpjHio0/4YtYsenftzi6br+fS5UI0NMPvIBt8Rp4ZqflYydocGk0iQjf9j8RO+Bg78TWUV+cAQtazH3zyFNEjR1GOfNeN5LQ6XOtfSnDoC/idWy9AECrXqKmT+eCj0Xw+cRIrr9CHHTZcr5anVTDpLdK7B7k54EQA5VlUESXbROx1g7X2hQkvkE0eSdiwAtGgW8g6rEA4/iXih44gsGUqviKUtUmYLjbDO2E0YRvo0ls4QNCadz4ZxdAR7/HDrXbgJ3/9O7/cYye2Wmdt138up5d+J57JJxMmLgoemO+1rg9bjH2VYRcBCL/+Vat98N76ZBRvvj+MvXfYhRP+/DeO3nNbduyfTyi3w24OvDI/QHJriU0wRKh1UrLePv5lmnithOixCO+wEDV9bmjyYoIP21l4Jl/bxIpV0Kv99FW8PuuRzPiS4KGj8NY8BLvJUTnaR1NVIaEQH6V311ksa/yqQY8djPnwVrxpX8KgvxN2Xc1xI9ApZuZ47KwxNVVMIOpO2L0vNuyAmdqIOeIQ1HXX4E2aiLfVNqjf/JbklFMce1dKDbLRSZp/Wllz5+AhHLbj5ux9/qUcOWggRwzYBCUub75PKgBh5mgnTTdvhs1I/7UtEzWsRtqlL+GWF1OoWwG+eIX4qVMJZn1OJupRzUaw+n4EAwUgZHn2qg0BhDw7JyqGQrC0PP3Ka/Ts1YdMV9nnN39hyO/OoG+fZXKXVCHa3TeIzAo1rCUHwTHLvRAtslFdemN6bom36Rno0BC89jcqb/+ppvc2+yTpEdoqbH8ZwVqH5e6ErTzduaAFZtRnX/DcByPYY50BrHny2fz1pEPZb9NN86ymAIS7doGmL1t24Eh5Ss+kKOBW1RN27YOqXxm15XlknTqjx7+DevLHrpXNdR5J9s218ij8VX9AsIsAhNbPRJ+LCi0my7jxmaHsOGB9hrw+nN/efBPP3vAXeoW5eqsZcQfps2c0C7UA15iULpQo44mzY6k7tm55vL674g04CpIQPeQskrF3orKQgo6o+GltQ9SEhz6P16X1AgR5/m58+HG2XGct3vl8Klf96yb+c+2fqXcd1gZvytvEd+3dIiZCzJQWYbn/QZZBcRko9cH025VwoxNR8Szs02fR+On9FCS5mhXJ/Fw9WGzFo+NH59bsrRxdLhwgWM3UcsKUiVMZV57GWdfdzK1n/pJ+fXrVTmyK1U48k5H/QwBhajlm+oTJTIpjjr/+HzzwixNZfvletZX36wCCIgljtDJEtoR9PyZe0VAUXa7XLcUf+aiPW7YsfhVAkE4ArQ2BSHYOexA9/G+Yjr0JtzkPVbc8NgpdIsaLJ4jqkmNaC4PdF/Cqpe1Nkz55OvbTNwgH3UDQbTVhM7iJnn76BmbC2xjfNaASlHrCajvhC6dBJzDmU2zPZbHXXUH5qmsInnuQaMUNHFHLcSSTFF8WGmMYPXUSWWPCCTfcxhVHH8m6y/ekEvgubbkggCDNsb7ph9n3UvzufZlVqKc07nmahp6BbvqSTuVKLpi01ACEmriRqM4pyxfTp9DgF7h+8GDefG8UV5z8E7p36LRAgCChEB2Eej2RuN/hqG3+SLWoKKmI8NnTmfzpw9TNEkGf5uBz6QII5XLM2GljGP9ZwnF//jNPXnIRqy7Ta8EAwWVNIqKkiUqf/kQ734PuUHCllmDkPZhnLiGLJ+Vtjw79C4VfboVtkwBB1hPhJU+eMl2ENbn8lkeI4yq///nRlDKDDn30B//CDD6z2UTxULoEYQVryiRePeFaR1Pc6ATSYidIp6Ffu5bw/XtIVInQjEF6GiS7F7kTc+sHCJnNGDep0ek4nH/rHazYvSdnHrY/fmYxgSKd/Ab2rn3mxMSVVKUH3WZo3xArS7juSRTWPZSsviM2UyTPX0rd63/GdKonNh6hJ4JKAiiWMoDg6FFG8/G4L/jD3Q+wz9absvNG61PyPVIlJ5+A1U84g5Ff/u9kECTN+N6Yz7jo9js4fOut2WmzjSmENWLc12QQ8hOaRtuApDSD0nYN2OVB/9zA6jHqyQh1ooc3phmR7CsyCNJOKTrypqkRXZ4Inz2HfvdW1Po/p7DW3hBE2MoMGp/+OZF4Wgz4Farn6k6oyjo5WcieOAM+G0o46Ea8bmthVOI8H8z4l/C/eJ7Y64JPgir1wqy+O54fgfODAHX7vfg3/53slLNRO29LHEr6UbqhhLSYy4cK6XH4uPH84dYHOWCHjfnBxpvhC6lRfABsuECAICUaHShs702J6ldCr38MfucVUOOGYZ4/gWxmI6jGpQsgCMHVLaWW1BgeHPoyj7/5Nr8+YC9WWraP4yEsKIOQV/OEZJhi65cj6LY2Xrd1Yd3DIeiIefMGzJuXCHulWYlh6QII2f+z9x5wdlVV+//31HvvTGZSgZCEJEAIkNBLqKEltNCliA1Rsb/w2hARFQFFRIoo0lRQFKX3Jj30mgBJINRU0sskM3PLOWfv/f+sdWbITChB//l9nMk7mw+Qcmfm3nV2efZaz3oeZ3jlzZlcdtc9nHjovuyy6RbEQfSxAEG6cfyggCHBRX2I1t8OGjfCjvoSUf8RZLMfg4d/gE2Wa+ZOMyy6wdNNAYKUGCy2mnL1o4/zzpy5fPfoTzG4v5RHJYPl4U2/nuzRVQBBOTF+im+9vP1Y5KV7bYrrPxq7wRjibY+DShn34h+Ipl3JSr+BkqtR7U4AQUqwaY3L7n6MmUvm8dNjP8V6fRo0RyfUa3/xy6Q3H9Fh7eR7nPTcaTlF2PW9NydrHEk8bCze6CMJK8tg0l+pTv0LSNY4kGqXtCOvYwBBDoX3Fizl0+edx9yqz9bDN+SnxxzKjiM3VfEamVgjTz6N2fMXI8Q9ERyRssPq7Wtrrj8IzT9Xydtn+y341xmndlnyz7wly/jCRZfy7vwKOw1fnx8cdzg7bz4cT/rIvZTa2JDik2o80OljpyKGeJhkEpoIb+lDLUwITwmJf+UpW9h+JyC8Qkx1QgKTkAZFIlMh3a9A9HANawrqdSHCS/7jf6S22yna2hbe/nla6tej7ojLVUsC0SyY+3huELXBGFx9Xy0jiNqZbHDV+35CPPdROOpq/L6bK9FbDigBFl6tBaOlEHmWBbxe6+lfpqKw8Oit2ONPgR99g3CbHfCGbQkbS+qwosYjqTDhSWmxEUf/7Dxemb2UbTfuw4+PPJr9thmVM35NROWfYwlXzAGXqoZ5x9E8aC/WK9SRvvOQGhL5Iw/BG3cZzi+TPvlzmHKTvrf2oUZYmx9DNO783FBH/iPkxTVPuC7xilVqh7Jm4PFXpnLMb37PkP7DGLFePRef+FmGbLheTspc8BLerZ8i9XPhqFVB8HCFvjBwPG7FwyTNNUJToXDAZQSbHQgrFpDe/QXcirfe/xKtMduAcK+zCbc5BqfSr90lah98dLImjz7/ElYsTVl/aCM/O3wC+227jZYFsmwl3vXjSVsWawmufZQDn2IaUTdodyokpIseIxAy6DYnEOz+Q4rGkj3wc8ysm7Cmigsiii6g6vsUhx1AOuGPFKyQO7uJuqnWs+DWyZP58q//wMYbD2OLxpgrvv9dGgu5FgZT/snKJ86mlysLbFL+vd6k4wiiIrVhX6DX7OvJqhLLAsHht+CGbAvLZ1H72y64QoGiSUmCiFAORGk5OuFxwi7MQRDS1A0vPs+pV/6dQYMHsVG94dozzqDkRPsVgkWvUbnlcCLRNMgSslC6ESST6yOE2HTjw2HRk1Sb59NY3AB31K0KNP3KUrKbJ2Crc/DSRjy/VXleAhTct2Yowb2LcxTXTFKU7MH8phXc+9wk0gBiAvbdejQbDehHKJKbHmz+Pz/m3fmLtN3HqGZ1xwrpJ9yH9YRyKtoybufR3POj73VZH4tFy5u4f9JkKtYj9hx7jRrNJhv2U/KS3KKFgxC80HmzFda4CB+ZWzzsGysJf1xUtq87IcBcXgdhjehnMVwgKN8jko1NdQ4SvL2L+I+kWJHvVOlcn+oLvyMNh1OfzaF1+t+o3/Yk3FYnEfll8D/e8bH5wVPw571AfMjlRP1G57W0NT2muXMxE46i9s6rREE9ontS/eH3iH70Y2XHJw4KsoCcoVo1XP/MC5gsRYSP9ttyS0YOHqjljcDFJP/Yk2DlLETzYPVOj3D8VfhBkZb7vkYQVan23Z9+x1yJEb2Hpy4knfZb5oGaMAAAIABJREFUrCCaDhAh3PwoGHcBgWRBRExKzJu6+srr8AkEWEvnhbSNvjV7Lk++8baawvhFj8N32J4Bjb3VqCtd+Cr+rUdTUyLpqg8ogNz024jCEbeS/et0gveewAZlsj3PpTTqeExlBdl9X4HFL3cGVgLo9jiTcNRncGGsPIjuOpataObOSc+TJJ72qI8ftQ2bDRmke0qWLIfrDyIrL8zFf9qGSAAHQX+yw64mnvMcTjIt2TLMiOMojD8H5xXxnjyP2vQ/4WUpxg+JnCMNLMUhB2MOu0INr7qLUJIQkaV98ZU583h++ptKIo4i+MweYykIBUE6yabdQOsTPyWSzxvKAS+kZ0tcs2RD96Z0wFWk//oc5cUvU5Jr9D6/JRx1MKbaROWaAyma5ZhAzNgkeSNqsUWCzz+E12eTLju1amnGpHdnMmXGTOWghpHHZ/fZl6Jn1b0xWPAa6W2HqImgXLLk6hf5CamNyfpuTq/9LsU89L+0NL1DfaEEB/0Zb/AoqBiym46C5jf17FQ4oLLdJYJvTMcTx7kuPtbIQVDjZlUkk9qy3PhkgQkTM2/FlpvIrqeey4szZ2kKOxfJVT77v/fRNW8HUQoTdt2O207/Ttfd41WLQD6lJOWk915snRVr5l0M+7XA4/WrGb84XYDubw6v5MMXVeoNe5YwWiOyLCM7Hor3qGG2CuNIbMWSNtzf4N2bK+mRBYhfU5auIHrjdUzyFn7vUXhDt6MmIh16bqxBEW/+LKjMxQ3eHi+KFLh0VHD8sAeXlCvwxjTiJctwdaJ0WCPYaAsYtjGebesTV6fBSHhheEHekplKvbZNJEqZ8/Kxr9ufrGkq1qtTWuOq4RHsfR70GUpw74mUfY+6Md/Hjf6q1jorj50Js64nzOo6HHQe4ajj8ff5pUrBinyUWhn/m9Pv35usa+/V0letMMn31fRFkI3MIStZIKnXOE9b9kSDIl00BXfLcVgnGZtVz1jnS8NQ4gnXUXv1Irw3b8UVhhAc/Ee8gVvCvGlk938JKh3KgM4j9i3pvr+msNlnsUENfw2W0WvvU/+/+U5y+Ikmh6feHmFbV4ak1JeR3PwZvJXTOwFSWapR0Jdgr3N1PflP/pA0aiTc+YeYrT+nPB5zz/cxC58kEAtkzbAIWbFKMOIE4oPOESZv192nPiTM4mUiyFzBoEi/izOjkDDFtVJ0VF6/jWzi/2BsUTiLRCKHIDe+ICFp3I6GI26hPPFUorl3k9UNwT/0nwS9B2NnP01y1wkUhLxnI1xo8YyAjH7UHX8H9Nn0/81DXwvfNZXW68wSiSidExG6CJckEAsBNSSY/zq1OyfgEg9P1A/TBN/FuMCn1msghcOuofbUzykteJxq79EUD7sWU1ifeN7zpA98hWqtTCwtlHKrspmWs+q+/ILyw7r6RrVGgCCoUwR55MYibWRq0iGM+EBEbnLe+nf/dBO/v+8ecZnXfbktMfNvPToVHA4cccXy9cMP4JKvfiZP2XfBocWDTA4/UbgTrQIRT3FKVhHnxez0CsEFpTaPhVX3FanBuz0g+I2HaXVqUpXtKvyfGK5M8C4IoTVPgqoxkZ/LT5v/SQguClTVTDX1XaiqXHU1n1qhlqe7spgo8BXhaufDx4xUZIy1JVMaGttY2GsSShI52lRKIblNsAmtOCfprV2VFFWTXACNELkcsZebvkgbmTC8rGzaviizGYLbT6J13v1EThB0ZxvwYMCuVMeeTq+smTQLiQZto457dvo9mJcvIa4sIeko2+rHRGN/oeI2UiMWR3olR3UTgJA7MOa3Wo1E268lVhJfKcGIjLZkjbLl72BuPwHK73VS98uBV4Qd9RnCTY/G1Zrx64u49bfCLF+A/8JvMO/crRt++8j9wiL8I/9KOGQPXbVrAoldcCl2+EDClZJWPQlbTpoVyZ5U5M+zKubh00jfvWO1zIsj8zIKG+6I3flnhElFrYyDgdviKsuwb95C7eUrCFwrvlEtS6wvPioJ0dgLCbY9Vj1SulO6Shsx9IIjtXNHLJ0LbRBH9uBs9lPU7juewEo2rkJg67Tjv7mQUhLLhZ2+SzBoP2xtHpSGYtcbQTz/FZKXrsDNvpO0WEcxkW40MbIC13c04aHXEDSs12Wnj4ADAehyusmlTLRUdF2q2aCH1/weLbd/isLKpWRxopbhnp8hHVcl0wc35nu4Ybtgm+YS9B8BvTcifW868Uu/pLzwSZxXTyEVR95Uf47rsxmFI+/GlSRz27VTnWsECNqf3WZNrLdjwQeSd1Ldglx455lZCzno9NNpkeZ7k+HqfESuWl6QS/iq28BqE0Sowe2etPlhJQz/Yuq48gcnc8Ke20AXFW5R+xfjqMohK2Ahz8MhIipSguEhH3e0w1UkpR7kZjjyYcVQxwuxgz38kRlueIi/zOGmVrCz6wirUImqFASBGx8T1oi9IvYvDj4tPuyW0BaUOSu7fWDKuKCXtmdbubHL5Ja03xqMUaRMkQmo0eyQfCuFCR87ck90+TlGxYnkq4XFm5/FcsPN35M8ZwEL6oVgcmApG5GUXgQ+VnxH6akLWTH1DxTS3CxK+/jb+BF6aa7rj9+4CX6vQdpClTY/TdCyFJuswIWNYGtK9hGrXYoDKR19O6ZhmIr9iKKkumR27XXXKda5BkVeYtA2VVlzcrMTgKAKlRKnCJIl2Ad/TDLrfjWDkSyCEsu8TNuxTFAkrt8Q12cLwqg3NC/CVWer5oTIaUvGSv0WxJ1OJHR7bUnhqGtxDQPwbNStOQi5joTwKnz1ggklMlaotjIHLcGUq6k+8xuiJFO+j65I0flQPkdMWOpLrf9mxMV+eMLMb56Ja5pFSJmMBkKTKfgWAGylzn7ULbgBo5Rv1b3aQ+Uz5KA8J8y1mVNlTjPCWfN7tN72KaLm9/ClTGX7E3oiDuRTsNASxhQbh5L235ZYWqOTxWRNr+GXlxG4ejKvqgdrIKInnk80+hjsHmcSxV3YcbXNQl1wpVxocnKiiCLJGhPs3EzLvV+jNOtZTKFVzdEwEV6QEGcB5WJIsTSYtP/Wur7C1umUmxdSap5HOS5Sl2ZUIkcoa0wcQ7c4jGCvSyCWqK5p5/3v4qo1A4RP8P5qqeGYX1/M3S9NJQpDslqL1pHFaU5YswolP3BDFQaoJQojsjRTF0O/GDO6fyN3/+ocNmoUKUvp9+4eO71YeoqaYBYYwqYIN97B5EyV1hJSTefiVkkgq6lQ++Row07Sba22x/qPvN6jZbNF9Jq4PjXxANG/79oT6uNRhhQAUvyV8ynf8ilKZbEptvhRGZs2EMYpqZUUbvszFyMq2bgEXHk4AT8WothRySyBWYQ36qeUxp/xCWZp932Jc6kedpmXEs56lZVPnETcuohamq+fuNZEFvd9f62IfbMMIUTljfuOIGsli2NqqchTB2T19dTtdC5u1FGaatZSmbr1rRsj15fIdL1U8Ck2v0vl3hOoNC+lV7YcT3g0aUYaiO6GZMJyS/HcVrv9MiPZsnpSv1nXak0tocs0bvU1gj1/oqVW0d7vrCvbveNnxLht0m9xz1xFawHCalWEk5GsowsdJpa5FONLGU+H/F5yDGWVkjcmJiymCuxpGEgw4VqyASOVfN5dh2YTpv4Z77GzKNcVyMqt1AXijCqX5QgbRgTCRXn/DiwXSDFLC0kR3ZuMOIqomRp+VCCe8DfMRrvpvOnqvJ+1AhCkXvPC7Pmc9PvLmTZ3EV6WX62tNORL0kFTfp0PNilNSNpUiPaB3Gp8j83X782fTz2FMRsP1d939fRLxwkvn1Ed81wN6asNXyxhv+4IX5GbrrQJCW+jLfWv55yoDnZeMpqZEeVEyUaEGeHGPtxoMNuKZGxBlQ0Ju2bZ5ZMsfrm7pFZKJODPvIfqxHOUCyHpTAGRiV/RtHBHFUTjS8ZCJpNsSMLck6xHRuiKhAP3wux/FlEXl3H9JLH5uNdkTvTwQxJniDKfbPJvSKbcSCFdiHXie1LCauvnqsjlMHNV3k66jbAFCkEriVck3PQowj1/Tlqo07bZnFm0bgEEOezEo0LyevoBZzxI+vC3CWsp1VCye8Ktao+RGH21kYw7PAx5jXQfaSlNQNTg0fh7XkrQb7BmLCR7sC65YGq2uNqKnXgq5q1HcP4KPE/yMQXNOISmpiqJqmLaDhE0OyWZOyk7y1xScgf+zv+Lv+1JGBcQC3Gqmw5lU5WXkzz7S9z0ewlci5rTOe2WEhBZ1UuNlBzah+drfxK+7m3SFmkJwl74O3wZb9uvq814IS52+evvWgEIiUyKzDF55jz+97IreUkY72pOLzkrR+yLQeZqp6GmgYU6K339lq2HDuSCr32VfTcbqi1dQnaT3vruMoQ5LalKbeuRNpYQ0pcMhS8HmHccQdUj9Y2qGyoiVdPmzp9PyUAifyttU5t5uD84GFvVtr3UF2vohJL38R0KXTleWpgyLRgXa29/+satuBd+R9LylnCdlajpJOXbYfMRFoP2qwuzJZAoGwq2F2bEPhR2Oxevcb116ub7Yc9Pl5Kyp2UVFfBNC/bVf5K9fBl+5T183yfLcj6Hhq5975ZyjX6tNKSJn4NPEjdgRx1HvPP/EhQGqOyrqGAq7bz7Ys8PhK2to4/AJroN6f5jE2rzJuM9diaFpTOwkdzuIuXwqP6oCfAl09dhSFdMnNbhh820DtuPXrv9HK/vSOVltYaWhizOU3vryFDKcJbgVRbjPXMBybt3EpicnJ448drRgmInEO+EmCwGcNIW6EVkdSXCnX+MG/U5Yk8syD28oOsz9j/qEebZKIszTXhPXwjTbwGzUoGSSN9Ld5mAJymwvg8QhCSbSWHQaNdLWogpbPsdsh2/RVGKPM7g+3VdPkG+VgCCTRwmErRkmL+slftfe427n3iB5958m0XNImyzumdfbsnbp66eXUZsyrF77sz4bbdkUGOj+v2Ib4CI73gdTH66+vqrWas1ulqQEptITZasbDhLDcH9IdXbVhA/3YjXJBbJcrezWr/sOFxvh93NIzsOogMs2YYJca2EKdREhUBT7OKi2F2HdjVYAUdVAuoJXI105Ty82Y/A2w9gl7yMM5VONh7C3wgCuZeAL/KuG2yBP+JY/IFjMHW99N4bdSMg+Z88O1XPFGttOcyFSGaFf1LBLn8XM+MhePc+guYZGNnIVR9hVYpcTscwjHClwZiNxxJsfGguolQoEMhNUERc/GLOK+nO5asPBFbcToVIFmnpLwcMHl6SklXm4eY9jD/9XkzTm7jaCm1By2TP6WQ/7hGUBpANGUO46WGEG44hLfV9/yCUy4DiqnUobsJ7EW5PZmP8bDksmIaZcRd29jNErXOVOCu8l44tWgIeXBAS9h2B3eQIwmF7Q+8RqlKZiYBclhB3g5a+j1ybUnqS7gbrY2V/km6iGfdhZj9FsPIdXXM5XX3VkMueWNIX+o3EDD2YwvC9qPUbRYESWSzCMglRKJehrr2frxWA8J9sej1f0xOBngj0RKAnAj0R6IlA141AD0Dous+m5531RKAnAj0R6IlATwT+axHoAQj/tdD3/OCeCPREoCcCPRHoiUDXjUAPQOi6z6bnnfVEoCcCPRHoiUBPBP5rEVgrAEHasESVLfcZDvDbBCZyj7o2ZcDV5AxUPU57/uV/Ik6Riy/5VkhTIqnTjXzWP+zxiSaC2igH6k2RiBKhSAWpho/Qy3O2ecfeDhUtUqndPDaZEMxEvVI952v4JhLbxP/aZPn//4OFvStOULlEtZKd1C/NaAtox9ap9p+lHfoqIJQbgwkZSIImkgixExdKkVXuzjFZc1SdqI5ZkfSV5lhpHY5xQoJVsZtQyYtODYNWFyNr/97SfiuqjNJUlPfOBO0KljK3NKRCgFyH6PgfEtacGCyEM1GnbLPZVqEpaTnOF+RqvGGNkpCJtR1SmoxEBEia+cSExq8S2IK2ZK8rQ3VHZK7IqtS9KlGyoUh9y3IV9ZZVu3rbpxaxKP1lPseUWKwt7qIyK/OzexNg9azSf728lV3XXqj7Vq4c/MGYrCKg5wJ24iUjLbeyrxvpetA9L/y/0cVgTE2FXITSa6R/f2EIL1jckw5/oY+J0lzroMNQDb36CLYDu3+GGVhWIaHI91jh1ehl6glEEbCbrj0RPQpV1sDimhdiZ78AKydhskq+YFSVsvPB5ocx2YZjsBtsTUEcGD3xpk/B1IlQox6s6tbYTYdoZnliJpUVckMvUVgUaYPyUtL5D+Mvmo6fSuRWHXRG2j6lC0Ykh+sHEPUfDgPHYevqCAxU/DpK61B73oc9WvFlUN1L1YmXQywgTKR9LCNteZdg5hPQ/I5+qUauQxPD+5JTxeFkI3Ym6jsCL+tNVtQGUsQLQg9IBVnddLF9wvUgHcjqEyKC3M0LYPaD2NZZmLSih6Kv67HzmgyCItngvcg2HElU14hHCd9rW5OBgCrtE/mE76Drv0zbHEWKHVF9LRBWqrBkEun86UTN0sXQrB0LuS9FPkQcLvWh0HskwaB9SHoPI4hiosxiA/Fnybq1xoZ2wIhYmUsxXqziUd6iKaQLX8drmYXvWvTy0rFPWPRbEt8QN25GtOE+1PpuAnGBYmawgYAvUftsVxruuvNirWQQdOGRUqtA8dchlX+mFObFeBXpsRap4bb+7A5xkEnjE5M2GOzACtEhEeZnPnEUQ5zifNG7XqU82HVD+OHvzNkyrmypvPVXzPQ/U9e8nEykik2a63vrRrTazdf3FUiZun5kmx9HQRwai7nuQWQDjAoJdWHJ0jU8JFEUQ4R+5EAKHOHyWZjJf8LMvJ8wKZNoRqBTBxXGyjzJF5ILihAUMb03INz6y/hbHq39x0HQfUHTJ5nXcnlTBUoBQqI0Kd3oTW+SPn8J3pwH8USnxuSmV7mVwyqE0C4pIQ57sqe7DXbCbv9tosF7qgy4SDkrQBAhr3XoJvyhcTWpqk9mL59P+OY/cbUaLhWgJWtS2tQkwB0EgKQbLYRI1lypD9423yQY/QWcIH9SIlvMBXC6eKvaJ5lj7a9RE7pUPpPDzH4UO/kKvKUvt4EGqw6skrVS7Yz2IRmtrJUo9KkVB+MNGUVph1OpDdhMs3zWluhGHesfCFcOEDI8Mdeb9wzppMswS18kyMRWXTxpJLMkILFjTCJcWiEMPZLiQNzA4dTv9GNqG2xL6Kp4tqR4oqvnPtcKQCi7KsXFMe6X4F8ufgw1TQknovrnfFV/c50sevNlmHpVIkXfohzo4x1fJrs8xCuJR1qs2uDddVTTCtFT52Am/R2vUMSlVYxohchuLjc3I/Ojc0pY0nqJq1ESexQb4m95CP4eP6dW15tYbtoiV9qtL3m5wVPie8QrF9H8xA8xc54kTGKCsDW3dH5fIjh/8pI6FzdRUbQLJBujm7mHDRrxdz4Vf5sT8aLuK8Lyiea3bExepmso8BLs/KlUHjyN4opXyPxBwAo1UmtHCB1VENolzkMvoWw3pM42Yesaifc6F0bsi/OLefpTkdm6nYpJWuYQPvQDzIyncVER54mFsyi6SuQkmyKKiR2FkjwiE5B4CaEfYcQYbOvjYOfTSAsRRSOAtVsvyA8ehmr2mJG99Q/CR0/XfcqK/4n4LohJlSZLpFizau+S7IHI4hd9S5ZIJrgA621LuM/5+P23xPNq3fyy58hMhpl7L8GD38OrVfG8Ro1T6mpi/piXQTtYiWeqPRZRFKCVtuJRj+s9nHD87/EGjNbSja8Xm6695tYKQEjtCqKf9yb7TUqWiI2spPJyNK7oyxdznVg0pVQdUWtcIp0rCMCJg5ZkTn1xx8D7CpgLE7xi/AFkLkIm7SX4T7osdSJLDVG/oNPW+TF7s1HVOSkDiBmRjDVhFS2ZiACSeIiLxOuzv6J1yo1E2VIypE5ZIzDymUWeVQCTfH9ZbVVwDZodiFxG4kICX7TNa2SBT7TFCfi7n44Xl3Kv8jW4Ln6iA+e/9KJ2uRpbbaLl0e9R//bjukFrDV107T1hHAggkLJCQXkpoRHFsZBUUuvCQFBxH4mfmOfUwT7nEI8+NjcGU/OZ3JuuqwuQ/FuPQA3TxAosImp+nRUPnkq8eJraGvt+SmaF5yI19Q4SinofFl6HxCo3JxKegcRN/MKzhhHUjzsbO3DPNsMhiee6lYnJ5czFwCvEzyqYiWdgpt6MizJSL6Yoe4/yW3KAoHK5LiCU2pWLtPzi/CrGlYil9myT3K1w159iR30eX+arVkHXtDv8W0/7v/pi8diL5t5J7aHz8JtnkkZFQgEHauqWZ/dEWlrwaCq+M0mMH7Sq7LCuy0D2wYQssxQ3Hos37g/Y0gBCTX91z6G5uXkPkT14NjS/i/FFVkvOiPy+JpL5RsT9TEYSFtT1NpAzD6h5UoDysTbJs1Trb413wO9wDSO0nN7VL3xrBSC4hSlmjIc/JzeeFVKGqAW2DxUW9uV+LGghwIayMMVsJ8hllduyCyZMcaUU7/6QaJfCB8CVKKO1b/55zWfN8XUitSo/WWu3uVp9R63/D5uyqc0I9e0LkPFV+nhN57KCAhvqTa+2Yhb+7cfhyos/ZkU4PLVMDjBKtKvgG3mfqzYbQaWVUgP1h1yHt8G2uV5+N06r6DwQJbYZt1N94EeUTC3nVnQasvRStbSWFehCkQgu6LOLxWZafD4Kgdbfg7RGsuHu9DryOrJY1ACF+mP12a1Lm7YcdOLYmfoZ/rPnUpt8HYGrdopaDozaiYr5wedCmb9S/y0pEO+4WoRkFQ3dFTPhagpeHl8BX+vKkLUimSefKjXxqpj9GP7D/4urNn3sR5RDUOSZUyGhSXZAmHodh4C1AaMoHnEdtthAIJnOdShuNqmS3v9FsjnPUrCWWuip/XHHIURNyWhKLd26RA2rSBz1vqOidz6Rym8kCCpEe5yHv8XRCL+quw5nUipPnIo39RZCUUg0ciZ0DopccSIXYoMW/KyeWhRQTCpKagxdRNKmZC6KjIXdzyTY6iSI1nwW/bdjtlYAgv2Dw33X6YZt4wA/kcnQMX0uh7PgMA+OdrTs1UyvO/rgHhE4KgVUcZLzSGyZSmNI71Mi3Dmy4a2OOkUzPSdT6Y1dENyaFqdSveXxyVsS5LcGVCEvrEK5aLQOV2gnLq1p75Ram5rCONyrV5E+dV5uLvSRQw478DedQGGjbbBTJpKteLJTrsJzEUEpxW59MvH2p5KEICqd3XXoIZb5VCd+HfPyo4SFchu5Z9UnkjRdFkQUFAw6asM+S6n/xmTznyad9whx4GPEU0BdCVowUSOF/f+CN3wPvUnLdJC5tO7c6cQ12+aAuzaX1hs/R9w6oy1PsipucvvN14K4gBqcXw+jT6RY7E8y9VrSZCahEInbhsS2kkDvE/+F17hlfjtc01rqThNPmxLyTg+bZdjHf4Z97YbOBJcP/TwF/CG7Eq0/jsrcW/EXvdwZvrqQqq3R+9BLYOgx6iG2Ls01lkxh+T8Oo5cYVAU+ra5MJPtahyEgPCakkhTotdP38PwKlWlX49nFKgcf+gUyr0iUrIThuxHufyVeqX93mj2d32tlEeVbjqTQNA+RUE6EF7XaWon8lErWQF3ciLf110gry7BvX6mNfbIm5V4TeiGx+KhsuA/hp/6mxOM13jz/y1FbKwDB7J/hPSx1KI/ETykkQi5cBRDkV8Z3+CM9zL1VwiFF3GkOfisOWLL5Ke0KT9wMifCPhuzGDzJfjWQDPGnQkrSNAAhBCB/PIBZTDEmPqb+33Cu11vBxp6y0MNXUwtSKCU5giPXW/vHbgCBDT/y+xVTooW/g3rpfW6I+ashB6DWOIJxwFUm/YbjHziec/ic9DNqHpOwiP8FsfCDRAddoFqY7lxgEPAnEszdNgEVvkGm7Y+ehXgO+pZDGVPoPp3Do1fh1A0ifvxLzym9ldmBtDecX5BykKLXh7b9KtNv3MdKCpgdDd/IBXfMOoOr3ErvFUwlu/xJJsgAxyOkAq9pAs7oN6BoKRx6Ft8eZZFGR4PZPYRZO05r7qrmVUQz6kY47m2izQ/PV0Y2zUx+IorbC5kZUXm0F2d2fxS6Y+qGttB2/1u+3JdHBfyRrGAJPnIOZ9udO31r2KS2Wbv0Zinuen2cluzFoXz1u2Vt34h75Jk5uI4GA07wlueOQjjXhYwQ7HkO44xl45SbMLYfRWltInWSIpU/EVin5dXjFAHPsI8SNG615onfRV9ilb2BvPoQ0SfDV+fSDLcXi5huHAcnob+OP/S7xvFdouecIokqMjaUDQlqN5SLsCKISla9Mo5esty4+eT45QHCOJDP4gTDt89uK1mAkC7cF+G8ZbXWseVJxlzxTm/5BG6VFTQgv9bBfgKqrEf0oIrxIbERlyeX/lX+E0GIOjOAeCWaHo1x4C2/dR1Jcn8LgrUlkEwykn1RGR26B5hbyg8cazKzHoTSQYL2RZNol0F5gaOt7boMLq76Dg9RSe/4hggcmEq6/ERxxCAzeqO3N5LuB9MamEg/fJxRPeUl5tzF7K3d9Cn/upI/HIWEvwt1+ght9LGHm0/LsmRRe/Su2A5PceGJUWyQbsgvBYddqJ4OAsO4wJD5JluEHwSozJWlLDMpw7QS85gWSH1BA1XHIISa6D7Grgz1Oxt/62wIJSJ+7HF75FaktEPqSPUpJ/QjfGKItjsHf7yKdRZE8SJ043fdelxph1lvCMC9tuUzyJTF28Qu4W4/Lu0A6EKLy+AkHQTgaBYK6DXEHXUYwcCtSAaK3fg638EntbW8fmp8zFn/f82DU8VpPF+5Ldx5StkwzSxTkeiOpZwmF4Jk0UbvlcLzlc1czY2qLW/t+IXvDXufhb3V0Xi6ceBrpazd2brv1DIWsjuoW46kf/zsky9fFeWYffKQOMitmVpYokmvTqj1TsiyVx76rLevS3RJmAVZRty4snWPadtwwiMJhd+P6NuJaqwQ37E1TtZkG48ikl9SmZGFAKQtITnicui5uyS6fLtN154iiXNeg/FGlAAAgAElEQVSg/Ryxi6eS3XAISehRkP0pibT7Jx/trwzJ+gyndPjfsb3WJ1wwi2V37ULvWh9qQQuBE7tsk7dl21aavz2LfgI0uvh2vkaAIIuu6sHd9/2LusZGnp3+Bl8/4jAG9+9Han0iIaWMAO+dtoPz/emY93sGkh3wHeYACK7yyAZXsV6J+PvARTknIPUyIhVLEk/2DHeAD/cKYSgXTxItASt9p3d8Dm/z4ymMPV3bSuTP339AUvcSsRgj/u0ehSWvUX79Try3b6G444/wtjtWyZGSHsuk1OBV1b/cUs2NyVwx34y9DKa+hv/ME9jdx8HJ38BtOIjgj1eS1MfEpkjV93js2SexfswLr7/JV448lCF9+rRxHBzJTYfjFr36wTKLEutEdKSKGXYg8b4X4ZUasFJbf/IXZK9d09ky1Hkk4gg2eE/CI6/TNSpEl644ZIsxJlPQllqPZya9TJYmPCjz5aADGb7eACXySJDTv++FWzlDQeTqANrzIlLTRDT4YOLxv4Bew8HVSJ6/Av+li0ikRqyHYw7wZISbH00w7sK8Q0RYpUIo6+orr8NDVPtvl2sRLF25kqenTqV1eQuzW1v56oT96FPfoLGyC1/E3XoEqdS924WO2r6PCmxJp4MJiXc4GbPT1yCqw2VV3J1fwS16ugOJUaInjqlV2O8CwlGfz8mdXXRufZL5XktTJr48mayccOtzUznrpE8zuG9fLTO4Sgu1Gw+ClvmdD3tJ8voZiS1QdDXMRmOJ9/s9Wa9ehMJbeOx00tf/0Xkd603Cwxt5CNEBl+baCV18k18FCvN2vWVNrUycPJkFy5cTlop8ff/91U4+9mPMtOtIJ57+/tGXk1Oc6gAE1JG6lRTj/qRjzybc7AjC0JC1VODGA6lVFxFL5kYyxp7VPV24L+HnnyToM/yTPMb/ymsEkK9orTJl2jSmzJzD+sMH8umddyGRsoAQfRdOIrvtqLb9Pa/iSY5SuHaqCSj7WlxPeMCVBAO3w/N7YZZOJ7t5XE52lVbi9guzZLTICL81g0DFzbr2WCNAwKW0tBj+8dDDHL7Xbpx82V/46mH7st922yhHwBOW+eYetAEE+biSIg7ktiuHRpBCg4+9OSBKId07I5BemR8b+E3uLN4ZIBjc/h7cJ6vOkMr3kda2h39K+tY/8Lb6IvHeZ+GEFSvpL22BkO5dscOVX1rKgU9h+r3YmQ9i5j5AYeczcdsfrwJFhlquA9I6k9BEWMpkQSNRsT/ERVXl8156jdZyC3U7bUt27FF4C5cQ3f8gyYBGoiykJalxz8THGb/ndpxy2Y186YDd2H+77bWkIJ85uekw3KIpqwEEhzMGU/CIa0XCQy7PU3eDdyEr1OM9ehZm+jVtfext2FQBgqEweGwOEBTDd02AoG9O0uBWBELgmVdfZYcRm3PouRfz7QMO5Pix21CTdeQKpNeNxQpAEALoapur52JCH5ID/0HBLMffZF8tQ6UKEH5LKqWq1W7PAhDCcRfm4E6Lwt0PIOix43lMmzEb6yLKaYUjz7uIx888jRHDBq8CCLcdQeakJtyhFKWSRx7VAOp7b4l/2JXYZYuJNhpFTTamWz6Pt/iZDwIEITru2w4QpLumm5x0H7KnNjdXuP/FqYzdckM2Pu1s/nLSSXx6jzE5/6gsAOFAaF3QaU2qFksa4UcWUxpE8Kk7cAtnEI/YTfee7OFzMG9e3fmnSTylPj/iUMIDf9+tAILuzZVmZixsoT6Ge15/m7P+eT3TL7iEujqPJHRE028gfTQHCLqkFYoGuCggSKoUij5mwwnYXX+IZzOiAcPxWpbqnpdWFxCJ2qD8HM8RawuYIfrck/h9uy5AkNbp12cupWzLzFqwmB/8/a+8c9ll+vnSwBEtnkztpmPej4nuLi7D+CUCtxhcb9yIo4h2OxWWvgYbH4Bb9Drmpv3z2GnGM8+oi26LFFrjb87Q7GpXR5drBAjOOEWXSS3hnL/ewOTZc7nq5G8zfECDsFhUESoYQSeAkN/tEtLQy1N1p3nYoxKi62LsrxIoBnjfD3AX50jswwGCT2aES2yx0+/BNi/GTfoFbssTKOzzc63BOlFEI1BJ4tgzWpMW3kDgWslsETvneXjo68Q7ndEBIDj8FXOpTr2WOJM0dYLn1xNtdhxu/ZHgVXIRi1deJr3zb0Q3/Yvs9B8THXucphLLQUAxzVheXcmF/3iUye+9zR9P/iobDRiQt2t+BECQlG4kcjdhRLz1aTB0R+zUG4n3PpNMdBIm/hI37U/YDrc4mVTdBSAoGUz5oJm23y1cupy/PPo0j0x7lUu//TU2G7heXif3/Y8FCLKA7GaHEW11AnbynwgOvEQP/HUVIKiMa/tmnGtt89z017j81nuIejdy/pdPoF+9dCG0ZRA+BCDkfekZhaSAOfyvUJ5DkGYE2x8v3dZ4t3wes+jZTrxhzSCsQwBBZt+M+e9x2Z3/4ulJb3DdL3/I8H7rfSxAcJ60Fq9PRhPeTj8gGjaO6qvXURp/tvb5u4cvIXvzD+sMQNA0ulySTJVnpr3Dr268nbFbjeLU4w5VoB7bmOyNGzCP/bDDYZhn7KQYWPISVgQDaTj4Uvx3HsRsvBfhsH0w5SbsjQd1W4CQOUOWZDw5eSrn33wvh+0zhm8dPB4jYm4mwC2ZRnrzhA4xcdrdZoOMkgtorhtGw/iLSaf9BYaNx255JPGCqWQ3H7TuAwS5FbaUKyxdvpxZy1Zw3j9v5dvHHcWB222ppTfZ0/yRnQGC1kMDq3rlbssW/Bt74f860FR+clVKGId4p4G78OMBArZCunIp0Ut/Jt10HP59nyMb+RmK+5yNC+QWleHevh875a94cV+YcAVStw9lOts63MxJpA+fRLzzj94HCJo2WrmI2vSbKNqcEJf6RQqbHAh9h+ZymqkjfOcd7LPPwu8vx9trR7yzL8A2itxtTLVaY+GSJSxd3sLPb7qJ7x9+BON32kaz2x+dQZC7v8H2HkV8yGWkL/wBv7acYP/LkdRK8sTF+FMFIKzaj7oTQMhreAmhF5A6n3fem0dTtcyP/vx3Tp5wEEfuvj1eKCTO4GMBguu7OcVxV5JOvgi/dTbh4TdqXNdVgPB++lcljz2Wr1jB0nIrz06fySW33cF1p53MyCGDRaotLzF8aAah7SIy4ijCrb9G9uC3iaRPf4cTwFaxt36R2uKXOpXK1zWAUE5qzF64hAWLl3HC767gsq+dyKG77vyxAMF4KZFrJF1/KKVdLqT8wo8pxEPhkN/ps/Ae+SXp9D+tMwBBPojJasxrakXSedc+/ih3P/88d/38x/RpLKo4m5t+A1kHgKCZLfVYkLbjDLvdd4jX3x732Mkw7vcEm4zFNq/E3nRw9wUIWcbSlmYt7931zKs89spkbvnJ6UTFvG3fWzqN9MZDOs8DJRhKBsrD7X4Gcb8RND34XRr3PhdvswOxS2Zgbxr3fwAgWMfMhfN56tWX2X23ffmfCy7gS+P35oi99iIQ5SKpT23uE8wUGd2cBCU1FtFCNEGN5MYCQSElPszCpwtwZUKtMaTwA0t2cUVJRDUaKUQGm+aiuhxUgfuKrMgsDbMeInrwVIyrUKtGxP0aCcf9BTNoI6xfxC58k+rcKdhCb/puuV+u2W98TNhK8O4r1B7+JsUxP4FtJpD49aoY51uDS1qUGS51JIUpcT1OSFrG4F15LenI/gR7H0ztmKMpTZkJT9xMusFIIpfyZtNSXn1lOrvvuRdfOPdXfHPcPhw1djexmqLqO6IbJ1Bb8lrnVLiUP1JH4aDf0uqX8B49BX/gnsQH/V4zGLVnz8VN/SeZbaUUiPhNvumrHO7gXTBH3ETRSbaj6/YT12oVoigm8QNue/gJDtpzVyb87Jd8duxOfGvCAWpSIq12rdePJW56T8WgJAXXARIR7HkhZv1tiG49mGSDrQmOuF4zWOlLV1OcdC6eSOP6q5QT9eltfgzRuAvxXZmUkorbdVWuxodkx5V/kFdoHC9Of4OgsS9JuZXDzv4lD519FtsOH6L+Aen8SXi3HU0SxDqH24dM4ax+OPWHXEvLtL8TTruGYOdTiHb8BqQxyV0nYJfeB7bu/a+RcpizHtHYnxJvfYJyerqzDsKi5ct46LXX2HXL7djhO1/nwuO/zFcOGqeks8SsILphPNXmJUp4bR+tXkQvIepNuBzTsoQlT59J32EHU9z/Um37TB89k+qbt1A0y0irEUFdAewK0rBIacj+1A79E3Umwwu6fi05Lxc4siTh8SlT2WSzUdw36QUuuuxynrzsCjbo16Dlu3DqDTQ9fg6NrplEhKSCkFro09ssI+k3hrpD/0ny6Bm0vPswpQlXUth0D1a2NlN//XHYFfOh0IRxMV6Y88986e874THCLsxBMNby2JSX6de7P1MWLefCiy7ioWuuZr1QtER8aounYm46koJvsbUaaSTaFyJD1opX3JT4yKupPX42bvZTFMZdQDr6cPx5c0nvPgaTLSKsFfBLkuEWnpHBE+Lnt94lCuTC1LXHGksMkvJMnGHytKkkZcucagsHjdmJhjAiEqEM2Yw38zDvCAtAvfdU/MaXFIywWe8JsKNr+EGMK3jQO8GFDq8pIjvXEF0U4SmXQEiGfm5GtL/F3CstNhCZCuWsgjfvZbwHv0aw6aGw78X4QYbvCrpxSjnDGg8XllRZziQeXlzDznxVWw79MWcQbn2MKn2JO+LHSsoKE/reO+Gd+QRjdsaechLZwKEUrrkK0299wiylFka88dobLK/WWNxa5cCdt6O+oL0bZFJvuv5IkmUv5+TH9vSxHGQSr71/gxuyP6VkKaawHtSLrnmIa20ieO58qm/eQSBtfFo6scTC4Vh/d4Kjb1DJiK7qXKgiSLIhqAslvD5jNi3Ll7Co4thjh61YT8SNtDXPJ/3HnvgrZ5Gtbp0n+YU9f0U6bD/Ve5CWVK/QW8mgvllB+uwl8Orfsb6IX+VDxaNGHoE37mIFBuKvpmoX3aSeru55Hd5rc0uZd+fOZeaiefRt2IAxW2+m60zmRLrwVfxbjyFRF9RVW4vMM9tvJIX9riCri7Ss5+Le2GIdqd9EtGQZ7sHvY5dN7hA3l6vb7X4W4ehPQ1Do1hwE6Zh5650ZLF7awpysmcN23oXexYKmOLNkOVx/EKa8sN2sQuNgyCh5vTH7/Q5/4EgCimo6FDb0w4oyZUuF4JlzaHnndmJasUmsHUtpkFIccgjm0MsJ39ef6NobfTtAEFbdknKZd9+exZym5QweNpgxw4bnmhEC4KdcT/mpMwizDPHvENsJEUqSDqHqoH1oHHeuaN2pOmUQ1xP49dp5ZZe/ir35aBJriBRYeHiZlIhLhJ9/EPps0mUDlKYZK2zKrDdmMn3BPEZvPpIthw4We7ScO7DkdS0xCKBWIrsQLz0pGBvS3ttTOuh8vLhBL7cu6kdQSPDSAlnLS7i7fkhamwNZVc825xJC6gi/8Tpe2PUl4j8RQMh7YUVqNCeJy6IT7oBsbPJ7t4fFf0Z8BCoUpC1Pajf6F47yNplKSkZyuB0Q4M6Eaq+E4nkBXJzC0mJ+kFqPNKwQmRLucAu3iamPAISUxA+Jmt4lmXMfXsOOJMN3pc6V8bz6XMq57aTQDkBntB9e7UlXLsDNeggzaAxh/5FYX5wfVrHfP2rG2pYE7r6R5OU38fo1EB11JAwbjol9ojTFhdL9YEk8n5LJNxphoHsKigzV27+BP++BzsYvamVtyfpsqKTIoisTbHAQ7HkKJu6Fe+4qvClXY5J5qtYluvtygMZRBTfwEKLDpRbadTdxBQiSkTFGFehEu1wIPqW0IG35JKZG7Il2vcNedxDZ8pcxXr2WXToOWz+QIOqDtVUKA7Ygk9ucqxJO+wfZi7/DVps7HWRiER2O+gKBEFfVxFjSxiKO3mX3o498Y+22skZSuWrQFWmdUwBt4Azpoqm4Wz+Nta2dQK7KvXohtteWOK8V3xuAv81xsNUxBGlK+eGfEM6+A2c6qC/qJudj9/st8cjDcov1bgKqPiyAqjaZOJLAURCtKCGsygYsh1V1Ocktn8NbOU25HO0jDR2lxJH22TjnttYG4A3diWifM7R8ydN/ojb9aqJkKUnSShCLEJqPdVX8kV+hcMCZmint6rfAjvFKUzH9CgiEWyb5O7UvltZEWTIBTLuD9PFvqsGStPJFouCpG2umGdtCwyaqhioaJoV9foE/eHeS8lKCu79OecnT9AISrw5fNE5MgonWo+7Tt3VpgCBZJuEhBOJEJZ5AAgIwetENRdF18RvUbjsYl7c14KUJNioRmmZ8UyDruwW+bxFx5eKup2FH7E44bxHlJ75AuGyWSk/HaZFaJIDDYKK+1J/4HBREL6hrb1RrBgh6MzSqvy2pGLkhyuHYrnIo2dHknIzCWSE2kkyA3PYEUASkQUUZ6NIaKIJD0fEB2RVi8+zwvxfBb6UlUR5C3s6Ys9Bj+GFK8CvxEpcpa3EqdiQ5+oJ+b+mMkFR1Eobvmx8LgNHXCNoVeUtpHRSnbuFByPsyAmZEs/7jG+AEPtRIKKaOLM1IopCi9KCHOXte21pUg13SirJwqvq+xN3Nt7FyIOwLl5O9+JtO5h3yU0PRdlc3tFKeadh4T6Lxv8H5fak+ezb+lGtk9uU/Qz6Z9CJHzXijf0S4+yn6Z13VcU8ON3FelA00V6sUdylRIXekxhIEkimxuhGFd32D1jn35Af5aoZVsXGYWHrX6/HW35bg0GugmJI+dxXx85eiIp0dR1AgkN71LY/SDo/US5Rs1cXXXWdQJOuqzT5XDjoBV7EXkIgXhcRTu0MDshXvYm4/Edcyq7MQmQB1seaV0hrLify+BDudSjLmixQrKbV7P4Nd+II6q3YaLiY6+jr8DcfoQSo/o7uOXI7a5W3BLpCCjBosSZo8ymrYiWeQvHWzssjbhwBUcWgKERttKxR/zOZHUjf+D+AbsonnYKdfhV+LsKGYNeX7njUVon0vJRh9hAKzrs5E7wQQRKG0zRRNJX907uQxkZKrnf8S5buOUZMq65WVyxXbmu6dqcwfL9ZYBTYmOOz3MGwfvJXLqN18AJ5pabNrr+G5Yh6W9bYjmPBngl79uuzUyh1jBfjlPCDZpPX/EhtrCVoX0HLHsRSbFpLF4gDqVH5fT0JX1ExCLmBnqdv7MtJREwgXzGDpfaPo2zIER1mNC0VOwpOsXf8tiQ+7A1eS/bFrw8s1AgTVIpCMgSeGObLvyt0mz52rOpSkVQSY75HhlSWLIGxY+RrxJWiDEZ6oDAawAdhtxbmxRvhagDczxXlFvFCIgSLRKa02HtG1Ht7Rcg2w2DDW71nwJXWdPzzJEBQV2UpCWdobDU4AjB6hsjVI5iHAiKiTM6rjEIhmgz7ENnWnj5uuYkQi/fb6E3PRp4xMrHL0e0uZQrIFLrXYgoAP8Z9IVJddNBiCeY9RvfebBLXWnNkvbZgupCaZFc8j8iw1uVEHQ/H6jMD5dfhN0/CTJWrrK+8xkBthZnGFCsG4q/FHTNAGY9WH75JDwJM444XqiqefIfPIYkcgm3JmtbJT8TNKz1zOiikXUUgkcdTWtii3WQ8pFlGyUAvlAlgirB9DQoVibSFZyxzV3pB+f2lp1SasuoEUjr0DU7+h/hwRaRHt8y6+7jqf020bkmxG8nRFj0DaxMTtU9TX1GpWcl/ZMuzDP6E2425N+8rrFKwreK4S2BJpKAdYRNQwAK80Uud/ecUrxLUVqsQp81k5C74haNiCwtHXYOsG680mP+y679ALQhs2le1GFFrl0idRCl+7lupT5+GncmnRLnY8W8MLEjwpLSAp4qVEwTC8ftuqwZVrmkU1m0+scvDNhFaynQWyupjCUbdCv5FtWh5ddU1+8FmKDkzbpqQl3Lwcp3hIM6FUF9Jyy7HEK2bjh1Uy26gy+ZGUtdTYSu7WFs9vxe+9M8Yfkv96yWRq2TIiV0elEFLMLR6Jtz4es+sZRNJC3kWHlAycsbhw1fxXUypNlltsuoLKA/9L8d1HscUEm0lmKhfpC4Tz5powXkRV9vZe2xHX98K21liZPE1jtURrsUZRFBUlyyyZ5FFHEuxxofR8K2+tK481AoRP8uZdUoUvFsiul7qmiL5IilQQU47CVARmtUA4r0YlKhBnYnIEVS+kKDXkXSS9H+P6CirrPhuWZFcEIdZ8n0K6FHvf1yjPe5XQriQLC4Sp8Araak4fZeLlO1Ir2olCIKuRkuANO5zS+PPxCo2qLyA3y247RH3SJfgty6nddTzRsrdV21xuJJ7JrYxTbV9dteGKoqDcrkX3wgogNSGFoExZ4GAW4o/5DqVdRXVr3R2Z1C1NqDLm8fy3aX34BIKW+SL4qX7zYZJhwmKH+nrbBHu/hVIkqGtkYjRjPWJxcyzUU9rjYuyI8Rp/9a9Yh9wctfRoUt3Aq55PofU9yg99g/S9KfSyNTKxCJeMl6TV2+8Mcv+Q9F2HIS1+mcvVO6uIxHdAaZuTiXb5jr5KjIpy3b11Y8gtmmnX4p46m0oQElSlMynBiCJlIFlYyR5INnDVwSaaN4o7hLAuLKBADJ4Mts9wooOvJe07jLgbiAJ91BOU88tOvxkm/oiyqHQmZYp+jcx46uwopQi5gHbMTvlGfi+S1HJ5zdUnJToU+lCYcC3phluLXVqXL+utFYBQc4bodYN/kiN9Tm7tAZ4ABVl5QuxoTzt3fAJeXgJQWpmfp3fcDiHuBos3TDwTclvR7jJE0jayqfIcdF9ePovksR9QnP+U3k4yr5x7QQgCF+KLCj11dgSTzShVuWnB6D7BoG2I9rgAv/8WWD/X8xbr4+46JAeUZmGeAZj3EsnEH0LTu2Ra9okIZAPO79Dvf0RVy1R75xAXyGLLy1CighkMH4u3z1n49YO7a0g+0ftOXaYy26KJIZbh/tRrqE26lLD6Hqnrp1bi0p7bPtpJjzk+aOuQ0HRpiVLQTOLXEY86EW/MD8jCiFDY2arE2H3W25oCl+tyyOVD7OTFitjhzXma5MFTCWrvaAwkC6Pqk2qnLXNO1lZnTozcmDMpdarrjsy5PfB2v5CgUZRB8xtgd1agXD2Oqv+QNWGfvBgz9VqcX1Huk5XDTLPDNc3gdvSZsYHFGpE5z+Osid5SL6Ldfwybf0rjFraV0Nb03Lrk34s8SbKC5OU/YSZdQegqZKr8G+t+XhBlXClxd9CwkXKUZLRiK6ViEdeyUOxHuMspsMVxeH5RuSBdHVquFYDgatIDX8a0BMTHFUiezSjWxGehXaa8s9VsPgnEeKkgmRpMZgl28fGuznCbi1ys1PI9QrXD7B7DICUGmUnCnRCEnVFb+TaVR39Jrzn348UZSdpPixQizSnFkdUBQs03xGmVOOhF8wZ70nv/n+H1HqHEP1GHLCUBfje2c5QtNkxayQLpJilSe+8hsonnUpj/CmEhoLkg5CnZiFY9dWmzEnXM2GaIIVYmhB88Ktt+iWj3cwmCmKjLll3WztyVVLC0jKV+FefJZm0x796Je+rXlJZNJygE1GzD++2SH/ypUqBoJhTScHE9ku2/TrzdSURBg3YABVKSUVC/dt5vV/gu7eRl39R0ExI/V5VZXzkH7v4OhYUTScPe4t5BGOb8C5e18aA6fAAhrxWNlCLqWbnFkfTd60cQ9cMan9bQ0ZDFOa5YR4bmVBKxWC/jv3gplZf/TtEt1+xBVYXbIrVd7wglfQH3WaYAX4jJaX1fSvteQnXYAZTE5VaygGGp20ZIhd2NdE4l+JOvpvriZcRmiZYMRIA6cQX1gOnYQqu9VKlBXB6lnFeNQ+rG/obqlp+lTrLDtkIU9OnypdC1AhBapV0o8bBS81+Z4h7wsI/6MCkhbCpQayMOdZwhUnvO6iHcwsEEAwem2AHSKigZB0PmS8W/u8CDvIdd3QStEFis1veCzMeYZrL3HiWbMZGg6S2ormxrx/ug86wX1WH7j4KhexEPG0sW9SaWjU1qpgo8HFE33sU1ASmpSilASd+94KnWBdj3HsXMfAqWv6114Y7qggK4Aim9yM2mbiBhv00Jhh0Eg7YnCxuIhSfSzU2G1rxzCqcn0Lq4ZAdEgEwkxu3Kd8hm/wtmv0jQOivPwqkaY3uaPO80UgfT0mDMoO0Ihu5P0H8rbU0LAyn/paorIW3GSqBaZ4ZwYqTUGSkwkq1EuoJCk5DVlmHeewJvxr8wK+fh0pZc9E0bRjrvOX6hN2b9bfGH7U08aBeSqI5YO6Ui5ThIHMUAbp0ZUnMXyrWTUoLBLpyEnfkQbuEUouoi9Y3RzHAncrFsdj5ewxCyIftRHL4rtn4T9b0UNd3AikdL9zUC031LCIyZUV6FW/IK2axHcPNfJirPVc7VB67AUlIQflXjUNINx1LceHeyxs2IRGpejDJNlhO3u/h+vlYAwjqzOHo+SE8EeiLQE4GeCPREoCcCGoEegNAzEXoi0BOBngj0RKAnAj0R+EAEegBCz6ToiUBPBHoi0BOBngj0RKAHIPTMgZ4I9ESgJwI9EeiJQE8E1hyBtZJB0P5OIa+oUlROQss1EHODECEerq4YZUVpT9r2cjkKJYFIe6QqIUa5C7lKf3bTkWiLlXRhiCKZxEB0y3KauPLIRLxpNW0IURqUf5wnPbTSQNOm1qFfJO1+0hLadc2a1vSopIUKozq4qo+hvcFColMyqnzaXIGzM7VX/jSXx9ZXCVlIa2MixCKKZzLpuu88WVPMPuzvcyKiVcVQ6fjwjfSot0foQ79CSa4Sf2m/UrkWfQbrUNvCJwhk5jIlx8oeo21nMv9U7C0fSp5drSVBoqbzVojC8nXyQt2yVLtV2yK9dUg/Qq3DhWgtO5aI5Mm80g8t5ET5bS6O13GI9oGuZ21nl/1fRJXaiLRiAtke90/wjLriS7RhX9WBfd2bVSVWV1HelK07exuRvP39696tG1Z+CoqwnhE9BCEbq7lFhi/+J13xA3d4T2sFID6uFM0AACAASURBVGSpxUUyMVJiE0M11+o2nohnSP+1wxcVoQ5DjJOEVRyFPsVAGkRE7lQmmXgQiKSQuvV08fB9zNszItnsiI307juaPUchdRiZGGGu9KebVIchLTNFzyf2PGphTRn/JRdrP20QaBNlt3Ip/EB02hj2IjNdEzlhNecSIZpITV6SzKljWr4V5UMWlg5Zl9YJWZowFM8L2a0jde7sxtIQ/9n8bhczbVOeLFtDbOWw6+BR1WY50kbgJ/E96nRuBepUKG02XtjVt6f/LDwf9VUqYZ5KS2Mu+a0dNaKGKsA7FOlcecGquSe/qlifRl+a1ixJLBcZaXsUrRMPXyajHA7rUPeHqtVLfGQvF3RQlYPNYEQrQvZzbc8SYN4xygImxIzOJ/YFYgl4NQoYRAW3KGqD3brTw1LW2dFCnS1ivILec2w1pSCSy3LQ+Vl+WWnft5x0glQJwjq97NUKFUIR3BK1ShOL0LDOw3YhgLU709fed1srAEHljhJxbPR4bVETf3twIo9Mmc5bc+dSTsQSxFcPhU7DN9TVFRgyoB8Hb7U1J+y/L6MGrYezKUQyNUM1Eum2QwxNcExdsIC/PfAYj730Gm8vXU65WnnfcFZuzx1HXQTDB67P+G1G8+X99mHURoN0WkayMJE2x4CoG2MmMZlIFUWLR0ZAS2p48a13+ecjj/PUW+8we/EiKrnS9PtDsXqg8lL0qS+xyaBBHLbjtnxp3z3ZqLEXJvQJ/48hBDnQKonhgRdf5a8Tn+CFGTNYvKJKlkobpK9956onH0hGzhKEIf0aiowZNpSjdtmZCXvuxHoNJdE67bbL6z9543ILFKD03Fvvct2Dj/Poq2+yoGlFviZlr5G1Jadg+yYPNJQ8Rg4ZzIQdtuMLe+/JJhv0z4FYm2OovHxdanPUBsZMWl4N77VWufnJF7j56UlMnzGDFZWqAiMVnXq/lVa8byx1sU//fn3ZY/jGfH78vuw7egQF39P1KSBfHEm761AhLZvhRN9mWUZwhwf/CLDTM7z5IrOftyFL1qR9iOqt5yeEG0Bt1yrxZ+rVpZg6eaklE8VcVZHt2lFZKwBBUkiJ9blv0lRO/eOfeXvJ0jwLJ6g8zf0MNDXTYUj6XRwLRZ4Tl7Bx/96c+5UTOWKHrQnkRBQdhG6MOlttwsMvvcapf76WNxcvV9lN64k4VJsfhCwyyQt3GIEnhYj87zfp38iZJ36BY3bbgYL8qegs+GGbKUjXnlQf9e5ENrnmGeIMaqnPbx98gAtvv5ulK1pVLTHfnzv3WIs5lZh1IYtJ03zi2RGzy9AhnP8/X2Gn4QOJunHZ5T95kstbKvzippu54tHHKFcsXs3laUuRNJesW/u6kdtgm1qnZFokIxdEGUfusiPnf/bzbDyo/3/y47vt16xMqtzw5Auc9bcbea+ppc3QS9LjbR9JDj2J0/sIQQSmxBcj12bZedNhnHni59ln5CbURQLEMhDp3a6+y/8bT8yJj47nM2nWe/zkL3/ngVenaPrOCUhXUJBrsnTUKhHLawFWArIEyNdFHt894lC+c8TBNBYDjVHUjcuAel9Ja2RzLe77JaLbLZl4xaS5zkjqp3qp8duznRpvyQdLVirMK3nWYb5lyc7xiRvEcygh9rq+E+jaAQhZjdunv8vJF1/B/MXLsYUorzXLaLOG1jpex6HpFdnu22vthg0ae3PR17/0/7F3HnBSFVkX/9cL3T2JnFEMKK4IZhbEiAkV45pzDmBcFUVZE6Zds2tc1rwu5rRmRVDB+ImKghIkKTkPE7r7harvd+v1wIAuw4juzuCWv+/ThZ6eftVVt07de+45HN1jKyJH9Lka0XVZrI7trSKywhkvfTWVi/96L9MlEAn6FNAjeTib+k1Mp340BCxZz3EXoyPWb9GUG846mWN6dEfqpyI80pglS+WJI/GXiFxuf2cU1z32TyqqxbAroR2IHbZkm2oP8QhInDyTzILU+qwplOeyeYdWPHreALbfaH3iQrkiYbysW8P6A8g8SE5KeZx2/yM8Ofx9AlsTT+rgVpL0p9ZVzZ8J8NKCEQRkGvps052nLzmbUk9kv0X0Zx2kJBS2m7V50w73DP+QQXf9jWwmbR1qVxb7kUOusM5WWoCSS5bKe1J77tqxPfef358dNu6A2HILOG3oYjf12g06ZkplNafeei8ffz2BvMQkCy6T9bOq+2ry3rJ45K8KhAVlKPU9TtmzDzcdfwSe7+A25iyfPPoPBtMf3DchrwLSkW8vtyJi5y3HmCtiumUsiHdFIduipISe8jDHGOLbXbwmNWWaVc44K8Ll4mq5TEopuo5oJgqzjixdEfIXk7/6qw8nEUQu8sJpiqwIWM3Z+4sAhGw+x/7X3sKIb6baFHgoZYL6pi9tXVSxeceWvDL4Yjq1a9uobss1vhMSxBdU5zn4qlv4bMq0BA/4ni3BUN80m4ZN2jVl+JDBdGjd0pIa5cBsrENuHbI2vpk+h92vGMLSrPAz6vk0sgGERCWkO5XjhB134uGL+ifOofa2LNr49X3Ten6G//DL7bklbsROzIuj/o/Thz5MeXV+rT5FylVcd+Sh/PHQfYUoVPA+WXfmzRLLCvOmVcSk2Ys44vo7+Hbe/IRGJwZg1pjpJ4D6amZW4OfxO/XkngGnkMl4OALoG3MpdJVnjeKYK4c9yy0vvGGJrHk3wqx0M16DZSdgP4T2Lcr450X92Wnz3+F6jeiyt8ojSliJ/xxirnfwcopQ7KGVnyjiWvXcGC28jFreOmJC5wrRINayvSwfw/LMm2RRf0+TP9yQkexC7S0nxGNbSlb2smQP/Dr4LdbPSDh+4kzqFBNr4T3UT9bafmydtw7MoR9bF15XeHK/lFDSyCkz6Xfxn8hZ68sgKS3Ibbk+Q0g/Yorixdxz5qmc3mfnQgqwPm/y33utZEgkWMi/nxv7Laf8+Q6q88Hy23HCd63nnDierVPdc+bxHL97b9vlYWVzG+vQEGjNZY89wR1vvosJ5EZczzkpPLuPR+hCs4zP6JuvYfN2LdHGQdKdguzXpTxCYDQpo1hSHXD4dTfxzndTk9vu2gxH0dpTfHbPHXRqVmaDWGMGn6tORdITI51RijAy3PTKm1w37FnyQWiDn4ADWXv1nkXHpSwKeOPW69lh4/UKmYW1+SIa1s9OWbiYHQf8kXnaxxceVU2Jrz4fU2yklY9WISfvvhO3nXoSTTKN2LCiHNgDGAPV5Cl2U5aYaEnmYuHcJoLjFaqsVmyWNPIXLuYlIXcKCT+y5Sq53HCsg34IVGqVziPJQtvrvAAOD0eJjPzq502u4r6uJDRFll8r54MtM9Zj2MRQGKDcxEnXmDyumzgP/yIZhBPufciSfiwqj8WMSH7Rygz9uj6vbYuRzHscc9K+fXjozBMbVc5TvveaBPkZ9zzCQyPeTz6/6OMnU11/gGBiUk6GY/r05KEBJyUW2o0ZIBgh5zjsefWNvD9xBkTCDa7fYk4oHEmrlZDx/LTPdUf/gYEH7WXtstKxIvK03YzryrAlFkK++X4Re119I3PLJWKtPVD0HMULl15Iv+02s7XS+gaWhj6/tj3WxFRlQ4645V7eHDsuuW3VLlvV+yGMbS3905EHcs1h+6PdlKXHrCvjlc/H8ofrb7OustZ8SAt3qr6xPFmdAjo3aduKEdcOZv2WzRvvFE0ymN6aeJGD8gPiOGUNqyQzZR+0t4N6WUHTFY8oxnJmiI+61uBph8Crsh1+4gyqO2lS37iYIskSrAAAkWS8vv+AqOJ7PNclLlqP1Aa96jgHpQSUI6813pT3MGIj3XT9es21hJc8edJvvoVp3xnd7Xd4tkOnXgAhSdlFscb3VibXbfnHSxn//Tx7AErQVmIxZHtF6zEM+K4hrorYe9cevDLo7EJPcsPdfXL/sPMhbZqxInSFJwD9LruBtydPtwxyixEFhYvRRz0jietq4mV59ui9DcOvHIi8u9eo0ufJ/LiCsq29d4SOPLY+fxATZi7AeIElqtZnWNkD2WRK40mWSilO2Gs3HjjzGPJOikygidJisNe4AUKsE+MlCRQmMMSpHB9NmMUeV1wrLdQr2e3WZ/5qXiuzLmZGfxtwGqfs1dNaaNeVzvw5v+c//TMCpuI4xnPE3Er2ZEhVRZ4+l13PV7PmJOUnuan9zLDiKLkGpDh2x615/ILTiR3puPqZb/afnpxVfp+sMRmyP2vGIyNHcfLdDyZPFOdQTlGiA1GfIdvSk84/OSs8vrjzWn7XoXFYssuc2Fp87Vj9BZjfS3tigSwlvAJcYknHhxr6ufCc9MTWzKMclBAdmscZLVl1KT+kkiydlN+VT3WUo1hlVsL5QhA1Lx3PsgVfUKpzsPERuHtci3L/vfaNdd+sWkJu/D/JjL4Fs/9NOF2OKFxGV78ua3+rwZhP8HbdB/fqS9EXDlzeultnBkFa9dzYELqaTyZ+x9Dn3uL2/ifRslmZXTISxLqcM4gpc+fXZwn96LWifyBHiAT+vttuyRuDL/4lLklr9Zn+3Q9b4kkMX02fwk0vvsY9Z55Is5IyIieHZ4rpdfkQPpk4de1/tyUNa3bbohsjhwy0rY4N+dgTcCitmzqSAO0wefZMhr70DpccfQAtW7bELQTmzfpfxpQ5izFKSjBrH1yP23Un/nHeqct5n/Ytf4H3XfsvsO53EJBpMwQW6xQOLx3ywPD3mb9gAYOOOBQ3Lb6mhtETvmPvQbeQc6VeuJYrQXQ5ohS3Dzias/ruUhB+Wcv3rPtxf7VXJEkWw8hvxnHz08/z5OALaVpcatPAiytybDfwSmbMX1z/LN6qn7iwJw/vtSNPX3yGXb9rv4J/tWlZ6Y2t46wR3k+S2bz5iefZvF1rDtx1l4RQh+KR4aM47b6H1vIDyYwEOLoI7QZMuutmNu3Qdi3f89f7cSGsCjCIopg/PfoE+261Nbv33Np2rthD6HMH1WOV3+8ExNL2mC5HndMMs0MEJ7oETozvgrNMEYQOyonwTcpa1UtXg6wWW9jKO7bEUHvobCXRuIdx2u+D51Wgi9dHl7RIxJjcGM/qo4mAQvKxrNaXijDjXyae+jT52Z9R3Oc26LKPLbEGseieBJhcedKaqgWkhKhMa0LP4IiGjJy7i+aiTjuX6PVncW+6GX3+OXhexn60OgGCra1HimVRzGV/G8rL337HxzdeSbtmTZC2NRHw2WTAJb8pgCDlk4pcxKX3/J23v5vJ6JsH066kmEglAKHn5UP49BcGCCOGDLT1oYYcwkVMRepnUgyryuW49h8vMeKbyTx/xfl0atE8WcyOy/8AwoqwkJQPhMukrd6DAM/ZixZx8I238rsOG/LguafgZwQ8/w8grO6IEL7Booo8F909lKe/HsvsoXfRsqT4fwCh9qTZiosQhSO+mTGNI267nwv32o0zDj4QyYwI2Hnorfc57f6H1/I0blwAQW77klEa+dlYjhs6lNuPO4bDduuNY+3TwfnChR4rC2hJLBZhpMp0BUV3F0NbBzVZo3cCb74i96wh/aSDiSKcyCdysRnP1QEEs2wm4Zi7QTXHqfiWoNtxZDr1ScTiPMm+yskTWLE4x/VtJsuqWMYezoRn0W9fQLz/faQ32i9pzZX7xsLJ5Mc+BNH8hNxd1IbMFgMIWnUiFWlyKov6x5Nkm7qUHTEAc9NfcM/vj+Ml6GUNAEKMMFtfff9Dxkz+nsc/+4LRN11Fu6ZNLClClsJvLYMgKPz90WN4d9o0nvn4S0bfMIgWTct+0wBBto/wMITRKy2qr4waReg43Pz8Kzxz6YV0atUG4yTSyP8DCCvH3xrCnACsynzAg88+w8c/LKOp53LXBSeSSSWSrP/LIPz7cyuMQl5/7wPemzyDe98bwbz7/kqTpk3+BxBWziHYLqIlFRW8+upw7h4zntN2/j2nH7h/on6oDI+8M5rT7v1tAQQhEC6rDHjj/Q+5+o03ufKQAzi8z864sagjOuj/A7dXbX2MGLw8RMXkUgb/2ZCop0Y/GpDasAz3oCw6n4bbFAwRaC9ttn5SalhNBoHcAsz8SeiWnQlG3ohXPgHvoMfIFzclY9JE372CmvAc0fp74295KEbV8F80waRHid65Gm+vv5PeZE8rwy5xxVn8HcHEF3BMuS1zm0xr0luciC5qZbswzKcfoT/+GLNHP9i6K8HtN+Ocdx6Zgnx4nQBB0iHTZs/lz4//g/btO/PAiJG8fe0gOrcXgRrX1vN+awBh2tz5PPD0a7itS3hs5GjeGTKYjdu2Iv4NZxBsw5hQcLWhPNL89akX2Kh9O6577gVeuPg8uqzXCSeTZEAEIHw3ZzH8r8SwXA9D5k9Ide9+9jkT5i7h/a8msFgv4+kLzqd5abHNyvwPIPx7gDBz4RIefPlNFkUBj783is9uvIaN12v/P4BQa8osZwrNGx+MoapS8+e332D/zh258vRTErVW1/DIcAEIj/ymMgiBXIBHfcz0RYu4Z+R7nN5ze84/7gik0U/kHxjjoH6/Ykrkj/LSiujEpKTV8XQFWYV5MofTIoN5KSLcNkQtcPB7p9DTpTzgJWn+GoCQc1BJo8DyEc0bA7oJQbv1KXr7OoI57+Md8CimeUdckaOf/jZmxr+I2u9G0Wb7Y4wILYmOTBr17RPEb19MvM9Q/C59bcu3EamB6qVE88dhwiy+SaPTCrf9VuTTZaTzhvjBR9BffYg/P0fw6jP4vXYjeu4pUq0TEbU1AghVlVXMnbOQ578ez92vvc6Iay5jk44dl6tpbTbgUqbMmW/rvo7nEIWB5EDqtcgce/100FHEvtt245UrL2mwbVdLq6tYuGABL34ylnveHsF7f76M9Zq3RIsOuVb0HnwNH02YvvYcCpt+9tit+6aMuGZQku5qyDWGAiclDCNmzp7N2O8XcvnTw3hdDrnObWkapTGeZrP+g/hu/lwc7VmZ1rUaBk7adRcePv9kW/LS0kmDxmtEym3C3ZAOAgkgC5ctYdncJVz63EvkdMRjFwygRUmJ5SiMmjCJvS+/lZzcXmpJAv+s+VOaoqiIW888gv777GrJokquFI10VAU55syezeOjvuS2F/7FV/feSKfWbSwxeGlFju0v+hPTFy752W21NdOSBHjF4b224+lLBtj/bjyzJnyXgIXlFcxfFHDS0Hs5eLMNGXjiKdiEsgsPDB/FmXc/iiMiQGKMpkQNsP6Ec7ueLYk4YOLdt7NpxzYNdmVFOmTxgsVMXVTJKffeyzm79eb0Qw62HWO23P+ZQ7ijxo/EP0iOKVG2dROTprSGjhDPDXGrPcKyGO9hj+gATRxA0S4+fBER+Dn8sMiKSUVSzqlYhlfSbKWScTjtFdTS+ZhOBxG9fSx+cUfc/e5GrU7XwIg6rcIb+zh61MW4fe/D2fQPtbg2P706rT6PvErk2cOA8pEvUHzAiXg3DiZ/yZ/IFAgSawAQ5FIoPf6G6fMXMnbyNPr23JpMShTEkl++2bmDmDRzduJ4VvjN9eS9Jk5pYuhkYL9tu/HS4IvwGqjbnBVgMRFTFy7ky+9m03ebzShOi4mHsR4DO15RAAhruSVsKHJS7Na1M8OvviRxPmzA5Lsa+VXbsRDHLKiq5v/GT2av7pvhFLukwgxxOmaLswczcc4sRCtTOOFrO07YbWcePO8kXC3gIOkKakxhu/bzizSyE8Go7yZZXsLOm3axpkqSe/lg0mT2uPQvBJ5Iu64lUhSH0azDvX88kTP23DkxH2ro6HM1C8WKHpmICbPm8eV3MzlkR4lRaSvdvWhZlh4DBzNjgbSH1jcyrfJLbfuD4aidejLswjMQ07lGo00iFCHZcdIdEzu89eVXrNe2GZut38kS4IQg/tCIDzj93kesU6UFPyKJX882x4KrnJ04R4V8c+etbNax4ZIUBQhJ5AgDw/DPvqDLhh3YuGOHJIZIsP9U2hxFrjDGeK7lCSkVW70V1daFVwLURWni9yOcpjHmaQM7+5TnFtN851aYrxIXR/uD4uYoP7csDyWZlcFltproh5Ho7CLi/FLLJXBadV4t4VpUZQPx61k4nfCHN/E6HYTXar36hVQDwcTxeP96i6jPrnjbbl0wIluDDIJtJbZqm4IidaIcVridyUEgh8IWF1zGhFlzkq0XJ2nk+l5wrISutQ112G+rrrz8p4sb7mEoE6rFnErjmRS5OCIth50HbqzofeXVfPztjLUNRcldRfns2W0T3rzq0gSANFDQJF+9TaEV1oT87wCRJBV1Lpkn2WAu2o3odvafmDD7B5STTsoSazUUJ+++A0PPORU3TgBC4hy6lgfoWn2mn/fDNSlIUUeTjh4Bg3KzT/T+DB9NnEyfi28kykg0X8vncwypvMud5x7HGXvvbPuxGyuosmvPOs7LvEWoSGE8YWgnGarFFdX0uuxKps6SstbP+25qZxDkv4/q3YNhF52ZGNE1YND+o6cVsTIR7SnMgzUgkgtgYd+Kfsvp9z9kgY/EGh3GPwuLyhEhGQTXiSxA6NKx3dpN/K/40wIuAxVJc76NYcZJJQT8Qqw1nxtUT+uYZzOgSHeCRGcnxmntYEaKx0KMftrH7abgLYPbwmA+hnhvhRtIB4HtRbAZ4XwqILPIhZKVs+zSsqjiatygmCCTR7xuPekXXd2Qj6Oz+KqIyA1sKaO+Nu6JCnBE6LhWbC6tQpQtsKwxQBCjoILQj5GJSzp/7WQaw+F3DOWl90dZPXwr/CDtbvXs+ZefTIQmHU7oszOPDDhFbNJ+xWXx8986su0v2HJC5GgbnGROCmRTjrl/KE+N+Git78aJfajD0TvvwD/POZXIVQ02q1Izm7WzCLbt0W4KSccl4tuuitll8C2M+mZckr5cy+AqOgFXHnEggw/rh4mcpBPAli3W8gD9+ctjrX4ykQi2LktJv748j92oMPb779nnsluZl5eb8No+n6YsSvHwFQP4w/bdbeBqzBLVknmpseyIiMULNvHtUDGVVXn6/eU2Pvh68lqvt0LQZODhh/CXo/qhVfJ7GssQQC5tyNKLZ6vUQmSz5S0Bo/CvMV9y5A23WtEx5XqoOPpZmhsCcKU1oH3b5nw65Co6tmnRYKcoKU0WtGrkzFEiElWAyzIpEyHaMcRbLNKHUl6QHekQeoFVjAyu0viHaPjWJdq0Gn8Th+zoNP6Zy/C/b04g61HObdFokSjYKcab5GDSye9ZHju1IS8nYBxb87WUcRJH1tUCBENeYYWbQkfji0+Nkxzuazps+6uUS6zYX2zjgFsAJmtQYkjkSEU9LMnfJrcZedOalOTjn4zjjJtuIiufSAKbJS/W9fEkfSVSlfJugpUSb2wBIrecdDQX7d3Hmls0xGFnJJL6nGu/FE+cuizANKS0w9CPP+P8vw4lL1LCtmyibGYhtjfb1QxBmXbtFdI2Ijnlulx/ytFcvHcfQkesnxvmnPzUUwmOiiXLIjf7RJnH3vDOHPokQ98abmVwJSuS9OOIzXzhf6/Jl26nUtOstIxXB1/ADl02xljvXRFlauiKESs/YG1QZbdYJIgzOXRsyUHAuKOYW17BodfczkfTpy7XTUgMwhJTtNUOS2CRRVoDngytXZ+Rd91A13YtbMlCNeYSg8SPgoBU7EJKpHAteI8II4fBzzzPX59/gziK0TZ+yh6r+2C3pU95mU2LJo5WRQr+edVlHLL5RsSuay8HjWHYuG0PgsJzJ4F9+dKRm/S38xbR54KLWSAigfI6J7bZhNUPyQ5qlI3lyV62KoyOxwG9t+EfZ5xGWVn9/AH+k/MpZU6JHfbaa5NzKzKhNjs0H6K9Y7yxInCgrUmXtC2mohRKYnpsiHcA1VMuuD5mZoTzqgtZYy+QEvxEAybZpw7sFxG9EuGq9MqS8KLFoEJ7CdRGjJpsfqqOqYjJioJskkJLeIB1/ciq75h4BFpgImeU0qKqmryoToCwJl/UslzALoOuYNzMhfhhTE6MOepIHSe60bKupDfet2JMOuXTOqV474ar2XT99o3KZ11q7sIC9rXDjIoq9rr8GqaKGJBUTXyR5Yztf9cRxe28CYJLzIgc2vkO79x+A5u1a2EBSWO6raz6rLbXn5CRE2ew3yVDCNIpiT82nSfZoiR81TGUIhUKBvXI+Xn232JLnr/8fDzx/yiA1ppSR11v1Vj+3ljDl8Tu+uFRn3LuPQ+QswDVbmELlOrMxIjip+8TBSHKk7Sy5oJD9uXGYw+zIcjemAqgpLHMy+oBkWhLhDYei2nOpzNmcuiNtzBnbjkpxyOSf2rAaV0PrA2u66Gtxodi3+6/4x+DL6JZKrkxOY0ItNf1qLlQc96DD/LA26PJ5H2CdIzVN1nNsLFcShS2R0KUA+Xm61BWkuLx/qexT4+tl0v31vX7G+TfR5rwigjvL5KRKgCJOmroicOiwrPnoHgqKELx/jApUn8zVJ4aUirU0IaZJF/+NfwiACHW1Tz/4bf0v/t+FudzOCqFdZlazRCEKQQLXLGGlhjnUVqieOj0kzl45142+NXoQTfIRbPKh5KbSSwe4TY17PD4h2O48G8PsDQngT0gdnNWznb1Qw5QsXoWYpChrMjhztNP5YQdeqHTMV4kWuCN47byk89pFUgD+3x3PPsGVzz3PEGUZEWk1YgCSbWu79sVZzRjaFPm8fyfBtFLsgcF/oM9MteybFHX7/9P/73NMIj/hAlZZlxO/MvdvDbmS0tOEuKUo8QQZvXrwpbwCm0wolXRs0tnnrj8QjqVpa2LW+w0bH5Lvedc1loUEfuGtKRfjcPNL73CFY8OQ6kmltAYSz25TkQaWzKt3AIl/dq+VQmPn3seu/1uE8JUbFO7qp4dW/V+lv/gD0iyecqCJRxz7e2MmTUXFYbEdTgxyvqzMsG21CLcBbFChuN6bcl9Z52On/FtJrTRDnFznBajj1C4X+SJnTS+lV2ue1jLAeMSKpGcd3EPypO9P4XfxOAJwGzg2adfBCBI64yucrn/4/e44ol/snRuAOnVLwgpH0Mr+gAAIABJREFU9ViVRutwFdM0neLyow/lvH33IHTFdMfgNNASw08tixqCmS0Wy43PONw3YiSDHnqUfF4Qtku+DlaCIyQ+++aGUk8z8LgjuPSg/UjHSUrL1V5DX0+r3zFGGhDFyjSmymgGPjyMh996i5yVD/VwJf0ryafVvYtN1cV0at2UZy8exPad11tut1s7VV/31m08rxAgbdXUbFM2zM7HnHrN9bw3cQp5mQ8/hZGyxOoRuRipkPE9tmjVjHsvH8i27dvYaqCSHm0lFraNp3y1Jt+ecGBk2C6DWFOVj7n40Ud4+P0PyefXjKdiM8g29RzSoVkxg08+jlN22JGMKz4PUvOVCVyzw2JNPvN/+zV2h+ZiRk6ZyrF33cb8edXEdR1iwkvzXOJ8iOfLPg7Zd/ttePSS8yhK+bYc6zfmiw0x1aYKM6UJzsFVZMYXrRGhV9qRXZXCDyVvuhjdt4zUIwrdSlPlQhOTWnsq0a+8YH4RgCBZFKm16Cjk3bETeejdj/h82jRmL1xIdSCGlHabrvwoKible6zXrBlbb7Qhx+zZh3227ELKd/Fjz6brG5Nlr62+xVIWSMpMQrkMgpi3vx7PY++O5osJ05i1rJIgsPe+hJe+SmApdhVtWzZl64035MTddmKv7luQTnm2LUbMh7S1e/6VV8Sv+PbGxOjI5nwxKmRZZcRr/zeWx0d/wLiZs1mwdAmhMNBrfYakvC7pdENJUTHtW7Rg98025YS9dqXHphviFW7FtbMG61yJwUT2EJcUpWQMfBzmVlbxyMjRvPbp50yWuavKWaO0nxrCFWqW9ujcsR27brkFJ+2+K5u3a2NbTIUEKRbZcnOs6U76FZfAf+ytbfLfkj2Fi5BI6UqxPY4NT3/4CU+8/wFfTp3FwsoqgrAmRhVeV/iU8iOlvkOH1q3ouVlnTt1jV3pvuomtQwtHJJk36epahwBCLFMmegkhk36Yx9ARoxn+9TfMnDefynw+yUL9qC4uJDzH6nV07diBA3bqzbE79aBlaRo3TlqZ3UZcvpInFr8GV+iG09LoRzT+qx5mRoxa/G8uwoJJVYzTUqE31ZgDxeYZ1HqS/ZRssI+lGTTwGsMvAhBW3fViejFr3nx+WFpBZZikQG2PSK0hOtJp16VD0xI2bNOStC/2X+vORotkQVnkbaiOQ35YOJ/5iyrJh2JQVDMRK5/2TjpN27KmdG7TioxjrIFKg4eYaxHykxZHQ3VomDpvEbOXVUCcTwL7cliZCJLIP6W+y3otWrJeq+bWA0TGuhSc13Qq7U6ymRTFwqocU+bOoypbZVPqljhcmD6ZGxvYXJdMuojOHdrRuiQjRSz7sw3b2WNNZ2PNXxcZabcV6A6VcZ7pc+ezuLzSAgSpmVsn2tq3ZeG8potYv3lzNm7VAkdaT22MasQofc2nK7nGGMP8hUuYvnAp5UFIHEdJ1qkWjBdzdc/xaJ722KR9W5oUp9ctPsuqcyYX4oUR0TRFepkIH+WsJLMlddYM0RVxHeJmBrWhQ75FQHEiR9Woxq8CEKR0ENneWkmLJy1aqw6L2W0sS8hWki1wbSPcujHs0RcLOHKsIpkccp5V5hIRoSQruWpCVwgwQk6U23LiLCpimetuMJJZEZezhKmbdL5YstwqKYRQWtiSBgW7QnRBA0AOwxoVwnVj1azZU1g3UflHFpJOrItFQdJig1XK6vbPjPRKJ7bk8jPSrSD14t8auLJkOwFRrmf3pCyz5GIrQCrZk6s2GsmetB1ckmMpbEV3HcoY1LXiZI4iyWDZA1C6sQo9t7V+UGK5nSLpHipcfvwfRbe6flPj+Xu52ARxzmbfhDsnxHTXK7g0rkAISTuk7cxKsgmpRljC+1UAQqLsIoErYaXHWg7HVRdArVabQqvWurTvkiBeaO2zDF8rv1irPc3i85UmRTjA8mciquEJebPQVtp4tk79P6k90GQDSYrbirMkskDLR6F1J2kRKvyp7eZJRLpseF+XFs6aTGEBBcjhZdPBxEkt3Lbu1bK6rsnE2PVXQKVC8CysRylb/ZZG7T1pT7KatVYzZzWtaLUmRWRxJZZJ+dDuyQRP/HaGDeAiHiRE2AIwtU+/aiEwAfbyCluEWIeXVmFK7OW3BjhafFRrVVj4KWqlorRpu9ZNo8yq/DoAoVA3TgKWsKd/QiJYwENhRgWRyU27oddj6hMVag4ve9wVDrekfXFFRuXHiRVZVgk3IUkAF3rc6/OLG9NrrdBWIgqoBURKe1RBbqPmMbSoldWOR4V18psFBzYkJTK4Im6TBCa5uSUR2a6p2kCqMJEWoBY2nDDOpWddhKp+i0MyCTWcBKuWJ9mD5fO06oxI9irRarFzbffmb2vYNuQagGkzfavMQCHbKbMiuh0yR3X37zfmOZS9JOvCLVT6ChtupXmRHZosrBU4vfFlyH8RgGADjtxm7KGm0XFC4rEHXSzk64SYVnsEko6yp6ekrhLcaW+FVtFKqlpioN14F5GQysVPXCZAMihae6RkfSRZJzuspsHyerv4ckU2+HhiBFLQBrD1eNvWFxM4hqJ6qmQ1pBmUMKtj8RFIETmhbRGLbKpbDjfhZriWjFk7BIcqRNoaRcvclq5UhOgCSLo80qI74eI0aoZ03d+QIUQZv9DKmQjX1GRdZEk5ltS7AhnUwgeFN5c0uVDFHJvqFA0Eh5TVn09KfOse2e6nZlWbiNACUdETMbYsk9DEbJ+CHbXXnsyxpNcdk7IENfEkiJVwOGJ0LEqD1TimaJ3qYpBai2i2SOrc2FZQsSrO4JrQlqZi49m5S0TNkyEXQDt3hVKgFtEhNyqk11279hyn8QbzGiliOZBCYlwrwCUN6clqEfKwxHIRevvRnFiNEttAZLOjMnexVWqMkvbZBp79/EUAQs6adkWkPVgWh0xdUs0/3xrFM++9xazqZVa9bFUNAF/HtCsrpV+v33PWfvvQtWM7HDHA0BGenyIIDb4v+vCNc4Ry3EtNPfD4bmkFt738AsO/+pI5c2YT2TqwUMWkB70mMinaF5dyyA69OWXfPem+nhDx5GgQlCqsGE3aFfJPY50RyVTG1sTJcVxU4BKkc2SyDmqCQ/avlRT9qwyWJmWWFUNY0IalXiXF3YrI7OTDeaDXNziRIl+iET2ydXpY5WWx2RFte4/AxKRzckjlyC79BO/jR9ALP7AAwgLLWghBApcQ63TTLqS2Owt/vb3A8YnTYrZWyDrY70S4L+v2PJrI2EMMExDN/RTGPoBZ+CVBUC2EIVvi8iVW1QILXnoTgm33INv5SEqbdUJJO6hVPCtKOpYsd6rx7slV901o73aaWFfhUwrLZqKnv0bVpFF4C7+mKJxL7Hjil7r8R+OUiOMZUu12Ib35AHSnHdCuRzpOumQiJZ03je/2XPOA8m3bLp+4Etwy3KXzYMZ75Ca/jLPg/0hVZ4ldha4Vm7WvyXohftudyfzuLPSGuxB7PhmRrnaF2IhoLjZ4ovAvAhBi8bUUyeq5i7jlhdd4+eMxLKmqSjaQVUyUG/CqS1H8GpJ0e4tMhn7bbMkfjzyYzdu3skYissD8uvpvG/KpEMV8M28BNzz3Em98+gVLq7IFhkHSl53MR5JPty2SkpYTwpljKCv2OWi7bbngkIPYpmMHYhUi3YEp/OU9/w350f/dZ7Ml3jAmcHP21qs+8DC3a7w3PfEKwbHeDbXvJnIJScpPVhNI0pzS7NLCwZxgiC+WNiJpoco0xulY888sUq5uHgkpwk/RcUA4400YOxRn3jis/WOcZBjsqlpeuitgLXtRFsEWA803xmxxAl6Xw3DTpRhHVBWTzF99TV7W/AEaxisjnUfNn0bw5W04P7yFE2pCW9OSMlZNyWblw14EpETt0y0ugU2Pxd3yROKm7a34TUraHJ1ABNEbxgP+Ap9C1pDlauQWE387jHjcU8TVM+zeTAqfcrFZeY6kCVvmMKVCcm4RfrvN8bufS7hRH3sIGsk6NOY2RwHeQroPqzATnyQaP4xomRg0JIZWkoWzmfDavgpSfogNKScgr1K4rTcmteU5hF0OwJP1JqJ5Iv/SwMHlLwIQCAMmLa3i7Dvv5/1JUwnDEFGQsmYfoiwoKfZVQHaS8pT2BUmzJCWGHTZYnyeuupT1yzIJ0aURA4S5i6s54tabGT1xBk4IcUajgkRf2i4oGasUjEXX2wQxnpMiigJ22PJ3PH7xRWxUnCKU9SROmV7jReL2gI/kpuZjvgowR3s4kx20q3GlX/0nMgGie56EpYSEJzOnPU3kRKQPSWPu0tZRbZ0eFiDkUCaDY3Lob54l/OROnNw88qYZaWeZZeXXkFpr3AUTM7UEh4rccLX2KfJCtComtfVJqB6ngVdGbNzlehLr8jzqOZ9jXj8BVVFJtS+lgtCm0S0klduK+KWkxFMvGXJ5SUnrghAVdUDeLUJ13p3i3kMIytpb9row0NalzIvwDVQYkP2/G3C/+hvEiZaBcGBteU8lF7uVKIqyzkSOWgCsGPkZTVjUjMwu18FG+0p6uVGDeLuP8lly4+4l/cltFvAYWRduypaFjSsgMckm1V47kvmVoqmURwWCx0UZ0jtei9l4fzFcwfXTDb5l9hcBCFGkOX3owzw+4iPbRiTCeJKFq7kkJ7O3ahouYcTabgfxs7bZBIdem23Es1cOpHU63aiosFIXr3INxQbygeGIv97H6x+PIS5wLGyKqnAALidNr4IeLd+gkLaU2ROWbK/uG/Hy5QNpkkkRG0WqMcu6SuCQwDs3wOuVIfxB7EkLtqIFSVLJLoRxhhIJRJaElyPvpRPDpxqvIbFmlTWmPYIrsqirfAswJZAJ18WxB6MN/7Z7xpE+I6kDJl4mBWOw1YMKwbVSIvIKdcNEdqAOICJpEGUIJa0vBi1SGbJ9meIJUMOvqP8RbElixhA4LumFI6l4bTBe1czl7aDWoU9uKUJ88fNEovfuGIKwiKKUg46XorTwPhKHPSO15FQzivtcRND5OHxBXdZKvPGCz1Vn1dKbBI+bHHmVwQ8WEb9+GsGsMcu9RcW/I85X4rolBCqL0m3x9SKycrFJKzLVIYGUZ+Tok6mJIpSXwd3qeMIdrsQTz0OTatRZvVXnTZaQ991d5EbcB1G5VTiVEkFKZzDOMrTK4IniqcnYeGb8akxYinGrqXZTlOksmCKifEhqvc44fe8jLuuC34jbGmLZ+1P+SX7kDbjhUmLjW2FA35Z+8xgvhRe66FQ5nm5HYHK2H1uUb/M6wvUCfC3xO0KVtcfreze07mVt6X8TGYTJC5bQ+7xLWJQTAlBsXQfrO1QUgZ8mZUKeHfxH+m27TUPnb6z0iJKWE9tNqbt9PmUOew+5jiXVufpOw8qvNw4lGcNzl1zAnlt1IxajoroOqbX7jb/qT9vUZQTB33P456STTrNVU0sCkDJyU1FE7UOcthnUMo2arlHVy0A3JRZNcyHG4pHbNEfmgwxx6xgVORgvKtg+CxFNCJFyS8wgRquJY7kgCzGTqetR5dYYJbcCJTVXIRmtvtZsLUXsoVQgJilNWvwzLFFeyEmJXXd9K9Yyb9KLH+lq1LtXkJ/4ojW9qhkyV64YYbkOeeWSVmXokuZovwlu+STLWVBxmJBmC0OkwL2W3eHwYaTcksTNbR3iciQAQciYAaFJE016GfX+IAgrV8xbGGOkOmU8UoLBPEWubH2KVBNy+aW44VycMG//3pZvhFitFfkmnSg99HF0SUfrO1Df77Oulfdf/ftsOUtePYqiOd9YDpTsgCSc+wivKvZc/MgjVeyTL2sLQRkmP4+S7GyWhcUUeTlCNBmnKVmWkep5GV7303D8RlyGCXNUjjgXd9IbpHyH0BI1ZMHI5UYTug6+luxTaygqJa2KiHIzITsXz5TabKc1clZFxFGW1PYX4/W4EFWHx8V/dR0sz6LVFC7X4tMMHvYSNz/zLyKpM4U58P3Eoa8eI0kyJB0NAw/syw0nHdWoaC1CIbMZggiuevZlbnjm+YIsaT0mYdWXykEYhVx00H78+aQjC3yOxhuOkmpTFvegNPFryqYlVw2vMoumWKOvUHiHBpjZHnGkcBY5MECkTRPuvQhIBSZLKlVE/IBGHSueHhLLA4xsXC3mKJI1cKyRjLiq2VqxzSSL2/3qA5bERDmYa4CBpE3ryiDI75EFIG1xtrqoFYESLk3B413INat0aazJ6pB5k2ejagrhsydB9dSVzJls57mIIXkp0sUd8H4/ENNyO8LybwmL21E8/hlykx8qCP4kv1HuxXGcJn3kE7itt8Uor1EB8jrnzXZ12uMNI4f8yIEWJCTfTTIkJZ5TlRRFTQiLi8lscyl07kGufAlpKqiumI836k+4WmqEabSUZ4RoqzUlew5BdTnVdo+sSwUuM/dTlj13GCWSZ1FG4BWeThM7AWlh8etqdPtdKN3mMkxpa3JLJ5AuLUN/8ldyP3xAyhMOg9QgfFyvElr9Hm/fB1Elrev8yhrsCypnkn/+YNzyBfbLDoxk24R07ZJSAkBBt9ubuNd5lBYVES+YiipuSX7szajvP7Qy6dZpXfmkxNOh5baoI/+VlE1/C10Mu17xF94fNwklqEpuXXJL+yn5xDpWgNzTJMV12A49eOLSs23LW2MZNf2/cknb65obGTlu8nLS2M9+BiUZmRT7bNOVf/3pAquSl8gvN84hl7BYZEm3SuF+hWX+WmW2WiOUjXRNHv98n2BCDnVMiN+kDPM6xAMUqRdD24IlVtiRmxUvbbyzXMydynbSapXHMWmMExNpqf3JHwb2dYFwHYCUFrJnHXMoXQNxHu1Kp4myLUp1eRUkCpmGUIulsqg8Kvw4IOt5FIvRlo5QfkFspx5foYUpckOZ/znui8eTt6nfFSmQJMshD5Qite89BOvvhhpzP/HX96La7Y273Qnol49FhVXLf6u0zWb8DMHON+D/7rBEKa+BB6t6TJkFTCJyJC3WKr+U8KXDMQsmrOR/ImutSGzmVQbV8yL0dqfCtI8J37+ETKoF+qDH4MVjiMrHy8xaddhI5SkyPkHXQyja7faklbvxbskfTWk48Tm84eeSNdJoLs8r156kkyptAvJNNia95+0E7bsSvXsb/pTn0NsNxm3agvitE22WyouLiU2OyHdICcfsyJH4zTao19fXkF6sF36DfrYfQRTjKTHiS6MdbU3nxAtGt96C1K63km/dGUbdQWriwwS9rsdv3Z7cqyegwhy+LrYXE4lbKVdRecZkmsqebeCLZ405CFXVOarCwHYkNC8uWq6FL1/kRmdcwKz5Sy3ZzMqZqlRCQqjHcFwXE1SBl2GvLbvx+lUX4DRgIYTKbI7qIMAVI5ySkoQF7Wjb77rT4Cv4bOKsH9Mu6jEf9qU6JKVK6NVtE0YOuThhETfwBVXziJW5HNm8pPUNzUqK7XqxPQqxoaqroWRKQCSKkUaIOitGtE1AfoyhJE6h/2ZQAx2ikiz+pz56iA+PyHldifGKbN2vijwlR6fIDYtJW55eiCMpPuEOyK17wXiqPr6ZVHYBqR2vhva/x3g5HNKJ0c6KI9P+l/0z4TAs/YFF40fSqvsehCXtwPVsd02iE1fz/5MOlISLLCyTCDVtKlW3/Y2yRYugJEX5qadT0mMrlJKsmrzN6ksMIh29tLqaKNakPI+mxUWJXbj0TC/4jPDpwzApx7LKVwwhcUaw5Rm4O1wO2fmY10/FnT8O47THHPEw6qX+5HLfF55XumUUJheT3utG9ObH2IzCcqXA+q7TBvB6+RYqs3myQd5eK5qXlqLFUEla7cKl5J4/ELV4JsqmYpIRuAGlYRMqO25A2d5PEaddgs9uxfn8LqK4Bc5Zoyl+7U9UzH6LImKCOAPpAD9fTLjZHmT2usOC0UZ0j7GrVdbY4soqm5Es8l3KiouXz4me8DTmjQvIplyKFIShg+tkiU1zQi/A3f5iirfrD8sqCV85CH/xl9D1JIKuJ5J64UhyZDEmxCOi2m9OiS5HH/MpqaYNGSBIezAsraqy2aHSVJriohVxySz4mvyT+xGlPNIERLkMjietsXJJaYHucS5sfzoluSUse7of6cppxD2Oo3T909EvHk8ULUKrLJ52qPLKKNHLWDZgBi2SNoYGPeoECDYAxoazbriVb4OQNk1KuPPU4+jYvKUlgYk4RJezL2HKvPlr9aAJ0zNGK03fbbfkjcEXN9jJk2zB+Xf9nW/nL6FlsybcfepxtG5WRiSLwBTT8/IhfDpx6lrNR+G0ss5xu23RjRFDBjborlmbuI3Fg0NczwxXP/Uio8ZNoUObYm446kjat21l21bl+3U3dQi+C2zb5qoj7B/h3BVZjQN9axr9TYCf8WCeQn+kUeUOStiGtccJYB6xxQDbPSO3xpxSpBdMYMkbAyjd8kT8jjsRfXYvaq8/21u+HNN5R3q1EwlZcYRImzyhSmE+f4Boyqu41UvxD3wEWmxg39NoaTeVW2kKJc5uro8Xi0W1wdMCD9KoMZ9hzj+PuFh4DzHeHffibb45kSP3sBre7Yr0hZQxkqR3YqA0c94CLnroMZaUB2y7xUZcedjBlEqwkvbGeZ9hXjjIkhBrm59ZUOOkyfS9n2jDPpCfBcMvJUx3IpWdQ1xdgVrymRWWsgDTEkI9PCFT9bkFr+txy1tt137R/nfeIZvLceM/X2b4jIm0iBz+PvAc2jdtYltATXUl+af7QtXclTQ2JIVuzZu6nkHRLgPJi87Iu1dC5RyUV0x1tpzUvFE4cYwfV5P1Sm1GyHJgNtkfr+9diQhcAw/ytTGwgIOp8+dz2u33YYqKOGK7bgzoty+RIzwWh2jiE+iRl9b6Eguqk9LuGXm4J3wIZW1wy+dTOeISikvakacas/AbvCXf23WZ94SrYUhZz5QY/9jROM03/O8sjDX4rWGQZ+6iLGc/9JB1rDx7194cuPtOtiRnn2Dx50RP/WGlOUkklh2K4ybEhz4O7baE6sXkXj2aTNNt0XGWaOE43KrpVvgv9mOcWMjLyVUi1X8acilu6IunToAgVKhsdZ6zb7qRQ3bek5KiEnbs0Z0imTo/4Qx0GXDpbwogZMOIy//+KL033ohUi9b03aorGV8RObnfLECwG0ZguK39Gh4dPoqWElSaNqNv9y1wMomNd+ytHiDoO2I417OMe2+sgYxH5cbLaDKpCeZYA19lUaJetxqAkMhZO8RjHiT67Gq8nW+hqlVnivIuplP3ghiOIvbTuFLgl9KW4+CF0img8KVWPfUDwvkfrwAIhT552fT+vGmWb2OcSCAA3iZ74Uv2SPno4f/CjTM4rVoSduiE16oJ2VSRFUgRQFJsD5PaeQup2RbsZF2XMd9N4evpczH5HFt12YStNmyP54kvx78HCPYdi9vhHDAMr+WG6CiHmjMR3bwzQVma1NiXiD8YjGPyxFZm2Ud8HHydX2cAwqKqCu575W02b9aWpk3bsMv2nUg5crv/9wDBsZ0ypXg7Xw3djkI5EWr2RPKZEtJNWpFfMAn9zvmo8skoJSBNQFVIKIdpIwQIlrip4dvJkxk3/QcCrdjq91vSrUkpge/ixi7OhKcI372kFqaoyZgZnEx7Uid9mKh2ZgP0/HF4rTbEOM0xX9xN8NVNKNE30YrQbTwAQTgFE6bO5MOvx1KMT5+de9KheQmuqLcKh2nRWMKnD1g+JxY2yH70pXSwCeqYJ9ElLWwsieZ9jde6G8Qh6qvHCb68HUwWLW2RjqhKrmMAQaRxg5zhoRHD6dJxIy772yPcdcFp9PzdJrZtQ+5FXc4e9NsCCLmYVz76nPVblHDRw49ze/8z+H2XDX7TGYQkuY/lFMgte9QX39Ah04xjht7PLUcdzu97bk6xKEeuLoOgID80xD9FYLtCXeWQfzTGn+DhFGviv1fhDGhSYFXXQgirZBBk84aSPx15Bdkpw2ja/SKCOV+QNVnK+t1LlGme9MBr31r4StpZBYvJptuQsS1cGjX6SsLpH9XKIGi0DjDLZuBUzCafaoKYa3lBhOq4PWnlWVKX89d7MbPmE1YsxBv5IdGj9+L13BHXBGSVT/Eq5AcbtAs5BPGjmDl/EXNmlfP5rIkMe+89nh50GR1aNV0tQLByyaUb4f/hCVRpG9vtoV8/mcqWW1LW609Ensa8cSX6+6fwREvCCOlMpK7DdQYgVFfkeP/Lb22Tyql33MuwK/7Ibl27rh4gyDeoWpHe/QaizfbHVQHB8CGk5n8G/R5HlTSFsf8g/+mNhHFA2pGOGJntVKMECHalxYbp8+azYEklL374BR988zFv//lGkkqJjzP+ScJ3V2QQCjIaiQJls81xj30TE8U4uSWEr+xBeoOTiXucTKxTqCcOoSqcRFl1SM4XZn/jyCCYKGDq/EpmL5nP0yM+oXzJXB68YqBt/xWSszPvC4LnD6oVcIQQrdFujEl1Jn3Uc5ii5qjqxUTP7Y+/1UkEW5+ACkL8F06havF4ilhIaMrWPYAgG2Le4grmLVhMaVmGY2+6g+tPPo4+W3a1LGFpNROAMHXu/IIoS83tqH6tjjUlBrl97r1t9wZdYpi3eBELllbTvFkZh19/Ozcdczg7bdOVyMnjmSJ6XT6ET36NEoM1vVqDnNl/5SXSyKOtsEylzjN9xlxatmvO/lfezJUHH8QeO21FWZwi9jWOlBim5EnbVHmtIczgu2M4NUQHriUomnfSuCMccj3zZMb6mN4uwk38txkE6wrpEjs5ePd69MRniA95An/qKPjyHsyBw1BtNreaAfHr/YmWjCXV506cTruQV9bZHkeH5N67E/X9v/APfBTVYoNE6EQO8+kf4E1/h8jNoFQOLUIyPU/DpFvi6oho/Dic9TfCzPoOd499yR97JP6td+MYKU/4SVGl1ndYAxBqmolmfj+LTMtmjPlqEmc88Hfeu+4qNm7fLlGSlBLD8wcT2t6PFbV0ayVU3In0gQ8SttwUb94M9MtHYZqth97vH7gZF+ej26ka9yBpHRKHHsYqK3J7AAAgAElEQVTP4wurcreb8LaQEkPjdsUsr6hk3qJy4jhi+yuG8Pg5Z3BIr54WIOhsJeFTfTGrlBgk1es6rfF2vBTT7Qib+cq/dBh66XSK93uCsM0GpGZPI3z1cIJcRTLrYpltDN4m/XD63p3o7zcSXpBVnAkNk2bNYv12bbj/tbe5+83XGHvrHZQUiy2xg/ONAITLCyybpJAlkCiNJijemMyJ79oyXvD9RMK3D0GtdwClu11H6JfijhhIbsqwpFQhUsLWH7vhlxhEAv7riTNZv21THh0+mudGj2T4HbdQZLQtJzlzPyf/3MFJyJGSoFirmwB0EbqsCak/vExc1pF40ocE7x5PycaH4+46hCrlkhoxEKYOIxA/C4kiVg8oxu8/vVBi+K8E6zX+pXWWGGR5LFhSznufjmFhGDNpxg9cduxhtG7WdDlLv8u5lzJj1jwpQaNFutVa8a5QJFujT2N74jU+KXbfdnNev/wiKzbREMfipeWM+nIsc3MBU6dMYeAJJ9C0JI0vUsmuwy6XXM3oKVKPqx9I+tGzWv9Ulz7dN+Otqy/BE+UeUZRqkEPCSISKHfJG8c6HH7EshLHTJnLuHw6lQ7NS64su/ATdxSP3fTXFYSbxTK819B8N+qYYN++hj4Do9ZjUGBfVzWC+NZhe4GRXnoP4RI3zkCE0UsYwaF9aDV3Ml//Ee/8m4qOGkf/uHbxxj+Hu/yBu261Roo+wYAJxrhJab0Zc2pK0FkMsD09XkRt1P0x7EveAZ/FbtoaoCCUsRUnfR7mEvW5dAR1UqtR2EWgTEu99KN5Tj2K+n0S02yGYkw6B2+5KBJdiEdoRUPRjlCe1Ydk3077/gXGz5jBm8hRaNG3C6fv0JZMW0BIQzhuL89wR5KT7YyUSsAKvBG+/oXjte1Ox+HtKXjyWsFVbOPARUqaI+LN7yH19D+koIIo88HO2HTSz8xXQ/XiU7exosOizzhW/pKKS9z8fy4wlS/j622/4y7nn0EIInhiyQTnpJ/cmW70At5YWhLS96CCD2fo4ina8xIr/CMcjrPiB1IHPYlpuhJo7nujVowmzi0iLnoaXJ3I8itbbm/z+D1Asra2NSLxMQO64KVOYvbSSkf83hp26bsLeO/W24mKig+FMeJLy94ZQGlcQWsVE15LrhG9j3BwlR39BWNYc7/tRVL51FkXr7Y63223ki4pIj7yGYPzDiaCZdPBFMSnjYo5/F7dZw+UgSHfKt99NZ/Lsebw79msO2XF7dt56S0SR1JoQzhtL8OwheE6MiSICEUYSrlXs4qYV0UGv4rXdlNykEfjDz8Tb5Ejocw058Zx5Z7AVWXJs55WcB7EVUGLAVEvcbug7rk6AIOlWYZ+XL60gCGJKS0opLUlEbqzHtVJsce5lfDtrToKkC3rwP+toFNJQ5LB3r+68POjCBn1bLq+oYll1jialZZSlfWtZ7ElrlaPYa/C1vDvhFyAp2gXlske3TXjj6kE2tS5dJA1x1OgGOMIaV4rybDXZZTkyLcpo5qds+1MkKofKw+mi0ZNl84mj58rPE20PelSAq9OoEwPUCzHhpAxqA4V+Iot3ShGuNB7XHscqgsc1vhjIWcJeZEWJdMVcnHevJd+uO+6M4aSabk6022Vopwm+qJhZECuT6ludS18yAPL54mqqPn6I1OTHSO03DNpsRGhVLFc/91Jy48rLcMpaYL4eR/zdRJxb/gq9dkBsqz17rVo5KKwqQyJAYcHipdYjoVmTMorkEBMRIx0SzvsK9fwRhCJjvoqsq9z0vC1Ph95/xKn6geiFk6HFJrj73o0xKfTbl6Cnv4S0EidtWjnSxife5TqcroejnEwD3m91r3iZt8qKapblAsqal1EmN32R/ZVe/twieKofcfWclbqvIzfGy3t47bYj7HcfZEpwXj4Pr/wbnIOfxZS1hvFPEoy+BmXymFiAlayYiNT6B8H+CUmxsXQW2dhssO16i8sr7Bpr0iRtu2XsytYGZ+JTZN8bhIoMRngJoRguyaHmklNFlPW4EL3tyUTLZsCwvTFdD8bbdQhR7GGeOxZ33udERTmkZiGSzY7Ieh/3FjTrXPeX+F96RT7O2WcvX1qJcn2aNy2z3Wk22SdxZP7XhM/ti458q34oqrliAyCE69jRZHpdi9v9WPSiaWRf6A1bXUKmx/kERuM/dwws/pRQcKQnnjNZHFVK+qxx4AmAbdgQoU6AkLDOColQsUiVyXHtLlm+Mfpcdj3vTZpkXyZKcZHUNuvrNS9x2lU4gebA3tvw9KDzG6xLmgAmQYLSRidiP2LoIs4bnpI0neHAa/7C619N/AmDqnruAEs4Nxz4++68ePkf5Tc22DmpObK1eC3ITTyOyGTSNi0vtBwR4pH0r9i+mm2y+GOlFVH6iFc+dINUJe6dReROLafob6WoR9MEoxaTDpoSH6dxX5YkfS2A4BjMeTH52xXpQIhDVtsY12SpMllKolKoXkTkpsgVt6YkrrDqiirT1EroyrAW5YXyTdLmGGGCHKFfYm9RxcL+D7QlTK52BBDHhuqKakoq8jgbFJOT7gKtyDp5MlLolZvVv3kTOeQS466kRVPAuWjgy2eStRXMG4d+/kiUrrQ3u5ohN//YBPa2pv4wAtWsA+EbZ+N12ha6DUAt+IzsKyeT0hXWWVW5KWKlKco75PvdQ7rLvlbcRoxnGutIbJkTxUkpA1h3RiVxSqOzS8i/dBLO4i9W0r63vhY0x1BNetcbcX53DMFnd6KEfNf3BnIi5f3SGWQWfWRr96L0asQzxFSjup5DZvdLQKUbeIhf+RvNh6GN29J07LqezYDJmovDCJGeFjGp+J3T0Ebkk2M8WdOOISWSSW4JKuPhHfQaOtMc//mTYbMj0NsdiTvlFaI3+5N1i/FzOVTat/so77Wh7MjnoNlGDXdpSebX6nKLVYyUndzlFzHZkyyeTO6FfXByPsbP4ualpd0ldmObKUk13458vzsoTrfCeepU1Pb9iTr3wv3hVYJXB5E3ESVunsi27UsGojVlJ4zCZIqty0xDHmsAEGSPidObBKHk3yI5W/sGc/urI7nkwQeIRWtLiz+2AIT6PbikmoVglMlpLjnmUK4+aj9UfUHGf2imrXmHBdzWbsoGJXun06IT4fHnV9/hykefsMIqazUkJR8rBh19ENcdth+RtNU12HAkvcSJ9oU95KQt0JYUVGLUJftPMkxSZzg2pPp5KI7F2GXl41L+Oi7WuCfFqN0dG5DiqgDzuI//liIXaHvgLh/FED4Z4/aTzIXob8jvNgmJSACtJyZXLnknImXRik/giIJjIp2ckM6SVnYJlmLlK1+btoxjObCjxGxF1nMdYD8mtqpqkv638sficu4JOzzCSOeAjvF/orUpMVUyy4NS0mmQuFomHRnybC6m8gfil04kLp+yvEa8YiJS+Gox2ea9Kd14b2ixMZHXAnfZePJfP4e7dJwlXCX7VlozXYpyGaLjn8RttY39bF4jSpWvuq/sfpQSjvhM2H0jFoyuVcN0w5D4w2sJxz+2UtwSwJ3WATnJ/mXWQ218AKn1tiP2PGndIv7mXzD3LVtCEPmEyFO20yVSIam+D+FssmfBUK5h3wJrz5X17bCOjdaAw64vyUomZWGDWjCOyhcOwhfRL7eaKCrBFXEg8eqIY2JpkW3dA2+LgzCZDvYWrEQnYNwwiqpnEshVySQOoXJZcjv2RPUdilfcZK1C4a/5w3KpsVbNtmyYaJ3aKFbIkKvK+VS8/AeKFywiLF6EyYmuS2QvFbIuQtcn1aYbputpuGnpVmhGPP8Lcl8/jp//oSDcJnFEdA9cVNutSPV7BiPcoF/zwX6B914zgJBE/RXxcZX98N2yanb740XMXpJPArNEYsEIBYU3+Xdy6641jFS8ksyEtFxJy5FWLk2MwzNXX8jeW3SRnMwv8Ii/0lvYdr7kvS1VQP4vDlCezxezF7L/ZVczp7LKlgXksBBhGukNtrNQODBX3ISTN7JcJ0lFKSHEiaqOsun556+8mD6bbWBb6tyGWie2AlnJ8yUCRIVnqrGztvd6jYpc1CMhuf4RaZXBSFbBOLadyN7cRbHQ6gxI67/8cB7HcW3HgewmK7aUUDOQjL7uFuF/6EOpBC851OW3Sz+F1PpFajeBVNJxIBPsFcCFlITsJ7Q8Ams7UxBJSkokNSJK8hEsHbCgnbD61WSlIhP3eEeyGIVXW7tzZZ+tkLhc/jY1QWjFHyT/tXxt2V8uugVy2C3D+fh+qr6+Ez/y7ecM3cjqwCe/UyHY3PEN2nEIY006lpt0ypY4Qmvi5ODqavLKoajDHrDPTZBug5IbdyMGCMmkJeDUfp+S2ZPMjysdLRp/2qsEI6+E7GK0lLpiMdwxZIjI4pFWAZF4M/hlOHHemoFlY8g4EXmTtu2NSiWp9rDFBqQPGoYpWc+SVxtNiaGw3gtTZTeAvZgVYrMFCfmlVL58Ouk5H9oMQqiLCgJhopMgB2lK7sC4sXBmJAMhSCIi1i7G8/Bi8TdMBNQdlSLd83zirU7Ds9ybhjoMkZVmlxhUyy+95uOG1eRGXobz7YuYdA4dlaLEjVHAhNYIpUeJE6gqxXXK7XaVC0W1RB9p644tLdHOsuhueNv3x+lxsfVzaMhigEnY+wW8GOJQc9VTz3L986/YYCSIvSbjIAejm3KJRUO59nBEuc0lrs7jemmM52CCgLP224sbTzmSMl8WWUPHVyseKPFyEaEnyKIY9MBTPPDGcPJigyqtfZ4hL4dHDY/A3lwLJ0iBBe1ImtTxrBOa+Fm4OuD43Xbl7nNOpUT67MWWtxH7qstJG4oLWjlExxjc15PvV7IvJpXHy0u69ieyLpJCFxlvayiUtEDqOEBUkPN3GdKni+POujtCRD46ZVvtMuVLKX/rKFzJIohcsgVE4kshITlZXwlISwBQsrQSzws54HJKgISHTrehSd/7CNtuZydOORLC6i8D3VBn3WYUxEkPyOGRCSrJfnA5+fFPU6Jd4qIQFScy2rIPraW4APPaJEbLAIqITQmpVESlxZ2llOxwDc7mByS3ZK/GiryhzkT9Ppedix9GE71xJjmhzAQVpJw8ocyZ4yGMf+lSqG3sZTNxkpr3kkMwjgM86ZZpvz3+fo8RFDUh7TRkgLD6ObL76ftRRG+eRU46WKJKMkpMqcSvwrft/j+aE9l9scERQyb5T7k8CohvtiH+fv8k36QNGS9R4G3I45cBCEGWhTnDBUMf4qX/+4IwkhthUk+1EsRhgLap1RVDgpu9Jgk4kJuO0vTrsRUPDTyHJjKhYo/bSNqH5KkEgdrPK2YuJqYicuh/+z28MHYCQS7A6DzKk4CUiAlZ8ssqACEJ6y5pIcjoiH2335JHLr2AMkk52xRYw2e9rm6xSwXCuEshKiO/KCZ9CJgxHp6YLtpmKpHJTa9MXLS3eZ1oDNjAJPOQJy4zVB+XoeT2HE5q3QYIok4pNDJxyfPEX2LG2+Q++DN+xQRycTNQWfu3NTfZ5TfCGmFlW8IQsWBNsZMlSHUi07M/dDvG1kU9aQVs5ByEVdedXEfkeX0jsyblHYWzZDLRW4NQ5eMJpRwoDphigW0hlARycW1cuftKdqRkn9zY4KVLcLr0RfW8HidVQugVxIAaKHH4Zx084jchfIOx/0B9fBMqWkIgwmSOMPexfgy2DFjrXLM6G//P3nnAR1Vlf/z72sykEXoXlCbVXhBWBbsu1rWsFewdXUURRRRERV0bimXtdVcRe0EFKxZsWEB6lV5DIMnMvHL/n3PfBJKwfwImaMK+67JiMvPKeffd87vn/M7vSOMi19bNrEwngZffiHiv27S0uRHY5aT5f9d1/clfCgKX9PQ34LObsN21JDO9TySaKWkqqegsm/n0hcwoEQMJL4imS8wmyGlO/KChqObdQTRYKpFd/5NvOdw4VEcEIelLNs+gsDjFqHfe49GxY1lWsF7nOSXcErOE4lK+N4Nu8yuLEj6Nc2KcceSh9D/2SJpnO/imsN59TKsGpxgqPD1Ptx8uzekJwyzgt+ISHn5jLC+8/ykLi4o10UnnlvVGr8xOOQOEslxIWQF16sa5uPchXH5MH+olLGJOaZWEbKFrNuLc7KRWPsXSZlhKfdwk/vxs7DsDzOcsnS6QCEzF2lbp7yEvmEADUVcUJUZaOagBaby+Hom4wjZyasK7tO2uQWNKIS9K0ykLVzhBqyaT/u4BzHkfoqTs0Qsb6ugET2Y+6Tmm6/RN3SfF8JP4jfbG2fcqzOY9sG1Je9kgTlIY+hVA/La7oW1/5AxhH8l1SsLON2yt02EUJzG/uRNj2gs6mqWk10CQ0sS0QOeIy69TmrYia1VOc4x9LsTp9HfdyU8ZDsW45Ep/htqzTFVqeM1McKVkeB323A9I/fA4qmCyFhYLDFuDBan2EWJv6TACU8uo+ypFcSKbrB12xdnzJtyGnYiJlkAg0YXaC+J1BEFS534R1sKvSH07imDVJN1KXJIEnsrS5bPiy0qHpE0dnZ6UnhTZxJu3w9nzelLNe5IQ8qZfRNwWcF/pI/lTP1AtAEFSvp4t2d5Ak8gmL1nGD9NmM3PxIgpTKZ1/3aS7owHZsTjtmzWle8e2dGrRgmxBXaahdzWORBhqUU5UqwAIL0pENDKJa+FWpDyXGUuW8fmUqcxbuob1JcUaaZaGgMs+/UTCZudmzejRvgMdWzUhbotbFHcayhfboslbm3cr0pLYSOL4MZSU74njlwaDvxgYXyuCBSaib1QWO0mfAzMDzVVDH2NHi6B3GnaUFqo+rm0g1M3teegIik4khKRYvdsX0JBajb/yF8ylv0JykV6IBSRsAAiZ9IPUWxPLJ2i0G2aTXTCzGujWs6bIEGtuRNhOutZzEMpNgjAmpRuDa7KwgShVmqR0IyyjYAbGoon4RUtRXrFOReg2xWUcn3zHiuUSNOiI1WRXjLxW+HZcOwMRFZKoQtjuuYav8lvzcgiJUQCmzC8Rwlu/CJb9grdyBlZyheZRlY0ehIcWjpWJmdcEGu+N0agL2Hk6HehaMlfD/H7tHTKThKUqBESFKlqCseInvBUzsEqWalK0vJ/lFq7MlDBzm0Hj3TEb7oKbqEcsULiCyYVipk1Ss+dO9QCE2vvkoyuPLBBZILJAZIHIApEF/osFIoAQTYvIApEFIgtEFogsEFlgEwtEACGaFJEFIgtEFogsEFkgskAEEKI5EFkgskBkgcgCkQUiC1RugWqJIEgZllaNk3a9yqNwfZK5i5cxZ8VyikUTQQtHlL8YKQ9xYjFaNqyvCYoN8mNaEMfwpKlFgGF5WNKDvZYMkVwOxX0y9+pJRYKPpaTZVTG/Ll3CklVrKElJkxxd57gJPSXbEXvUo0OLpjSsk4ctYjfCABb9AyHCCNG8hqpLbsljKq3PFxU3z00RcyxcL2BlYYqpCxexYPXKUAq4rBRCYOg+F1JjlefEaNW4CR2bNaF+bkIL4sgvzdqsDbEFhpPafEvsIKWxUo0nZYu+T8r3mb9iFTMWLWbN+pINSpblDykKjRZ1Y1ns3KopLRrnk+3EscxYRiAqJExJhYi9leqnW3Dpf9pH5B3zM2XW4YsmcyWgRNesw7I1xUxZvJgVBWtIuelQNU+IdGXUT+UNzYvFaNW0AR1aNCc/K1urb+qyUxF6kxJcLbBZmwl4FWaLVMgEhp4PUlVkFircBXHsGR7WWlu3chf9h3KrlxDKHYOgoY/ZycFrobAsEegSrmMoXmLXZNG7SmapLthXrhZok0oOL1mIXbwMr2AuZnq1TCs9F8qSVYVWLAYw4w2hbhv8/JY4IjOvtdSk4kH3dqzxIlvVAhCkE0VaVLc8k1e//I5bXxnDnCWrtbSraM86UhBiVejuKBNQZFANaNuoEVf87Vj6HbA/pghQ2Ca54g3trZNr/tNWIzmxLEjSkU8WGa2HkCaZNBjz9SRGjHmJOcuW4rnSdD1ULhOVt4rLihaVsmO0qZvH9Scfy0n77U12lpPRlAhL/WqValuFBxKKAoZ837TnUuAHPPn+Rzw05nWWlkg5lIUSOn2ZMgbp7qnZ+SLbGgTkxmy6tWnK9aedyiEdOyD6ybZILG/HQ5dYiUqiFFVJEx1L8VvBeu55+V1e+OhTCtIleJm+A1LSWA55SuWLrNGOQSwIOHL33bjxtBPYbYemoUCj1GeL6p0uGtqOHF1G8juEBhn5LWnR68W47+0Puf+d11m2pgjXDwWSBNj7Uq5dYScjJaS2ZdOteVOGn3YSR+zeVYtKiS6H7n+oVWC3H7uF1QtFGG6C4skW2YNK4JMs3WNE1/VLT4pNhiJlSktoB79hCeZZWfgDFekGKRJSdus5GE4trjQSbRvPQ1kx1IofUT8+hjf7Pb0eyXrsZsTIyoJLLTft+Sg7iRtvQs6OR8Del+HW3YGYdOU1wuPV7BqGatJBcAOXkmTAnS+/ysPjP2NNUTI0wIaXTWQ6K7xEWrxFViaRofXIzbY5+6Be3N3vdC25KzKdWhyolozSqIBusAOkUj7DXnuNR98eT1GJj0dKWu6Ed1MqcSeLd9mhRKpN1Oxs8uLQ97ADufWs08mRBUlQeGDr9b+2Dl2lKS9bELDU9Rn4wGO8/t0vFImGPgGxwMfTu9iNz12EV0KBdAMlWhOBqQWnGucnuP5vx3LhEQdX2mWxttqr9LpF3kB2blJeJ7p9E+YsYMijT/PF7AW6mZRIS5u+aE/LwhMKmIeC1xslFZXv6lbTSpl0blKfG88+jeP32kWXJksHUsuXSEzted8qe6alb5aWXs5E7CSC1/+55/ng619IpRXS4CmUg9e6wBm99PJHFjXTQCTBTYsmdWJccvQRXH74oeTniDIAOCJcVZu1SSoYUlYqAUr28wbmEBtvoUQt03gidiRCUlLQJxGEckuXFOCK1oHoxEkjDAPVI8AYaeB3Fdlvg1gtXrgEQEu0zpn/EdYXQ0lK6acOHbnad0kprSXN3srYxDfSes7YXkxrIQS2j9WkB+ZfBkOjzlLIr5uy/U+UOQbK48H3PmHg0/8hJUhTdol2HCPtkS3ynK5LSVzaeGwcgrycWJx0STpsgWuGPe8HHX8MQ048Qe8Ma1N9u68be4R7X3GA9775MTc+8yx+LIEqSWHGpH+ap52c1jLQ+YgKi5HIvoo0p0w2VxbttG5cNeSUYzPa306tXozELiI7XRwYXDLyMZ7/+CvdUc5Lp3WnxECVZF68jY7KtOIEgrgFrcsuxIS4K1XJFmm7kNcGXMdx++5emb+o1b9XntTbS5rBZFUQ0GfYbXw7bY4WYvHSKXzHDueVDN3JMIMMdHOscJJZsRj++hSJrFySgUubZvUZe/tQ2mfnhCJK4uhqUcCusgeqm3Dp0vRQOMrzfK558iUeeOdtjEQuqtjFjIsGREDguRtFoipg9lhg40pTSEkrpAzqxGweuaY/J+7TDc/IKFtuRwDBExWar2zSZylSsyDmpLG9OJaoJfqisyGNmDbuc+RvJaZPLG4RlEgadLUWkUr4uQR/SWO8kUWqjkdWLU4xaNnuFZNIvXslWcWzSXo+luNCOhczsDCt9biyjkn6N2MbW8VR6WIMeW+teqxPF5ITC/Cb7k380JEU5zQjRwsB1mxQXmmKIQwsheg6085mkzD3kuIkvQdcz/Sla7TmuzRH0YC8VC9Q26BiBCFcuKTrn9aK9wy8uCIvbvLu0Jvp3qYpZg3V7w5z6dIxMMwm+JkuYAKeRb51zoo1HDT4FpasXBu27BWnLypKOvwbZu9KdzUVUNPGToQCIkxFQ9PivRFD2XPHJrplcsUQaGUL5Z/9e+kcF6aApVucdJLzeeObnzhz+N2UZGfplIP0VheVSR1xKr81CaWpy/a3ythdviOS1vt17sT4WwYR0ztsU7dnkoZWNfu1+/+fyoY+CtpuYSdM3VHSl12a4rY332H4c6/qd0xsJe+P/BHBng2j1MmVNUJpy0odQ5aOk4pje+/Lvy++EEcrLfpYkqaopWPDLZc2bMpMGgFX0lXn019mcuq9o1i1Zp1OD2ggJcqmWso7MzKRhvImEPuKzXyUCE6Zij1atuD9YTdRP8vQzdlq01wrbb2jV/VMhLfcNCkB80gIPg9jnlkZrCmqt/IOu1ZSdyUMApFwc0P+hbLx7GIcP1vPV5G1DowkVr6Df4+FfVZa21v3IpAoqpYOl9kc0/1BBMRKt9NKlfXFJzslxIK4jpzpXXslX9L3KSk6fEyVmd9hN3At2qoM6ZEgPw+t8N+epZK+Eh9fhzt9jO7UKjqSwgmTtKc0GJT5ZHsCBKQnheh26naiOIGDa5VgexbpmPD0HL2cZfUcTNGu5+n+OhWVY2va67cFACG85EAWcp0O2NiWtvRmHvvkS/o/8AhJee+0BvrWx8FjvoEXUwQlJdxx3tlcc9whG0PyNcxqGlHKblimvEyUTHhSuunJM39s7Cf0f/pZXFmcqjJMAzvlcvs5pzHg2CPwpBthpW9RVU5Yvd8VG+meE1rzPtOYyTC46MF/8eQHE8CR+fR7zykywQF5WVm8dsOVHNClg+6UJi9nbU6ll7YS140shf0k4FKoXr7F4oI1HHvbHXw/d+nvNVo5EJGXY/DFLTfTbYfWBLaIxm79e1v1C6m+I2gwKiqJtqXnnCbJqYC07zP46Ze4971xYc+FKg1FnICXr7uao/fsqkFDbVJSLNebL7P3K8trCn4JMLobBMXiVEUKX+xokbSKSCib4jPWkVOnvgaZujurEMvlvXPTGI+KVHWowigpZkmpesf6OE+ZBPmm7rApQ/OvMplET7oblgKVypCWL1w3i5g0/tMtEoWntvkvySZCk959E88S+WOfFC62YereEZ48PwHaOvxbvu166TQJilfivXYK7tpZxJUKJbsNsU6cmKSgWh0HuY11zw5Z5+R4nhJgkE9q3ks4yUJNLg6l0H1U64Ow/vq0dJ3ZlL1fpblZ/V+uFCCEreFC1n2YXa7Zf3EAACAASURBVFebkHKOGXE/b038USN1wxdGsISCt+5FtKUKImbIvOKUA/fh6SvPr/EpBr2Al+YV5HURGc7A4LR/PsToiT+UY0T/rkdnGMSwOH6/Xfn3VZcRyC5ZQ7DaMYR9L4tnJmaSWVQM9rl+CN/PWIzhC1Fn6+9F97OQagcBTKbJgOMP46YzTiamd48ZN1fZYrP1p/3DvhHoVrqlVgvJcOLofpn3GwfeOJR1KS0OX7XrkWhWkOblqy7lxB77hlK5tdhmZTcxIqmsF3ztq3wKi0o4ZvjdTJg+txoWZMm/e/yjzyHcfc6ZWnZYIEJtGKXgYIMzlPST7OzLbjrGKDg5TL1IC+OQFVWKJCBYGuDlmsTEtpK6MSWiEOCszMLfQSJaYaw4baWIBVlQD/jBhVbSqcDEMlx9zBQWOeG+Xlci2bKlr6QXiMs6bJWtd+y67XvghPh5MyPwPdZbFtnCkbd9zLS4JgtlBrhGGsdLZLhume66ZaIqpXYJVs9EjT6CpC+kekmziJ8D34qTlSjBP/zf2A131S3mpf21REN80jhFLqk3T0Ktm4HtOfi2pyPEXnYu2f2+xSCnpmcYtqxZky4Zkr7XGYAQt8qH1TpfeT3T5y9FCRVaiFQqZN5vzdD7JKVwVIxD9urI24OvqtHIXOwhYV5ZU2OanSMgSgAC7H/DcL6cPm9TksHWGER/VpjnNj1324nxNw7SjWSEq1FbRokQ4+S9NCxdHqaXGd+g41XXMGv+KgxTNO23/m5kETIybH1B5Wf17sHjl52rK2I0hKr53J/N3rRAgpTrab6J7HTCFEKaiVN/44DBN2sAXq7Z19abMARtyueRS87hvEN6hN3lajlJURqmSVdVAaWOJfE9A8/wKCwoYd9Bw5i1dOWmKayttJ1u3GQYnHzgrvynf3+UGbbbrjVDp4qlQ6Ws6cLzMjd0WtQA4ikDdZ6E4+VzQsQLdPrK8CySjYtJTHIgYZEyi7H8GLbhkKxXgvOlg9NbgLtEVcMIQqBi2NKmb6aN1XY9KaMO8aI1sOY33WDMkNC94+A23FmnGWOVkGDSbgpj5TTM+p0xHInWSgRh85ZPS3vmpEG6aCHxmTMoidcj2Lkd8Vge2JJEien1QvqReFJ+7fvEbemdKu3Rw8UpWPEL/stHkVIxLLMEg4Tm/6Qka1xnBxKH3k+yYStQDjEhLUoDRzuX2MJZlHxwMlZyTaZTg1RpSbtsC+vSyUBupSmSP3teVRpB0EEh32fxuhI++vJTmjesz+6dulI3Nyck0xnQ5tJrmLd4VeggNXu6tFxta25PkLks7w4H79GJsYOvrrnoSil+W7mGj76aQKsmjdi1cxfqZtfJNL8x6X7DLXwzbV6VFyNJ6DlY7LdbBz654VqwxGnUXIAgIF1CkjJ+W76GVyd8TPsmTditUyca5tSVzt5Yvs3O/Qcwc8FKTDtserM1I3RsGWZ6SHThjF49ea7/eWFbaN3eKsNM35oD14TPStjWD/hsyhRWLF9Mi/qN6da1EzlOnMBM8dWvC+l1/TAdnds6+P3fbk5hpQPuv7wflxz+F5SK1fjFanOPSJzb1IVL+PnXn2lYvy5d2nWgWd360riY9YVp9rz2JuYvFwJd1SxXypk6af89+c8Vl2oRCQnB146hdMMq0Rp554dJuEUFNMyry1/23kuv49IULXgKuDiN5QnpzsISJ246KJXClrI8qbSypftqSGotvHcNdfrWQ50Hxn80qQxZBzTAMMXNJgmmxrDbC1jzMWa+wfqPB2H6UgLpk87bg5zjH0M5TTAshStlpcK5ES8rXThVGJ8xilahfnqewpkvkN/nOYKGrUkZcbIyjbhCIknmvdfRNRNlCnfHIli3jOC4czF77Yaq1wQjNwfvnLOwdBfiuHbaslN5Z9L3GMn1NGzUmH06dQkPJ+Bh+c+kxxynCdSmUYKv5H10SfhpXV5c4jhkJwVopSmO52PsP4TcZgdS9NEw7EWjsYIcuSMMaTwnqZGkg9F/iubY1fS0XqUAQcpeC4vXcfKIkfTutgvH7LU7+TGHFo3rEQhBRwV0uHwQc5Yur9I7YihB/GG+6PA9dmHsDQNqLEBYV1zMCXffxwld9qH77h3ISzi0bdoE30jqENi+1w/jm+lzqmQP/WWZ9GZAry5d+WjYNRp6bZ07rfolbPERBFHr19LTZMEzRzxI52bNOLTH3tS1oG3r1hhWCsOMsfPFg5i9RBbrdJlS2C0+0yYfPOPAv/Bc/3M38Bk08K8lXI3SMjxZSmVZmzR3HscMv4N/X34lSdNk19aNaVw3X0ejJkybxWHX/ZOkldKt0qs0DEXci3HvJady0eEH6CdXg2dXpbe6ev16Tr/7AU7cZU927bknVmEBu7dtowHB6nVJ9rxmiAYI5TruVXrU//KBzDt5UveevDzgAj1/f0cQ7Pecucrf0ZEp4OepM7ho1DOMvOQc5i9Zwkk999VVVuIkjWfBOm/zd6RBlmPCiQHBI4pgMljHGqQKXBJeXEcdpJxW088lHD/DwG+bxjQcgtWLMZd9RNLLxZr6DDTek9iBg/B8E8s2SSsJ1JeQNrPDsmeJCKaXk576Dkx5DLO4CPOU17Hzdgy1K4QT55dgpdMbOioKcdGP5+uItkQsuXME/l33E5/yPX5BIcb0ORjHHIVr+roKQf497Zf53Pj6G9x2+olMnDmD8w85BNfQdESMlT+SfuW4zdtf2ZRQQn770/APuglj3hcUfvQP8tPr9Hts+7auFjKleyo+sYvnYuqUSs2ePZUCBIGD30+fTo+hwzm5y66sTK7lwSv/Qdu6uaQdWwTuaH/5df9TAGHSrzM54o57+Nuee7Fk6Xwe6H8VLZvUwfsfBggawCddgrhFweoi9rx+CEfu1JLF6SS3ntWPDq2bEwuEc2BFAKHcUhMSt1zPJ7AMXvnoM8579AX+tvfOxIxc7rmwL3l5CdkPRQBhM0v01Lnz6TX8Tv66Uyu+nbeQd24dSqvG9SKAUNZmMtVScN+H7/DP18bRvWlddu7ahWEnHIdhZ4SfnjEwKgMIpiKokyb9hUm8DTDIwrjPwrNFj8PBFOCvJHmxESCk2gv8lMRGWDPgLp8F750Bh9+H33RfTJXGUXHShkVCFYNILEnxl8z80pz/B+dgLvyhDECQSrIk7swPSU1+kXhyLa7KgSYdydn3etw6cay1JZgnnUrJt+Nxbr0VNe4LjDtvxNhhV7yEwlaeJjuOeGY0Y36cRJe6WXTusR8DDz5Ub/iUKBas+ZXU6KM3CxACw9Q6NfYp7+HVa0/wyQCsGc8SKBvXFDKjH7Zs394AgkgIfz1rFkfdNILnL7mM+8e/y8m9e3F2z31ImSZZgaEBwuxl/zsRhElTZ3Pq/aO49+KLePy1MRzRc2/OP+Sg/2mAoN+eIKw9X1NYwu5XX8db/7iCy559npP33o3zj+9DTPK1hhkBhDJLjZAPdZ2+cA5sm+c+/IjzH3qOb0cMo/fNQ3h/+I3s1W6nCCBUsn+ePHcBhw79J/+64mxOue1RbjvnaK484qgIIFSwW9oLuO+dd3n7q8mcekB3Bv/nOX64605aNs7XEsvWUwacX0kEQSoe+yr8RxT+ag+7j4M3ycO0bax0+I6XVtWWRhCCnSTSktIEPp2D+OImkiVLifW+G9Ouo3VeApXC/XUsZuEirHYHYjTZRc97Yb+5yiJ4/1yshZPKRRAQkbW1czFWL9YS2JokmGiA06yr5of464qxTj4R46fZ8N0EggsvxFy0Bvezt3Gy8vWGJRV43PPvd5m0ZD59ex7Ahf8ayQ+jHqRBro3lmRirfiX1Sp/NzkABEoldz0ftdy1G4OGN7gMr5+ObriZzGmYxBPHtDyAI62554ToOvnEY1/Y5kje++I5zjz2GI3fpRMpWOIFJ+8uuZc6S5WWiJbrSf6tCYmFuT1gfcNge3Rh7g3AQamb4ZXVBEX+75w4GHNaHxz8az4VHHcXhe+5CQBKTLLrfMIxvplVPikHUtg7o2oWPh16jiTQ1tqRKIdlGpHtGyjA45aY7ueyIg7j1nQ8557BenLHnvgTZIeN750sGMnvxasi8PFs1UUo/XIaIWJpiKBWm1Gz8Gjp3Kt5raYpBSsVkfDV1Jn8bcQ8vXn4xFz31HG/eMID2LRrrsO0XU+dw6KA7SFlu1VMMUoXuOdx36WlcePj+mjdUm1MMKwvXc/ywu7n8r/tz0cOv8fg/zuKE7nvplOWawkyKYUV1pRgUJ+23Hy9ffZGuha89SQbB8D4f/TSNkaPfoscenXjx48/49Nbh1MmTHjgm1hMGxgVSjSCh8FKR6vLrcFA3wHgLvJ4+9s8xgoMDrNVCUHfASOEhufXQHYh7N6abqPZSpmaGVRHFiyh86QSydj4Go+cNxHxP9ziQqprUxPswCxbgdDwF2h4Qcka0K1G475+HsWAS1ilvYOW1zvRiAZZ8h7/gK0TbUnQVvPxW2G2PwY/bGOvSuGedQmzBYkq+/Z6si/rCO1/iffMJTvPmeMJhUB4TJy/hkfFvcGTn3Xjyo/G8MWwI2TGpWHBg1S+4o4/JqJOGUvkVhxGrjzrhNcz6LWHlAoJ3jsdfX4RlpDSZMi2CScLZy2yknEtnaz5ZTZ87lacYhPEaKGYuWcrcRYtQlkPvrp3IislkCG+v7eXXMG/hKl06ormvgY0vxI+tGLoqKdABHQ7aoyPv3Xh1jc3PCJFs1pIlzFy+QpPKDtmlG07MwZaJbpp0HzyMb6fN32qQtIm5lEFc2ey7W1s+GTxQC+bXVJKiVq7TvGdhkihmLvyNX35bQiIWo2e3rmR7HrHsBKZv0v7KAcyZvwrTkb3B7wCBuoohZBnLfDvzgB48rTkIUnYqV7BRBGYrpmCN+GjK85k4dSar162jfr18unfYSb8Tykry1dRFHHjDML1Dk9xrVUYY6gwYdVE/Lji8J6Yo5G0lYbQq56/u78p7OG3JUmYsXiwLFofvtQeJmNDdXNYVpNlDOAgr12igVZWhgZxhctJfduGlK68I89y1pvRYyL0+xSmf76bNZnFJEd2aNKDzjjuFa5W8T08ISdHVO2dRBtQh+Ir3txeo18FtBrGPDNQJYKwrnY8hTV2GfrctF2uKjWqXwjDipEyfrNkfUfjRheTteyN+t3OwgxKUmQjfZ08qC6T7kQMVCNmp987Hmv891kmvQr2GpE2hGGaHJb+ZSgQpI9Sbg8xcVr5H+tkXMUcMxflxEuljjgUzDm+8ihVPYGVKPdelPH6YNYsVhUXsskNz2rVohhnuNPCX/4w3+hjt08S3BbqPUPlZpOp1InHcywSJLLy536DGXQjeunIf0nPH9rBSCej/M6aRXXM3fJkrrxQghEITSqOfwHV1Vy6tKFZmEZYSom+nzdMAAeViBHYoHrQVQx9f7KdsjtynK2MG9Q/Z6DVyBASBjxuEVRxS4RtkVBsknHTIsLv45JdpGWGMqtyAFOHYHLR7e9694RptX5EuqcnDk6YmpqEdWNwPiXdSf6hFVWSHoky6XjOQqXNXYsjc+l1cuxCJa7Eq0+DCww7g/ov6aea0PA2JutR0ZP7/P0OF56cJpBRKS3K7mmkdGD7fTZ/P/jcOxZXGHFsZodtkxyPBW8vnmYvO5dSDe2ALSbiWRF3+q+0yKp2+xKjkndTh5nCjUlhYzIGDb2Pyb0urzAnT8yrw6XtId5669CK9ZtV0JnqpvcR1C2CS5npSnigbP9sRVcQwzSXDfN6Efhn1ThWqAlZccdxjPeyXTFwRGXp3PZwaxy4uX13lmSkMKQu0TIJpLm5bQ68HQkwO5k2mePa/ye5wPFbL/YSRgGvFdMXW5kbxpCeIrZmL2utSrJxGWg/BESCxmeHKuuOlMB9+Sktm2zMWEpx3EqrTbrrZkqwUvuFiycZC9Ed0tYHUdW4sc/RXTIHRR1AiT1r6UEjlSgWcabT6K7HD7kM5AcGPL5OeOAwzkHhJ2aF3wRiWjX2+AIS8Gh/orBQg6PaUXqA7vUm4R4OgClz6/k+8yENvjcW3Q8ELT/ek3Trn7oiUbNzETya57OgjuO/802qsAIloIMj96Ra8InwhjlsrgkkUzeCqJ15i5DvvV7lWXVY6kfC8+KjejDy/b0aUZevs+keCCQEHkocU8BQqJ0qILizdkzpn6Xon9jli6G2M+2m2roCREO3WDr3TCERS2SRuWdx99smcfcRBItwaljcZIi1Uc+20ufstFSMzpJ7cMEhLEytpVOXDrKVLOfimW1i0NqWdVNWGCY7LuIHX0Gv3MNdbmwGC1qjzRMJXCm2FJ+7jiKKi7JiTLn3vGcVr3/28YWf5u20n6COd4p5zTufKY47Q87m2CCUJpvRkLRdtDRvdSt4RJcSMMbSK5zgf80jpixLosketL1TBWOpag9SIdVhBNvbLHsa5cSgp/x6LgJJlJDA6GPgfu9DExQriuqxZxORswyctjliJ4LIbnqeSrqxS4WCpJCkzQULUGPWOcvNPUpqUpWQjJ6XB1jriQR7JzMbONESnxdJ9SFzPJRbP3HdGA0GvM2KTdb/hjz6aVHo9MSOJ78vWtfz9xne/FH/vAaRtk+yv7yH5/d1oI1cACJpRUb81WX8fJ6yFKgPW3z2Pt/CLlQKEsOY8dIjiDMUsttbJ3DgmzF3IsYOGsCbta9EJr0Jf9S25llBq2cf0PZ6++ipO77EL1NA2vqWKZBJd0YuqL49d6mBDke/xv87i+Nv+SVGyIoLcEkuU+YwBCT/gmYFXcnL3XXWOsCY7vpBoFzYLCnunZ7goWrpAFiaJEhnc/tIbDHt+jM4R/l5BQP3ypj1aNGnCFyOG0KJ+DnZGL17w6e8KTGzl49kmH9dqkKGMrRYdE89ni3Kbw7p0CWeNHMWbE6dUGXxKuLNp67r8fNNQGubXyeyianEvBrFbBnAKeBSBKZkOsrmRTc1jH3zGVU+/QMqtIrAyFPXjMT4ecSvdmtdHaVGdWjQkaqdlkjdojm6Q0Nfv1BIFuxkEy32Shkm27MArlNQqWZr3kSiqCXOBzxWmtxGQi711/xBZDy8z8UcEWHGZy46e14HWJ4ihRNZQ1k2JOAuoryzqLBoOht7Hh/qO0mq7EuuLrLNEwEWUCRXXrbolP6ABpIrp65SJIqJkpet62FIgTFPqn3nFeG/1w1vyE3FjNSV+PpZZYW2v14lYnW64cQ9z+UzcgskadG8CEAwXu1M//N636lbYNX2lqhwg6DvM3GhZMYoyd+65LiffPZLXv52mAZ0XpKS5fEYOtrQJT8VmTZm2odK+VwLDgUE6rujcpAHjhw+jYb5dKaL8c1/LDW2sMhLCpT2tFAVFRZw4YhRf/DRdyyNL6Z8S51lWUCWTMyt7DyIRYgQCsjw8cbQm7FKvHuPuuoV6dUR0OeR91ORRTsSw9P3QAEFAlGzzXOasLqDXpdew2AyFVyxPtPNBhNHCuVbmxQpENCXT/DLTzMn0ZOPgkHZSXHrYYTxwQd+QQJQh+uk0cU020hZdW0Z0TLgCEsULPGzD5sv5Czlu8BBWJN1wAZabDSRqUoGYuYGjEApL6fCpfN6ShV2RZxg8fN0VnL7b7uj2M0KYqmyB3qLr/jM/FM6bDKcttEkQrj/LVq3i+Dsf4cdps3GtUGJYiaa/gO5Mp2f95TJ/D/U0bAzfxQw8fEdC5orLDjuEO/v+HcP0sMx4TX8lKzwQ2fBllhH9spZ/U3yRE74LvGHFGMmYnhdhW8xQBElSXtKMSUP/zIFkFy5helukhqWdu47wFeG0jeO/FCfYLUXMEvBZ6gNKF7+MVL3ej29ZWjBMCshjyiizVjLdNi5BAUp8jcjhZ25FjhKSTMuMjE109UXGNnJPTHmCks/vx1BFugeMjn6aNtJLQqTfJV0hDdD00QWcWj6eH2AbWQQqCbYLvgCPRmT3uZei1r3J0Seu2SvVFgKEzT8FCRBNnrOUvnfcy5SCteDquHL4smbaz1qlFPPMoXxp5iGa2LqxR9gZa8d6dRk7fDDt69dHOaE8b20ZOhSloyxhPm/KgpWccuftTFuyirjU96qMuI3kLHWERTSQKiBM09UTDumq57l0admEJ2+4lj2b19dsbEHatXkRlwiU8ARcpfhg+iwuG/EACwuKdbtvKXGyTQ8lO4uMo5dnL/KnugGKpHLEtpL3lB1N4LJLx+a8df1gWuTn1pZp8ruuU3hiniWthQPSps2QMa/zyCvvUpwUQRoXUxQ2pb1s6aJd6uk0c0vmmyxiku4xCWQOGR4nHvIXHr6wL/kiKiNNCqXdc63aCm/elKVvlryP2p0Y8NbEnzhl5L2kUxYx3yKdyRGXNhILzbZxJ6k5dkYST9mYVgKVStGzczsevfISOjapiys5cP1O/q7HWiO/JD0EUgUK+0IHY4ypRYTiJPGVjSV/RHdZnGOZq5fggUQDRFJdt72X99yyMYaBN0AiOYrYVvbmqUnGkRmUTq+Fz4cSn/YCKSV7f9msCWdBIgny7/JruZLot/zxCnWLicDP1fLQ7NMfs9t5WLb8Xv5Xszll1QIQfGnQZFp8M30eg595kYlz55NMJ3XzjcAVmouBsssbwg4EZYagMmbD7m3acOsZp/KXnVvi2UJoiW+awqlJs6YiLi9Fj5qDK2x+xecz53HT0y/z7ezZFPkloXyoTtdkdnwVjqELP5RNwomxV9tmDDrtbxzerTPSblSAlryctRogaIl2T+88JHz58udfce/b7zF13m/SXw3HVXiOAK2NhtFhPl+qNzQrUYOqvDp16NWtE/edeRYtGudgV0JUqsHTZosuTULmnilE4TAvvN4LeOStsTw8fgILVq1CmNpSOaK3hqVRAP133UJO76L1js+waJyfz2nd92DgycfTJFfqThWekEd1nrb2APLKDFc+DhXumiWG9cZ3PzPixdf5eeF8DVQlrKX3rxlgEDYyKrOx0/ucGHWy4hzYtQ0DTz2BvVu2wHKkWkciWQK4Krua2vN7KfuTd5QFwC0m5psKtVZAeegCU9KESNrOl0k7SGAhrF9zMaQhUqsE/hUe6uKQnaGkxK8GS8RX9nRk3qSkCitdDBP/Scn8dzFLVkj+KtR8kPVHohNlMIJSohyZxiKbtJCMc7NIdD0Po9v5GKJaqQxNjKzhAYQta9ZUqQFdV+9CfE+xrCjJB1On8/ZXk/h2ymRWr12Hl/YILKmQ3zgCu4j83Cz2a9OBU3rsz6G770qz/GytcS2ZqYQocomcZ20Z8pJo8qI8e6luUPhuwPLiFGN//JFXP/uC72avZHXBak0OEjJfOKE2zqq8PJt927XltJ49OXzXrjSqm41pZ/JhpSG1Wrwale5wVSC72QDp9rhgRQHv/zSF17+cyKSZsykU/l1ZhBB4OlslocHGdeuyd7cunLHfXhzaqRPZeZKiELJize1PUR3TV0ixlhafKfVcHm6gmDxvCWO+/pa3v/mWmUsK8bwwL1qWlS5gLJFI0KJBDkftvRvH77MXu+/UkryERGoEqBq6Qkla1UpnzO1llAKEUluEzR0VXonLgsJi3vzxe8Z89j2zF65kVcEaPReFiL0hP5GJJtSvn6B3py6csf9f6NFxJ+rnJsJeGBJm1lysUBhoexna0UuaQarKig28rxWx0YpgfApzXjyTnii1U3jXgeyis23MdgbqlDQlf/Ow2xgoM0ZgJklIx0SnZu+UN/v8dIpPoiIpUp5LfMkPMPdDUot+wlotnRoLUFbYu6J0WGQJXEI1bImx4xHE2xyGX78zPi4OWRh+ESqWU+P5K9USQdCLi0QENPgOMP2wB3uxdIDU3R1FYrJ8CEbCVcowcRyLhBPmhnRAwRNnEIalalOpms5ZlebSNHERXEt0HcJe5Ot9heeVhLn4zI5DqkLLDsHbjmNqNm1YyCdtfqWzmnQukxRW7UbipXBIZoLvpTXLXBZkX5kkPU+/fJLfKz9CVTaZHwIDErZDzJa+85lIjOQAazFo2hLHEra2DYGnbiaYibzp3iWeIpX0SUtuWEK7ma6Z2r9lOqTKzxxs4jFL73zDFI40VAvJpKI/Iq3Khd2+vQyd8qughyF2S5sBjo4cWBR5LoHvanAQAopN1xyxm+MYxCTMqYepO/45UhYn55CuhDV9G7gVD1WAu6zXQiTUQSiZG35MSzRLhFPy8RXnie5waQZ4jocVd3RZcwi0hBgoPQh08fFWXEXN+mi4sZHGTqH8k057Ci/BT2p4tPE3G31coLywAZakIqw4niVdIyXmFHZ0FFK7tCmo6eGnagEINetxRlcTWSCyQGSByAKRBSILVNUCEUCoqgWj70cWiCwQWSCyQGSB7dACEUDYDh9qdEuRBSILRBaILBBZoKoWiABCVS0YfT+yQGSByAKRBSILbIcWiADCdvhQo1uKLBBZILJAZIHIAlW1QAQQqmrB6PuRBSILRBaILBBZYDu0QAQQtsOHGt1SZIHIApEFIgtEFqiqBSKAUFULRt+PLBBZILJAZIHIAtuhBSKAsB0+1OiWIgtEFogsEFkgskBVLRABhKpaMPp+ZIHIApEFIgtEFtgOLRABhO3woUa3FFkgskBkgcgCkQWqaoEIIFTVgtH3IwtEFogsEFkgssB2aIEIIGyHDzW6pcgCkQUiC0QWiCxQVQtEAKGqFoy+H1kgskBkgcgCkQW2QwtEAGE7fKjRLUUWiCwQWSCyQGSBqlogAghVtWD0/cgCkQUiC0QWiCywHVogAgh/4ENVSqEMMFSAgQkYQACYKAIMQ362DYYKwlMpIzy//o9tMAIFhj4BSv5aegpDZe61Gs4phxKrGQEKhaU22kzJufVQ2+we5ZxGYKDM8LlV3ZIbbaOPrQx8A8yM/ZSx7e4FJXaUc2WMisI3AkwsPS0Ns+p3Vw1PPDpEZIHIAn+SBSKA8IcZXuEHiqTvkzA9AjNBWq/LPtlYKFxMM7ZNrsZTKVxsDGVi42EZNsYGZ1o9pxR3GShFMvCxi0Dl2sQz/irLNQAAIABJREFUsMAgwENhmpaGRVUZcp60lyYegGvalGAQN8A2PFAWQeATcyztvKt7+L6Lb5q4gUnC8jGV2LFqZwnw9XMR2ykjwA5MPD9J2jCxTQfHNzAcAV1VPFGFy1QCUj2flGMRdwNKDJsS0ycvCDANC0OAiT6t2DIakQUiC/wvWiACCH/QU5fdoTgB8WMpy+DOF8dAUMKCxUs54ahjOaxLGxzTLrPtrp4Lc/2ASXNn8ejr4/FSHo8PuhhbO4DqdTgSMvBKfB58/y2KvRQ//Dqf4WefRrtWO2D4HoEf4MSqDoACARuBx4IVhXw4YSIzC1fw04wl3HPxGXRu3hTTtMPYzDbY/QZBiofe/pxn3n2Xd0YMpnGd+tWAQwJ8FcZ0BCC8/PFEhjz7BkE8zXHdd+WOM0/Dtpzqi8BkppXY0fQMAlMx9beVPDxmNH/p3BUXn5MP6oVt+1gSSTCrH2hVz8yOjhJZILLAtrZABBC2tYUzx5dgQaACLB9+XraC468bypvDh/DMB+N5+6uJTBh1B3Wzsqp931uUTPHmp5/y1Kc/kFu/IaOv7hfuEKshOF7WdLITXp7yuH3Us9xzWT8Ovf6fnLjLDpx35uk4OpYtTtusOgBS4Ls+cwtWoO/CsNn5ogG8evVFHNl9LwJlYEuqprr9WqBYVrCK4+98kKL1Hh8MH0Cj/HzMKgMthScJJwnzK8W733xLdlz+O063th1okOWARESqfJ7yE10AAmkDX6UZ8ORoSvC44uD9WJL26d2+HW7cJh6YbKus1x/02kWniSwQWaAKFogAQhWMt7VflbAuKuC1737g6keeZ/wt1/LEp1/z1Eef8e3tQ2jesGF1+wGEFiCnPffukaxVAS9ddSmO41QzPJCsPzpKMG3JfGbPWcO9Y9/k2f6X0rxxQ0zNgZA9slHlnb2kGPzAw1YeP81fzHPvfcbE+TP4z1VX07RhXc2xcORc1bzzFaD1+Ntv8838Vfw8fzYfDruOpvn1qgHwKPHT2GKjwGTkW++yQ53G/OerT2m3Q1NuPPkkshLxan9eGiB4BmuKVnDKP5+iZW4W3XZqzQ8Ll/DIeWdg5dlkq0T1A62tfWmiz0cWiCzwp1kgAgh/mOkVnudimQ7vf/8LF/zrab4YMoBHP57AC598zjd3D6FBvYbVQnsre0uyMQ2MNBfd/igldg7PXtMPs9q31wIQfFQyxeQFq7ng0bt44Nxz2bVdR2zT1NjAk529LXv+Kg7J1QeKtSUupmWyevUKOvS/kWcvP5e/778Xvk7TaJpdlUcQCBzR3E4m/jqFD36dy6KFK/l29ixeHXAFrXdsRFVZFQKs0vjEA4VKWiz2imjuxLn25dF88PNPvH/dQJo2qlftKQbNInUNlqVWc/6tj7F7l7bs17ETlz/6OG/feCU7t2ydYUpW+YlV+TlEB4gsEFngz7FABBD+ILtLBYMfBFgqoNANOG34CPodczhvjf+Cxs1bMuKME7Bsu9pD/7K193E5754HKfBNRg+4PAzBV/e6rwKWp9Mcfd3NLFuTpkmz+gzYbzeO63MkllQxCCvflPur2hA7ugR8/v2PFKVdsvJy+Nvwu3ji8os5seeeKM/EtKuHy1EKEHylWL56DZNm/MbTX37KxBkzeOMf17J7px2rHvERPy1JBsOgxIMn3nyVI/fqwaBnnqd5fj1uOe906mZnV/u88IWD4JsUBcXc/Z+xrEsVsHunTjz/znieG3gZdbPzMZwg5CFEI7JAZIH/SQtEAOEPeuxCUtQAIQBfufy6ZAXzFizUTPju++5JPVvp8Ht17+5lh5rC5+MJ30r9Akf23BNN46uqp65oN6VYtqaQZz8Yh6EcfNOlZ/v27LN7VxwjwE2nicWyqmEnrPB9jzUlaSZNnc6awnWY8RwO3bUruQkwLEeXi1YHCVPAiIy072FbFmag+HzKZGYsXsbfDziAnKxYlUtT5RyBoXRZo+vD7MWLmD1vAatdj8N325MGdbOwLCmnrN4HJpwRXBNDeSwu9vj0mwkUp5J0btuZHju3Bt8miHlI3Us0IgtEFvjftEAEEP6g5y4AQQWh/kE6KAFfnLSFafjYjoHnOdiai1bd7DoJYYOV9Agkd58VrxbnuYnZpMSxqAgzK0FalzW65BrZWJqe76MM0XowsKpMtlMIl0O4FZ7nY1q2dtyWRGgcId0pYpJmqKbh+b4ml5qlqRI/jS7glDJHTfas2vMSNQdDrt0PsCwLvADPUigvwHFslOdh2rHqB3SSEvIFePikfD/UyLAsYr7CdTziXgLfTmNto9Lbano80WEiC0QW2IYWiADCNjKuCB+FEjimlC/ounK9HzVMdIkZBl6GtCggwSCB/EZi1pL5ls+amfI3+ZrkweWYm0QYMho3pVI32v/qogEVui4pPxTnpsssfWzh/me0eUJdI6kEEKcbGkLvVPXJyxtGzi0XUbqTlevRZZvCB8ycRwR+5Gd2IEgnw0tUAUqXHIbqSfJ9+a4vTld2zhVC2LKjlmuSSyi9DL2Tz/xMbKN/q+S7BjoNoFFIqeRUxuZq43VhCnAQISp9ds1hEE2GskN21EqZuipB20fnRML70Tcp/xIRI8F1QShtpa/D1E8tFGfSXwmvRQNCeV4VdQQ2PK/wL2J7nQbSOgiGrswQeCX35gp5MZAnHtojDPzI5+X/xY6ZZ6zVjso/rw2zz5OLlXLGzJVtEGDy8XwT0wotLXNNKZmtASlTEZMIgv7dRtGmqudTttHLFh02skBkgW1igQggbBOzZryVLx7AJbBksfeJq3g5hcFSp77hErQfDQh8ETOytFMTh6RJd4IdvAAzJjXxG4eADPmI7KI9JTvqjBMUh5rxsiblvxMoN3QoWkUvdCXaOYins2xcFWy6C/d9rfAXmPLZgJgWEhQHHTpJHdKXX1YYG9UUxYHLTfgYnlxjhidQIcUtDl926/JvrTzp+3pnLSRIISX6EjUwRYJpM0N5GOLcxDmKHSVyI7tz7eVDkLNJpEaelQZOvnaMcnu2sjf/vDK3K5EhAQyen8aXiIZpYok9PR+c8rZ35RmJmYMAP4PUBAIo09TVJhpzVIiyiC0M29R2NwQQmYaORslckTLPQASwKug+yO9dEV7S88jHERChBLgpHf0QsGio8nYsBZchckFCNBodiDiUCgxNOC2b6SgFc9vqFYqOG1kgssCfa4FtChDWr1/PvHnzWLZsGWvXriWdTmPbNrm5uTRu3JhWrVrRsGHDP9cC2+jsad/VeWsvUMxfvoZvJk9nQeE6PE+q3sWx+lrmtuyQHaFjK1rm12OPdu3p0LwJjhVKCotDM5W1aZmgDreHji+NYsGq1Xz563QWL1tOIM5BoscV8tci9WzZsltVNGlQnz06dKBj80ZI8aMhDkwDlfKOTfmSKxdqmygIGvrYsxav4ruZ01hYsIakJxLE5QGCITt17ZjBsW2a5OWxX+f27Ni0PjFx9kEQikOVAzy+BjtyDSFvQ4CJzexVhXw7bRqLlq8gLUhlMyNuGzRtUI+9d+5Ah6YNsCRML9wEsbvO+YuzK38McdzaJwYBcxav4seZc5lfsGbD8xKwVtGOyvR1SWXrBg3Yq8POtGlSX0sWSBmmVKvI89okA6GEYhnu1j0DZi8v4Osp01i8coWOIOhqxwrPS0ie8o9jWTRv2Ih9OrVnp4Z1cTIyzGJ3IxNFKTVL4Pn4lkQG5I+p77nQ9fjm1xlMX7SYguJiDSzKjlLhaAF7AlKysm06Nm3G/h07kR03UXaAXQFsbqPXJzpsZIHIAjXAAtUOEFKpFIsWLeKDDz7gp59+CkPA/8+QhWjHHXfk0EMPpWPHjuTk5NQAk1TPJSjPZeGaQka9/xGPvvUeBWkfwwx5CJnGCDp/Xm5H5oWhc/lcrmVxwv49ufHMv9MqLwfLVHiGgVOBo1CCi+OarC0s4a633uGuV0ZjWXn4OiweOkRTtvtl/KFKiQBOmIuQnaxpepxxUC8Gn/A3WjbKJx3zyDbKqx66ga/z/LIjn7+mkNteGsOYz76gIJUC7WgyksBlzBd47oZ7lSiIgJwEcP5fD2fAcUfRPDcLK1Z+F+spTwMEOU86CFhekuSR0W9xz39ew83JQUmERGL8mxmBH34/p7iYC/ocxmWnnkDz/DrEdORAIi0Bjti+zFBumnmr1zLyvfE8NfZD1qbczGMq87ykOqLsd+Q6BYEBdWIOZx5yENf+/Xia5+RgGgGeaeBUQAhJkdQugcL1SYa//iYjX30N28nDl6hAGMrBiJePLamkge04IfDQWagSLj66D9f26UOj/BzSCYOcCqkMSVkI2BMZ5yLX59PZ8xh0z33MWLlWy24r0VYIUuXuR0DFhqGnh4llGnRs3pA7Ljib3u3bkhXfRhyW6nntoqNEFogsUI0WqFaA8Msvv/DOO++wcOFCXFecw5YNCclKJKFXr14cfPDBW/alGvap0uZEIpcrC+tnc+dz07+e5YtZC/AkZWD6BLLDLtPISBymRA2U3r1Kr4Twl0pIarLLN6FDo0aMuKAfx+zSGd9UWAIQdBo6k1P2PMbNns2Ax59jyuzF+HJM5WUaFmWMJNyBDecNGw1p0aYMiDANB+V7dG3bnKFnncZxnTphxCS+kHFYmjPgY3qKT+YuYPATL/DN7NlhBF8cvw6Nh85Xhk5DZHLyEoY25ZokTC50DPm8MunSuB53XHYeR3bpqCMTsssVwCihb50qUQ6fTpvJlf96mmm/LdX3JQWB4vRkHysjxDxhLl7/TefmZZ8vnR/kemK6MdZeO7bgtvPOoleH9hiWp88vPQYkgiPHA4vxs+Yy5JGn+XrOb3rXb+Hj6zSK3EwpSKgQIZHz6Py/hUQTZKfftWkL7rywH4fu3AbPNkNAV/q85DLdgHdmTucfjz7JnN9WEGhBJ08DmhA86hxOeFqJWmSIkDJHwrCKHMzGCnx269CC2887i0Nat8GI22Wel9KcBvlMkXIY8tIrPPbmWNanlcZyArBUIKWV5VMoYkOppgi5MhJNUuH1GQZ1TDinzxHceGIf6mXHpYOETqNUc3FFDXuro8uJLPC/bYFqAQglJSW8++67OmpQ1dGlSxdOO+20Wpd60ClhScPjsnRVEcfcMZIfZ84J88UbSHZldoYKbNPSfANxdOI4NY2xzE5fdvnxtEHbdk154dIL6dKmRViiKI5QjusHzFmxirPvf4AvZyzW0QCXNHrfqn1JKdnPD5l12p3KEcIctuzGddo9UNrlihPu0Kwhr11/FR2aNdbOQaIG4oAlErRwxSqOvftBpsxYhC+a0eIgygw5mqQfJHoh16I5CuFd4ZgWUhEg1QwSvlauy67t2/Ds5efTqXVjiWXgSLMlA5IkWbxkHWeOfJiJM2ZvEtrfgHZ0SiQkC0pY3gl9p07rlA+ZBOy20w68NvBqWjTJwXGlCkEKSSQt4jF76RqOv3MU0+bO1zYJgUMI0uQZCPfDsOwM7bTsDUvNasjbkM+a+MSCOB07NOeFS8+lfasddBpADii2NHzFzKUrOfO+kXw7Zwmm8BBMN+QGbBgZDom4YE0KEFKpzKEMwNJzSYigtp4ze7ZpyqvXX0vzunl6Thh+yEPRlArf5YGxExj03L9Jp1wNKkuHbsQkAKCMpeT7wkPRj1WDIpmTG0fcsRl6yvEMOPYQAjOGI3YWFBuNyAKRBbZLC1QZIBQUFHD//fezZMmS0BFWw6hXrx6XXXYZLVu2rIaj/UGHCBRpE03eu+G5V7jrzXe1M9ScAyvcQW/KApeOeoYW9tFVD9qpb7ShOFlppmMbCfr22o97LjyJXCdXMyAl7yxO4IZ/v8I9r76JH8RQfhrlhCBAn09vTn1sOw6edIs0NXs/KRELX9Z2EwnpE7Mw0hJ1sIk5Dqf02osnL70AS9T9zLCZkACXG5/5D/e+9RlpEfbxUwQVKgGkO6Ak4SWCYVoJVHEJRjym7410CjOeHRIGBUBYITg6/5ADGXnuWaKPTExXKojipM/A517igbfH6Z1qpv6jPBjRkYgM6VCJ85aUgI/ph/Ub4c48HLYQ+QKPS4/ozX0XnJVpBq0wAwPXVFz92PM8/N5Hmi8hmgdChgzSHpYjQMsLAUcgHSXERmWG6YCXDMtTpeNE4OHHYlqAqP9RBzD87BNJGImQdKggHfhc+eQLPDF2PL5oRQhZVJBZOTKKOF1x0E5YFaFCwCfaD5JFMOV5aJEj4YjYOJbHeX89nAf6nao/r9kKwiEIFL8sWkSvgdez3o2RlghE2fdTicltfa8pN5UBIxJJKsGwJUIhNswQSzO3bJgWOzXM58vbb6VBfkKnvapa5vkHvZ3RaSILRBb4HRaoEkAoLi7moYceYubMmb/j1Jv/ihAZL7/8cs1RqA1DauWlnfPiVWs5atidTF2yQoftNTgoLS0rux/TfsCkccM8HAJWrktTnEyVI7XJbi6IK4y0TctG9fjstmto3aAxgSFNn0xWppP0HjSMKfOXZMrpxHWEFRS6RbAfkujq5+TQtGF98uvksmr1GlasXs1y4Q54liQ2QocvTkUC675BvboxPr91MF2aNSeQdAQmC1as5PCbRzB7YSGB1MfrRtXlIwiiP9AiL5tWzZuQCEwWFRWyfHUBa4qSQrHTwEGZikDy9jp0bdK+WWM+HnY9zerlbUhRrFpXQo/rhjBzWYE0eNgkjF1aiqnTMIZJ/XrZ5FoxVqeTrC/yCFxPp2k2DCkzNS2a1onz6e3DaNu0gQZjYsPpq1Zx9M13MmvpCpScS5eEhiF2CZL4po9yPFrXbbRJfwczFbCgpABfIgyeiZYxEPDmxenYqgGf3XoD9XNyddxewMiCtWvZ/9qh/LayQJerCviSZ1kWIOgKBx/qJRK0bNKQOvnZLF21mqXrillblNIpAF1poedUGHWqn5/DN3cMoU2jRlp0Sf9cKe5+czyDnn+GwJdUlhx5o00EtDRv1AjLT2LapgaBjnR3TJiYaZ/CdMCKdYXlQUVYpMqoC87lwsN66qiUaVSf5kRteM+ja4ws8L9kgd8NEGQBksjB1KlTt5m9pNJh6NCheudb04ew4J3AYuyUHznp9gcpKZEQfqhHECKETP64dDeGQZv69Xht8FW0b9GEv952Dx/9VMGW0r9A56fBSeTw0Y0D2Hfndnimp881c20B+146kMKkMOMlHy6gw9FhX99PYhtw8C67cPtZf6dNk0YYvks8K4uJU+Zz0eMPM23Jaq3RIE5Rygg1h8C3SSQMHr3oTM7Y/0CdSrCxGfv9Txx374P4xWnNR1C6ymGjw5Fc/1/36MZd559LfQfq1MnFNm0+mzaDm55+nq/mLcb3JaQvkY2wZE9UJIUdP/auG+jZvDVpW+EE8Ovy5XS/eghFxalQQ6FCYEo4DWEXKkWD/DzeG3IFu7Zqy4jX3+TmF1/BFxuUJTKaARLJj2fHePryCzi5+146ciDJlje/+5Yz//kY69KywxYwEvaOEHAnIkFBYFM/nuLnxx6ieV52uWk4fekyDr7hZhatSZKQnbjyQiKnqFpkxZg04jbatmyAZ/g4vs3E3xZw2KDbKEpJ9wWxt4Uh6Ycy1ypRka6tmnPHOafSu3MHFi9dTSweY9y0WQx+8jmWFKdE2lFHlmR2CfDISiR48arzOWbPvXCtFI6ySaE4cdiDfPjzZFIkMXVKYuPl75CTzYSRd9EiP0tzSzS6EdBnhQDlhc8ncv79I0mWrWbRoNag246N+fLuW8kS3kQpF6amv6DR9UUWiCyw1Rb43QDh888/58UXX9xslcJWX81/+cI+++xD3759dXlkTR6a9IdizMTvOW3Ew9oBVRw6o6wsTS47YOedOaPXvnRrtROBSvLXW0cx7ucpFaSIhWgXkuokRz9+6AB6d+2Mb0hFgcHcVWtod8GATG48dEw6hyxRCx92blCH0UMG8NPMedp55tlZPPmPc+nQsjkTZszljLseZPGaQgKhxmvvER5D/rn7nL/zj6MO187NVhYvTfiav9/3L+14tVx0uaJ5aNWgHh/cOID3vvuOUeO+plvTRrw8+ArtUD6dOotTb7+bpSXpCjtSUUA0+ezOm+jRruUG8uG0RYvo1v9GHaOQ9s3leBkZ0qOObAQxrj2mNyP6/l3n6e8Z8zoDXnxL78zLgwrZUwtx0eahi/py0aG9MnyPgKc//oIL739q0+elcZNwLxJ0qxvw/eOPanKfJlxqMym+mzaTQ26+neKkg2kHujpCEwCFwBeY/DjyFrrs0CIM6SiDibPm0XPgLZmy1I0FHo6IWWmCoMkebVvy7ysvoVXThjw//guGv/YG7Ro24oWrL+H6F8fw2CdfYnuerpDY8LyUwZP9z6Fvr/11Gar0T5DIwl4Db+LH2QtDQmqFVE2XZo357J/DqJMQlUZJ10jaSo5ra27B4x9M4IJ/Pa7JkxtGyFolZmWTHP2g3GVEUqzJi1J0bZEFqmiB3wUQkskkN910E8I/2JLRrl07zj///A0f/fTTTzWpcUtGPB5n4MCBtGghC20NHppxrhjzlQCER3DtTUl84rSaZcX5YPhgHeb2bIscJ4YXFHHUsIf46JepFfLt4hw9XU8vKn/jhl3NQV076x2nkAHnrVrNThdcU24nbwdCEtRqOxyzdxeevPx8Trj9fr6QCgff44WLzuSk3geSKk5z6sgHePvLSaiYvYlD/We/U7i6zxH4AgiUyb8//4rT7nschK3vh4qCZb+0e+vWfHDTQPr+ayTvfj1ddACZc9dttNypMWvWJulx+UBmSemgLg3IDFECDEwm3HEz+3VojlKS54fpixbSpf9NuhpB1+pnqhTkW/qvppRCxmhdL4sv77+NJnl1tNO+75XXGfDC2wSWV55AqUGGkAEdRl14JpccftAGgPDk+Alc9MDTeFolqmwtqOToRfzI5vLD9uPKY/vw4qdf6L4IosQo46fFyxjz/SQM18M1fYyUaAVoV48VWPz4wFC6tGyptRHl+r6ZNZ/9Bt5S4RmHMlYuPtkKbu17Kpcdexjriks4c+SjvDfxZ1o2aMY7A8/h+S8+5673J6JSqfL8UAEIl59D3977h1EFTT5R7DrgBn6ZtyxTHVFqvND2u+zYgkcuO5s80aHwpQrDI4jH6Vy/ESvWr6X7VYNYuNYtz5/MACNDZRG8OkoTKKMqhhq8JkWXFlmgihb4XQBh9OjRjBs3rtJT16lTR5PR+vXrp3UOSoeUQN5zzz2sWLGCdevWVXocARjXXCOOsAaPSgCC1h4ylA5Fn3dQb+YvXsDFRx7KId33xQ8K+evwfzHup8kVbnDrAYKErIXJb7lpzu69P3efdRp/ve1+vpu9gJTl8+qgS+mzx56k1iU54+FRvPHVL5q5X47AhsHWAoREzKFj00asW7We2cXrqZ+dYNGj92ImYMGyAo4aNJSZ60rKn+d3AASNIGyPRiqHUTdczMGtm1O/fqPKAYKQGLEZdeFZWwYQtMyk6A7EeOTSvtR3TC544t/s2KCB5gHMW72aVYXrNVHTDNLCYcRKO/iWnGcrAIKUh2qlwoCd6mbzxuBraLdDEwqSHvtd2p+G9ZuRY5qspoTFS0pYn0yRtiQSU3ZnvylAkBRgCBCWQilBtgzQ0pGiQFgkMl9EnaKY4accy7VHH89DY8dy1SuvEaz3NWdkA54L621Qfhbq9VHlows1+NWMLi2yQGSB32eBrQYIoo44YsQI7dz/28jOzubwww/nsMMO2yLugJRIin7CG2+8wcqVK//fuxCAIEChxo4tiCBIoFtKCmU3mxfP4alL+nL0X/ZDBYUcNfxfjP/51ypHELSWgumTwKJtsybccPrJPDDmLSbOnkXXFjvw6o392bFRY76eNpvj77iX1UXC0k9WaL6w9QAhJPbBDg0b0KF5PhcceAjHH7gHK1eWcM+747j/rfdw/bBkcqPH2foIgj6NYXDavnsy+JxT+OTzr7no+D6VAgRJ1UiKYdQFAhB6Vx5B0ADBJeZZfHL3LSTcJGtTabq0bqkbTv08Zx4jX32XN2fNAuGbCOFQKyduJUDQvR2EVRpn95YN+GD4DdTLzmFtMsU7X3xN9926kWdYjP5uEre/9DqLC9eV652hbfnfIggCEK65gV/mLt1YQVMhEqOZJ2aY2uizVxeeu7o/xUUlnDTifiZMnY3phH1BygEESaF4CdTrD0UAocYuRtGFRRaoHgtsNUAQlcRbb70VP6MgV/EyzjnnHPbdd1/948mTJyPpiM0Ncfp169Zl6dKlOm3x/40jjzyS4447rnruehscJawoV7zy1fecccejpE0JNVeUBA7r9uWfOokET1/Sl+N77keJKubYoQ/z4eRfNuEgbEgxYDJuaOUpBgnhWzGbwE3pUHM8HsMPDPIsl1eGDaNHu1asSa7nlFtG8umsuah0EsOWCoOynAmDu/qdwoCjj9AldaUphtPvfwJleDrFIKz4gLQu0QykvlOICTYMPa4PV53Uh7hoJxgGb4z7moFPPs98qQYokR4QZXa+mQjC5yNupsfOzQkyuoNTFv7GrpfdpCsIQmWfsvoRJq3r5fPyFRfy8LhPqZOby/3nnY5vedz9wpsMHfMmxVLDWWaHrUGT5WK6DvdffCaXlkkxPDF+Apc88IxOEZR9Xvo7BDTOz+L74bdh17G4Y/T7KL+Iuy7oh+UHzF2xmgP/r70zj7d63v7/8zPszx7OOU2aR6mkKCWRJhRFKKWUK5dMmS73pjKkJCHXJa55ui4SSVFIEhmaURLJUKL5NJ15T5/h91jvzz6nfY66lOF37v3u9z8l+zOt9+fzXuu91mu9XqNvZHuRgC8hYbop4iXhqjBY/cBtHNlIsBVSEoKl323ghBsmlivNyKsouAZhMex85KG8f8d4RdJUWGJz2cNP0+GwBowc0Fd1ZjwwZy6jn39FtTgqHoo01/30NRdz8cndyuZLbNZ25C2sXr8p1e0g2ai97t7HqiguTapoLvMm3MBxRzRn+pK/HpZOAAAgAElEQVQVXPTPp4nG46ql0lf6SI1UiQE3hPfqIykSp9/hY8qcslJbQIhKU1IuqXZqH9hbGYZQpesK2FxGo/b7qNdWhof9A+7hgAMEYUqcPXv2Pm+tRo0a3HTTTapscNddd/0iNkXBGJx//vkqqHjmmWdYunTpPs/dunVrrrvuuj/AJAd3iV8WIOw9d07Q4tmrL6J/506UeDHOvu3hVICQ3rGRVmL4hQGC+izE2Sv1PiFE8ghpLuOHDmT0WWewYcd2xk19lWkLP1HAvKCukUi4uNLykOZw9gYIAiTUFAYhPUBQ7lR0IuRSnvAFCPOgS9sGdWlZvzYnHXssw3qcoOik317xJcPuf5C8Els5sL2XEbY/nQ8n3Urnlg3KAoQvNm2k3dW3KqdfJjCUOsjUNMYO6sPJx7Sh772TubB9R+4bfpFKo9/36nxGTX1ZtWsKWK90KKIhI4mZMJl81Z+5pncPBewUQOH+AgTfdWoYpsEFJ57Eth25zF+5QmE5J5x/DqMGnq14DW5+/Dn++e6H6AiWJImmAo20AKFhwxRmZD8BghBHqaySTsfm9Vk0aYLCA3y9bhMdRo2nU/NDeX3sKCI5EZZ/+S197phEXrQ8oZYENqUBgrRZmiqogrbX38Lq7zemAgT5t3SbeHiWtDR69DmmDVNGXEEooDNuyqvc8/o8lemRTlEfjFoxQAjjvfpwJkA4uKXiv/8o6WJSyBpfz0WN30Gm/qAMJdwiavht1BmQzEFZMW3tPEB2o8mTJ7N27dp9XlWIjSRA+OSTT5SzrziUjO8+yJSaNWvG9ddfz9y5c/cbfEjL4+233/7rnvZ3PLqyBAiyc1QiSVpAAQyzDLi6R3duv+xCdhYVc+m9D/HWVxtAePi9JIYWUEBA//7LXGpaBmHfAYJrSIteUmUJxJEeVfsQWjVvxpufr6KwOK4SCp8/MIEj6tcgkYCOI8awZkcBwhfxawIE6ZZYPmEc73/2Bc9+tJT+Xdpx8WknK1GimR8u4r7Zb7P0x83ldr4HEyAov+gahC2dkxo3YuXu3WzdtROsLHocWod37rwV23B4/b1PGfzwozhaQDEjinM/sABBcKgSrBgcc1g9PrjzNsyQy9LP1nLi+Htp27Ae7992M5FDImzekEvvCRP5Lq/oJyWhAw0QFJgxGCLHdnjkr8MZ3KkjJYlizhp/Lx9+872PY7FTgNdMgPA7rhz/jaeWJl0havMDBD8nWElSCHuF7pFMh8CrKsud/TfO9AFnEEaPHq2UGfc1SgOE999/HwEylo5QKET37t1p2rSpwi4IwLGgoKDs//+SAEHOIbwLlXVUmgBB0RoJnY1G0HC46ITOTBg+lKqaxatLljDv2/W4ceExSDBvxRdsLYj6qedytMnpJYb9ZBBEiMhzsQ0dy7EZM2QAl/Q7k1YXXEKhK0JAUWaPvIJenY9VhETHjriRlVtSvAtlcciBZxCOaFCHTyeNw/YMnKSHFrapYkWwHQ3bS/L68tUMuf8B5dz3XuYgMgiKwtniuOYNeO1vVzLsiad5e9V3qoth2LFH8sTI67B1hwdfe4frp7ykOJ4F0CedFwcUIKj5koyDTtO6VZl9wwhaNqnHhytXc+rfH6J9nZrMnzCG7KoRPvv2R069dQJ5cZ96OT2gO+AAQQLJuEerJg2YO2EU9atWZVdhHp1vvpvvt4tGhIvpmKrNtWyUlRgyGYTKug79Efel+n28pGJTRYiyDBFcqxxuWH0VSlJdspvCNSKCeJW7Rf6PmLODvcYBBwhXXnnlfrkP6tWrpyiSFy9erESbVFypaQwcOJBTTjml7B4lwLj55psVDbGMXxIgyHkee+yxg33O3/04kQOWlPWMxSs5/55HSaqFdf8fjSoxXHURZ3fpRMxJ0G/ig7yzWroYKhyjOA98jYJ3bx3NSW2OUL5csgQ/7M7jsMtHprQeUsJKwo0vxDemxnFN6zNz3K3UybFw4g4EdQJxodUNsDMW5YK7H+HtNV9j6Mky4SWf1ljn7wqD0FvlFaR+/tJCKTE8pernkhJ3DAM9KW1woqFgc/OAvlw/aABHX/E3NuXHiIRcVk2+k7q1ahArceg6chSrd+X/hFZY8SBMkjbHemkYhE20u/ZWJeIkehLpJhHSrIgVQDc8EiS45qSe3HHJYAJugIdmvsZtL89hV1JS8HtpkRWeQEuiuwEeGD6UK08TkKK8mw7PzF/CFQ8/g10O4a9WGUzNoMthjZh9x01cft+TvLLiS8J2PnNuH8sJrY8gWmJz4l9H8PnuYrSkh20JBkH0KGS+NL6cPJEjGtVX6XqZr2XrBINwexpxlpRpRKPBZ6sMEOPJqy5jaM9ufL15O0eNuJl+7dry7IgryQmGeP6jxVx4/6PoRHBIlAkqCZnUU1ddzMU9BIPgB3TyyO2vH8sXG4QHQeI/SbeWz95Ytk7XNi2Zd9sIXM9ky45tdB0/mS25Ij0t710QO82OpZSgmhfEmfmoH9pUluLz7/6F/1++gI9F8anNPcjPJbntc+y8LWiRagQbHIlWpSmOaSBt1oqMRanS+e9hil4l9Ze9XCt+ccLX/PBpwn22DvUXuxiMcErrQ73AKbK5lKBZ6XkVRrd01RIJkST29q9I7t6Ia8cJN+mEUa1ii3wpeZ0vjJZyVGW3WSY0l2IOVf8txLRSvFS3khJ+T+GUlMaJdCOlshf+Ci62St1rKepIPaAUZmQboeT5UuJyKaoUVRauXOOAA4Thw4fv9wmkpTEnJ0cBE0vBiYIxuOWWW5ASQfq48847+eGHH9Q/NWnShCuuuIIFCxb8R8Gnxx9/vHJZL+1ukkkXLZBQHABn33Ovqp3vS0Og9JBsFSBczOndjsEs1jhl8n18uEJKN+kUwS6BUAA36uCaNgvG30q3I5sqBkKbBJv3FNFs+PUqWyDiR7op5QJJc/vCRbcN6c9NA89UnPrpQ/Qf9sQLOG/SQ8z7Yr2Se1YRiK77fEmOy32Xnse1fU7xP0wPZixdxnn3P4QWDyj6ZyUYKSx6Qk2cdGnbqAGvjB3B9z9uY+6KpZzYug1ndj6G4qTN9IXL+Ntjz1Ag6oFOmuOWD06HD+66i+OaVgNd0vQOa7bm0n7EGEhqapdejn9aPkTTwbA9nECIa3ocz+ThlyjdiEmz3uKW51/yKaDTa6K6R8DWlQP/16UXccGp3RWltG7Gmfb+Ki548DF/MUtnhpRvO6BTLxJg1rjb0Lw4sz9YQqtm9RnUuRvRZJLH35nPuCnPE9XCaHGZIxfLsvCiLk7Q5qu/30/zJjXU4ue6Hp9s+J7ON0zwRZBEG8MQku3SdU+AjA7Ht2jKtJF/oXpWNjdMnU7Hpg05v8eJbNqRz6WPPMy7X61HT4CrlMJFtEn0JBz+/Zfh/KlbJwV4lCkUIqWTRt3GsvU/KJZMFWiV43nwFMXysG7H89TVl6l36LtN2zhl3CQ2FhT5HBTK+actWbIwOgbVIwFyp0ibo+6ri2bG/6wFZDXyVUWFHc0jueNj9IX3YTfsjFHzcIy87cS+nUr4qL9Q1OY0Iq6haN8VWViKAMwhRtCzfAZVFSyLDLl00IibDONpcUUGJytDNF5AZPs3OJ89jdd9JFa1Voo1VWA1AruOUIznRlQ7sRn3iFs6lnq3hbheAhkD551rcb96HarVJXD6v9DrtNo7P64Qmmkk9ITKtCqdE1BS8IbcgaMrRlfpVo6bHiHPICrt6YryXcO0TRxT7sdX4XVsHaES8TlGJYwS9JMfAAS0GJoXwlDqb0JoL8usieVqRA0I2w6uKPdKSdizFEOuJfoulWgccIAgGYIDkXIOBAJIWaJx48blHnvixIls3LjxF5tCgg/Rfaisw3FcBapbunoD/e95gN1FJT9Bq6ffe8g0uLxbZ45qeSihErh7/jus2bytXKZfaHR9gkOPnKwA8yeMpWOzBip97mo2uXuKaTviJnbm+50i/m5OPhJh09Ppe2xbzuhwtPoQ0ofsV4vsEp6Y8wFfbc9Xqn8C7JNIWPQSsqwAz157Kf26dFAtcPLvC1at5dx7/0l+QQzXELEnDS0luCQCUHLd41s2pX+bNrQ8rJFyHrvyd7F87Y/M+fhzNhYX/TRg8jSqZYdYMHECbRof4sswux7f7NrJ8aPHUZAfK9eHL8+gnkRS+baHGwjQo8WhnHdSV7ULf+uzr5i1/FOlh1AOVi0JFc9Az4JXRvyFM9sfreqTrp5kwcpvGDL5EfKKZb72DiWUpPyjTau6dTn/uC4ccVhtvJDFrl2FvP/FWuZ8tpK8pK0ctgoCZNFIMSJWrWrx6aS7aVInR7E8yqys3biVLrdMJL8oph5El8VSdbXIfHpK/EjioY7Nm3HBScfRvE4jAib8sGs3U99ZyLyvv1ZYEVNUIEVBUkoTjks4EuS1UVfTo13r1Hz5lhp63yNMW/apym4I9kcW2b3DI6DrnNiqBUM6d1RaFbt2F3LPrLeVxgeu33FSng/U3+Gc0roFcybciCnBQWXb8lTWBeK/+L5clTmIoscMdr05iJxAGOu0Z9U6IA7PXDmF5I8f4Jz5LAEjjuaGsMUBa6gANiFsnNJIJG5UFjTXUUqqsuYkdA/LEWBhENuO4i6ZhLHmBcVKGhg0G2odmfqU5bikkpeX70XaimW9ULwc6jsS1lVLZc9i8/5KcP3rxKwcIv1fhpqHl1lfnLor+iNexH+3TYk/YhjC7aHHcbHQZZcvhHNGMYabpTqGdClZaj5viKxRQjXvISWWoM+DIlBgJe2exNNNlZHTXBG0kw4xEaiXZ7TUZk2CCEWcIp1eXgJdN6UfTCwgIjqV6k054ABh3LhxbN++fZ8PkZWVhcg1C5/B+vXry37TqVMnhg0bVvbfAmJ86qmnDkj9UcSb7r333kplvPSbEX0CAZrtyi/htDHjWbFFeCJ+Srdcdox8MPIiGjrBpE5cN31lxbTasunKrtcHn7eokcP8u2+jQfVqaqcpr2osluQkudaGLXii2JhMpDoCDYyIhaNaHVMayGk3Kw7dFeEkcTciwSzXlI9NSH8Mj3pBkyUPTKKuCEl5JklNY3dBCb1Gj2PNjl3YmjgpA9sVaWFheSztZtAw1Hsv4kjZuJSonbo4P9ySVHdB+geg0bZ+Ld6ZOI6aVbPVeSQO3x2P03P0OD7blJvy0hXs6NoEjCC2oaHFStBzstSz44RUdQVPPtx0X6gYKGiYY7LwwXtpVCXHp0XWNXYWFHHK6HF8kbvnJ++WLGiimmmHNAyxpRZSHAiOtO5a8hxK7lApRXqm0Fu7eKbsnODoxvV4d+I4ciJBtWhJqj6vIEaXUWP4bscef77smL97MHylSNMK4sVFX8HADcTRrZDKRLl6DKfIxTJCOF4cRzgd1EpjKjroRllhlt4/iRrVw6rUIkya8rxPznuPq598XoFQRYcjXeFSZUCl+0TWPU1UN8N48SIcPVupUooqplrKypVehAAqwUs3jqD/ccf46dYMmWKlXZN+mxsTJxYjrlmEc9dTMK0zVu1OmL3vx8xuRrGZILThewoXXkqVc2ajB7IpND2y92zG/e4r7Pj3BOo2x2t6Ap4WwUg6UPi9Cry13dvxah+D/eNHaKHqGDVqs+u92wnt/oiwW4Rx+ot4DXr5la1AEc4Pn8KWLWjVqqA37Y5mZZMwHDxXI7hpBc62lbgNOmF/+Qz6V7PQsnMInPUSWu29GQSHpMqyStBuxHLR1n2CXbQVWw9i1W+NVvcokqaFmdTQd32LHZW1dgdWuDbJbZ9itu6L4xoE8nKJJzYTzDmB+J5PcBO7CDXtRcyyCOetw9n0JV5yB7YXJ9T4BKjWVrTxMPd8jadbyp5m1SYqaFLi7Hu+hqotUdKwlWgccIAgjv3jjz/e5yPsD6QoP5Y2Rcki7Nmzh+XLl6vgQPQVpL1x9+7dfPPNN/vlVpDj5dxjxwo/f+UcymW74t4cHp63gJH/mkpcvFWKv145rFI/Jxkn1R7oId0AkqYVqWY/Ne6n9OUPyfw7YZ2A4zDi7H5MGNwHwwiiCzGvJhGqxr1vz2fCU89T4uholvTTizywASJbrJt4CqCjvGba5jHpiy2lCn8SG0j7oGNrWLrDiMHnMPHcM33NB8dQjjjgutw/531ufv4FYklbOU7VSpk6rb879dsqTd3AUQGIRNVSsnBU2lHq46UVSIn6TV3jpoF9Gdv/dIyApXYFqiToaEyePY+xL04jrkSZUoJNfg8npqQqbc3fRSjJZVFvdHxJZmlzCggOI1UySAUKlgZ3XDCEv/Xt5RtXpTr9NP1dr83l1qkzkB7q0qKpX1qXmzHUPCl9B0mfit8U8/rCyn5d1tDRHU+JHCXCGqbjMPa8wYzpdyqeYaq2w6SkGWyTibPmcO+UaRTbBnrQUM5YHLFgwmWhUyqXsruyLaXDoXuyoBkkA35qVtQTJRg1JTXqegRNm/HDLmRUnx4+LbZrpMiPfIzKqaMnsGFPvgoIy7rXUzbxn1+1Kyg1SjcIekzDFZpwFVj6KeHSIe9b+2YNmH/7LWSHjFQGQd75zPhftYCCA0gGzokRz/sBXu6BKZuG6q0JtBmA16APhryb8XyofiRJLYqx5g2cj2/HC1TDO7Qn7poZ6FWOxuh+HUb9dkRnX4y9cSFhJ4nTtBfhzUspkZbmBidjbpKM10bibgCj8akEuo7CC1XDWXQP7vo3CbQcRPGWxWRXbYF96t0YgTDGN2+Q/PAOXGcXWp1T8Yq/wSzYSDJ8CNaZUzFrp2cQXBQca8dnFC++m3Dz07CTcdwV96EnbYpbDqBa9zGw81ticy/CiXmEskJ4oabEd35MsO1onEPq4X4wDkkdhhucTXzPRwTyt6GdNRXb3kN89TSCh3ZHL9Fg9QNEPY1Qu2HoLfqQeH0IZmEeiZwI4f5zILsRWtEWit4bR/YZj6FbVqV6lQ44QFi0aBHPPffcPh+ibt26qs1RQIrTpk372Qft06cP/fr1UyULwSRs2bJlv8d06NCByy+//GfP+f/rB2q/5bjil9gVLWTY5MeZ/+kaPE9U9GxFMCRaA2pUEDoqW4BTgECpF2viLB0XLRKma/MmPHv1VdSrE8bSBDG8d2wrLObqh59k1oq1uPEoVsAh7upoimPf5+VX2gxpQ1XLlPSjn+6TTIatlI5DdGnRiOk3/ZU61aqWOybhxikscBly3wMsWLMWR3YCpuygjVQqXiohFTMmKddRBgSSyF0Eqyw8kpzYvgVPXX0JDarXwkrhH+Qcmh0ntyTBZQ89yZyVq5SiosJ8yi5dUt/pAkL7nHDJRBi+OKPITOguPVq2ZPro6whn6QS1kC9jnXTwTJPtBXkMuedhFn/5HYZm4blxHFPsn0I/72e+1IMrXQYpt7hoCQ89K8xJrZrxzJWXU6umRVALl7vD7bsLuPyBx3nzy+/8VKdh48jzyVZ+P/OlYhNJVZTNl9Q+DXTdom/7Vjw76hqqRIQuOS0GlJopGjOXfMqVjzzNjnhUlWEEQCn3LZmBFNRqv5+MEnCSEEqldV2qh03uu3QYF3bpTDIgwYquFDEz43/ZApJllPR4gLi7B+2FgWjFa3CohkkesUgTsjtej3f4WehuCKfgB7w3BhJPbiF06HkYJ95G/JXTsPI3k2hxJoGek/HeuBJ34wxwq+F2vJhgiUHxd08SOemfsPJRSgq/QYsXERn0DvHarQh+8ijRT+4hQC3MS+biLX0Me9VTeN1uR2vVn8C7VxP9fglGreYE+08l+tqV6Ns/gnANjLNmYNZusXeChNBMMpVL/45buB2zx90+bmHGUNw9SyBSg+CAObglW3FnDiHhRjGyahNsP5KiT+8mVKcL3qGnoi8YiU0Uo1Yr3Bbnoi8dj3HKIyR3iuBeBKvjtRRThDVjCHbeWiw3Cpetx5g/iuJ1cwiFdqL1eB2j6XEkFz+Ho20kdPxEVfKoTOOAA4Tc3FzlzIUiueIQRkQJEIRlccqUKaxZs+Y/PqtkBCQzIEOUIUXEaX9jyJAhnHzyyZXJduXuxRH0ekrERxzyhh0FTHxpGi8sWoQjqdy4kBH5aADpyBDMQsVhCNugZBbMII6dQDdcuh7RnAcuGaZAgFI3NwPlU1BJEqzbsoNbX3iFGctX4hHAlfYj2YlKoJEC7KYnEDSjdHctTDhS5jDVrrVvuyO5a+hgmjWqiVXBsTm2Dyz6Yfcexkx9iemLP8ZJ6pgCjHSEIMjFljpduRjBw8cnpOB/shMPCGI5Tp+2bZnw56Ec1bC2cjJiE0lKGEmf9VBM+cXmHdz6/Cu8vfwT4pZcx5e+TilF7d+xpQBEwhBp2DZnn3Ac4/80kNZ1ayiiJtMLKUChLxwl19X4PjefMS88z/Sly5UQlARnYkNVcxQE8z7mK2B6voS11Bzl3gyHM445mrv/fD5H1K+tgIFCtJQ+4m6UdZt2cMOzLzLnszV+LdNN+AyTKZB4uQ5GxUGT2skroJgwxRkKgzmwYzvuvGAwTepWx6gQOEqWQfekyGMwdcEiJjzzEluKo37JwJAgTLI15e+tYkOCJmqWUjoD6mdnM/rPQ7nwhGOpGjSxDSkzBfZS6lXaLzNzY7/GAvI5JyVzpRqjXOx1C7E/GI3jbCaY0PH0EElJnXe4injHEWR99TLx90dhYxM56nKMLmNJzjwXbdsy4tWPIuvMx7HfHUdy69tKYtzoOYX41gWECneiHXc9+gcjSOR+hu05RAa9hVe9MfHZl6Nt/RjjkE6YA58g/vlUjKVj8Wq0xOj9L+KzL0Ir3orR8FjMvi/A3GuJr3sDM1wN46xXMNICBAm01fe1bTV28U6s+h0o3vIB2W9fRVQ3CJoN0Ie8ipMeINQ6EuO4m9BWPoPdZhB6MgbvjlTPbbW7Dj2nLs66dzFOHIWRvxuSRdiN2sK3c7CX3IOWLMDRg4QvX4P3zVzsD/6GY8fQ2l6F0fEvGLPPwe1yF3r99r9InuDXzOeBHnvAAUI8HldCSxs2bPipgzMMhBJZtBgEzV2RL2HlypW8+OKLZceJgJM4fvnd008/XY4bIf3kAnQcP348NWvWPNDn+8N+bzsOhjhl12+JkT93xZPMXLyMZ+bMY8PufHbFon7NX92VOJ7yO25x7rK7z7E0GtWtxrknn8TwHj2pErBJmgbBRAA9WH7HZqsUvIubdHn+w4+4/625bN1VRFEs6jsvIe+RnX7aUM5B1zEMjaxgiHo1chjapROXnd5L7UQFSKRXCEQEPxM1EwRdl92FNs8tWcK0995n/cZcimzhIChtLdz7TGWJA9mrGgZVgkEa52Qz7PTeDO3Vg6oKiZ8C+CmEr9yvTtSNEzGFiMljd8Lh1cXLeHDGbLYWxykqiZNMb73bxwyLA82KhGmcHeKK03tzbrfOVI8ITwEkPUmqS83fZ0rc27oH2xMJpr+3kKnz3mNdXj55sdh/nC/hPjAMk2xL49DaVbmgd28u7NqVqiGXmAahpIUmtY20UTpfdszmmfc/5OF589i6p4jiWEzNl7ofyRSkz1cqWBEOBpmv+jVzuOa0XpzfuQvBsJSKNFV2SR/SduvZgpswlITzF1t28I8XXmDJt9+zK7+YhHSBmBXevwoZoLBnUqd6ddq3bMgN5w6gfb06CnOSkB540yLgpbJHf9hXlrnQH20BATS7biIFypOSGmjfvE3J8kmYia3oJVEsyyTqBMka+i7217OIf/wPBSiUoCF4wk3Ysy/H3jQHLVgP66xnsBfeRWznInRHI9z3RfSajXC0GkorxX3zPLTNH5PQdUKDZqNlNcV7pSfJwl1oOXXxDj8HffMneLkLSYYOI9L7HuKz/qSk4b36J2CcPQV97t9IfPcqwUh1OONlzDrpJQbPb0l2oni7PiW+8kUoyiWUSBIvWYRhtSI4aDpuybayDEKgTlsCZ7+CJ10cVpDAmpkULriBiBFF7/5v3MO7YLhJPCdEUk/i/bgC7fMnFebHKFyNkb+DIguqDP8BL1pIYkZfglICqS2Bxw3oHz8GA55V5cjKhUBQeLJ9UBv+zFu4ZMkS/v3vf+/zV9Jt0K5dOzp27Ej9+vURgqPSsWLFCl566aVyx4XDYRKJxH/EHwiHwqBBg/7ob+OAridZE3l2/4OSthU/nS47w7xEgm179mAnkmVSwXJy1T+b7ggEy6dpBEMWtXOyqRYO4iVlZyqoXQ1Tgg+zQg5KUmaO1OD98KKwJMHO/EKKJKWs+nUlRay6i8tGqR6EAHUiwRDVq2RRIyfsfwCOiwRkCjuQPjyPhCvJOPn2bcygSV4syfaCQuJRaVMSNHHF50mrX8v9WwFqV6tGdUtwFJ5SkRSEtGQPVMlb9D0UZ5ChWidlBys7ZcfTKEjYbM/LpyQW/9ksnNx7KGBxSLVqKZCg7IJ1EratHKmALAPShSxZi5SGhmAI/BS+Rl4sweaCPLxfOF/hkEWtKjnkBAUP4WKYJoJJkWsJcLV8hCDqyp4CpMp8FRTH2JlfRLFoYqTmy28v/Ol8icR3JBTmkKrZ5ISsFNZAU1gV3SofILi29LI46Kah3iHNNIi5sDO/gIKSKHHHUa2w5a5TYcodU6d6JJv6AvbSXNWSJYGgIeBIBciUAlbFHpkD+mwyP67sFpA1SYGYbZyiXfDda3iH9SZg1SC57g2cz58muXs9EeloOHY8mmnjLrkH00sQ63AZkRNuJDn7KhKb3sIK1cM963msRROIbVmC7oQxBjxOoG434iZY8RgFc84nuGUVjp4kPPB1nKzD4IUTSdh70LOOxOh2Daa0LOsBDMtAs3KIv3ym33LbsBt6Pz9AiK+frTII+pkvl8sg4MSJYeItvR9z9VNogQhav+mUfDQGfctygpEa6Oe8gVeypSxAMOu0wRwwG9uwFdCaNTNxFoxS3WKRU/6FffipxF2XsKuTXHQ32lcPYtY5Ae+UJ4m/fQFa7pdoeiHm8J0qU+vMvRZt/Rw8PYxR73iShw8k2LKXCuYrG6DnoAIEeacli/D111//7iRsOi8AAAimSURBVK939erVGTNmjOJXqMxD1c7F4aT+9DFufs5YgHuqPSeVMSilw6gYmglxjw+bk9JAaRnA/7s4UFnwjXSxIxU3i5iSoi9KAe98JRXFjVCaqyjHkpjiMPGv4hOTiMqioZpv1LkULUoFxyYdBqqtSHGCpMB5ZYGH1KolZV0+eClP4+/vPkqHLz/gOzVZgFSLZgrQ6QcMPsmK2FW5IGUsuUMJRH6mUCfdIQqXudc5K/xfak58xsO915brqVKMwi6mdvGS1i+r0vsOe1/z5dfx/TmS4FB28+LIZaj5qmBHUaOQ7hRVYFJ4RF9XQc1XWrBU0XP795KaL8EkCEDUp41TgcJPsABqYfffBXWcei4f/yK8CD4YtkIg8hPSIxG9kvuTTpUU6Y2cRKov6jxCDpbBIFTmdem3uDeRIpeyafKHJWjz/kqg3/O4tZsr8HR8+2d4866Fks0kj72RnHANogtvxnJ0nHZ/xug6FnfmhbhbluDVaIzR5wXsD0fCloXoUpYbMBOzZiekyunYUUrmDCL4w3riVgmRc96AKs2wp/ciWfAjVtUjMIe87rf47lyPsXkpNOxAYuZQjMQO9Manop/xFMn5I7G/mY6VVRP9jFcw6jTbu+4AiZKtBGZeSHzPt3jNzsQ86Q6Mt6/D2TxHET5x9iwCxRuJvXEeVrSEogbHUKXfLLUJUyHClzOwF12PmzSxTrkfvcVpfut1wQ7yX+otYT/h1pdiH38dvHYe7rbPFXGdNXyDytyy+mUSS27EiOu4NepD32mEI3VxDQF1Vy7I70EHCFJi+Mc//nFAnAgH87IOHjyYHj16HMyhmWMyFshYIGOBjAV+hQUkMPXZOW3IXUd0Rn9CfR4j2rAbYSH/ieVjzzkfc+s6rKHzSMTi8Oa5eNE4NB+IfsptlLx6Kvru7zAb9iB0+rM4My/B2DofTbOw+81Ea9IKw7WwEw72/EGENnyI5xh4Q17HrnEsJa9fTHDXJyRLYuRctgotlE1i/ftEP72Jqr3fIjZvGNEd72E1PIessybCW3dSvGE2brgROWc+DbVb77WA4+EU7yD5yslg52I0OAO7171Yz55PvHgFVk5d9HPeIxb7FnvWNVjxfOK121Ll3Ok+WFeC+C+mk/xgPLoXxen5BFrrnqr1XNuxleT0o9H1Khitz8fueAvBlwejFS6n0IPAX3IJyR6wcAuFr/QiHN+B01SAmw9AIKSE7SrbOOgAQR6kVHOhlDL5t3w42dV17dqVoUOH/panzZwrY4GMBTIWyFjgF1tAAgTh5pCuHofChbdixYoJtPoTXqQWbFpE/JNJBJoNwTpxDHHiBJb9i8KvniZSpRF6yz+hL7uHklCESJe78Jp0hrcHYn+3mng4Sei0mWiNW+I5EaXBGl38KPaXDxESLsIm5xBsOxg7uhNvwQ3gFGO3uwqn/Z8IL36cZK0G6K0uQF/2MInPJxPSahBrdS6sexMrto3iUDVyzpiCnhYgSLtvUtor51wLPy4gpFskDj8dd8di9LztJPUsvA7DiFTviL3gYtxknFCN1miD3lLspKaXxFn9Kvbim3CJEej6LFrrHmiOlHQNYq8Nw9qyALva4ZiHHk9swxKi0Z1UTeZjdr8fr805ioHRmzcWZ/3LGJ3vJNBmMHFR1pXiaeVKIBwcBiH93ZoxYwbvvPPOAZEe/dy7KcGB0C+LvHMkEvm5n2f+f8YCGQtkLJCxwO9iASmR2groKp0MrrQ6fjYDb+cyErFiTD1AsN6JOG36owdzfIrhBHgbV+Cue4JoUsfKaox1+MXE6h+CZQeIfvEgxu71xAR02/pSzFotcB2hYk6gF5dgf/syJbnfktXwZLwjTwc3QXzjKry1z5FTkK8YS93mAzDa9CfuQbB4K/HlT6NFv8as3QEvUAU7dzledhNCbS5Eq7pXi0GCHaFatnaupWTNdLyC74nUPR2t2Rk4n9+FVlyAV7sxeq2e2BunCL8zbk5NgsfdqFhtDc8lvu1L7DWPK76XQPPL0eofqRy7NGCZ2z+nePVT6E6ASJPueDUOhxWPKSp8u157jI6XoAm4d9tSYu+OI3Dao5iHNMVxNQxpla5kMMVflUGQ91EAhgsXLmTWrFll+gu/9j3t1q0bAwYMyAQHv9aQmeMzFshYIGOBX2kBIeQSnIvlJYljqR4gLRHHphDTy8ENBX06YSVSJnirJK4QwggWSnDHAmyS9mvdRsTZXE9q7QrBrTAuZfqzmoct8vGeRBiWgr+4hpB/Cf7FRRMqZqF414ULJQc9IC2LQkImInQJRL7NDYQVmZgMjaRSZP3Jrtz1SEjnjxtV3DSaLtTPAUVzrkoFmq5YDwVuI40+CV0ImKUdWVRwhQrPZ0szpT3ZCPpYH2EvLRVWcYSCWrErqDZQpSrp2sRMk1B0B65xCOz+iuiXM8jqPhrXzFLHerpPhFaZxq8OEEofRjgPhBxJeBJcYaQ7iCE8Cr169aJnz54HcXTmkIwFMhbIWCBjgYwFKqcFnFge3ns34zXrjbnqBZyOV2A26YyNULin4pj/tRJD+lSUlJSwbNky5syZs19Og31NnXAmSNZA+BOqVi3P4Fc5pzpzVxkLZCyQsUDGAhkL/HILJO042obFJNc+iVW7L3qH/ri6ZDh8ASilm1OBz+SXn/33+eVvlkGoGCisWrWKtWvXsnXrVvLy8iguLkbAjMIVINwHEgiIBHSLFi04+uijKzUJ0u9j+sxZMxbIWCBjgYwF/q9YIOkkCGAhglGiT6MFRG8l1RmhBO78lunKNH6XACH9AZXM7D64mFSve4p2uDIZJHMvGQtkLJCxQMYCGQv81hbwbIeY6Yvv6YJnMC1RjPGp6IVDR+RW/i9kEH5rw2bOl7FAxgIZC2QskLHA/44FfJG3yj5+9wxCZTdA5v4yFshYIGOBjAUyFshY4KcWyAQImbciY4GMBTIWyFggY4GMBX5igf8H+zp4wJSzS/AAAAAASUVORK5CYII=;" vertex="1" parent="1"><mxGeometry x="96.00002441406252" y="82.9999755859375" width="520" height="398" as="geometry"/></mxCell></root></mxGraphModel></diagram></mxfile>